<svg width="1440" height="680" viewBox="0 0 1440 680" fill="none" xmlns="http://www.w3.org/2000/svg">
<g clip-path="url(#clip0)">
<path d="M1440 -4080H0V3981H1440V-4080Z" fill="white"/>
<g filter="url(#filter0_f)">
<path d="M1017 260C1360.52 260 1639 -18.4789 1639 -362C1639 -705.521 1360.52 -984 1017 -984C673.479 -984 395 -705.521 395 -362C395 -18.4789 673.479 260 1017 260Z" fill="#00192E"/>
</g>
<g filter="url(#filter1_f)">
</g>
<g filter="url(#filter2_f)">
<path d="M287.5 1422C690.392 1422 1017 1095.39 1017 692.5C1017 289.608 690.392 -37 287.5 -37C-115.392 -37 -442 289.608 -442 692.5C-442 1095.39 -115.392 1422 287.5 1422Z" fill="#00192E"/>
</g>
<g filter="url(#filter3_f)">
<path d="M975 1180C1318.52 1180 1597 901.521 1597 558C1597 214.479 1318.52 -64 975 -64C631.479 -64 353 214.479 353 558C353 901.521 631.479 1180 975 1180Z" fill="#00192E"/>
</g>
<g filter="url(#filter4_f)">
</g>
<g filter="url(#filter5_f)">
</g>
<g filter="url(#filter6_f)">
<path d="M1144.5 2003C1543.53 2003 1867 1679.53 1867 1280.5C1867 881.474 1543.53 558 1144.5 558C745.474 558 422 881.474 422 1280.5C422 1679.53 745.474 2003 1144.5 2003Z" fill="#00192E"/>
</g>
<g filter="url(#filter7_f)">
</g>
<g filter="url(#filter8_f)">
</g>
<g filter="url(#filter9_f)">
</g>
</g>
<defs>
<filter id="filter0_f" x="-405" y="-1784" width="2844" height="2844" filterUnits="userSpaceOnUse" color-interpolation-filters="sRGB">
<feFlood flood-opacity="0" result="BackgroundImageFix"/>
<feBlend mode="normal" in="SourceGraphic" in2="BackgroundImageFix" result="shape"/>
<feGaussianBlur stdDeviation="400" result="effect1_foregroundBlur"/>
</filter>
<filter id="filter1_f" x="-1145" y="-2362" width="3244" height="3244" filterUnits="userSpaceOnUse" color-interpolation-filters="sRGB">
<feFlood flood-opacity="0" result="BackgroundImageFix"/>
<feBlend mode="normal" in="SourceGraphic" in2="BackgroundImageFix" result="shape"/>
<feGaussianBlur stdDeviation="500" result="effect1_foregroundBlur"/>
</filter>
<filter id="filter2_f" x="-1242" y="-837" width="3059" height="3059" filterUnits="userSpaceOnUse" color-interpolation-filters="sRGB">
<feFlood flood-opacity="0" result="BackgroundImageFix"/>
<feBlend mode="normal" in="SourceGraphic" in2="BackgroundImageFix" result="shape"/>
<feGaussianBlur stdDeviation="400" result="effect1_foregroundBlur"/>
</filter>
<filter id="filter3_f" x="-447" y="-864" width="2844" height="2844" filterUnits="userSpaceOnUse" color-interpolation-filters="sRGB">
<feFlood flood-opacity="0" result="BackgroundImageFix"/>
<feBlend mode="normal" in="SourceGraphic" in2="BackgroundImageFix" result="shape"/>
<feGaussianBlur stdDeviation="400" result="effect1_foregroundBlur"/>
</filter>
<filter id="filter4_f" x="-1122" y="78" width="2854" height="2854" filterUnits="userSpaceOnUse" color-interpolation-filters="sRGB">
<feFlood flood-opacity="0" result="BackgroundImageFix"/>
<feBlend mode="normal" in="SourceGraphic" in2="BackgroundImageFix" result="shape"/>
<feGaussianBlur stdDeviation="450" result="effect1_foregroundBlur"/>
</filter>
<filter id="filter5_f" x="-1122" y="513" width="2854" height="2854" filterUnits="userSpaceOnUse" color-interpolation-filters="sRGB">
<feFlood flood-opacity="0" result="BackgroundImageFix"/>
<feBlend mode="normal" in="SourceGraphic" in2="BackgroundImageFix" result="shape"/>
<feGaussianBlur stdDeviation="450" result="effect1_foregroundBlur"/>
</filter>
<filter id="filter6_f" x="-578" y="-442" width="3445" height="3445" filterUnits="userSpaceOnUse" color-interpolation-filters="sRGB">
<feFlood flood-opacity="0" result="BackgroundImageFix"/>
<feBlend mode="normal" in="SourceGraphic" in2="BackgroundImageFix" result="shape"/>
<feGaussianBlur stdDeviation="500" result="effect1_foregroundBlur"/>
</filter>
<filter id="filter7_f" x="-985" y="442" width="3411" height="3411" filterUnits="userSpaceOnUse" color-interpolation-filters="sRGB">
<feFlood flood-opacity="0" result="BackgroundImageFix"/>
<feBlend mode="normal" in="SourceGraphic" in2="BackgroundImageFix" result="shape"/>
<feGaussianBlur stdDeviation="450" result="effect1_foregroundBlur"/>
</filter>
<filter id="filter8_f" x="-324" y="-2970" width="3215" height="3215" filterUnits="userSpaceOnUse" color-interpolation-filters="sRGB">
<feFlood flood-opacity="0" result="BackgroundImageFix"/>
<feBlend mode="normal" in="SourceGraphic" in2="BackgroundImageFix" result="shape"/>
<feGaussianBlur stdDeviation="450" result="effect1_foregroundBlur"/>
</filter>
<filter id="filter9_f" x="-1359" y="-2352" width="2963" height="2963" filterUnits="userSpaceOnUse" color-interpolation-filters="sRGB">
<feFlood flood-opacity="0" result="BackgroundImageFix"/>
<feBlend mode="normal" in="SourceGraphic" in2="BackgroundImageFix" result="shape"/>
<feGaussianBlur stdDeviation="450" result="effect1_foregroundBlur"/>
</filter>
<clipPath id="clip0">
<rect width="1440" height="680" fill="white"/>
</clipPath>
</defs>
</svg>
