<svg width="1935" height="621" viewBox="0 0 1935 621" fill="none" xmlns="http://www.w3.org/2000/svg">
<path d="M190.512 320.504V311.6H206.024V352.48H196.056V320.504H190.512ZM240.122 313.168C244.266 313.168 247.887 313.99 250.986 315.632C254.085 317.275 256.474 319.59 258.154 322.576C259.871 325.526 260.73 328.942 260.73 332.824C260.73 336.67 259.871 340.086 258.154 343.072C256.474 346.059 254.066 348.374 250.93 350.016C247.831 351.659 244.229 352.48 240.122 352.48H225.394V313.168H240.122ZM239.506 344.192C243.127 344.192 245.946 343.203 247.962 341.224C249.978 339.246 250.986 336.446 250.986 332.824C250.986 329.203 249.978 326.384 247.962 324.368C245.946 322.352 243.127 321.344 239.506 321.344H234.97V344.192H239.506ZM264.177 336.8C264.177 333.59 264.775 330.771 265.969 328.344C267.201 325.918 268.863 324.051 270.953 322.744C273.044 321.438 275.377 320.784 277.953 320.784C280.156 320.784 282.079 321.232 283.721 322.128C285.401 323.024 286.689 324.2 287.585 325.656V321.232H297.161V352.48H287.585V348.056C286.652 349.512 285.345 350.688 283.665 351.584C282.023 352.48 280.1 352.928 277.897 352.928C275.359 352.928 273.044 352.275 270.953 350.968C268.863 349.624 267.201 347.739 265.969 345.312C264.775 342.848 264.177 340.011 264.177 336.8ZM287.585 336.856C287.585 334.467 286.913 332.582 285.569 331.2C284.263 329.819 282.657 329.128 280.753 329.128C278.849 329.128 277.225 329.819 275.881 331.2C274.575 332.544 273.921 334.411 273.921 336.8C273.921 339.19 274.575 341.094 275.881 342.512C277.225 343.894 278.849 344.584 280.753 344.584C282.657 344.584 284.263 343.894 285.569 342.512C286.913 341.131 287.585 339.246 287.585 336.856ZM336.009 321.232L316.409 367.32H306.105L313.273 351.416L300.561 321.232H311.257L318.481 340.776L325.649 321.232H336.009ZM196.255 397.168L186.008 436.48H174.416L168.144 410.608L161.648 436.48H150.056L140.088 397.168H150.336L155.992 425.784L162.992 397.168H173.52L180.24 425.784L185.952 397.168H196.255ZM230.514 420.352C230.514 421.248 230.458 422.182 230.346 423.152H208.674C208.823 425.094 209.439 426.587 210.522 427.632C211.642 428.64 213.005 429.144 214.61 429.144C216.999 429.144 218.661 428.136 219.594 426.12H229.786C229.263 428.174 228.311 430.022 226.93 431.664C225.586 433.307 223.887 434.595 221.834 435.528C219.781 436.462 217.485 436.928 214.946 436.928C211.885 436.928 209.159 436.275 206.77 434.968C204.381 433.662 202.514 431.795 201.17 429.368C199.826 426.942 199.154 424.104 199.154 420.856C199.154 417.608 199.807 414.771 201.114 412.344C202.458 409.918 204.325 408.051 206.714 406.744C209.103 405.438 211.847 404.784 214.946 404.784C217.97 404.784 220.658 405.419 223.01 406.688C225.362 407.958 227.191 409.768 228.498 412.12C229.842 414.472 230.514 417.216 230.514 420.352ZM220.714 417.832C220.714 416.19 220.154 414.883 219.034 413.912C217.914 412.942 216.514 412.456 214.834 412.456C213.229 412.456 211.866 412.923 210.746 413.856C209.663 414.79 208.991 416.115 208.73 417.832H220.714ZM245.142 409.656C246.038 408.2 247.326 407.024 249.006 406.128C250.686 405.232 252.608 404.784 254.774 404.784C257.35 404.784 259.683 405.438 261.774 406.744C263.864 408.051 265.507 409.918 266.702 412.344C267.934 414.771 268.55 417.59 268.55 420.8C268.55 424.011 267.934 426.848 266.702 429.312C265.507 431.739 263.864 433.624 261.774 434.968C259.683 436.275 257.35 436.928 254.774 436.928C252.571 436.928 250.648 436.499 249.006 435.64C247.363 434.744 246.075 433.568 245.142 432.112V436.48H235.566V395.04H245.142V409.656ZM258.806 420.8C258.806 418.411 258.134 416.544 256.79 415.2C255.483 413.819 253.859 413.128 251.918 413.128C250.014 413.128 248.39 413.819 247.046 415.2C245.739 416.582 245.086 418.467 245.086 420.856C245.086 423.246 245.739 425.131 247.046 426.512C248.39 427.894 250.014 428.584 251.918 428.584C253.822 428.584 255.446 427.894 256.79 426.512C258.134 425.094 258.806 423.19 258.806 420.8ZM278.39 401.984C276.71 401.984 275.328 401.499 274.246 400.528C273.2 399.52 272.678 398.288 272.678 396.832C272.678 395.339 273.2 394.107 274.246 393.136C275.328 392.128 276.71 391.624 278.39 391.624C280.032 391.624 281.376 392.128 282.422 393.136C283.504 394.107 284.046 395.339 284.046 396.832C284.046 398.288 283.504 399.52 282.422 400.528C281.376 401.499 280.032 401.984 278.39 401.984ZM283.15 405.232V436.48H273.574V405.232H283.15ZM309.129 404.896C312.788 404.896 315.7 406.091 317.865 408.48C320.068 410.832 321.169 414.08 321.169 418.224V436.48H311.649V419.512C311.649 417.422 311.108 415.798 310.025 414.64C308.943 413.483 307.487 412.904 305.657 412.904C303.828 412.904 302.372 413.483 301.289 414.64C300.207 415.798 299.665 417.422 299.665 419.512V436.48H290.089V405.232H299.665V409.376C300.636 407.995 301.943 406.912 303.585 406.128C305.228 405.307 307.076 404.896 309.129 404.896ZM325.92 420.8C325.92 417.59 326.517 414.771 327.712 412.344C328.944 409.918 330.605 408.051 332.696 406.744C334.786 405.438 337.12 404.784 339.696 404.784C341.898 404.784 343.821 405.232 345.464 406.128C347.144 407.024 348.432 408.2 349.328 409.656V405.232H358.904V436.48H349.328V432.056C348.394 433.512 347.088 434.688 345.408 435.584C343.765 436.48 341.842 436.928 339.64 436.928C337.101 436.928 334.786 436.275 332.696 434.968C330.605 433.624 328.944 431.739 327.712 429.312C326.517 426.848 325.92 424.011 325.92 420.8ZM349.328 420.856C349.328 418.467 348.656 416.582 347.312 415.2C346.005 413.819 344.4 413.128 342.496 413.128C340.592 413.128 338.968 413.819 337.624 415.2C336.317 416.544 335.664 418.411 335.664 420.8C335.664 423.19 336.317 425.094 337.624 426.512C338.968 427.894 340.592 428.584 342.496 428.584C344.4 428.584 346.005 427.894 347.312 426.512C348.656 425.131 349.328 423.246 349.328 420.856ZM375.407 410.44C376.527 408.723 377.927 407.379 379.607 406.408C381.287 405.4 383.154 404.896 385.207 404.896V415.032H382.575C380.186 415.032 378.394 415.555 377.199 416.6C376.005 417.608 375.407 419.4 375.407 421.976V436.48H365.831V405.232H375.407V410.44Z" fill="#F1F4F8"/>
<path d="M148.749 496.584C148.749 498.6 148.141 500.472 146.925 502.2C145.741 503.928 144.189 505.208 142.269 506.04L150.093 519.528L143.805 519.48L136.701 506.856H129.021V519.48H123.837V485.88H138.141C139.901 485.88 141.581 486.312 143.181 487.176C144.813 488.04 146.141 489.272 147.165 490.872C148.221 492.472 148.749 494.376 148.749 496.584ZM137.277 490.872H129.021V501.864H138.621C140.157 501.864 141.341 501.32 142.173 500.232C143.037 499.144 143.469 497.912 143.469 496.536C143.469 494.776 142.861 493.4 141.645 492.408C140.429 491.384 138.973 490.872 137.277 490.872ZM169.116 493.848C171.356 493.848 173.356 494.408 175.116 495.528C176.908 496.616 178.316 498.136 179.34 500.088C180.364 502.04 180.876 504.296 180.876 506.856C180.876 509.384 180.364 511.64 179.34 513.624C178.316 515.576 176.924 517.112 175.164 518.232C173.404 519.352 171.436 519.912 169.26 519.912C167.468 519.912 165.836 519.528 164.364 518.76C162.924 517.992 161.788 517.112 160.956 516.12V530.04H155.964V494.232H160.956V497.928C161.692 496.872 162.796 495.928 164.268 495.096C165.74 494.264 167.356 493.848 169.116 493.848ZM168.444 498.408C166.94 498.408 165.596 498.776 164.412 499.512C163.26 500.248 162.348 501.256 161.676 502.536C161.036 503.784 160.716 505.224 160.716 506.856C160.716 508.456 161.036 509.896 161.676 511.176C162.348 512.456 163.26 513.48 164.412 514.248C165.596 514.984 166.94 515.352 168.444 515.352C169.948 515.352 171.276 514.984 172.428 514.248C173.58 513.48 174.476 512.456 175.116 511.176C175.788 509.896 176.124 508.456 176.124 506.856C176.124 505.224 175.788 503.784 175.116 502.536C174.476 501.256 173.58 500.248 172.428 499.512C171.276 498.776 169.948 498.408 168.444 498.408ZM207.557 514.488V519.48H187.253L185.669 515.544L195.941 503.976C197.253 502.504 198.453 501.032 199.541 499.56C200.629 498.088 201.173 496.584 201.173 495.048C201.173 493.448 200.709 492.248 199.781 491.448C198.853 490.616 197.637 490.2 196.133 490.2C195.397 490.2 194.581 490.424 193.685 490.872C192.789 491.32 191.941 492.024 191.141 492.984C190.341 493.944 189.701 495.208 189.221 496.776L185.237 494.28C186.101 491.304 187.589 489.08 189.701 487.608C191.845 486.136 194.197 485.4 196.757 485.4C198.581 485.4 200.229 485.784 201.701 486.552C203.173 487.288 204.341 488.344 205.205 489.72C206.069 491.096 206.501 492.744 206.501 494.664C206.501 496.872 205.829 499.064 204.485 501.24C203.173 503.384 201.557 505.512 199.637 507.624L193.349 514.488H207.557ZM221.422 519.816C218.99 519.816 216.894 519.256 215.134 518.136C213.406 517.016 212.014 515.624 210.958 513.96L213.838 510.744C214.99 512.024 216.126 513.064 217.246 513.864C218.398 514.664 219.79 515.064 221.422 515.064C222.766 515.064 223.966 514.776 225.022 514.2C226.078 513.592 226.91 512.792 227.518 511.8C228.126 510.808 228.43 509.72 228.43 508.536C228.43 507.224 228.126 506.072 227.518 505.08C226.942 504.056 226.142 503.256 225.118 502.68C224.126 502.104 223.022 501.816 221.806 501.816C220.174 501.816 218.798 502.072 217.678 502.584C216.59 503.096 215.726 503.512 215.086 503.832L212.35 500.136L214.318 485.88H232.462V490.68H218.446L217.342 498.12C218.078 497.8 218.926 497.544 219.886 497.352C220.846 497.128 221.79 497.016 222.718 497.016C224.67 497.016 226.446 497.464 228.046 498.36C229.678 499.256 230.99 500.536 231.982 502.2C232.974 503.832 233.47 505.784 233.47 508.056C233.47 510.296 232.926 512.312 231.838 514.104C230.782 515.864 229.342 517.256 227.518 518.28C225.726 519.304 223.694 519.816 221.422 519.816ZM241.839 520.008C240.719 520.008 239.887 519.688 239.343 519.048C238.799 518.376 238.527 517.496 238.527 516.408C238.527 515.48 238.799 514.648 239.343 513.912C239.887 513.176 240.719 512.808 241.839 512.808C242.959 512.808 243.791 513.144 244.335 513.816C244.879 514.456 245.151 515.32 245.151 516.408C245.151 517.304 244.879 518.136 244.335 518.904C243.791 519.64 242.959 520.008 241.839 520.008ZM261.833 519.96C259.145 519.96 256.873 519.224 255.017 517.752C253.193 516.248 251.817 514.2 250.889 511.608C249.961 509.016 249.497 506.04 249.497 502.68C249.497 499.32 249.961 496.344 250.889 493.752C251.817 491.16 253.193 489.128 255.017 487.656C256.873 486.152 259.145 485.4 261.833 485.4C264.553 485.4 266.825 486.152 268.649 487.656C270.473 489.128 271.849 491.16 272.777 493.752C273.737 496.344 274.217 499.32 274.217 502.68C274.217 506.04 273.737 509.016 272.777 511.608C271.849 514.2 270.473 516.248 268.649 517.752C266.825 519.224 264.553 519.96 261.833 519.96ZM261.833 515.256C264.137 515.256 265.929 514.168 267.209 511.992C268.521 509.816 269.177 506.712 269.177 502.68C269.177 498.648 268.521 495.544 267.209 493.368C265.929 491.192 264.137 490.104 261.833 490.104C259.529 490.104 257.721 491.192 256.409 493.368C255.129 495.544 254.489 498.648 254.489 502.68C254.489 506.712 255.129 509.816 256.409 511.992C257.721 514.168 259.529 515.256 261.833 515.256ZM290.989 519.96C288.301 519.96 286.029 519.224 284.173 517.752C282.349 516.248 280.973 514.2 280.045 511.608C279.117 509.016 278.653 506.04 278.653 502.68C278.653 499.32 279.117 496.344 280.045 493.752C280.973 491.16 282.349 489.128 284.173 487.656C286.029 486.152 288.301 485.4 290.989 485.4C293.709 485.4 295.981 486.152 297.805 487.656C299.629 489.128 301.005 491.16 301.933 493.752C302.893 496.344 303.373 499.32 303.373 502.68C303.373 506.04 302.893 509.016 301.933 511.608C301.005 514.2 299.629 516.248 297.805 517.752C295.981 519.224 293.709 519.96 290.989 519.96ZM290.989 515.256C293.293 515.256 295.085 514.168 296.365 511.992C297.677 509.816 298.333 506.712 298.333 502.68C298.333 498.648 297.677 495.544 296.365 493.368C295.085 491.192 293.293 490.104 290.989 490.104C288.685 490.104 286.877 491.192 285.565 493.368C284.285 495.544 283.645 498.648 283.645 502.68C283.645 506.712 284.285 509.816 285.565 511.992C286.877 514.168 288.685 515.256 290.989 515.256ZM320.146 519.96C317.458 519.96 315.186 519.224 313.33 517.752C311.506 516.248 310.13 514.2 309.202 511.608C308.274 509.016 307.81 506.04 307.81 502.68C307.81 499.32 308.274 496.344 309.202 493.752C310.13 491.16 311.506 489.128 313.33 487.656C315.186 486.152 317.458 485.4 320.146 485.4C322.866 485.4 325.138 486.152 326.962 487.656C328.786 489.128 330.162 491.16 331.09 493.752C332.05 496.344 332.53 499.32 332.53 502.68C332.53 506.04 332.05 509.016 331.09 511.608C330.162 514.2 328.786 516.248 326.962 517.752C325.138 519.224 322.866 519.96 320.146 519.96ZM320.146 515.256C322.45 515.256 324.242 514.168 325.522 511.992C326.834 509.816 327.49 506.712 327.49 502.68C327.49 498.648 326.834 495.544 325.522 493.368C324.242 491.192 322.45 490.104 320.146 490.104C317.842 490.104 316.034 491.192 314.722 493.368C313.442 495.544 312.802 498.648 312.802 502.68C312.802 506.712 313.442 509.816 314.722 511.992C316.034 514.168 317.842 515.256 320.146 515.256ZM345.366 519.288C345.366 520.632 345.062 521.896 344.454 523.08C343.846 524.264 343.046 525.288 342.054 526.152C341.094 527.016 340.07 527.656 338.982 528.072L337.158 525.864C338.278 525.224 339.19 524.488 339.894 523.656C340.598 522.824 340.95 522.104 340.95 521.496C340.95 521.016 340.806 520.584 340.518 520.2C340.23 519.848 339.91 519.512 339.558 519.192C339.206 518.84 338.886 518.456 338.598 518.04C338.31 517.592 338.166 517.048 338.166 516.408C338.166 515.608 338.454 514.984 339.03 514.536C339.606 514.088 340.294 513.864 341.094 513.864C342.182 513.864 343.158 514.328 344.022 515.256C344.918 516.184 345.366 517.528 345.366 519.288ZM362.099 519.96C359.411 519.96 357.139 519.224 355.283 517.752C353.459 516.248 352.083 514.2 351.155 511.608C350.227 509.016 349.763 506.04 349.763 502.68C349.763 499.32 350.227 496.344 351.155 493.752C352.083 491.16 353.459 489.128 355.283 487.656C357.139 486.152 359.411 485.4 362.099 485.4C364.819 485.4 367.091 486.152 368.915 487.656C370.739 489.128 372.115 491.16 373.043 493.752C374.003 496.344 374.483 499.32 374.483 502.68C374.483 506.04 374.003 509.016 373.043 511.608C372.115 514.2 370.739 516.248 368.915 517.752C367.091 519.224 364.819 519.96 362.099 519.96ZM362.099 515.256C364.403 515.256 366.195 514.168 367.475 511.992C368.787 509.816 369.443 506.712 369.443 502.68C369.443 498.648 368.787 495.544 367.475 493.368C366.195 491.192 364.403 490.104 362.099 490.104C359.795 490.104 357.987 491.192 356.675 493.368C355.395 495.544 354.755 498.648 354.755 502.68C354.755 506.712 355.395 509.816 356.675 511.992C357.987 514.168 359.795 515.256 362.099 515.256ZM391.255 519.96C388.567 519.96 386.295 519.224 384.439 517.752C382.615 516.248 381.239 514.2 380.311 511.608C379.383 509.016 378.919 506.04 378.919 502.68C378.919 499.32 379.383 496.344 380.311 493.752C381.239 491.16 382.615 489.128 384.439 487.656C386.295 486.152 388.567 485.4 391.255 485.4C393.975 485.4 396.247 486.152 398.071 487.656C399.895 489.128 401.271 491.16 402.199 493.752C403.159 496.344 403.639 499.32 403.639 502.68C403.639 506.04 403.159 509.016 402.199 511.608C401.271 514.2 399.895 516.248 398.071 517.752C396.247 519.224 393.975 519.96 391.255 519.96ZM391.255 515.256C393.559 515.256 395.351 514.168 396.631 511.992C397.943 509.816 398.599 506.712 398.599 502.68C398.599 498.648 397.943 495.544 396.631 493.368C395.351 491.192 393.559 490.104 391.255 490.104C388.951 490.104 387.143 491.192 385.831 493.368C384.551 495.544 383.911 498.648 383.911 502.68C383.911 506.712 384.551 509.816 385.831 511.992C387.143 514.168 388.951 515.256 391.255 515.256Z" fill="#F1F4F8"/>
<g clip-path="url(#clip0)">
<path d="M289.279 141.189C344.093 141.189 340.043 141.177 340.887 141.21C340.391 139.317 339.406 137.526 337.925 136.044L322.896 121.016C319.649 117.769 314.663 116.824 310.489 118.668C308.248 119.659 305.577 119.159 303.843 117.425C302.109 115.692 301.61 113.021 302.6 110.779C304.443 106.606 303.5 101.62 300.251 98.3715L285.224 83.3434C280.769 78.8896 273.522 78.8893 269.067 83.3434L250.266 102.145C255.564 107.448 283.994 135.9 289.279 141.189Z" fill="#F1F4F8"/>
<path d="M243.258 109.153L211.222 141.189H275.263C275.147 141.072 272.696 138.619 243.258 109.153V109.153Z" fill="#F1F4F8"/>
<path d="M344.367 194.21C348.622 192.563 351.48 188.37 351.48 183.777V162.524C351.48 156.225 346.355 151.1 340.056 151.1H316.793V248.478H340.056C346.355 248.478 351.48 243.353 351.48 237.054V215.801C351.48 211.208 348.622 207.015 344.367 205.367C342.082 204.482 340.547 202.24 340.547 199.789C340.547 197.337 342.082 195.095 344.367 194.21V194.21Z" fill="#F1F4F8"/>
<path d="M183 162.524V183.777C183 188.37 185.859 192.563 190.113 194.21C192.398 195.095 193.933 197.337 193.933 199.789C193.933 202.24 192.398 204.482 190.113 205.367C185.858 207.015 183 211.208 183 215.801V237.054C183 243.353 188.125 248.478 194.424 248.478H306.883V151.1H194.424C188.125 151.1 183 156.224 183 162.524V162.524ZM217.687 174.149H292.017V184.059H217.687V174.149ZM217.687 193.97H292.017V203.881H217.687V193.97ZM217.687 213.791H292.017V223.702H217.687V213.791Z" fill="#F1F4F8"/>
</g>
<path d="M696.257 496.584C696.257 498.6 695.649 500.472 694.433 502.2C693.249 503.928 691.697 505.208 689.777 506.04L697.601 519.528L691.313 519.48L684.209 506.856H676.529V519.48H671.345V485.88H685.649C687.409 485.88 689.089 486.312 690.689 487.176C692.321 488.04 693.649 489.272 694.673 490.872C695.729 492.472 696.257 494.376 696.257 496.584ZM684.785 490.872H676.529V501.864H686.129C687.665 501.864 688.849 501.32 689.681 500.232C690.545 499.144 690.977 497.912 690.977 496.536C690.977 494.776 690.369 493.4 689.153 492.408C687.937 491.384 686.481 490.872 684.785 490.872ZM716.624 493.848C718.864 493.848 720.864 494.408 722.624 495.528C724.416 496.616 725.824 498.136 726.848 500.088C727.872 502.04 728.384 504.296 728.384 506.856C728.384 509.384 727.872 511.64 726.848 513.624C725.824 515.576 724.432 517.112 722.672 518.232C720.912 519.352 718.944 519.912 716.768 519.912C714.976 519.912 713.344 519.528 711.872 518.76C710.432 517.992 709.296 517.112 708.464 516.12V530.04H703.472V494.232H708.464V497.928C709.2 496.872 710.304 495.928 711.776 495.096C713.248 494.264 714.864 493.848 716.624 493.848ZM715.952 498.408C714.448 498.408 713.104 498.776 711.92 499.512C710.768 500.248 709.856 501.256 709.184 502.536C708.544 503.784 708.224 505.224 708.224 506.856C708.224 508.456 708.544 509.896 709.184 511.176C709.856 512.456 710.768 513.48 711.92 514.248C713.104 514.984 714.448 515.352 715.952 515.352C717.456 515.352 718.784 514.984 719.936 514.248C721.088 513.48 721.984 512.456 722.624 511.176C723.296 509.896 723.632 508.456 723.632 506.856C723.632 505.224 723.296 503.784 722.624 502.536C721.984 501.256 721.088 500.248 719.936 499.512C718.784 498.776 717.456 498.408 715.952 498.408ZM735.289 510.312C735.769 511.016 736.345 511.768 737.017 512.568C737.721 513.368 738.537 514.04 739.465 514.584C740.425 515.128 741.513 515.4 742.729 515.4C743.689 515.4 744.649 515.16 745.609 514.68C746.569 514.168 747.369 513.432 748.009 512.472C748.681 511.48 749.017 510.28 749.017 508.872C749.017 507.432 748.745 506.28 748.201 505.416C747.689 504.552 747.001 503.928 746.137 503.544C745.273 503.16 744.329 502.968 743.305 502.968C742.313 502.968 741.305 503.128 740.281 503.448C739.289 503.736 738.361 504.056 737.497 504.408L736.057 500.616L745.081 490.68H733.129V485.88H752.377L753.337 487.8L743.929 498.216C745.785 498.216 747.465 498.68 748.969 499.608C750.505 500.504 751.721 501.736 752.617 503.304C753.545 504.872 754.009 506.632 754.009 508.584C754.009 510.888 753.449 512.904 752.329 514.632C751.241 516.328 749.801 517.64 748.009 518.568C746.249 519.496 744.361 519.96 742.345 519.96C740.457 519.96 738.825 519.656 737.449 519.048C736.105 518.408 734.937 517.544 733.945 516.456C732.953 515.368 732.057 514.168 731.257 512.856L735.289 510.312ZM770.247 519.96C767.559 519.96 765.287 519.224 763.431 517.752C761.607 516.248 760.231 514.2 759.303 511.608C758.375 509.016 757.911 506.04 757.911 502.68C757.911 499.32 758.375 496.344 759.303 493.752C760.231 491.16 761.607 489.128 763.431 487.656C765.287 486.152 767.559 485.4 770.247 485.4C772.967 485.4 775.239 486.152 777.063 487.656C778.887 489.128 780.263 491.16 781.191 493.752C782.151 496.344 782.631 499.32 782.631 502.68C782.631 506.04 782.151 509.016 781.191 511.608C780.263 514.2 778.887 516.248 777.063 517.752C775.239 519.224 772.967 519.96 770.247 519.96ZM770.247 515.256C772.551 515.256 774.343 514.168 775.623 511.992C776.935 509.816 777.591 506.712 777.591 502.68C777.591 498.648 776.935 495.544 775.623 493.368C774.343 491.192 772.551 490.104 770.247 490.104C767.943 490.104 766.135 491.192 764.823 493.368C763.543 495.544 762.903 498.648 762.903 502.68C762.903 506.712 763.543 509.816 764.823 511.992C766.135 514.168 767.943 515.256 770.247 515.256ZM790.331 520.008C789.211 520.008 788.379 519.688 787.835 519.048C787.291 518.376 787.019 517.496 787.019 516.408C787.019 515.48 787.291 514.648 787.835 513.912C788.379 513.176 789.211 512.808 790.331 512.808C791.451 512.808 792.283 513.144 792.827 513.816C793.371 514.456 793.643 515.32 793.643 516.408C793.643 517.304 793.371 518.136 792.827 518.904C792.283 519.64 791.451 520.008 790.331 520.008ZM810.325 519.96C807.637 519.96 805.365 519.224 803.509 517.752C801.685 516.248 800.309 514.2 799.381 511.608C798.453 509.016 797.989 506.04 797.989 502.68C797.989 499.32 798.453 496.344 799.381 493.752C800.309 491.16 801.685 489.128 803.509 487.656C805.365 486.152 807.637 485.4 810.325 485.4C813.045 485.4 815.317 486.152 817.141 487.656C818.965 489.128 820.341 491.16 821.269 493.752C822.229 496.344 822.709 499.32 822.709 502.68C822.709 506.04 822.229 509.016 821.269 511.608C820.341 514.2 818.965 516.248 817.141 517.752C815.317 519.224 813.045 519.96 810.325 519.96ZM810.325 515.256C812.629 515.256 814.421 514.168 815.701 511.992C817.013 509.816 817.669 506.712 817.669 502.68C817.669 498.648 817.013 495.544 815.701 493.368C814.421 491.192 812.629 490.104 810.325 490.104C808.021 490.104 806.213 491.192 804.901 493.368C803.621 495.544 802.981 498.648 802.981 502.68C802.981 506.712 803.621 509.816 804.901 511.992C806.213 514.168 808.021 515.256 810.325 515.256ZM839.482 519.96C836.794 519.96 834.522 519.224 832.666 517.752C830.842 516.248 829.466 514.2 828.538 511.608C827.61 509.016 827.146 506.04 827.146 502.68C827.146 499.32 827.61 496.344 828.538 493.752C829.466 491.16 830.842 489.128 832.666 487.656C834.522 486.152 836.794 485.4 839.482 485.4C842.202 485.4 844.474 486.152 846.298 487.656C848.122 489.128 849.498 491.16 850.426 493.752C851.386 496.344 851.866 499.32 851.866 502.68C851.866 506.04 851.386 509.016 850.426 511.608C849.498 514.2 848.122 516.248 846.298 517.752C844.474 519.224 842.202 519.96 839.482 519.96ZM839.482 515.256C841.786 515.256 843.578 514.168 844.858 511.992C846.17 509.816 846.826 506.712 846.826 502.68C846.826 498.648 846.17 495.544 844.858 493.368C843.578 491.192 841.786 490.104 839.482 490.104C837.178 490.104 835.37 491.192 834.058 493.368C832.778 495.544 832.138 498.648 832.138 502.68C832.138 506.712 832.778 509.816 834.058 511.992C835.37 514.168 837.178 515.256 839.482 515.256ZM868.638 519.96C865.95 519.96 863.678 519.224 861.822 517.752C859.998 516.248 858.622 514.2 857.694 511.608C856.766 509.016 856.302 506.04 856.302 502.68C856.302 499.32 856.766 496.344 857.694 493.752C858.622 491.16 859.998 489.128 861.822 487.656C863.678 486.152 865.95 485.4 868.638 485.4C871.358 485.4 873.63 486.152 875.454 487.656C877.278 489.128 878.654 491.16 879.582 493.752C880.542 496.344 881.022 499.32 881.022 502.68C881.022 506.04 880.542 509.016 879.582 511.608C878.654 514.2 877.278 516.248 875.454 517.752C873.63 519.224 871.358 519.96 868.638 519.96ZM868.638 515.256C870.942 515.256 872.734 514.168 874.014 511.992C875.326 509.816 875.982 506.712 875.982 502.68C875.982 498.648 875.326 495.544 874.014 493.368C872.734 491.192 870.942 490.104 868.638 490.104C866.334 490.104 864.526 491.192 863.214 493.368C861.934 495.544 861.294 498.648 861.294 502.68C861.294 506.712 861.934 509.816 863.214 511.992C864.526 514.168 866.334 515.256 868.638 515.256ZM893.858 519.288C893.858 520.632 893.554 521.896 892.946 523.08C892.338 524.264 891.538 525.288 890.546 526.152C889.586 527.016 888.562 527.656 887.474 528.072L885.65 525.864C886.77 525.224 887.682 524.488 888.386 523.656C889.09 522.824 889.442 522.104 889.442 521.496C889.442 521.016 889.298 520.584 889.01 520.2C888.722 519.848 888.402 519.512 888.05 519.192C887.698 518.84 887.378 518.456 887.09 518.04C886.802 517.592 886.658 517.048 886.658 516.408C886.658 515.608 886.946 514.984 887.522 514.536C888.098 514.088 888.786 513.864 889.586 513.864C890.674 513.864 891.65 514.328 892.514 515.256C893.41 516.184 893.858 517.528 893.858 519.288ZM910.591 519.96C907.903 519.96 905.631 519.224 903.775 517.752C901.951 516.248 900.575 514.2 899.647 511.608C898.719 509.016 898.255 506.04 898.255 502.68C898.255 499.32 898.719 496.344 899.647 493.752C900.575 491.16 901.951 489.128 903.775 487.656C905.631 486.152 907.903 485.4 910.591 485.4C913.311 485.4 915.583 486.152 917.407 487.656C919.231 489.128 920.607 491.16 921.535 493.752C922.495 496.344 922.975 499.32 922.975 502.68C922.975 506.04 922.495 509.016 921.535 511.608C920.607 514.2 919.231 516.248 917.407 517.752C915.583 519.224 913.311 519.96 910.591 519.96ZM910.591 515.256C912.895 515.256 914.687 514.168 915.967 511.992C917.279 509.816 917.935 506.712 917.935 502.68C917.935 498.648 917.279 495.544 915.967 493.368C914.687 491.192 912.895 490.104 910.591 490.104C908.287 490.104 906.479 491.192 905.167 493.368C903.887 495.544 903.247 498.648 903.247 502.68C903.247 506.712 903.887 509.816 905.167 511.992C906.479 514.168 908.287 515.256 910.591 515.256ZM939.747 519.96C937.059 519.96 934.787 519.224 932.931 517.752C931.107 516.248 929.731 514.2 928.803 511.608C927.875 509.016 927.411 506.04 927.411 502.68C927.411 499.32 927.875 496.344 928.803 493.752C929.731 491.16 931.107 489.128 932.931 487.656C934.787 486.152 937.059 485.4 939.747 485.4C942.467 485.4 944.739 486.152 946.563 487.656C948.387 489.128 949.763 491.16 950.691 493.752C951.651 496.344 952.131 499.32 952.131 502.68C952.131 506.04 951.651 509.016 950.691 511.608C949.763 514.2 948.387 516.248 946.563 517.752C944.739 519.224 942.467 519.96 939.747 519.96ZM939.747 515.256C942.051 515.256 943.843 514.168 945.123 511.992C946.435 509.816 947.091 506.712 947.091 502.68C947.091 498.648 946.435 495.544 945.123 493.368C943.843 491.192 942.051 490.104 939.747 490.104C937.443 490.104 935.635 491.192 934.323 493.368C933.043 495.544 932.403 498.648 932.403 502.68C932.403 506.712 933.043 509.816 934.323 511.992C935.635 514.168 937.443 515.256 939.747 515.256Z" fill="#F1F4F8"/>
<path d="M718.102 344.808C719.371 343.8 719.95 343.334 719.838 343.408C723.497 340.384 726.371 337.902 728.462 335.96C730.59 334.019 732.382 331.984 733.838 329.856C735.294 327.728 736.022 325.656 736.022 323.64C736.022 322.11 735.667 320.915 734.958 320.056C734.249 319.198 733.185 318.768 731.766 318.768C730.347 318.768 729.227 319.31 728.406 320.392C727.622 321.438 727.23 322.931 727.23 324.872H717.99C718.065 321.699 718.737 319.048 720.006 316.92C721.313 314.792 723.011 313.224 725.102 312.216C727.23 311.208 729.582 310.704 732.158 310.704C736.601 310.704 739.942 311.843 742.182 314.12C744.459 316.398 745.598 319.366 745.598 323.024C745.598 327.019 744.235 330.734 741.51 334.168C738.785 337.566 735.313 340.888 731.094 344.136H746.214V351.92H718.102V344.808ZM777.977 313.168C782.121 313.168 785.743 313.99 788.841 315.632C791.94 317.275 794.329 319.59 796.009 322.576C797.727 325.526 798.585 328.942 798.585 332.824C798.585 336.67 797.727 340.086 796.009 343.072C794.329 346.059 791.921 348.374 788.785 350.016C785.687 351.659 782.084 352.48 777.977 352.48H763.249V313.168H777.977ZM777.361 344.192C780.983 344.192 783.801 343.203 785.817 341.224C787.833 339.246 788.841 336.446 788.841 332.824C788.841 329.203 787.833 326.384 785.817 324.368C783.801 322.352 780.983 321.344 777.361 321.344H772.825V344.192H777.361ZM802.033 336.8C802.033 333.59 802.63 330.771 803.825 328.344C805.057 325.918 806.718 324.051 808.809 322.744C810.9 321.438 813.233 320.784 815.809 320.784C818.012 320.784 819.934 321.232 821.577 322.128C823.257 323.024 824.545 324.2 825.441 325.656V321.232H835.017V352.48H825.441V348.056C824.508 349.512 823.201 350.688 821.521 351.584C819.878 352.48 817.956 352.928 815.753 352.928C813.214 352.928 810.9 352.275 808.809 350.968C806.718 349.624 805.057 347.739 803.825 345.312C802.63 342.848 802.033 340.011 802.033 336.8ZM825.441 336.856C825.441 334.467 824.769 332.582 823.425 331.2C822.118 329.819 820.513 329.128 818.609 329.128C816.705 329.128 815.081 329.819 813.737 331.2C812.43 332.544 811.777 334.411 811.777 336.8C811.777 339.19 812.43 341.094 813.737 342.512C815.081 343.894 816.705 344.584 818.609 344.584C820.513 344.584 822.118 343.894 823.425 342.512C824.769 341.131 825.441 339.246 825.441 336.856ZM873.865 321.232L854.265 367.32H843.961L851.129 351.416L838.417 321.232H849.113L856.337 340.776L863.505 321.232H873.865ZM890.039 352.928C887.314 352.928 884.887 352.462 882.759 351.528C880.631 350.595 878.951 349.326 877.719 347.72C876.487 346.078 875.797 344.248 875.647 342.232H885.111C885.223 343.315 885.727 344.192 886.623 344.864C887.519 345.536 888.621 345.872 889.927 345.872C891.122 345.872 892.037 345.648 892.671 345.2C893.343 344.715 893.679 344.099 893.679 343.352C893.679 342.456 893.213 341.803 892.279 341.392C891.346 340.944 889.834 340.459 887.743 339.936C885.503 339.414 883.637 338.872 882.143 338.312C880.65 337.715 879.362 336.8 878.279 335.568C877.197 334.299 876.655 332.6 876.655 330.472C876.655 328.68 877.141 327.056 878.111 325.6C879.119 324.107 880.575 322.931 882.479 322.072C884.421 321.214 886.717 320.784 889.367 320.784C893.287 320.784 896.367 321.755 898.607 323.696C900.885 325.638 902.191 328.214 902.527 331.424H893.679C893.53 330.342 893.045 329.483 892.223 328.848C891.439 328.214 890.394 327.896 889.087 327.896C887.967 327.896 887.109 328.12 886.511 328.568C885.914 328.979 885.615 329.558 885.615 330.304C885.615 331.2 886.082 331.872 887.015 332.32C887.986 332.768 889.479 333.216 891.495 333.664C893.81 334.262 895.695 334.859 897.151 335.456C898.607 336.016 899.877 336.95 900.959 338.256C902.079 339.526 902.658 341.243 902.695 343.408C902.695 345.238 902.173 346.88 901.127 348.336C900.119 349.755 898.645 350.875 896.703 351.696C894.799 352.518 892.578 352.928 890.039 352.928ZM744.255 397.168L734.008 436.48H722.416L716.144 410.608L709.648 436.48H698.056L688.088 397.168H698.336L703.992 425.784L710.992 397.168H721.52L728.24 425.784L733.952 397.168H744.255ZM778.514 420.352C778.514 421.248 778.458 422.182 778.346 423.152H756.674C756.823 425.094 757.439 426.587 758.522 427.632C759.642 428.64 761.005 429.144 762.61 429.144C764.999 429.144 766.661 428.136 767.594 426.12H777.786C777.263 428.174 776.311 430.022 774.93 431.664C773.586 433.307 771.887 434.595 769.834 435.528C767.781 436.462 765.485 436.928 762.946 436.928C759.885 436.928 757.159 436.275 754.77 434.968C752.381 433.662 750.514 431.795 749.17 429.368C747.826 426.942 747.154 424.104 747.154 420.856C747.154 417.608 747.807 414.771 749.114 412.344C750.458 409.918 752.325 408.051 754.714 406.744C757.103 405.438 759.847 404.784 762.946 404.784C765.97 404.784 768.658 405.419 771.01 406.688C773.362 407.958 775.191 409.768 776.498 412.12C777.842 414.472 778.514 417.216 778.514 420.352ZM768.714 417.832C768.714 416.19 768.154 414.883 767.034 413.912C765.914 412.942 764.514 412.456 762.834 412.456C761.229 412.456 759.866 412.923 758.746 413.856C757.663 414.79 756.991 416.115 756.73 417.832H768.714ZM793.142 409.656C794.038 408.2 795.326 407.024 797.006 406.128C798.686 405.232 800.608 404.784 802.774 404.784C805.35 404.784 807.683 405.438 809.774 406.744C811.864 408.051 813.507 409.918 814.702 412.344C815.934 414.771 816.55 417.59 816.55 420.8C816.55 424.011 815.934 426.848 814.702 429.312C813.507 431.739 811.864 433.624 809.774 434.968C807.683 436.275 805.35 436.928 802.774 436.928C800.571 436.928 798.648 436.499 797.006 435.64C795.363 434.744 794.075 433.568 793.142 432.112V436.48H783.566V395.04H793.142V409.656ZM806.806 420.8C806.806 418.411 806.134 416.544 804.79 415.2C803.483 413.819 801.859 413.128 799.918 413.128C798.014 413.128 796.39 413.819 795.046 415.2C793.739 416.582 793.086 418.467 793.086 420.856C793.086 423.246 793.739 425.131 795.046 426.512C796.39 427.894 798.014 428.584 799.918 428.584C801.822 428.584 803.446 427.894 804.79 426.512C806.134 425.094 806.806 423.19 806.806 420.8ZM826.39 401.984C824.71 401.984 823.328 401.499 822.246 400.528C821.2 399.52 820.678 398.288 820.678 396.832C820.678 395.339 821.2 394.107 822.246 393.136C823.328 392.128 824.71 391.624 826.39 391.624C828.032 391.624 829.376 392.128 830.422 393.136C831.504 394.107 832.046 395.339 832.046 396.832C832.046 398.288 831.504 399.52 830.422 400.528C829.376 401.499 828.032 401.984 826.39 401.984ZM831.15 405.232V436.48H821.574V405.232H831.15ZM857.129 404.896C860.788 404.896 863.7 406.091 865.865 408.48C868.068 410.832 869.169 414.08 869.169 418.224V436.48H859.649V419.512C859.649 417.422 859.108 415.798 858.025 414.64C856.943 413.483 855.487 412.904 853.657 412.904C851.828 412.904 850.372 413.483 849.289 414.64C848.207 415.798 847.665 417.422 847.665 419.512V436.48H838.089V405.232H847.665V409.376C848.636 407.995 849.943 406.912 851.585 406.128C853.228 405.307 855.076 404.896 857.129 404.896ZM873.92 420.8C873.92 417.59 874.517 414.771 875.712 412.344C876.944 409.918 878.605 408.051 880.696 406.744C882.786 405.438 885.12 404.784 887.696 404.784C889.898 404.784 891.821 405.232 893.464 406.128C895.144 407.024 896.432 408.2 897.328 409.656V405.232H906.904V436.48H897.328V432.056C896.394 433.512 895.088 434.688 893.408 435.584C891.765 436.48 889.842 436.928 887.64 436.928C885.101 436.928 882.786 436.275 880.696 434.968C878.605 433.624 876.944 431.739 875.712 429.312C874.517 426.848 873.92 424.011 873.92 420.8ZM897.328 420.856C897.328 418.467 896.656 416.582 895.312 415.2C894.005 413.819 892.4 413.128 890.496 413.128C888.592 413.128 886.968 413.819 885.624 415.2C884.317 416.544 883.664 418.411 883.664 420.8C883.664 423.19 884.317 425.094 885.624 426.512C886.968 427.894 888.592 428.584 890.496 428.584C892.4 428.584 894.005 427.894 895.312 426.512C896.656 425.131 897.328 423.246 897.328 420.856ZM923.407 410.44C924.527 408.723 925.927 407.379 927.607 406.408C929.287 405.4 931.154 404.896 933.207 404.896V415.032H930.575C928.186 415.032 926.394 415.555 925.199 416.6C924.005 417.608 923.407 419.4 923.407 421.976V436.48H913.831V405.232H923.407V410.44Z" fill="#F1F4F8"/>
<g clip-path="url(#clip1)">
<path d="M735.757 141.189C790.571 141.189 786.522 141.177 787.366 141.21C786.87 139.317 785.884 137.526 784.403 136.044L769.375 121.016C766.127 117.769 761.142 116.824 756.967 118.668C754.726 119.659 752.055 119.159 750.321 117.425C748.588 115.692 748.088 113.021 749.078 110.779C750.922 106.606 749.978 101.62 746.73 98.3715L731.702 83.3434C727.247 78.8896 720 78.8893 715.546 83.3434L696.744 102.145C702.043 107.448 730.472 135.9 735.757 141.189Z" fill="#F1F4F8"/>
<path d="M689.736 109.153L657.701 141.189H721.741C721.625 141.072 719.174 138.619 689.736 109.153V109.153Z" fill="#F1F4F8"/>
<path d="M790.846 194.21C795.1 192.563 797.959 188.37 797.959 183.777V162.524C797.959 156.225 792.834 151.1 786.535 151.1H763.272V248.478H786.535C792.834 248.478 797.959 243.353 797.959 237.054V215.801C797.959 211.208 795.101 207.015 790.846 205.367C788.561 204.482 787.025 202.24 787.025 199.789C787.025 197.337 788.561 195.095 790.846 194.21V194.21Z" fill="#F1F4F8"/>
<path d="M629.478 162.524V183.777C629.478 188.37 632.337 192.563 636.591 194.21C638.877 195.095 640.412 197.337 640.412 199.789C640.412 202.24 638.876 204.482 636.591 205.367C632.337 207.015 629.478 211.208 629.478 215.801V237.054C629.478 243.353 634.604 248.478 640.903 248.478H753.361V151.1H640.903C634.604 151.1 629.478 156.224 629.478 162.524V162.524ZM664.166 174.149H738.495V184.059H664.166V174.149ZM664.166 193.97H738.495V203.881H664.166V193.97ZM664.166 213.791H738.495V223.702H664.166V213.791Z" fill="#F1F4F8"/>
</g>
<g clip-path="url(#clip2)">
<path d="M917.539 141.189C972.352 141.189 968.303 141.177 969.147 141.21C968.651 139.317 967.666 137.526 966.184 136.044L951.156 121.016C947.909 117.769 942.923 116.824 938.749 118.668C936.507 119.659 933.837 119.159 932.103 117.425C930.369 115.692 929.87 113.021 930.859 110.779C932.703 106.606 931.76 101.62 928.511 98.3715L913.483 83.3434C909.029 78.8896 901.782 78.8893 897.327 83.3434L878.525 102.145C883.824 107.448 912.254 135.9 917.539 141.189Z" fill="#F1F4F8"/>
<path d="M871.518 109.153L839.482 141.189H903.523C903.407 141.072 900.956 138.619 871.518 109.153V109.153Z" fill="#F1F4F8"/>
<path d="M972.627 194.21C976.882 192.563 979.74 188.37 979.74 183.777V162.524C979.74 156.225 974.615 151.1 968.316 151.1H945.053V248.478H968.316C974.615 248.478 979.74 243.353 979.74 237.054V215.801C979.74 211.208 976.882 207.015 972.627 205.367C970.342 204.482 968.807 202.24 968.807 199.789C968.807 197.337 970.342 195.095 972.627 194.21V194.21Z" fill="#F1F4F8"/>
<path d="M811.26 162.524V183.777C811.26 188.37 814.118 192.563 818.373 194.21C820.658 195.095 822.193 197.337 822.193 199.789C822.193 202.24 820.658 204.482 818.372 205.367C814.118 207.015 811.26 211.208 811.26 215.801V237.054C811.26 243.353 816.385 248.478 822.684 248.478H935.142V151.1H822.684C816.385 151.1 811.26 156.224 811.26 162.524V162.524ZM845.947 174.149H920.277V184.059H845.947V174.149ZM845.947 193.97H920.277V203.881H845.947V193.97ZM845.947 213.791H920.277V223.702H845.947V213.791Z" fill="#F1F4F8"/>
</g>
<path d="M1409.08 495.104C1409.08 497.12 1408.47 498.992 1407.25 500.72C1406.07 502.448 1404.52 503.728 1402.6 504.56L1410.42 518.048L1404.13 518L1397.03 505.376H1389.35V518H1384.16V484.4H1398.47C1400.23 484.4 1401.91 484.832 1403.51 485.696C1405.14 486.56 1406.47 487.792 1407.49 489.392C1408.55 490.992 1409.08 492.896 1409.08 495.104ZM1397.6 489.392H1389.35V500.384H1398.95C1400.48 500.384 1401.67 499.84 1402.5 498.752C1403.36 497.664 1403.8 496.432 1403.8 495.056C1403.8 493.296 1403.19 491.92 1401.97 490.928C1400.76 489.904 1399.3 489.392 1397.6 489.392ZM1429.44 492.368C1431.68 492.368 1433.68 492.928 1435.44 494.048C1437.24 495.136 1438.64 496.656 1439.67 498.608C1440.69 500.56 1441.2 502.816 1441.2 505.376C1441.2 507.904 1440.69 510.16 1439.67 512.144C1438.64 514.096 1437.25 515.632 1435.49 516.752C1433.73 517.872 1431.76 518.432 1429.59 518.432C1427.8 518.432 1426.16 518.048 1424.69 517.28C1423.25 516.512 1422.12 515.632 1421.28 514.64V528.56H1416.29V492.752H1421.28V496.448C1422.02 495.392 1423.12 494.448 1424.6 493.616C1426.07 492.784 1427.68 492.368 1429.44 492.368ZM1428.77 496.928C1427.27 496.928 1425.92 497.296 1424.74 498.032C1423.59 498.768 1422.68 499.776 1422 501.056C1421.36 502.304 1421.04 503.744 1421.04 505.376C1421.04 506.976 1421.36 508.416 1422 509.696C1422.68 510.976 1423.59 512 1424.74 512.768C1425.92 513.504 1427.27 513.872 1428.77 513.872C1430.28 513.872 1431.6 513.504 1432.76 512.768C1433.91 512 1434.8 510.976 1435.44 509.696C1436.12 508.416 1436.45 506.976 1436.45 505.376C1436.45 503.744 1436.12 502.304 1435.44 501.056C1434.8 499.776 1433.91 498.768 1432.76 498.032C1431.6 497.296 1430.28 496.928 1428.77 496.928ZM1460.01 518V508.88H1446.77L1444.56 504.56L1461.02 484.4H1465.01V504.128H1470.86V508.88H1465.01V518H1460.01ZM1450.65 504.128H1460.01V492.704L1450.65 504.128ZM1487.43 518.48C1484.74 518.48 1482.47 517.744 1480.61 516.272C1478.79 514.768 1477.41 512.72 1476.48 510.128C1475.55 507.536 1475.09 504.56 1475.09 501.2C1475.09 497.84 1475.55 494.864 1476.48 492.272C1477.41 489.68 1478.79 487.648 1480.61 486.176C1482.47 484.672 1484.74 483.92 1487.43 483.92C1490.15 483.92 1492.42 484.672 1494.24 486.176C1496.07 487.648 1497.44 489.68 1498.37 492.272C1499.33 494.864 1499.81 497.84 1499.81 501.2C1499.81 504.56 1499.33 507.536 1498.37 510.128C1497.44 512.72 1496.07 514.768 1494.24 516.272C1492.42 517.744 1490.15 518.48 1487.43 518.48ZM1487.43 513.776C1489.73 513.776 1491.52 512.688 1492.8 510.512C1494.11 508.336 1494.77 505.232 1494.77 501.2C1494.77 497.168 1494.11 494.064 1492.8 491.888C1491.52 489.712 1489.73 488.624 1487.43 488.624C1485.12 488.624 1483.31 489.712 1482 491.888C1480.72 494.064 1480.08 497.168 1480.08 501.2C1480.08 505.232 1480.72 508.336 1482 510.512C1483.31 512.688 1485.12 513.776 1487.43 513.776ZM1507.51 518.528C1506.39 518.528 1505.56 518.208 1505.02 517.568C1504.47 516.896 1504.2 516.016 1504.2 514.928C1504.2 514 1504.47 513.168 1505.02 512.432C1505.56 511.696 1506.39 511.328 1507.51 511.328C1508.63 511.328 1509.46 511.664 1510.01 512.336C1510.55 512.976 1510.82 513.84 1510.82 514.928C1510.82 515.824 1510.55 516.656 1510.01 517.424C1509.46 518.16 1508.63 518.528 1507.51 518.528ZM1527.5 518.48C1524.82 518.48 1522.54 517.744 1520.69 516.272C1518.86 514.768 1517.49 512.72 1516.56 510.128C1515.63 507.536 1515.17 504.56 1515.17 501.2C1515.17 497.84 1515.63 494.864 1516.56 492.272C1517.49 489.68 1518.86 487.648 1520.69 486.176C1522.54 484.672 1524.82 483.92 1527.5 483.92C1530.22 483.92 1532.5 484.672 1534.32 486.176C1536.14 487.648 1537.52 489.68 1538.45 492.272C1539.41 494.864 1539.89 497.84 1539.89 501.2C1539.89 504.56 1539.41 507.536 1538.45 510.128C1537.52 512.72 1536.14 514.768 1534.32 516.272C1532.5 517.744 1530.22 518.48 1527.5 518.48ZM1527.5 513.776C1529.81 513.776 1531.6 512.688 1532.88 510.512C1534.19 508.336 1534.85 505.232 1534.85 501.2C1534.85 497.168 1534.19 494.064 1532.88 491.888C1531.6 489.712 1529.81 488.624 1527.5 488.624C1525.2 488.624 1523.39 489.712 1522.08 491.888C1520.8 494.064 1520.16 497.168 1520.16 501.2C1520.16 505.232 1520.8 508.336 1522.08 510.512C1523.39 512.688 1525.2 513.776 1527.5 513.776ZM1556.66 518.48C1553.97 518.48 1551.7 517.744 1549.85 516.272C1548.02 514.768 1546.65 512.72 1545.72 510.128C1544.79 507.536 1544.33 504.56 1544.33 501.2C1544.33 497.84 1544.79 494.864 1545.72 492.272C1546.65 489.68 1548.02 487.648 1549.85 486.176C1551.7 484.672 1553.97 483.92 1556.66 483.92C1559.38 483.92 1561.65 484.672 1563.48 486.176C1565.3 487.648 1566.68 489.68 1567.61 492.272C1568.57 494.864 1569.05 497.84 1569.05 501.2C1569.05 504.56 1568.57 507.536 1567.61 510.128C1566.68 512.72 1565.3 514.768 1563.48 516.272C1561.65 517.744 1559.38 518.48 1556.66 518.48ZM1556.66 513.776C1558.97 513.776 1560.76 512.688 1562.04 510.512C1563.35 508.336 1564.01 505.232 1564.01 501.2C1564.01 497.168 1563.35 494.064 1562.04 491.888C1560.76 489.712 1558.97 488.624 1556.66 488.624C1554.36 488.624 1552.55 489.712 1551.24 491.888C1549.96 494.064 1549.32 497.168 1549.32 501.2C1549.32 505.232 1549.96 508.336 1551.24 510.512C1552.55 512.688 1554.36 513.776 1556.66 513.776ZM1585.82 518.48C1583.13 518.48 1580.86 517.744 1579 516.272C1577.18 514.768 1575.8 512.72 1574.87 510.128C1573.95 507.536 1573.48 504.56 1573.48 501.2C1573.48 497.84 1573.95 494.864 1574.87 492.272C1575.8 489.68 1577.18 487.648 1579 486.176C1580.86 484.672 1583.13 483.92 1585.82 483.92C1588.54 483.92 1590.81 484.672 1592.63 486.176C1594.46 487.648 1595.83 489.68 1596.76 492.272C1597.72 494.864 1598.2 497.84 1598.2 501.2C1598.2 504.56 1597.72 507.536 1596.76 510.128C1595.83 512.72 1594.46 514.768 1592.63 516.272C1590.81 517.744 1588.54 518.48 1585.82 518.48ZM1585.82 513.776C1588.12 513.776 1589.91 512.688 1591.19 510.512C1592.51 508.336 1593.16 505.232 1593.16 501.2C1593.16 497.168 1592.51 494.064 1591.19 491.888C1589.91 489.712 1588.12 488.624 1585.82 488.624C1583.51 488.624 1581.71 489.712 1580.39 491.888C1579.11 494.064 1578.47 497.168 1578.47 501.2C1578.47 505.232 1579.11 508.336 1580.39 510.512C1581.71 512.688 1583.51 513.776 1585.82 513.776ZM1611.04 517.808C1611.04 519.152 1610.73 520.416 1610.13 521.6C1609.52 522.784 1608.72 523.808 1607.73 524.672C1606.77 525.536 1605.74 526.176 1604.65 526.592L1602.83 524.384C1603.95 523.744 1604.86 523.008 1605.57 522.176C1606.27 521.344 1606.62 520.624 1606.62 520.016C1606.62 519.536 1606.48 519.104 1606.19 518.72C1605.9 518.368 1605.58 518.032 1605.23 517.712C1604.88 517.36 1604.56 516.976 1604.27 516.56C1603.98 516.112 1603.84 515.568 1603.84 514.928C1603.84 514.128 1604.13 513.504 1604.7 513.056C1605.28 512.608 1605.97 512.384 1606.77 512.384C1607.85 512.384 1608.83 512.848 1609.69 513.776C1610.59 514.704 1611.04 516.048 1611.04 517.808ZM1627.77 518.48C1625.08 518.48 1622.81 517.744 1620.95 516.272C1619.13 514.768 1617.75 512.72 1616.83 510.128C1615.9 507.536 1615.43 504.56 1615.43 501.2C1615.43 497.84 1615.9 494.864 1616.83 492.272C1617.75 489.68 1619.13 487.648 1620.95 486.176C1622.81 484.672 1625.08 483.92 1627.77 483.92C1630.49 483.92 1632.76 484.672 1634.59 486.176C1636.41 487.648 1637.79 489.68 1638.71 492.272C1639.67 494.864 1640.15 497.84 1640.15 501.2C1640.15 504.56 1639.67 507.536 1638.71 510.128C1637.79 512.72 1636.41 514.768 1634.59 516.272C1632.76 517.744 1630.49 518.48 1627.77 518.48ZM1627.77 513.776C1630.07 513.776 1631.87 512.688 1633.15 510.512C1634.46 508.336 1635.11 505.232 1635.11 501.2C1635.11 497.168 1634.46 494.064 1633.15 491.888C1631.87 489.712 1630.07 488.624 1627.77 488.624C1625.47 488.624 1623.66 489.712 1622.35 491.888C1621.07 494.064 1620.43 497.168 1620.43 501.2C1620.43 505.232 1621.07 508.336 1622.35 510.512C1623.66 512.688 1625.47 513.776 1627.77 513.776ZM1656.93 518.48C1654.24 518.48 1651.97 517.744 1650.11 516.272C1648.29 514.768 1646.91 512.72 1645.98 510.128C1645.05 507.536 1644.59 504.56 1644.59 501.2C1644.59 497.84 1645.05 494.864 1645.98 492.272C1646.91 489.68 1648.29 487.648 1650.11 486.176C1651.97 484.672 1654.24 483.92 1656.93 483.92C1659.65 483.92 1661.92 484.672 1663.74 486.176C1665.57 487.648 1666.94 489.68 1667.87 492.272C1668.83 494.864 1669.31 497.84 1669.31 501.2C1669.31 504.56 1668.83 507.536 1667.87 510.128C1666.94 512.72 1665.57 514.768 1663.74 516.272C1661.92 517.744 1659.65 518.48 1656.93 518.48ZM1656.93 513.776C1659.23 513.776 1661.02 512.688 1662.3 510.512C1663.61 508.336 1664.27 505.232 1664.27 501.2C1664.27 497.168 1663.61 494.064 1662.3 491.888C1661.02 489.712 1659.23 488.624 1656.93 488.624C1654.62 488.624 1652.81 489.712 1651.5 491.888C1650.22 494.064 1649.58 497.168 1649.58 501.2C1649.58 505.232 1650.22 508.336 1651.5 510.512C1652.81 512.688 1654.62 513.776 1656.93 513.776Z" fill="#F1F4F8"/>
<path d="M1433.1 343.328C1434.37 342.32 1434.95 341.853 1434.84 341.928C1438.5 338.904 1441.37 336.421 1443.46 334.48C1445.59 332.539 1447.38 330.504 1448.84 328.376C1450.29 326.248 1451.02 324.176 1451.02 322.16C1451.02 320.629 1450.67 319.435 1449.96 318.576C1449.25 317.717 1448.18 317.288 1446.77 317.288C1445.35 317.288 1444.23 317.829 1443.41 318.912C1442.62 319.957 1442.23 321.451 1442.23 323.392H1432.99C1433.06 320.219 1433.74 317.568 1435.01 315.44C1436.31 313.312 1438.01 311.744 1440.1 310.736C1442.23 309.728 1444.58 309.224 1447.16 309.224C1451.6 309.224 1454.94 310.363 1457.18 312.64C1459.46 314.917 1460.6 317.885 1460.6 321.544C1460.6 325.539 1459.24 329.253 1456.51 332.688C1453.78 336.085 1450.31 339.408 1446.09 342.656H1461.21V350.44H1433.1V343.328ZM1492.98 311.688C1497.12 311.688 1500.74 312.509 1503.84 314.152C1506.94 315.795 1509.33 318.109 1511.01 321.096C1512.73 324.045 1513.59 327.461 1513.59 331.344C1513.59 335.189 1512.73 338.605 1511.01 341.592C1509.33 344.579 1506.92 346.893 1503.79 348.536C1500.69 350.179 1497.08 351 1492.98 351H1478.25V311.688H1492.98ZM1492.36 342.712C1495.98 342.712 1498.8 341.723 1500.82 339.744C1502.83 337.765 1503.84 334.965 1503.84 331.344C1503.84 327.723 1502.83 324.904 1500.82 322.888C1498.8 320.872 1495.98 319.864 1492.36 319.864H1487.83V342.712H1492.36ZM1517.03 335.32C1517.03 332.109 1517.63 329.291 1518.82 326.864C1520.06 324.437 1521.72 322.571 1523.81 321.264C1525.9 319.957 1528.23 319.304 1530.81 319.304C1533.01 319.304 1534.93 319.752 1536.58 320.648C1538.26 321.544 1539.54 322.72 1540.44 324.176V319.752H1550.02V351H1540.44V346.576C1539.51 348.032 1538.2 349.208 1536.52 350.104C1534.88 351 1532.96 351.448 1530.75 351.448C1528.21 351.448 1525.9 350.795 1523.81 349.488C1521.72 348.144 1520.06 346.259 1518.82 343.832C1517.63 341.368 1517.03 338.531 1517.03 335.32ZM1540.44 335.376C1540.44 332.987 1539.77 331.101 1538.42 329.72C1537.12 328.339 1535.51 327.648 1533.61 327.648C1531.7 327.648 1530.08 328.339 1528.74 329.72C1527.43 331.064 1526.78 332.931 1526.78 335.32C1526.78 337.709 1527.43 339.613 1528.74 341.032C1530.08 342.413 1531.7 343.104 1533.61 343.104C1535.51 343.104 1537.12 342.413 1538.42 341.032C1539.77 339.651 1540.44 337.765 1540.44 335.376ZM1588.86 319.752L1569.26 365.84H1558.96L1566.13 349.936L1553.42 319.752H1564.11L1571.34 339.296L1578.5 319.752H1588.86ZM1605.04 351.448C1602.31 351.448 1599.89 350.981 1597.76 350.048C1595.63 349.115 1593.95 347.845 1592.72 346.24C1591.49 344.597 1590.8 342.768 1590.65 340.752H1600.11C1600.22 341.835 1600.73 342.712 1601.62 343.384C1602.52 344.056 1603.62 344.392 1604.93 344.392C1606.12 344.392 1607.04 344.168 1607.67 343.72C1608.34 343.235 1608.68 342.619 1608.68 341.872C1608.68 340.976 1608.21 340.323 1607.28 339.912C1606.35 339.464 1604.83 338.979 1602.74 338.456C1600.5 337.933 1598.64 337.392 1597.14 336.832C1595.65 336.235 1594.36 335.32 1593.28 334.088C1592.2 332.819 1591.66 331.12 1591.66 328.992C1591.66 327.2 1592.14 325.576 1593.11 324.12C1594.12 322.627 1595.58 321.451 1597.48 320.592C1599.42 319.733 1601.72 319.304 1604.37 319.304C1608.29 319.304 1611.37 320.275 1613.61 322.216C1615.88 324.157 1617.19 326.733 1617.53 329.944H1608.68C1608.53 328.861 1608.04 328.003 1607.22 327.368C1606.44 326.733 1605.39 326.416 1604.09 326.416C1602.97 326.416 1602.11 326.64 1601.51 327.088C1600.91 327.499 1600.62 328.077 1600.62 328.824C1600.62 329.72 1601.08 330.392 1602.02 330.84C1602.99 331.288 1604.48 331.736 1606.5 332.184C1608.81 332.781 1610.7 333.379 1612.15 333.976C1613.61 334.536 1614.88 335.469 1615.96 336.776C1617.08 338.045 1617.66 339.763 1617.7 341.928C1617.7 343.757 1617.17 345.4 1616.13 346.856C1615.12 348.275 1613.64 349.395 1611.7 350.216C1609.8 351.037 1607.58 351.448 1605.04 351.448ZM1281.93 395.688L1271.68 435H1260.09L1253.82 409.128L1247.32 435H1235.73L1225.76 395.688H1236.01L1241.67 424.304L1248.67 395.688H1259.2L1265.92 424.304L1271.63 395.688H1281.93ZM1316.19 418.872C1316.19 419.768 1316.13 420.701 1316.02 421.672H1294.35C1294.5 423.613 1295.12 425.107 1296.2 426.152C1297.32 427.16 1298.68 427.664 1300.29 427.664C1302.68 427.664 1304.34 426.656 1305.27 424.64H1315.46C1314.94 426.693 1313.99 428.541 1312.61 430.184C1311.26 431.827 1309.56 433.115 1307.51 434.048C1305.46 434.981 1303.16 435.448 1300.62 435.448C1297.56 435.448 1294.84 434.795 1292.45 433.488C1290.06 432.181 1288.19 430.315 1286.85 427.888C1285.5 425.461 1284.83 422.624 1284.83 419.376C1284.83 416.128 1285.48 413.291 1286.79 410.864C1288.13 408.437 1290 406.571 1292.39 405.264C1294.78 403.957 1297.52 403.304 1300.62 403.304C1303.65 403.304 1306.33 403.939 1308.69 405.208C1311.04 406.477 1312.87 408.288 1314.17 410.64C1315.52 412.992 1316.19 415.736 1316.19 418.872ZM1306.39 416.352C1306.39 414.709 1305.83 413.403 1304.71 412.432C1303.59 411.461 1302.19 410.976 1300.51 410.976C1298.9 410.976 1297.54 411.443 1296.42 412.376C1295.34 413.309 1294.67 414.635 1294.41 416.352H1306.39ZM1330.82 408.176C1331.71 406.72 1333 405.544 1334.68 404.648C1336.36 403.752 1338.28 403.304 1340.45 403.304C1343.03 403.304 1345.36 403.957 1347.45 405.264C1349.54 406.571 1351.18 408.437 1352.38 410.864C1353.61 413.291 1354.23 416.109 1354.23 419.32C1354.23 422.531 1353.61 425.368 1352.38 427.832C1351.18 430.259 1349.54 432.144 1347.45 433.488C1345.36 434.795 1343.03 435.448 1340.45 435.448C1338.25 435.448 1336.32 435.019 1334.68 434.16C1333.04 433.264 1331.75 432.088 1330.82 430.632V435H1321.24V393.56H1330.82V408.176ZM1344.48 419.32C1344.48 416.931 1343.81 415.064 1342.47 413.72C1341.16 412.339 1339.53 411.648 1337.59 411.648C1335.69 411.648 1334.07 412.339 1332.72 413.72C1331.41 415.101 1330.76 416.987 1330.76 419.376C1330.76 421.765 1331.41 423.651 1332.72 425.032C1334.07 426.413 1335.69 427.104 1337.59 427.104C1339.5 427.104 1341.12 426.413 1342.47 425.032C1343.81 423.613 1344.48 421.709 1344.48 419.32ZM1364.07 400.504C1362.39 400.504 1361 400.019 1359.92 399.048C1358.88 398.04 1358.35 396.808 1358.35 395.352C1358.35 393.859 1358.88 392.627 1359.92 391.656C1361 390.648 1362.39 390.144 1364.07 390.144C1365.71 390.144 1367.05 390.648 1368.1 391.656C1369.18 392.627 1369.72 393.859 1369.72 395.352C1369.72 396.808 1369.18 398.04 1368.1 399.048C1367.05 400.019 1365.71 400.504 1364.07 400.504ZM1368.83 403.752V435H1359.25V403.752H1368.83ZM1394.8 403.416C1398.46 403.416 1401.38 404.611 1403.54 407C1405.74 409.352 1406.84 412.6 1406.84 416.744V435H1397.32V418.032C1397.32 415.941 1396.78 414.317 1395.7 413.16C1394.62 412.003 1393.16 411.424 1391.33 411.424C1389.5 411.424 1388.05 412.003 1386.96 413.16C1385.88 414.317 1385.34 415.941 1385.34 418.032V435H1375.76V403.752H1385.34V407.896C1386.31 406.515 1387.62 405.432 1389.26 404.648C1390.9 403.827 1392.75 403.416 1394.8 403.416ZM1411.6 419.32C1411.6 416.109 1412.19 413.291 1413.39 410.864C1414.62 408.437 1416.28 406.571 1418.37 405.264C1420.46 403.957 1422.8 403.304 1425.37 403.304C1427.57 403.304 1429.5 403.752 1431.14 404.648C1432.82 405.544 1434.11 406.72 1435 408.176V403.752H1444.58V435H1435V430.576C1434.07 432.032 1432.76 433.208 1431.08 434.104C1429.44 435 1427.52 435.448 1425.32 435.448C1422.78 435.448 1420.46 434.795 1418.37 433.488C1416.28 432.144 1414.62 430.259 1413.39 427.832C1412.19 425.368 1411.6 422.531 1411.6 419.32ZM1435 419.376C1435 416.987 1434.33 415.101 1432.99 413.72C1431.68 412.339 1430.08 411.648 1428.17 411.648C1426.27 411.648 1424.64 412.339 1423.3 413.72C1421.99 415.064 1421.34 416.931 1421.34 419.32C1421.34 421.709 1421.99 423.613 1423.3 425.032C1424.64 426.413 1426.27 427.104 1428.17 427.104C1430.08 427.104 1431.68 426.413 1432.99 425.032C1434.33 423.651 1435 421.765 1435 419.376ZM1461.08 408.96C1462.2 407.243 1463.6 405.899 1465.28 404.928C1466.96 403.92 1468.83 403.416 1470.88 403.416V413.552H1468.25C1465.86 413.552 1464.07 414.075 1462.88 415.12C1461.68 416.128 1461.08 417.92 1461.08 420.496V435H1451.51V403.752H1461.08V408.96ZM1515.72 419.712H1505.98V429.68H1496.9V419.712H1487.16V411.144H1496.9V401.12H1505.98V411.144H1515.72V419.712ZM1588.45 395.688L1578.21 435H1566.61L1560.34 409.128L1553.85 435H1542.25L1532.29 395.688H1542.53L1548.19 424.304L1555.19 395.688H1565.72L1572.44 424.304L1578.15 395.688H1588.45ZM1607.48 435.448C1604.42 435.448 1601.66 434.795 1599.19 433.488C1596.77 432.181 1594.84 430.315 1593.43 427.888C1592.04 425.461 1591.35 422.624 1591.35 419.376C1591.35 416.165 1592.06 413.347 1593.48 410.92C1594.9 408.456 1596.84 406.571 1599.31 405.264C1601.77 403.957 1604.53 403.304 1607.59 403.304C1610.65 403.304 1613.42 403.957 1615.88 405.264C1618.35 406.571 1620.29 408.456 1621.71 410.92C1623.12 413.347 1623.83 416.165 1623.83 419.376C1623.83 422.587 1623.11 425.424 1621.65 427.888C1620.23 430.315 1618.27 432.181 1615.77 433.488C1613.31 434.795 1610.54 435.448 1607.48 435.448ZM1607.48 427.16C1609.31 427.16 1610.86 426.488 1612.13 425.144C1613.44 423.8 1614.09 421.877 1614.09 419.376C1614.09 416.875 1613.45 414.952 1612.19 413.608C1610.95 412.264 1609.42 411.592 1607.59 411.592C1605.73 411.592 1604.18 412.264 1602.95 413.608C1601.71 414.915 1601.1 416.837 1601.1 419.376C1601.1 421.877 1601.69 423.8 1602.89 425.144C1604.12 426.488 1605.65 427.16 1607.48 427.16ZM1638.49 408.96C1639.61 407.243 1641.01 405.899 1642.69 404.928C1644.37 403.92 1646.24 403.416 1648.29 403.416V413.552H1645.66C1643.27 413.552 1641.48 414.075 1640.28 415.12C1639.09 416.128 1638.49 417.92 1638.49 420.496V435H1628.91V403.752H1638.49V408.96ZM1671.96 435L1662.44 421.896V435H1652.87V393.56H1662.44V416.464L1671.91 403.752H1683.72L1670.73 419.432L1683.83 435H1671.96ZM1700.2 435.448C1697.47 435.448 1695.04 434.981 1692.92 434.048C1690.79 433.115 1689.11 431.845 1687.88 430.24C1686.64 428.597 1685.95 426.768 1685.8 424.752H1695.27C1695.38 425.835 1695.88 426.712 1696.78 427.384C1697.68 428.056 1698.78 428.392 1700.08 428.392C1701.28 428.392 1702.19 428.168 1702.83 427.72C1703.5 427.235 1703.84 426.619 1703.84 425.872C1703.84 424.976 1703.37 424.323 1702.44 423.912C1701.5 423.464 1699.99 422.979 1697.9 422.456C1695.66 421.933 1693.79 421.392 1692.3 420.832C1690.81 420.235 1689.52 419.32 1688.44 418.088C1687.35 416.819 1686.81 415.12 1686.81 412.992C1686.81 411.2 1687.3 409.576 1688.27 408.12C1689.28 406.627 1690.73 405.451 1692.64 404.592C1694.58 403.733 1696.87 403.304 1699.52 403.304C1703.44 403.304 1706.52 404.275 1708.76 406.216C1711.04 408.157 1712.35 410.733 1712.68 413.944H1703.84C1703.69 412.861 1703.2 412.003 1702.38 411.368C1701.6 410.733 1700.55 410.416 1699.24 410.416C1698.12 410.416 1697.27 410.64 1696.67 411.088C1696.07 411.499 1695.77 412.077 1695.77 412.824C1695.77 413.72 1696.24 414.392 1697.17 414.84C1698.14 415.288 1699.64 415.736 1701.65 416.184C1703.97 416.781 1705.85 417.379 1707.31 417.976C1708.76 418.536 1710.03 419.469 1711.12 420.776C1712.24 422.045 1712.81 423.763 1712.85 425.928C1712.85 427.757 1712.33 429.4 1711.28 430.856C1710.28 432.275 1708.8 433.395 1706.86 434.216C1704.96 435.037 1702.73 435.448 1700.2 435.448ZM1737.92 403.416C1741.5 403.416 1744.38 404.611 1746.54 407C1748.71 409.352 1749.79 412.6 1749.79 416.744V435H1740.27V418.032C1740.27 415.941 1739.73 414.317 1738.65 413.16C1737.56 412.003 1736.11 411.424 1734.28 411.424C1732.45 411.424 1730.99 412.003 1729.91 413.16C1728.83 414.317 1728.29 415.941 1728.29 418.032V435H1718.71V393.56H1728.29V407.952C1729.26 406.571 1730.58 405.469 1732.26 404.648C1733.94 403.827 1735.83 403.416 1737.92 403.416ZM1770.67 435.448C1767.61 435.448 1764.84 434.795 1762.38 433.488C1759.95 432.181 1758.03 430.315 1756.61 427.888C1755.23 425.461 1754.54 422.624 1754.54 419.376C1754.54 416.165 1755.25 413.347 1756.67 410.92C1758.09 408.456 1760.03 406.571 1762.49 405.264C1764.96 403.957 1767.72 403.304 1770.78 403.304C1773.84 403.304 1776.6 403.957 1779.07 405.264C1781.53 406.571 1783.47 408.456 1784.89 410.92C1786.31 413.347 1787.02 416.165 1787.02 419.376C1787.02 422.587 1786.29 425.424 1784.84 427.888C1783.42 430.315 1781.46 432.181 1778.96 433.488C1776.49 434.795 1773.73 435.448 1770.67 435.448ZM1770.67 427.16C1772.5 427.16 1774.05 426.488 1775.32 425.144C1776.62 423.8 1777.28 421.877 1777.28 419.376C1777.28 416.875 1776.64 414.952 1775.37 413.608C1774.14 412.264 1772.61 411.592 1770.78 411.592C1768.91 411.592 1767.36 412.264 1766.13 413.608C1764.9 414.915 1764.28 416.837 1764.28 419.376C1764.28 421.877 1764.88 423.8 1766.08 425.144C1767.31 426.488 1768.84 427.16 1770.67 427.16ZM1801.68 408.176C1802.61 406.72 1803.9 405.544 1805.54 404.648C1807.18 403.752 1809.11 403.304 1811.31 403.304C1813.88 403.304 1816.22 403.957 1818.31 405.264C1820.4 406.571 1822.04 408.437 1823.24 410.864C1824.47 413.291 1825.08 416.109 1825.08 419.32C1825.08 422.531 1824.47 425.368 1823.24 427.832C1822.04 430.259 1820.4 432.144 1818.31 433.488C1816.22 434.795 1813.88 435.448 1811.31 435.448C1809.14 435.448 1807.22 435 1805.54 434.104C1803.9 433.208 1802.61 432.051 1801.68 430.632V449.896H1792.1V403.752H1801.68V408.176ZM1815.34 419.32C1815.34 416.931 1814.67 415.064 1813.32 413.72C1812.02 412.339 1810.39 411.648 1808.45 411.648C1806.55 411.648 1804.92 412.339 1803.58 413.72C1802.27 415.101 1801.62 416.987 1801.62 419.376C1801.62 421.765 1802.27 423.651 1803.58 425.032C1804.92 426.413 1806.55 427.104 1808.45 427.104C1810.36 427.104 1811.98 426.413 1813.32 425.032C1814.67 423.613 1815.34 421.709 1815.34 419.32Z" fill="#F1F4F8"/>
<g clip-path="url(#clip3)">
<path d="M1282.28 141.189C1337.09 141.189 1333.04 141.177 1333.89 141.21C1333.39 139.317 1332.41 137.526 1330.92 136.044L1315.9 121.016C1312.65 117.769 1307.66 116.824 1303.49 118.668C1301.25 119.659 1298.58 119.159 1296.84 117.425C1295.11 115.692 1294.61 113.021 1295.6 110.779C1297.44 106.606 1296.5 101.62 1293.25 98.3715L1278.22 83.3434C1273.77 78.8896 1266.52 78.8893 1262.07 83.3434L1243.27 102.145C1248.56 107.448 1276.99 135.9 1282.28 141.189Z" fill="#F1F4F8"/>
<path d="M1236.26 109.153L1204.22 141.189H1268.26C1268.15 141.072 1265.7 138.619 1236.26 109.153V109.153Z" fill="#F1F4F8"/>
<path d="M1337.37 194.21C1341.62 192.563 1344.48 188.37 1344.48 183.777V162.524C1344.48 156.225 1339.36 151.1 1333.06 151.1H1309.79V248.478H1333.06C1339.36 248.478 1344.48 243.353 1344.48 237.054V215.801C1344.48 211.208 1341.62 207.015 1337.37 205.367C1335.08 204.482 1333.55 202.24 1333.55 199.789C1333.55 197.337 1335.08 195.095 1337.37 194.21V194.21Z" fill="#F1F4F8"/>
<path d="M1176 162.524V183.777C1176 188.37 1178.86 192.563 1183.11 194.21C1185.4 195.095 1186.93 197.337 1186.93 199.789C1186.93 202.24 1185.4 204.482 1183.11 205.367C1178.86 207.015 1176 211.208 1176 215.801V237.054C1176 243.353 1181.13 248.478 1187.42 248.478H1299.88V151.1H1187.42C1181.13 151.1 1176 156.224 1176 162.524V162.524ZM1210.69 174.149H1285.02V184.059H1210.69V174.149ZM1210.69 193.97H1285.02V203.881H1210.69V193.97ZM1210.69 213.791H1285.02V223.702H1210.69V213.791Z" fill="#F1F4F8"/>
</g>
<g clip-path="url(#clip4)">
<path d="M1464.06 141.189C1518.87 141.189 1514.82 141.177 1515.67 141.21C1515.17 139.317 1514.19 137.526 1512.71 136.044L1497.68 121.016C1494.43 117.769 1489.44 116.824 1485.27 118.668C1483.03 119.659 1480.36 119.159 1478.62 117.425C1476.89 115.692 1476.39 113.021 1477.38 110.779C1479.22 106.606 1478.28 101.62 1475.03 98.3715L1460.01 83.3434C1455.55 78.8896 1448.3 78.8893 1443.85 83.3434L1425.05 102.145C1430.35 107.448 1458.78 135.9 1464.06 141.189Z" fill="#F1F4F8"/>
<path d="M1418.04 109.153L1386 141.189H1450.04C1449.93 141.072 1447.48 138.619 1418.04 109.153V109.153Z" fill="#F1F4F8"/>
<path d="M1519.15 194.21C1523.4 192.563 1526.26 188.37 1526.26 183.777V162.524C1526.26 156.225 1521.14 151.1 1514.84 151.1H1491.57V248.478H1514.84C1521.14 248.478 1526.26 243.353 1526.26 237.054V215.801C1526.26 211.208 1523.4 207.015 1519.15 205.367C1516.86 204.482 1515.33 202.24 1515.33 199.789C1515.33 197.337 1516.86 195.095 1519.15 194.21V194.21Z" fill="#F1F4F8"/>
<path d="M1357.78 162.524V183.777C1357.78 188.37 1360.64 192.563 1364.89 194.21C1367.18 195.095 1368.71 197.337 1368.71 199.789C1368.71 202.24 1367.18 204.482 1364.89 205.367C1360.64 207.015 1357.78 211.208 1357.78 215.801V237.054C1357.78 243.353 1362.91 248.478 1369.21 248.478H1481.66V151.1H1369.21C1362.91 151.1 1357.78 156.224 1357.78 162.524V162.524ZM1392.47 174.149H1466.8V184.059H1392.47V174.149ZM1392.47 193.97H1466.8V203.881H1392.47V193.97ZM1392.47 213.791H1466.8V223.702H1392.47V213.791Z" fill="#F1F4F8"/>
</g>
<g clip-path="url(#clip5)">
<path d="M1792.54 141.188C1847.35 141.188 1843.3 141.176 1844.15 141.209C1843.65 139.316 1842.67 137.525 1841.19 136.043L1826.16 121.015C1822.91 117.768 1817.93 116.823 1813.75 118.667C1811.51 119.658 1808.84 119.158 1807.1 117.424C1805.37 115.691 1804.87 113.02 1805.86 110.778C1807.7 106.605 1806.76 101.619 1803.51 98.3706L1788.49 83.3424C1784.03 78.8886 1776.78 78.8883 1772.33 83.3424L1753.53 102.144C1758.83 107.447 1787.26 135.899 1792.54 141.188Z" fill="#F1F4F8"/>
<path d="M1746.52 109.152L1714.48 141.188H1778.52C1778.41 141.071 1775.96 138.618 1746.52 109.152V109.152Z" fill="#F1F4F8"/>
<path d="M1847.63 194.209C1851.88 192.562 1854.74 188.369 1854.74 183.776V162.523C1854.74 156.224 1849.62 151.099 1843.32 151.099H1820.05V248.477H1843.32C1849.62 248.477 1854.74 243.352 1854.74 237.053V215.8C1854.74 211.207 1851.88 207.014 1847.63 205.366C1845.34 204.481 1843.81 202.239 1843.81 199.788C1843.81 197.336 1845.34 195.094 1847.63 194.209V194.209Z" fill="#F1F4F8"/>
<path d="M1686.26 162.523V183.776C1686.26 188.369 1689.12 192.562 1693.37 194.209C1695.66 195.094 1697.19 197.336 1697.19 199.788C1697.19 202.239 1695.66 204.481 1693.37 205.366C1689.12 207.014 1686.26 211.207 1686.26 215.8V237.053C1686.26 243.352 1691.39 248.477 1697.69 248.477H1810.14V151.099H1697.69C1691.39 151.099 1686.26 156.223 1686.26 162.523V162.523ZM1720.95 174.148H1795.28V184.058H1720.95V174.148ZM1720.95 193.969H1795.28V203.88H1720.95V193.969ZM1720.95 213.79H1795.28V223.701H1720.95V213.79Z" fill="#F1F4F8"/>
</g>
<path d="M1636.96 166.562C1638.34 166.562 1639.52 167.041 1640.47 167.999C1641.54 168.957 1642.07 170.127 1642.07 171.51C1642.07 172.894 1641.59 174.117 1640.63 175.181C1639.67 176.139 1638.45 176.618 1636.96 176.618H1608.07V205.348C1608.07 206.838 1607.59 208.062 1606.64 209.019C1605.68 209.977 1604.51 210.456 1603.12 210.456C1601.74 210.456 1600.57 209.977 1599.61 209.019C1598.65 207.955 1598.18 206.732 1598.18 205.348V176.618H1569.29C1567.9 176.618 1566.68 176.139 1565.61 175.181C1564.66 174.117 1564.18 172.894 1564.18 171.51C1564.18 170.127 1564.66 168.957 1565.61 167.999C1566.68 167.041 1567.9 166.562 1569.29 166.562H1598.18V137.832C1598.18 136.342 1598.65 135.119 1599.61 134.161C1600.57 133.097 1601.74 132.565 1603.12 132.565C1604.51 132.565 1605.68 133.097 1606.64 134.161C1607.59 135.119 1608.07 136.342 1608.07 137.832V166.562H1636.96Z" fill="#F1F4F8"/>
<defs>
<clipPath id="clip0">
<rect width="168.48" height="168.48" fill="white" transform="translate(183 80)"/>
</clipPath>
<clipPath id="clip1">
<rect width="168.48" height="168.48" fill="white" transform="translate(629.479 80)"/>
</clipPath>
<clipPath id="clip2">
<rect width="168.48" height="168.48" fill="white" transform="translate(811.26 80)"/>
</clipPath>
<clipPath id="clip3">
<rect width="168.48" height="168.48" fill="white" transform="translate(1176 80)"/>
</clipPath>
<clipPath id="clip4">
<rect width="168.48" height="168.48" fill="white" transform="translate(1357.78 80)"/>
</clipPath>
<clipPath id="clip5">
<rect width="168.48" height="168.48" fill="white" transform="translate(1686.26 80)"/>
</clipPath>
</defs>
</svg>
