<svg width="1387" height="621" viewBox="0 0 1387 621" fill="none" xmlns="http://www.w3.org/2000/svg">
<path d="M172.193 355.168L161.945 394.48H150.353L144.081 368.608L137.585 394.48H125.993L116.025 355.168H126.273L131.929 383.784L138.929 355.168H149.457L156.177 383.784L161.889 355.168H172.193ZM191.219 394.928C188.158 394.928 185.395 394.275 182.931 392.968C180.505 391.662 178.582 389.795 177.163 387.368C175.782 384.942 175.091 382.104 175.091 378.856C175.091 375.646 175.801 372.827 177.219 370.4C178.638 367.936 180.579 366.051 183.043 364.744C185.507 363.438 188.27 362.784 191.331 362.784C194.393 362.784 197.155 363.438 199.619 364.744C202.083 366.051 204.025 367.936 205.443 370.4C206.862 372.827 207.571 375.646 207.571 378.856C207.571 382.067 206.843 384.904 205.387 387.368C203.969 389.795 202.009 391.662 199.507 392.968C197.043 394.275 194.281 394.928 191.219 394.928ZM191.219 386.64C193.049 386.64 194.598 385.968 195.867 384.624C197.174 383.28 197.827 381.358 197.827 378.856C197.827 376.355 197.193 374.432 195.923 373.088C194.691 371.744 193.161 371.072 191.331 371.072C189.465 371.072 187.915 371.744 186.683 373.088C185.451 374.395 184.835 376.318 184.835 378.856C184.835 381.358 185.433 383.28 186.627 384.624C187.859 385.968 189.39 386.64 191.219 386.64ZM222.228 368.44C223.348 366.723 224.748 365.379 226.428 364.408C228.108 363.4 229.974 362.896 232.028 362.896V373.032H229.396C227.006 373.032 225.214 373.555 224.02 374.6C222.825 375.608 222.228 377.4 222.228 379.976V394.48H212.652V363.232H222.228V368.44ZM255.701 394.48L246.181 381.376V394.48H236.605V353.04H246.181V375.944L255.645 363.232H267.461L254.469 378.912L267.573 394.48H255.701ZM283.934 394.928C281.209 394.928 278.782 394.462 276.654 393.528C274.526 392.595 272.846 391.326 271.614 389.72C270.382 388.078 269.691 386.248 269.542 384.232H279.006C279.118 385.315 279.622 386.192 280.518 386.864C281.414 387.536 282.515 387.872 283.822 387.872C285.017 387.872 285.931 387.648 286.566 387.2C287.238 386.715 287.574 386.099 287.574 385.352C287.574 384.456 287.107 383.803 286.174 383.392C285.241 382.944 283.729 382.459 281.638 381.936C279.398 381.414 277.531 380.872 276.038 380.312C274.545 379.715 273.257 378.8 272.174 377.568C271.091 376.299 270.55 374.6 270.55 372.472C270.55 370.68 271.035 369.056 272.006 367.6C273.014 366.107 274.47 364.931 276.374 364.072C278.315 363.214 280.611 362.784 283.262 362.784C287.182 362.784 290.262 363.755 292.502 365.696C294.779 367.638 296.086 370.214 296.422 373.424H287.574C287.425 372.342 286.939 371.483 286.118 370.848C285.334 370.214 284.289 369.896 282.982 369.896C281.862 369.896 281.003 370.12 280.406 370.568C279.809 370.979 279.51 371.558 279.51 372.304C279.51 373.2 279.977 373.872 280.91 374.32C281.881 374.768 283.374 375.216 285.39 375.664C287.705 376.262 289.59 376.859 291.046 377.456C292.502 378.016 293.771 378.95 294.854 380.256C295.974 381.526 296.553 383.243 296.59 385.408C296.59 387.238 296.067 388.88 295.022 390.336C294.014 391.755 292.539 392.875 290.598 393.696C288.694 394.518 286.473 394.928 283.934 394.928ZM321.657 362.896C325.241 362.896 328.115 364.091 330.281 366.48C332.446 368.832 333.529 372.08 333.529 376.224V394.48H324.009V377.512C324.009 375.422 323.467 373.798 322.385 372.64C321.302 371.483 319.846 370.904 318.017 370.904C316.187 370.904 314.731 371.483 313.649 372.64C312.566 373.798 312.025 375.422 312.025 377.512V394.48H302.449V353.04H312.025V367.432C312.995 366.051 314.321 364.95 316.001 364.128C317.681 363.307 319.566 362.896 321.657 362.896ZM354.407 394.928C351.346 394.928 348.583 394.275 346.119 392.968C343.692 391.662 341.77 389.795 340.351 387.368C338.97 384.942 338.279 382.104 338.279 378.856C338.279 375.646 338.988 372.827 340.407 370.4C341.826 367.936 343.767 366.051 346.231 364.744C348.695 363.438 351.458 362.784 354.519 362.784C357.58 362.784 360.343 363.438 362.807 364.744C365.271 366.051 367.212 367.936 368.631 370.4C370.05 372.827 370.759 375.646 370.759 378.856C370.759 382.067 370.031 384.904 368.575 387.368C367.156 389.795 365.196 391.662 362.695 392.968C360.231 394.275 357.468 394.928 354.407 394.928ZM354.407 386.64C356.236 386.64 357.786 385.968 359.055 384.624C360.362 383.28 361.015 381.358 361.015 378.856C361.015 376.355 360.38 374.432 359.111 373.088C357.879 371.744 356.348 371.072 354.519 371.072C352.652 371.072 351.103 371.744 349.871 373.088C348.639 374.395 348.023 376.318 348.023 378.856C348.023 381.358 348.62 383.28 349.815 384.624C351.047 385.968 352.578 386.64 354.407 386.64ZM385.415 367.656C386.349 366.2 387.637 365.024 389.279 364.128C390.922 363.232 392.845 362.784 395.047 362.784C397.623 362.784 399.957 363.438 402.047 364.744C404.138 366.051 405.781 367.918 406.975 370.344C408.207 372.771 408.823 375.59 408.823 378.8C408.823 382.011 408.207 384.848 406.975 387.312C405.781 389.739 404.138 391.624 402.047 392.968C399.957 394.275 397.623 394.928 395.047 394.928C392.882 394.928 390.959 394.48 389.279 393.584C387.637 392.688 386.349 391.531 385.415 390.112V409.376H375.839V363.232H385.415V367.656ZM399.079 378.8C399.079 376.411 398.407 374.544 397.063 373.2C395.757 371.819 394.133 371.128 392.191 371.128C390.287 371.128 388.663 371.819 387.319 373.2C386.013 374.582 385.359 376.467 385.359 378.856C385.359 381.246 386.013 383.131 387.319 384.512C388.663 385.894 390.287 386.584 392.191 386.584C394.095 386.584 395.719 385.894 397.063 384.512C398.407 383.094 399.079 381.19 399.079 378.8Z" fill="#F1F4F8"/>
<path d="M147.811 496.584C147.811 498.6 147.203 500.472 145.987 502.2C144.803 503.928 143.251 505.208 141.331 506.04L149.155 519.528L142.867 519.48L135.763 506.856H128.083V519.48H122.899V485.88H137.203C138.963 485.88 140.643 486.312 142.243 487.176C143.875 488.04 145.203 489.272 146.227 490.872C147.283 492.472 147.811 494.376 147.811 496.584ZM136.339 490.872H128.083V501.864H137.683C139.219 501.864 140.403 501.32 141.235 500.232C142.099 499.144 142.531 497.912 142.531 496.536C142.531 494.776 141.923 493.4 140.707 492.408C139.491 491.384 138.035 490.872 136.339 490.872ZM168.178 493.848C170.418 493.848 172.418 494.408 174.178 495.528C175.97 496.616 177.378 498.136 178.402 500.088C179.426 502.04 179.938 504.296 179.938 506.856C179.938 509.384 179.426 511.64 178.402 513.624C177.378 515.576 175.986 517.112 174.226 518.232C172.466 519.352 170.498 519.912 168.322 519.912C166.53 519.912 164.898 519.528 163.426 518.76C161.986 517.992 160.85 517.112 160.018 516.12V530.04H155.026V494.232H160.018V497.928C160.754 496.872 161.858 495.928 163.33 495.096C164.802 494.264 166.418 493.848 168.178 493.848ZM167.506 498.408C166.002 498.408 164.658 498.776 163.474 499.512C162.322 500.248 161.41 501.256 160.738 502.536C160.098 503.784 159.778 505.224 159.778 506.856C159.778 508.456 160.098 509.896 160.738 511.176C161.41 512.456 162.322 513.48 163.474 514.248C164.658 514.984 166.002 515.352 167.506 515.352C169.01 515.352 170.338 514.984 171.49 514.248C172.642 513.48 173.538 512.456 174.178 511.176C174.85 509.896 175.186 508.456 175.186 506.856C175.186 505.224 174.85 503.784 174.178 502.536C173.538 501.256 172.642 500.248 171.49 499.512C170.338 498.776 169.01 498.408 167.506 498.408ZM206.62 514.488V519.48H186.316L184.732 515.544L195.004 503.976C196.316 502.504 197.516 501.032 198.604 499.56C199.692 498.088 200.236 496.584 200.236 495.048C200.236 493.448 199.772 492.248 198.844 491.448C197.916 490.616 196.7 490.2 195.196 490.2C194.46 490.2 193.644 490.424 192.748 490.872C191.852 491.32 191.004 492.024 190.204 492.984C189.404 493.944 188.764 495.208 188.284 496.776L184.3 494.28C185.164 491.304 186.652 489.08 188.764 487.608C190.908 486.136 193.26 485.4 195.82 485.4C197.644 485.4 199.292 485.784 200.764 486.552C202.236 487.288 203.404 488.344 204.268 489.72C205.132 491.096 205.564 492.744 205.564 494.664C205.564 496.872 204.892 499.064 203.548 501.24C202.236 503.384 200.62 505.512 198.7 507.624L192.412 514.488H206.62ZM222.692 519.96C220.004 519.96 217.732 519.224 215.876 517.752C214.052 516.248 212.676 514.2 211.748 511.608C210.82 509.016 210.356 506.04 210.356 502.68C210.356 499.32 210.82 496.344 211.748 493.752C212.676 491.16 214.052 489.128 215.876 487.656C217.732 486.152 220.004 485.4 222.692 485.4C225.412 485.4 227.684 486.152 229.508 487.656C231.332 489.128 232.708 491.16 233.636 493.752C234.596 496.344 235.076 499.32 235.076 502.68C235.076 506.04 234.596 509.016 233.636 511.608C232.708 514.2 231.332 516.248 229.508 517.752C227.684 519.224 225.412 519.96 222.692 519.96ZM222.692 515.256C224.996 515.256 226.788 514.168 228.068 511.992C229.38 509.816 230.036 506.712 230.036 502.68C230.036 498.648 229.38 495.544 228.068 493.368C226.788 491.192 224.996 490.104 222.692 490.104C220.388 490.104 218.58 491.192 217.268 493.368C215.988 495.544 215.348 498.648 215.348 502.68C215.348 506.712 215.988 509.816 217.268 511.992C218.58 514.168 220.388 515.256 222.692 515.256ZM242.777 520.008C241.657 520.008 240.825 519.688 240.281 519.048C239.737 518.376 239.465 517.496 239.465 516.408C239.465 515.48 239.737 514.648 240.281 513.912C240.825 513.176 241.657 512.808 242.777 512.808C243.897 512.808 244.729 513.144 245.273 513.816C245.817 514.456 246.089 515.32 246.089 516.408C246.089 517.304 245.817 518.136 245.273 518.904C244.729 519.64 243.897 520.008 242.777 520.008ZM262.771 519.96C260.083 519.96 257.811 519.224 255.955 517.752C254.131 516.248 252.755 514.2 251.827 511.608C250.899 509.016 250.435 506.04 250.435 502.68C250.435 499.32 250.899 496.344 251.827 493.752C252.755 491.16 254.131 489.128 255.955 487.656C257.811 486.152 260.083 485.4 262.771 485.4C265.491 485.4 267.763 486.152 269.587 487.656C271.411 489.128 272.787 491.16 273.715 493.752C274.675 496.344 275.155 499.32 275.155 502.68C275.155 506.04 274.675 509.016 273.715 511.608C272.787 514.2 271.411 516.248 269.587 517.752C267.763 519.224 265.491 519.96 262.771 519.96ZM262.771 515.256C265.075 515.256 266.867 514.168 268.147 511.992C269.459 509.816 270.115 506.712 270.115 502.68C270.115 498.648 269.459 495.544 268.147 493.368C266.867 491.192 265.075 490.104 262.771 490.104C260.467 490.104 258.659 491.192 257.347 493.368C256.067 495.544 255.427 498.648 255.427 502.68C255.427 506.712 256.067 509.816 257.347 511.992C258.659 514.168 260.467 515.256 262.771 515.256ZM291.927 519.96C289.239 519.96 286.967 519.224 285.111 517.752C283.287 516.248 281.911 514.2 280.983 511.608C280.055 509.016 279.591 506.04 279.591 502.68C279.591 499.32 280.055 496.344 280.983 493.752C281.911 491.16 283.287 489.128 285.111 487.656C286.967 486.152 289.239 485.4 291.927 485.4C294.647 485.4 296.919 486.152 298.743 487.656C300.567 489.128 301.943 491.16 302.871 493.752C303.831 496.344 304.311 499.32 304.311 502.68C304.311 506.04 303.831 509.016 302.871 511.608C301.943 514.2 300.567 516.248 298.743 517.752C296.919 519.224 294.647 519.96 291.927 519.96ZM291.927 515.256C294.231 515.256 296.023 514.168 297.303 511.992C298.615 509.816 299.271 506.712 299.271 502.68C299.271 498.648 298.615 495.544 297.303 493.368C296.023 491.192 294.231 490.104 291.927 490.104C289.623 490.104 287.815 491.192 286.503 493.368C285.223 495.544 284.583 498.648 284.583 502.68C284.583 506.712 285.223 509.816 286.503 511.992C287.815 514.168 289.623 515.256 291.927 515.256ZM321.083 519.96C318.395 519.96 316.123 519.224 314.267 517.752C312.443 516.248 311.067 514.2 310.139 511.608C309.211 509.016 308.747 506.04 308.747 502.68C308.747 499.32 309.211 496.344 310.139 493.752C311.067 491.16 312.443 489.128 314.267 487.656C316.123 486.152 318.395 485.4 321.083 485.4C323.803 485.4 326.075 486.152 327.899 487.656C329.723 489.128 331.099 491.16 332.027 493.752C332.987 496.344 333.467 499.32 333.467 502.68C333.467 506.04 332.987 509.016 332.027 511.608C331.099 514.2 329.723 516.248 327.899 517.752C326.075 519.224 323.803 519.96 321.083 519.96ZM321.083 515.256C323.387 515.256 325.179 514.168 326.459 511.992C327.771 509.816 328.427 506.712 328.427 502.68C328.427 498.648 327.771 495.544 326.459 493.368C325.179 491.192 323.387 490.104 321.083 490.104C318.779 490.104 316.971 491.192 315.659 493.368C314.379 495.544 313.739 498.648 313.739 502.68C313.739 506.712 314.379 509.816 315.659 511.992C316.971 514.168 318.779 515.256 321.083 515.256ZM346.303 519.288C346.303 520.632 345.999 521.896 345.391 523.08C344.783 524.264 343.983 525.288 342.991 526.152C342.031 527.016 341.007 527.656 339.919 528.072L338.095 525.864C339.215 525.224 340.127 524.488 340.831 523.656C341.535 522.824 341.887 522.104 341.887 521.496C341.887 521.016 341.743 520.584 341.455 520.2C341.167 519.848 340.847 519.512 340.495 519.192C340.143 518.84 339.823 518.456 339.535 518.04C339.247 517.592 339.103 517.048 339.103 516.408C339.103 515.608 339.391 514.984 339.967 514.536C340.543 514.088 341.231 513.864 342.031 513.864C343.119 513.864 344.095 514.328 344.959 515.256C345.855 516.184 346.303 517.528 346.303 519.288ZM363.036 519.96C360.348 519.96 358.076 519.224 356.22 517.752C354.396 516.248 353.02 514.2 352.092 511.608C351.164 509.016 350.7 506.04 350.7 502.68C350.7 499.32 351.164 496.344 352.092 493.752C353.02 491.16 354.396 489.128 356.22 487.656C358.076 486.152 360.348 485.4 363.036 485.4C365.756 485.4 368.028 486.152 369.852 487.656C371.676 489.128 373.052 491.16 373.98 493.752C374.94 496.344 375.42 499.32 375.42 502.68C375.42 506.04 374.94 509.016 373.98 511.608C373.052 514.2 371.676 516.248 369.852 517.752C368.028 519.224 365.756 519.96 363.036 519.96ZM363.036 515.256C365.34 515.256 367.132 514.168 368.412 511.992C369.724 509.816 370.38 506.712 370.38 502.68C370.38 498.648 369.724 495.544 368.412 493.368C367.132 491.192 365.34 490.104 363.036 490.104C360.732 490.104 358.924 491.192 357.612 493.368C356.332 495.544 355.692 498.648 355.692 502.68C355.692 506.712 356.332 509.816 357.612 511.992C358.924 514.168 360.732 515.256 363.036 515.256ZM392.192 519.96C389.504 519.96 387.232 519.224 385.376 517.752C383.552 516.248 382.176 514.2 381.248 511.608C380.32 509.016 379.856 506.04 379.856 502.68C379.856 499.32 380.32 496.344 381.248 493.752C382.176 491.16 383.552 489.128 385.376 487.656C387.232 486.152 389.504 485.4 392.192 485.4C394.912 485.4 397.184 486.152 399.008 487.656C400.832 489.128 402.208 491.16 403.136 493.752C404.096 496.344 404.576 499.32 404.576 502.68C404.576 506.04 404.096 509.016 403.136 511.608C402.208 514.2 400.832 516.248 399.008 517.752C397.184 519.224 394.912 519.96 392.192 519.96ZM392.192 515.256C394.496 515.256 396.288 514.168 397.568 511.992C398.88 509.816 399.536 506.712 399.536 502.68C399.536 498.648 398.88 495.544 397.568 493.368C396.288 491.192 394.496 490.104 392.192 490.104C389.888 490.104 388.08 491.192 386.768 493.368C385.488 495.544 384.848 498.648 384.848 502.68C384.848 506.712 385.488 509.816 386.768 511.992C388.08 514.168 389.888 515.256 392.192 515.256Z" fill="#F1F4F8"/>
<g clip-path="url(#clip0)">
<path d="M289.279 141.189C344.093 141.189 340.043 141.177 340.887 141.21C340.391 139.317 339.406 137.526 337.925 136.044L322.896 121.016C319.649 117.769 314.663 116.824 310.489 118.668C308.248 119.659 305.577 119.159 303.843 117.425C302.109 115.692 301.61 113.021 302.6 110.779C304.443 106.606 303.5 101.62 300.251 98.3715L285.224 83.3434C280.769 78.8896 273.522 78.8893 269.067 83.3434L250.266 102.145C255.564 107.448 283.994 135.9 289.279 141.189Z" fill="#F1F4F8"/>
<path d="M243.258 109.153L211.222 141.189H275.263C275.147 141.072 272.696 138.619 243.258 109.153V109.153Z" fill="#F1F4F8"/>
<path d="M344.367 194.21C348.622 192.563 351.48 188.37 351.48 183.777V162.524C351.48 156.225 346.355 151.1 340.056 151.1H316.793V248.478H340.056C346.355 248.478 351.48 243.353 351.48 237.054V215.801C351.48 211.208 348.622 207.015 344.368 205.367C342.082 204.482 340.547 202.24 340.547 199.789C340.547 197.337 342.082 195.095 344.367 194.21V194.21Z" fill="#F1F4F8"/>
<path d="M183 162.524V183.777C183 188.37 185.859 192.563 190.113 194.21C192.398 195.095 193.933 197.337 193.933 199.789C193.933 202.24 192.398 204.482 190.113 205.367C185.858 207.015 183 211.208 183 215.801V237.054C183 243.353 188.125 248.478 194.424 248.478H306.883V151.1H194.424C188.125 151.1 183 156.224 183 162.524V162.524ZM217.687 174.149H292.017V184.059H217.687V174.149ZM217.687 193.97H292.017V203.881H217.687V193.97ZM217.687 213.791H292.017V223.702H217.687V213.791Z" fill="#F1F4F8"/>
</g>
<path d="M861.077 495.104C861.077 497.12 860.469 498.992 859.253 500.72C858.069 502.448 856.517 503.728 854.597 504.56L862.421 518.048L856.133 518L849.029 505.376H841.349V518H836.165V484.4H850.469C852.229 484.4 853.909 484.832 855.509 485.696C857.141 486.56 858.469 487.792 859.493 489.392C860.549 490.992 861.077 492.896 861.077 495.104ZM849.605 489.392H841.349V500.384H850.949C852.485 500.384 853.669 499.84 854.501 498.752C855.365 497.664 855.797 496.432 855.797 495.056C855.797 493.296 855.189 491.92 853.973 490.928C852.757 489.904 851.301 489.392 849.605 489.392ZM881.444 492.368C883.684 492.368 885.684 492.928 887.444 494.048C889.236 495.136 890.644 496.656 891.668 498.608C892.692 500.56 893.204 502.816 893.204 505.376C893.204 507.904 892.692 510.16 891.668 512.144C890.644 514.096 889.252 515.632 887.492 516.752C885.732 517.872 883.764 518.432 881.588 518.432C879.796 518.432 878.164 518.048 876.692 517.28C875.252 516.512 874.116 515.632 873.284 514.64V528.56H868.292V492.752H873.284V496.448C874.02 495.392 875.124 494.448 876.596 493.616C878.068 492.784 879.684 492.368 881.444 492.368ZM880.772 496.928C879.268 496.928 877.924 497.296 876.74 498.032C875.588 498.768 874.676 499.776 874.004 501.056C873.364 502.304 873.044 503.744 873.044 505.376C873.044 506.976 873.364 508.416 874.004 509.696C874.676 510.976 875.588 512 876.74 512.768C877.924 513.504 879.268 513.872 880.772 513.872C882.276 513.872 883.604 513.504 884.756 512.768C885.908 512 886.804 510.976 887.444 509.696C888.116 508.416 888.452 506.976 888.452 505.376C888.452 503.744 888.116 502.304 887.444 501.056C886.804 499.776 885.908 498.768 884.756 498.032C883.604 497.296 882.276 496.928 880.772 496.928ZM912.013 518V508.88H898.765L896.557 504.56L913.021 484.4H917.005V504.128H922.861V508.88H917.005V518H912.013ZM902.653 504.128H912.013V492.704L902.653 504.128ZM939.427 518.48C936.739 518.48 934.467 517.744 932.611 516.272C930.787 514.768 929.411 512.72 928.483 510.128C927.555 507.536 927.091 504.56 927.091 501.2C927.091 497.84 927.555 494.864 928.483 492.272C929.411 489.68 930.787 487.648 932.611 486.176C934.467 484.672 936.739 483.92 939.427 483.92C942.147 483.92 944.419 484.672 946.243 486.176C948.067 487.648 949.443 489.68 950.371 492.272C951.331 494.864 951.811 497.84 951.811 501.2C951.811 504.56 951.331 507.536 950.371 510.128C949.443 512.72 948.067 514.768 946.243 516.272C944.419 517.744 942.147 518.48 939.427 518.48ZM939.427 513.776C941.731 513.776 943.523 512.688 944.803 510.512C946.115 508.336 946.771 505.232 946.771 501.2C946.771 497.168 946.115 494.064 944.803 491.888C943.523 489.712 941.731 488.624 939.427 488.624C937.123 488.624 935.315 489.712 934.003 491.888C932.723 494.064 932.083 497.168 932.083 501.2C932.083 505.232 932.723 508.336 934.003 510.512C935.315 512.688 937.123 513.776 939.427 513.776ZM959.511 518.528C958.391 518.528 957.559 518.208 957.015 517.568C956.471 516.896 956.199 516.016 956.199 514.928C956.199 514 956.471 513.168 957.015 512.432C957.559 511.696 958.391 511.328 959.511 511.328C960.631 511.328 961.463 511.664 962.007 512.336C962.551 512.976 962.823 513.84 962.823 514.928C962.823 515.824 962.551 516.656 962.007 517.424C961.463 518.16 960.631 518.528 959.511 518.528ZM979.505 518.48C976.817 518.48 974.545 517.744 972.689 516.272C970.865 514.768 969.489 512.72 968.561 510.128C967.633 507.536 967.169 504.56 967.169 501.2C967.169 497.84 967.633 494.864 968.561 492.272C969.489 489.68 970.865 487.648 972.689 486.176C974.545 484.672 976.817 483.92 979.505 483.92C982.225 483.92 984.497 484.672 986.321 486.176C988.145 487.648 989.521 489.68 990.449 492.272C991.409 494.864 991.889 497.84 991.889 501.2C991.889 504.56 991.409 507.536 990.449 510.128C989.521 512.72 988.145 514.768 986.321 516.272C984.497 517.744 982.225 518.48 979.505 518.48ZM979.505 513.776C981.809 513.776 983.601 512.688 984.881 510.512C986.193 508.336 986.849 505.232 986.849 501.2C986.849 497.168 986.193 494.064 984.881 491.888C983.601 489.712 981.809 488.624 979.505 488.624C977.201 488.624 975.393 489.712 974.081 491.888C972.801 494.064 972.161 497.168 972.161 501.2C972.161 505.232 972.801 508.336 974.081 510.512C975.393 512.688 977.201 513.776 979.505 513.776ZM1008.66 518.48C1005.97 518.48 1003.7 517.744 1001.85 516.272C1000.02 514.768 998.645 512.72 997.717 510.128C996.789 507.536 996.325 504.56 996.325 501.2C996.325 497.84 996.789 494.864 997.717 492.272C998.645 489.68 1000.02 487.648 1001.85 486.176C1003.7 484.672 1005.97 483.92 1008.66 483.92C1011.38 483.92 1013.65 484.672 1015.48 486.176C1017.3 487.648 1018.68 489.68 1019.61 492.272C1020.57 494.864 1021.05 497.84 1021.05 501.2C1021.05 504.56 1020.57 507.536 1019.61 510.128C1018.68 512.72 1017.3 514.768 1015.48 516.272C1013.65 517.744 1011.38 518.48 1008.66 518.48ZM1008.66 513.776C1010.97 513.776 1012.76 512.688 1014.04 510.512C1015.35 508.336 1016.01 505.232 1016.01 501.2C1016.01 497.168 1015.35 494.064 1014.04 491.888C1012.76 489.712 1010.97 488.624 1008.66 488.624C1006.36 488.624 1004.55 489.712 1003.24 491.888C1001.96 494.064 1001.32 497.168 1001.32 501.2C1001.32 505.232 1001.96 508.336 1003.24 510.512C1004.55 512.688 1006.36 513.776 1008.66 513.776ZM1037.82 518.48C1035.13 518.48 1032.86 517.744 1031 516.272C1029.18 514.768 1027.8 512.72 1026.87 510.128C1025.95 507.536 1025.48 504.56 1025.48 501.2C1025.48 497.84 1025.95 494.864 1026.87 492.272C1027.8 489.68 1029.18 487.648 1031 486.176C1032.86 484.672 1035.13 483.92 1037.82 483.92C1040.54 483.92 1042.81 484.672 1044.63 486.176C1046.46 487.648 1047.83 489.68 1048.76 492.272C1049.72 494.864 1050.2 497.84 1050.2 501.2C1050.2 504.56 1049.72 507.536 1048.76 510.128C1047.83 512.72 1046.46 514.768 1044.63 516.272C1042.81 517.744 1040.54 518.48 1037.82 518.48ZM1037.82 513.776C1040.12 513.776 1041.91 512.688 1043.19 510.512C1044.51 508.336 1045.16 505.232 1045.16 501.2C1045.16 497.168 1044.51 494.064 1043.19 491.888C1041.91 489.712 1040.12 488.624 1037.82 488.624C1035.51 488.624 1033.71 489.712 1032.39 491.888C1031.11 494.064 1030.47 497.168 1030.47 501.2C1030.47 505.232 1031.11 508.336 1032.39 510.512C1033.71 512.688 1035.51 513.776 1037.82 513.776ZM1063.04 517.808C1063.04 519.152 1062.73 520.416 1062.13 521.6C1061.52 522.784 1060.72 523.808 1059.73 524.672C1058.77 525.536 1057.74 526.176 1056.65 526.592L1054.83 524.384C1055.95 523.744 1056.86 523.008 1057.57 522.176C1058.27 521.344 1058.62 520.624 1058.62 520.016C1058.62 519.536 1058.48 519.104 1058.19 518.72C1057.9 518.368 1057.58 518.032 1057.23 517.712C1056.88 517.36 1056.56 516.976 1056.27 516.56C1055.98 516.112 1055.84 515.568 1055.84 514.928C1055.84 514.128 1056.13 513.504 1056.7 513.056C1057.28 512.608 1057.97 512.384 1058.77 512.384C1059.85 512.384 1060.83 512.848 1061.69 513.776C1062.59 514.704 1063.04 516.048 1063.04 517.808ZM1079.77 518.48C1077.08 518.48 1074.81 517.744 1072.95 516.272C1071.13 514.768 1069.75 512.72 1068.83 510.128C1067.9 507.536 1067.43 504.56 1067.43 501.2C1067.43 497.84 1067.9 494.864 1068.83 492.272C1069.75 489.68 1071.13 487.648 1072.95 486.176C1074.81 484.672 1077.08 483.92 1079.77 483.92C1082.49 483.92 1084.76 484.672 1086.59 486.176C1088.41 487.648 1089.79 489.68 1090.71 492.272C1091.67 494.864 1092.15 497.84 1092.15 501.2C1092.15 504.56 1091.67 507.536 1090.71 510.128C1089.79 512.72 1088.41 514.768 1086.59 516.272C1084.76 517.744 1082.49 518.48 1079.77 518.48ZM1079.77 513.776C1082.07 513.776 1083.87 512.688 1085.15 510.512C1086.46 508.336 1087.11 505.232 1087.11 501.2C1087.11 497.168 1086.46 494.064 1085.15 491.888C1083.87 489.712 1082.07 488.624 1079.77 488.624C1077.47 488.624 1075.66 489.712 1074.35 491.888C1073.07 494.064 1072.43 497.168 1072.43 501.2C1072.43 505.232 1073.07 508.336 1074.35 510.512C1075.66 512.688 1077.47 513.776 1079.77 513.776ZM1108.93 518.48C1106.24 518.48 1103.97 517.744 1102.11 516.272C1100.29 514.768 1098.91 512.72 1097.98 510.128C1097.05 507.536 1096.59 504.56 1096.59 501.2C1096.59 497.84 1097.05 494.864 1097.98 492.272C1098.91 489.68 1100.29 487.648 1102.11 486.176C1103.97 484.672 1106.24 483.92 1108.93 483.92C1111.65 483.92 1113.92 484.672 1115.74 486.176C1117.57 487.648 1118.94 489.68 1119.87 492.272C1120.83 494.864 1121.31 497.84 1121.31 501.2C1121.31 504.56 1120.83 507.536 1119.87 510.128C1118.94 512.72 1117.57 514.768 1115.74 516.272C1113.92 517.744 1111.65 518.48 1108.93 518.48ZM1108.93 513.776C1111.23 513.776 1113.02 512.688 1114.3 510.512C1115.61 508.336 1116.27 505.232 1116.27 501.2C1116.27 497.168 1115.61 494.064 1114.3 491.888C1113.02 489.712 1111.23 488.624 1108.93 488.624C1106.62 488.624 1104.81 489.712 1103.5 491.888C1102.22 494.064 1101.58 497.168 1101.58 501.2C1101.58 505.232 1102.22 508.336 1103.5 510.512C1104.81 512.688 1106.62 513.776 1108.93 513.776Z" fill="#F1F4F8"/>
<path d="M731.84 343.328C733.11 342.32 733.688 341.853 733.576 341.928C737.235 338.904 740.11 336.421 742.2 334.48C744.328 332.539 746.12 330.504 747.576 328.376C749.032 326.248 749.76 324.176 749.76 322.16C749.76 320.629 749.406 319.435 748.696 318.576C747.987 317.717 746.923 317.288 745.504 317.288C744.086 317.288 742.966 317.829 742.144 318.912C741.36 319.957 740.968 321.451 740.968 323.392H731.728C731.803 320.219 732.475 317.568 733.744 315.44C735.051 313.312 736.75 311.744 738.84 310.736C740.968 309.728 743.32 309.224 745.896 309.224C750.339 309.224 753.68 310.363 755.92 312.64C758.198 314.917 759.336 317.885 759.336 321.544C759.336 325.539 757.974 329.253 755.248 332.688C752.523 336.085 749.051 339.408 744.832 342.656H759.952V350.44H731.84V343.328ZM791.716 311.688C795.86 311.688 799.481 312.509 802.58 314.152C805.678 315.795 808.068 318.109 809.748 321.096C811.465 324.045 812.324 327.461 812.324 331.344C812.324 335.189 811.465 338.605 809.748 341.592C808.068 344.579 805.66 346.893 802.524 348.536C799.425 350.179 795.822 351 791.716 351H776.988V311.688H791.716ZM791.1 342.712C794.721 342.712 797.54 341.723 799.556 339.744C801.572 337.765 802.58 334.965 802.58 331.344C802.58 327.723 801.572 324.904 799.556 322.888C797.54 320.872 794.721 319.864 791.1 319.864H786.564V342.712H791.1ZM815.771 335.32C815.771 332.109 816.368 329.291 817.563 326.864C818.795 324.437 820.456 322.571 822.547 321.264C824.638 319.957 826.971 319.304 829.547 319.304C831.75 319.304 833.672 319.752 835.315 320.648C836.995 321.544 838.283 322.72 839.179 324.176V319.752H848.755V351H839.179V346.576C838.246 348.032 836.939 349.208 835.259 350.104C833.616 351 831.694 351.448 829.491 351.448C826.952 351.448 824.638 350.795 822.547 349.488C820.456 348.144 818.795 346.259 817.563 343.832C816.368 341.368 815.771 338.531 815.771 335.32ZM839.179 335.376C839.179 332.987 838.507 331.101 837.163 329.72C835.856 328.339 834.251 327.648 832.347 327.648C830.443 327.648 828.819 328.339 827.475 329.72C826.168 331.064 825.515 332.931 825.515 335.32C825.515 337.709 826.168 339.613 827.475 341.032C828.819 342.413 830.443 343.104 832.347 343.104C834.251 343.104 835.856 342.413 837.163 341.032C838.507 339.651 839.179 337.765 839.179 335.376ZM887.603 319.752L868.003 365.84H857.699L864.867 349.936L852.155 319.752H862.851L870.075 339.296L877.243 319.752H887.603ZM903.778 351.448C901.052 351.448 898.626 350.981 896.498 350.048C894.37 349.115 892.69 347.845 891.458 346.24C890.226 344.597 889.535 342.768 889.386 340.752H898.85C898.962 341.835 899.466 342.712 900.362 343.384C901.258 344.056 902.359 344.392 903.666 344.392C904.86 344.392 905.775 344.168 906.41 343.72C907.082 343.235 907.418 342.619 907.418 341.872C907.418 340.976 906.951 340.323 906.018 339.912C905.084 339.464 903.572 338.979 901.482 338.456C899.242 337.933 897.375 337.392 895.882 336.832C894.388 336.235 893.1 335.32 892.018 334.088C890.935 332.819 890.394 331.12 890.394 328.992C890.394 327.2 890.879 325.576 891.85 324.12C892.858 322.627 894.314 321.451 896.218 320.592C898.159 319.733 900.455 319.304 903.106 319.304C907.026 319.304 910.106 320.275 912.346 322.216C914.623 324.157 915.93 326.733 916.266 329.944H907.418C907.268 328.861 906.783 328.003 905.962 327.368C905.178 326.733 904.132 326.416 902.826 326.416C901.706 326.416 900.847 326.64 900.25 327.088C899.652 327.499 899.354 328.077 899.354 328.824C899.354 329.72 899.82 330.392 900.754 330.84C901.724 331.288 903.218 331.736 905.234 332.184C907.548 332.781 909.434 333.379 910.89 333.976C912.346 334.536 913.615 335.469 914.698 336.776C915.818 338.045 916.396 339.763 916.434 341.928C916.434 343.757 915.911 345.4 914.866 346.856C913.858 348.275 912.383 349.395 910.442 350.216C908.538 351.037 906.316 351.448 903.778 351.448ZM988.255 311.688L978.008 351H966.416L960.144 325.128L953.648 351H942.056L932.088 311.688H942.336L947.992 340.304L954.992 311.688H965.52L972.24 340.304L977.952 311.688H988.255ZM1022.51 334.872C1022.51 335.768 1022.46 336.701 1022.35 337.672H1000.67C1000.82 339.613 1001.44 341.107 1002.52 342.152C1003.64 343.16 1005 343.664 1006.61 343.664C1009 343.664 1010.66 342.656 1011.59 340.64H1021.79C1021.26 342.693 1020.31 344.541 1018.93 346.184C1017.59 347.827 1015.89 349.115 1013.83 350.048C1011.78 350.981 1009.48 351.448 1006.95 351.448C1003.88 351.448 1001.16 350.795 998.77 349.488C996.381 348.181 994.514 346.315 993.17 343.888C991.826 341.461 991.154 338.624 991.154 335.376C991.154 332.128 991.807 329.291 993.114 326.864C994.458 324.437 996.325 322.571 998.714 321.264C1001.1 319.957 1003.85 319.304 1006.95 319.304C1009.97 319.304 1012.66 319.939 1015.01 321.208C1017.36 322.477 1019.19 324.288 1020.5 326.64C1021.84 328.992 1022.51 331.736 1022.51 334.872ZM1012.71 332.352C1012.71 330.709 1012.15 329.403 1011.03 328.432C1009.91 327.461 1008.51 326.976 1006.83 326.976C1005.23 326.976 1003.87 327.443 1002.75 328.376C1001.66 329.309 1000.99 330.635 1000.73 332.352H1012.71ZM1037.14 324.176C1038.04 322.72 1039.33 321.544 1041.01 320.648C1042.69 319.752 1044.61 319.304 1046.77 319.304C1049.35 319.304 1051.68 319.957 1053.77 321.264C1055.86 322.571 1057.51 324.437 1058.7 326.864C1059.93 329.291 1060.55 332.109 1060.55 335.32C1060.55 338.531 1059.93 341.368 1058.7 343.832C1057.51 346.259 1055.86 348.144 1053.77 349.488C1051.68 350.795 1049.35 351.448 1046.77 351.448C1044.57 351.448 1042.65 351.019 1041.01 350.16C1039.36 349.264 1038.08 348.088 1037.14 346.632V351H1027.57V309.56H1037.14V324.176ZM1050.81 335.32C1050.81 332.931 1050.13 331.064 1048.79 329.72C1047.48 328.339 1045.86 327.648 1043.92 327.648C1042.01 327.648 1040.39 328.339 1039.05 329.72C1037.74 331.101 1037.09 332.987 1037.09 335.376C1037.09 337.765 1037.74 339.651 1039.05 341.032C1040.39 342.413 1042.01 343.104 1043.92 343.104C1045.82 343.104 1047.45 342.413 1048.79 341.032C1050.13 339.613 1050.81 337.709 1050.81 335.32ZM1070.39 316.504C1068.71 316.504 1067.33 316.019 1066.25 315.048C1065.2 314.04 1064.68 312.808 1064.68 311.352C1064.68 309.859 1065.2 308.627 1066.25 307.656C1067.33 306.648 1068.71 306.144 1070.39 306.144C1072.03 306.144 1073.38 306.648 1074.42 307.656C1075.5 308.627 1076.05 309.859 1076.05 311.352C1076.05 312.808 1075.5 314.04 1074.42 315.048C1073.38 316.019 1072.03 316.504 1070.39 316.504ZM1075.15 319.752V351H1065.57V319.752H1075.15ZM1101.13 319.416C1104.79 319.416 1107.7 320.611 1109.87 323C1112.07 325.352 1113.17 328.6 1113.17 332.744V351H1103.65V334.032C1103.65 331.941 1103.11 330.317 1102.03 329.16C1100.94 328.003 1099.49 327.424 1097.66 327.424C1095.83 327.424 1094.37 328.003 1093.29 329.16C1092.21 330.317 1091.67 331.941 1091.67 334.032V351H1082.09V319.752H1091.67V323.896C1092.64 322.515 1093.94 321.432 1095.59 320.648C1097.23 319.827 1099.08 319.416 1101.13 319.416ZM1117.92 335.32C1117.92 332.109 1118.52 329.291 1119.71 326.864C1120.94 324.437 1122.6 322.571 1124.7 321.264C1126.79 319.957 1129.12 319.304 1131.7 319.304C1133.9 319.304 1135.82 319.752 1137.46 320.648C1139.14 321.544 1140.43 322.72 1141.33 324.176V319.752H1150.9V351H1141.33V346.576C1140.39 348.032 1139.09 349.208 1137.41 350.104C1135.76 351 1133.84 351.448 1131.64 351.448C1129.1 351.448 1126.79 350.795 1124.7 349.488C1122.6 348.144 1120.94 346.259 1119.71 343.832C1118.52 341.368 1117.92 338.531 1117.92 335.32ZM1141.33 335.376C1141.33 332.987 1140.66 331.101 1139.31 329.72C1138 328.339 1136.4 327.648 1134.5 327.648C1132.59 327.648 1130.97 328.339 1129.62 329.72C1128.32 331.064 1127.66 332.931 1127.66 335.32C1127.66 337.709 1128.32 339.613 1129.62 341.032C1130.97 342.413 1132.59 343.104 1134.5 343.104C1136.4 343.104 1138 342.413 1139.31 341.032C1140.66 339.651 1141.33 337.765 1141.33 335.376ZM1167.41 324.96C1168.53 323.243 1169.93 321.899 1171.61 320.928C1173.29 319.92 1175.15 319.416 1177.21 319.416V329.552H1174.58C1172.19 329.552 1170.39 330.075 1169.2 331.12C1168 332.128 1167.41 333.92 1167.41 336.496V351H1157.83V319.752H1167.41V324.96ZM1222.04 335.712H1212.3V345.68H1203.23V335.712H1193.48V327.144H1203.23V317.12H1212.3V327.144H1222.04V335.712ZM887.193 395.688L876.945 435H865.353L859.081 409.128L852.585 435H840.993L831.025 395.688H841.273L846.929 424.304L853.929 395.688H864.457L871.177 424.304L876.889 395.688H887.193ZM906.219 435.448C903.158 435.448 900.395 434.795 897.931 433.488C895.505 432.181 893.582 430.315 892.163 427.888C890.782 425.461 890.091 422.624 890.091 419.376C890.091 416.165 890.801 413.347 892.219 410.92C893.638 408.456 895.579 406.571 898.043 405.264C900.507 403.957 903.27 403.304 906.331 403.304C909.393 403.304 912.155 403.957 914.619 405.264C917.083 406.571 919.025 408.456 920.443 410.92C921.862 413.347 922.571 416.165 922.571 419.376C922.571 422.587 921.843 425.424 920.387 427.888C918.969 430.315 917.009 432.181 914.507 433.488C912.043 434.795 909.281 435.448 906.219 435.448ZM906.219 427.16C908.049 427.16 909.598 426.488 910.867 425.144C912.174 423.8 912.827 421.877 912.827 419.376C912.827 416.875 912.193 414.952 910.923 413.608C909.691 412.264 908.161 411.592 906.331 411.592C904.465 411.592 902.915 412.264 901.683 413.608C900.451 414.915 899.835 416.837 899.835 419.376C899.835 421.877 900.433 423.8 901.627 425.144C902.859 426.488 904.39 427.16 906.219 427.16ZM937.228 408.96C938.348 407.243 939.748 405.899 941.428 404.928C943.108 403.92 944.974 403.416 947.028 403.416V413.552H944.396C942.006 413.552 940.214 414.075 939.02 415.12C937.825 416.128 937.228 417.92 937.228 420.496V435H927.652V403.752H937.228V408.96ZM970.701 435L961.181 421.896V435H951.605V393.56H961.181V416.464L970.645 403.752H982.461L969.469 419.432L982.573 435H970.701ZM998.934 435.448C996.209 435.448 993.782 434.981 991.654 434.048C989.526 433.115 987.846 431.845 986.614 430.24C985.382 428.597 984.691 426.768 984.542 424.752H994.006C994.118 425.835 994.622 426.712 995.518 427.384C996.414 428.056 997.515 428.392 998.822 428.392C1000.02 428.392 1000.93 428.168 1001.57 427.72C1002.24 427.235 1002.57 426.619 1002.57 425.872C1002.57 424.976 1002.11 424.323 1001.17 423.912C1000.24 423.464 998.729 422.979 996.638 422.456C994.398 421.933 992.531 421.392 991.038 420.832C989.545 420.235 988.257 419.32 987.174 418.088C986.091 416.819 985.55 415.12 985.55 412.992C985.55 411.2 986.035 409.576 987.006 408.12C988.014 406.627 989.47 405.451 991.374 404.592C993.315 403.733 995.611 403.304 998.262 403.304C1002.18 403.304 1005.26 404.275 1007.5 406.216C1009.78 408.157 1011.09 410.733 1011.42 413.944H1002.57C1002.42 412.861 1001.94 412.003 1001.12 411.368C1000.33 410.733 999.289 410.416 997.982 410.416C996.862 410.416 996.003 410.64 995.406 411.088C994.809 411.499 994.51 412.077 994.51 412.824C994.51 413.72 994.977 414.392 995.91 414.84C996.881 415.288 998.374 415.736 1000.39 416.184C1002.7 416.781 1004.59 417.379 1006.05 417.976C1007.5 418.536 1008.77 419.469 1009.85 420.776C1010.97 422.045 1011.55 423.763 1011.59 425.928C1011.59 427.757 1011.07 429.4 1010.02 430.856C1009.01 432.275 1007.54 433.395 1005.6 434.216C1003.69 435.037 1001.47 435.448 998.934 435.448ZM1036.66 403.416C1040.24 403.416 1043.12 404.611 1045.28 407C1047.45 409.352 1048.53 412.6 1048.53 416.744V435H1039.01V418.032C1039.01 415.941 1038.47 414.317 1037.38 413.16C1036.3 412.003 1034.85 411.424 1033.02 411.424C1031.19 411.424 1029.73 412.003 1028.65 413.16C1027.57 414.317 1027.02 415.941 1027.02 418.032V435H1017.45V393.56H1027.02V407.952C1028 406.571 1029.32 405.469 1031 404.648C1032.68 403.827 1034.57 403.416 1036.66 403.416ZM1069.41 435.448C1066.35 435.448 1063.58 434.795 1061.12 433.488C1058.69 432.181 1056.77 430.315 1055.35 427.888C1053.97 425.461 1053.28 422.624 1053.28 419.376C1053.28 416.165 1053.99 413.347 1055.41 410.92C1056.83 408.456 1058.77 406.571 1061.23 405.264C1063.69 403.957 1066.46 403.304 1069.52 403.304C1072.58 403.304 1075.34 403.957 1077.81 405.264C1080.27 406.571 1082.21 408.456 1083.63 410.92C1085.05 413.347 1085.76 416.165 1085.76 419.376C1085.76 422.587 1085.03 425.424 1083.57 427.888C1082.16 430.315 1080.2 432.181 1077.69 433.488C1075.23 434.795 1072.47 435.448 1069.41 435.448ZM1069.41 427.16C1071.24 427.16 1072.79 426.488 1074.05 425.144C1075.36 423.8 1076.01 421.877 1076.01 419.376C1076.01 416.875 1075.38 414.952 1074.11 413.608C1072.88 412.264 1071.35 411.592 1069.52 411.592C1067.65 411.592 1066.1 412.264 1064.87 413.608C1063.64 414.915 1063.02 416.837 1063.02 419.376C1063.02 421.877 1063.62 423.8 1064.81 425.144C1066.05 426.488 1067.58 427.16 1069.41 427.16ZM1100.42 408.176C1101.35 406.72 1102.64 405.544 1104.28 404.648C1105.92 403.752 1107.84 403.304 1110.05 403.304C1112.62 403.304 1114.96 403.957 1117.05 405.264C1119.14 406.571 1120.78 408.437 1121.98 410.864C1123.21 413.291 1123.82 416.109 1123.82 419.32C1123.82 422.531 1123.21 425.368 1121.98 427.832C1120.78 430.259 1119.14 432.144 1117.05 433.488C1114.96 434.795 1112.62 435.448 1110.05 435.448C1107.88 435.448 1105.96 435 1104.28 434.104C1102.64 433.208 1101.35 432.051 1100.42 430.632V449.896H1090.84V403.752H1100.42V408.176ZM1114.08 419.32C1114.08 416.931 1113.41 415.064 1112.06 413.72C1110.76 412.339 1109.13 411.648 1107.19 411.648C1105.29 411.648 1103.66 412.339 1102.32 413.72C1101.01 415.101 1100.36 416.987 1100.36 419.376C1100.36 421.765 1101.01 423.651 1102.32 425.032C1103.66 426.413 1105.29 427.104 1107.19 427.104C1109.1 427.104 1110.72 426.413 1112.06 425.032C1113.41 423.613 1114.08 421.709 1114.08 419.32Z" fill="#F1F4F8"/>
<g clip-path="url(#clip1)">
<path d="M734.279 141.189C789.093 141.189 785.043 141.177 785.887 141.21C785.391 139.317 784.406 137.526 782.925 136.044L767.896 121.016C764.649 117.769 759.663 116.824 755.489 118.668C753.248 119.659 750.577 119.159 748.843 117.425C747.109 115.692 746.61 113.021 747.6 110.779C749.443 106.606 748.5 101.62 745.251 98.3715L730.224 83.3434C725.769 78.8896 718.522 78.8893 714.067 83.3434L695.266 102.145C700.564 107.448 728.994 135.9 734.279 141.189Z" fill="#F1F4F8"/>
<path d="M688.258 109.153L656.222 141.189H720.263C720.147 141.072 717.696 138.619 688.258 109.153V109.153Z" fill="#F1F4F8"/>
<path d="M789.367 194.21C793.622 192.563 796.48 188.37 796.48 183.777V162.524C796.48 156.225 791.355 151.1 785.056 151.1H761.793V248.478H785.056C791.355 248.478 796.48 243.353 796.48 237.054V215.801C796.48 211.208 793.622 207.015 789.368 205.367C787.082 204.482 785.547 202.24 785.547 199.789C785.547 197.337 787.082 195.095 789.367 194.21V194.21Z" fill="#F1F4F8"/>
<path d="M628 162.524V183.777C628 188.37 630.859 192.563 635.113 194.21C637.398 195.095 638.933 197.337 638.933 199.789C638.933 202.24 637.398 204.482 635.113 205.367C630.858 207.015 628 211.208 628 215.801V237.054C628 243.353 633.125 248.478 639.424 248.478H751.883V151.1H639.424C633.125 151.1 628 156.224 628 162.524V162.524ZM662.687 174.149H737.017V184.059H662.687V174.149ZM662.687 193.97H737.017V203.881H662.687V193.97ZM662.687 213.791H737.017V223.702H662.687V213.791Z" fill="#F1F4F8"/>
</g>
<g clip-path="url(#clip2)">
<path d="M916.06 141.189C970.874 141.189 966.825 141.177 967.669 141.21C967.173 139.317 966.187 137.526 964.706 136.044L949.678 121.016C946.431 117.769 941.445 116.824 937.271 118.668C935.029 119.659 932.358 119.159 930.625 117.425C928.891 115.692 928.391 113.021 929.381 110.779C931.225 106.606 930.281 101.62 927.033 98.3715L912.005 83.3434C907.551 78.8896 900.303 78.8893 895.849 83.3434L877.047 102.145C882.346 107.448 910.776 135.9 916.06 141.189Z" fill="#F1F4F8"/>
<path d="M870.039 109.153L838.004 141.189H902.044C901.928 141.072 899.477 138.619 870.039 109.153V109.153Z" fill="#F1F4F8"/>
<path d="M971.149 194.21C975.403 192.563 978.262 188.37 978.262 183.777V162.524C978.262 156.225 973.137 151.1 966.838 151.1H943.575V248.478H966.838C973.137 248.478 978.262 243.353 978.262 237.054V215.801C978.262 211.208 975.404 207.015 971.149 205.367C968.864 204.482 967.328 202.24 967.328 199.789C967.328 197.337 968.864 195.095 971.149 194.21V194.21Z" fill="#F1F4F8"/>
<path d="M809.781 162.524V183.777C809.781 188.37 812.64 192.563 816.894 194.21C819.18 195.095 820.715 197.337 820.715 199.789C820.715 202.24 819.179 204.482 816.894 205.367C812.64 207.015 809.781 211.208 809.781 215.801V237.054C809.781 243.353 814.907 248.478 821.206 248.478H933.664V151.1H821.206C814.907 151.1 809.781 156.224 809.781 162.524V162.524ZM844.469 174.149H918.798V184.059H844.469V174.149ZM844.469 193.97H918.798V203.881H844.469V193.97ZM844.469 213.791H918.798V223.702H844.469V213.791Z" fill="#F1F4F8"/>
</g>
<g clip-path="url(#clip3)">
<path d="M1244.54 141.188C1299.35 141.188 1295.3 141.176 1296.15 141.209C1295.65 139.316 1294.67 137.525 1293.19 136.043L1278.16 121.015C1274.91 117.768 1269.93 116.823 1265.75 118.667C1263.51 119.658 1260.84 119.158 1259.1 117.424C1257.37 115.691 1256.87 113.02 1257.86 110.778C1259.7 106.605 1258.76 101.619 1255.51 98.3706L1240.49 83.3424C1236.03 78.8886 1228.78 78.8883 1224.33 83.3424L1205.53 102.144C1210.83 107.447 1239.26 135.899 1244.54 141.188Z" fill="#F1F4F8"/>
<path d="M1198.52 109.152L1166.48 141.188H1230.52C1230.41 141.071 1227.96 138.618 1198.52 109.152V109.152Z" fill="#F1F4F8"/>
<path d="M1299.63 194.209C1303.88 192.562 1306.74 188.369 1306.74 183.776V162.523C1306.74 156.224 1301.62 151.099 1295.32 151.099H1272.05V248.477H1295.32C1301.62 248.477 1306.74 243.352 1306.74 237.053V215.8C1306.74 211.207 1303.88 207.014 1299.63 205.366C1297.34 204.481 1295.81 202.239 1295.81 199.788C1295.81 197.336 1297.34 195.094 1299.63 194.209V194.209Z" fill="#F1F4F8"/>
<path d="M1138.26 162.523V183.776C1138.26 188.369 1141.12 192.562 1145.37 194.209C1147.66 195.094 1149.19 197.336 1149.19 199.788C1149.19 202.239 1147.66 204.481 1145.37 205.366C1141.12 207.014 1138.26 211.207 1138.26 215.8V237.053C1138.26 243.352 1143.39 248.477 1149.69 248.477H1262.14V151.099H1149.69C1143.39 151.099 1138.26 156.223 1138.26 162.523V162.523ZM1172.95 174.148H1247.28V184.058H1172.95V174.148ZM1172.95 193.969H1247.28V203.88H1172.95V193.969ZM1172.95 213.79H1247.28V223.701H1172.95V213.79Z" fill="#F1F4F8"/>
</g>
<path d="M1088.96 166.562C1090.34 166.562 1091.52 167.041 1092.47 167.999C1093.54 168.957 1094.07 170.127 1094.07 171.51C1094.07 172.894 1093.59 174.117 1092.63 175.181C1091.67 176.139 1090.45 176.618 1088.96 176.618H1060.07V205.348C1060.07 206.838 1059.59 208.062 1058.64 209.019C1057.68 209.977 1056.51 210.456 1055.12 210.456C1053.74 210.456 1052.57 209.977 1051.61 209.019C1050.65 207.955 1050.18 206.732 1050.18 205.348V176.618H1021.29C1019.9 176.618 1018.68 176.139 1017.61 175.181C1016.66 174.117 1016.18 172.894 1016.18 171.51C1016.18 170.127 1016.66 168.957 1017.61 167.999C1018.68 167.041 1019.9 166.562 1021.29 166.562H1050.18V137.832C1050.18 136.342 1050.65 135.119 1051.61 134.161C1052.57 133.097 1053.74 132.565 1055.12 132.565C1056.51 132.565 1057.68 133.097 1058.64 134.161C1059.59 135.119 1060.07 136.342 1060.07 137.832V166.562H1088.96Z" fill="#F1F4F8"/>
<defs>
<clipPath id="clip0">
<rect width="168.48" height="168.48" fill="white" transform="translate(183 80)"/>
</clipPath>
<clipPath id="clip1">
<rect width="168.48" height="168.48" fill="white" transform="translate(628 80)"/>
</clipPath>
<clipPath id="clip2">
<rect width="168.48" height="168.48" fill="white" transform="translate(809.781 80)"/>
</clipPath>
<clipPath id="clip3">
<rect width="168.48" height="168.48" fill="white" transform="translate(1138.26 80)"/>
</clipPath>
</defs>
</svg>
