<svg width="1387" height="621" viewBox="0 0 1387 621" fill="none" xmlns="http://www.w3.org/2000/svg">
<path d="M172.193 355.168L161.945 394.48H150.353L144.081 368.608L137.585 394.48H125.993L116.025 355.168H126.273L131.929 383.784L138.929 355.168H149.457L156.177 383.784L161.889 355.168H172.193ZM191.219 394.928C188.158 394.928 185.395 394.275 182.931 392.968C180.505 391.662 178.582 389.795 177.163 387.368C175.782 384.942 175.091 382.104 175.091 378.856C175.091 375.646 175.801 372.827 177.219 370.4C178.638 367.936 180.579 366.051 183.043 364.744C185.507 363.438 188.27 362.784 191.331 362.784C194.393 362.784 197.155 363.438 199.619 364.744C202.083 366.051 204.025 367.936 205.443 370.4C206.862 372.827 207.571 375.646 207.571 378.856C207.571 382.067 206.843 384.904 205.387 387.368C203.969 389.795 202.009 391.662 199.507 392.968C197.043 394.275 194.281 394.928 191.219 394.928ZM191.219 386.64C193.049 386.64 194.598 385.968 195.867 384.624C197.174 383.28 197.827 381.358 197.827 378.856C197.827 376.355 197.193 374.432 195.923 373.088C194.691 371.744 193.161 371.072 191.331 371.072C189.465 371.072 187.915 371.744 186.683 373.088C185.451 374.395 184.835 376.318 184.835 378.856C184.835 381.358 185.433 383.28 186.627 384.624C187.859 385.968 189.39 386.64 191.219 386.64ZM222.228 368.44C223.348 366.723 224.748 365.379 226.428 364.408C228.108 363.4 229.974 362.896 232.028 362.896V373.032H229.396C227.006 373.032 225.214 373.555 224.02 374.6C222.825 375.608 222.228 377.4 222.228 379.976V394.48H212.652V363.232H222.228V368.44ZM255.701 394.48L246.181 381.376V394.48H236.605V353.04H246.181V375.944L255.645 363.232H267.461L254.469 378.912L267.573 394.48H255.701ZM283.934 394.928C281.209 394.928 278.782 394.462 276.654 393.528C274.526 392.595 272.846 391.326 271.614 389.72C270.382 388.078 269.691 386.248 269.542 384.232H279.006C279.118 385.315 279.622 386.192 280.518 386.864C281.414 387.536 282.515 387.872 283.822 387.872C285.017 387.872 285.931 387.648 286.566 387.2C287.238 386.715 287.574 386.099 287.574 385.352C287.574 384.456 287.107 383.803 286.174 383.392C285.241 382.944 283.729 382.459 281.638 381.936C279.398 381.414 277.531 380.872 276.038 380.312C274.545 379.715 273.257 378.8 272.174 377.568C271.091 376.299 270.55 374.6 270.55 372.472C270.55 370.68 271.035 369.056 272.006 367.6C273.014 366.107 274.47 364.931 276.374 364.072C278.315 363.214 280.611 362.784 283.262 362.784C287.182 362.784 290.262 363.755 292.502 365.696C294.779 367.638 296.086 370.214 296.422 373.424H287.574C287.425 372.342 286.939 371.483 286.118 370.848C285.334 370.214 284.289 369.896 282.982 369.896C281.862 369.896 281.003 370.12 280.406 370.568C279.809 370.979 279.51 371.558 279.51 372.304C279.51 373.2 279.977 373.872 280.91 374.32C281.881 374.768 283.374 375.216 285.39 375.664C287.705 376.262 289.59 376.859 291.046 377.456C292.502 378.016 293.771 378.95 294.854 380.256C295.974 381.526 296.553 383.243 296.59 385.408C296.59 387.238 296.067 388.88 295.022 390.336C294.014 391.755 292.539 392.875 290.598 393.696C288.694 394.518 286.473 394.928 283.934 394.928ZM321.657 362.896C325.241 362.896 328.115 364.091 330.281 366.48C332.446 368.832 333.529 372.08 333.529 376.224V394.48H324.009V377.512C324.009 375.422 323.467 373.798 322.385 372.64C321.302 371.483 319.846 370.904 318.017 370.904C316.187 370.904 314.731 371.483 313.649 372.64C312.566 373.798 312.025 375.422 312.025 377.512V394.48H302.449V353.04H312.025V367.432C312.995 366.051 314.321 364.95 316.001 364.128C317.681 363.307 319.566 362.896 321.657 362.896ZM354.407 394.928C351.346 394.928 348.583 394.275 346.119 392.968C343.692 391.662 341.77 389.795 340.351 387.368C338.97 384.942 338.279 382.104 338.279 378.856C338.279 375.646 338.988 372.827 340.407 370.4C341.826 367.936 343.767 366.051 346.231 364.744C348.695 363.438 351.458 362.784 354.519 362.784C357.58 362.784 360.343 363.438 362.807 364.744C365.271 366.051 367.212 367.936 368.631 370.4C370.05 372.827 370.759 375.646 370.759 378.856C370.759 382.067 370.031 384.904 368.575 387.368C367.156 389.795 365.196 391.662 362.695 392.968C360.231 394.275 357.468 394.928 354.407 394.928ZM354.407 386.64C356.236 386.64 357.786 385.968 359.055 384.624C360.362 383.28 361.015 381.358 361.015 378.856C361.015 376.355 360.38 374.432 359.111 373.088C357.879 371.744 356.348 371.072 354.519 371.072C352.652 371.072 351.103 371.744 349.871 373.088C348.639 374.395 348.023 376.318 348.023 378.856C348.023 381.358 348.62 383.28 349.815 384.624C351.047 385.968 352.578 386.64 354.407 386.64ZM385.415 367.656C386.349 366.2 387.637 365.024 389.279 364.128C390.922 363.232 392.845 362.784 395.047 362.784C397.623 362.784 399.957 363.438 402.047 364.744C404.138 366.051 405.781 367.918 406.975 370.344C408.207 372.771 408.823 375.59 408.823 378.8C408.823 382.011 408.207 384.848 406.975 387.312C405.781 389.739 404.138 391.624 402.047 392.968C399.957 394.275 397.623 394.928 395.047 394.928C392.882 394.928 390.959 394.48 389.279 393.584C387.637 392.688 386.349 391.531 385.415 390.112V409.376H375.839V363.232H385.415V367.656ZM399.079 378.8C399.079 376.411 398.407 374.544 397.063 373.2C395.757 371.819 394.133 371.128 392.191 371.128C390.287 371.128 388.663 371.819 387.319 373.2C386.013 374.582 385.359 376.467 385.359 378.856C385.359 381.246 386.013 383.131 387.319 384.512C388.663 385.894 390.287 386.584 392.191 386.584C394.095 386.584 395.719 385.894 397.063 384.512C398.407 383.094 399.079 381.19 399.079 378.8Z" fill="#F1F4F8"/>
<path d="M147.811 496.584C147.811 498.6 147.203 500.472 145.987 502.2C144.803 503.928 143.251 505.208 141.331 506.04L149.155 519.528L142.867 519.48L135.763 506.856H128.083V519.48H122.899V485.88H137.203C138.963 485.88 140.643 486.312 142.243 487.176C143.875 488.04 145.203 489.272 146.227 490.872C147.283 492.472 147.811 494.376 147.811 496.584ZM136.339 490.872H128.083V501.864H137.683C139.219 501.864 140.403 501.32 141.235 500.232C142.099 499.144 142.531 497.912 142.531 496.536C142.531 494.776 141.923 493.4 140.707 492.408C139.491 491.384 138.035 490.872 136.339 490.872ZM168.178 493.848C170.418 493.848 172.418 494.408 174.178 495.528C175.97 496.616 177.378 498.136 178.402 500.088C179.426 502.04 179.938 504.296 179.938 506.856C179.938 509.384 179.426 511.64 178.402 513.624C177.378 515.576 175.986 517.112 174.226 518.232C172.466 519.352 170.498 519.912 168.322 519.912C166.53 519.912 164.898 519.528 163.426 518.76C161.986 517.992 160.85 517.112 160.018 516.12V530.04H155.026V494.232H160.018V497.928C160.754 496.872 161.858 495.928 163.33 495.096C164.802 494.264 166.418 493.848 168.178 493.848ZM167.506 498.408C166.002 498.408 164.658 498.776 163.474 499.512C162.322 500.248 161.41 501.256 160.738 502.536C160.098 503.784 159.778 505.224 159.778 506.856C159.778 508.456 160.098 509.896 160.738 511.176C161.41 512.456 162.322 513.48 163.474 514.248C164.658 514.984 166.002 515.352 167.506 515.352C169.01 515.352 170.338 514.984 171.49 514.248C172.642 513.48 173.538 512.456 174.178 511.176C174.85 509.896 175.186 508.456 175.186 506.856C175.186 505.224 174.85 503.784 174.178 502.536C173.538 501.256 172.642 500.248 171.49 499.512C170.338 498.776 169.01 498.408 167.506 498.408ZM206.62 514.488V519.48H186.316L184.732 515.544L195.004 503.976C196.316 502.504 197.516 501.032 198.604 499.56C199.692 498.088 200.236 496.584 200.236 495.048C200.236 493.448 199.772 492.248 198.844 491.448C197.916 490.616 196.7 490.2 195.196 490.2C194.46 490.2 193.644 490.424 192.748 490.872C191.852 491.32 191.004 492.024 190.204 492.984C189.404 493.944 188.764 495.208 188.284 496.776L184.3 494.28C185.164 491.304 186.652 489.08 188.764 487.608C190.908 486.136 193.26 485.4 195.82 485.4C197.644 485.4 199.292 485.784 200.764 486.552C202.236 487.288 203.404 488.344 204.268 489.72C205.132 491.096 205.564 492.744 205.564 494.664C205.564 496.872 204.892 499.064 203.548 501.24C202.236 503.384 200.62 505.512 198.7 507.624L192.412 514.488H206.62ZM222.692 519.96C220.004 519.96 217.732 519.224 215.876 517.752C214.052 516.248 212.676 514.2 211.748 511.608C210.82 509.016 210.356 506.04 210.356 502.68C210.356 499.32 210.82 496.344 211.748 493.752C212.676 491.16 214.052 489.128 215.876 487.656C217.732 486.152 220.004 485.4 222.692 485.4C225.412 485.4 227.684 486.152 229.508 487.656C231.332 489.128 232.708 491.16 233.636 493.752C234.596 496.344 235.076 499.32 235.076 502.68C235.076 506.04 234.596 509.016 233.636 511.608C232.708 514.2 231.332 516.248 229.508 517.752C227.684 519.224 225.412 519.96 222.692 519.96ZM222.692 515.256C224.996 515.256 226.788 514.168 228.068 511.992C229.38 509.816 230.036 506.712 230.036 502.68C230.036 498.648 229.38 495.544 228.068 493.368C226.788 491.192 224.996 490.104 222.692 490.104C220.388 490.104 218.58 491.192 217.268 493.368C215.988 495.544 215.348 498.648 215.348 502.68C215.348 506.712 215.988 509.816 217.268 511.992C218.58 514.168 220.388 515.256 222.692 515.256ZM242.777 520.008C241.657 520.008 240.825 519.688 240.281 519.048C239.737 518.376 239.465 517.496 239.465 516.408C239.465 515.48 239.737 514.648 240.281 513.912C240.825 513.176 241.657 512.808 242.777 512.808C243.897 512.808 244.729 513.144 245.273 513.816C245.817 514.456 246.089 515.32 246.089 516.408C246.089 517.304 245.817 518.136 245.273 518.904C244.729 519.64 243.897 520.008 242.777 520.008ZM262.771 519.96C260.083 519.96 257.811 519.224 255.955 517.752C254.131 516.248 252.755 514.2 251.827 511.608C250.899 509.016 250.435 506.04 250.435 502.68C250.435 499.32 250.899 496.344 251.827 493.752C252.755 491.16 254.131 489.128 255.955 487.656C257.811 486.152 260.083 485.4 262.771 485.4C265.491 485.4 267.763 486.152 269.587 487.656C271.411 489.128 272.787 491.16 273.715 493.752C274.675 496.344 275.155 499.32 275.155 502.68C275.155 506.04 274.675 509.016 273.715 511.608C272.787 514.2 271.411 516.248 269.587 517.752C267.763 519.224 265.491 519.96 262.771 519.96ZM262.771 515.256C265.075 515.256 266.867 514.168 268.147 511.992C269.459 509.816 270.115 506.712 270.115 502.68C270.115 498.648 269.459 495.544 268.147 493.368C266.867 491.192 265.075 490.104 262.771 490.104C260.467 490.104 258.659 491.192 257.347 493.368C256.067 495.544 255.427 498.648 255.427 502.68C255.427 506.712 256.067 509.816 257.347 511.992C258.659 514.168 260.467 515.256 262.771 515.256ZM291.927 519.96C289.239 519.96 286.967 519.224 285.111 517.752C283.287 516.248 281.911 514.2 280.983 511.608C280.055 509.016 279.591 506.04 279.591 502.68C279.591 499.32 280.055 496.344 280.983 493.752C281.911 491.16 283.287 489.128 285.111 487.656C286.967 486.152 289.239 485.4 291.927 485.4C294.647 485.4 296.919 486.152 298.743 487.656C300.567 489.128 301.943 491.16 302.871 493.752C303.831 496.344 304.311 499.32 304.311 502.68C304.311 506.04 303.831 509.016 302.871 511.608C301.943 514.2 300.567 516.248 298.743 517.752C296.919 519.224 294.647 519.96 291.927 519.96ZM291.927 515.256C294.231 515.256 296.023 514.168 297.303 511.992C298.615 509.816 299.271 506.712 299.271 502.68C299.271 498.648 298.615 495.544 297.303 493.368C296.023 491.192 294.231 490.104 291.927 490.104C289.623 490.104 287.815 491.192 286.503 493.368C285.223 495.544 284.583 498.648 284.583 502.68C284.583 506.712 285.223 509.816 286.503 511.992C287.815 514.168 289.623 515.256 291.927 515.256ZM321.083 519.96C318.395 519.96 316.123 519.224 314.267 517.752C312.443 516.248 311.067 514.2 310.139 511.608C309.211 509.016 308.747 506.04 308.747 502.68C308.747 499.32 309.211 496.344 310.139 493.752C311.067 491.16 312.443 489.128 314.267 487.656C316.123 486.152 318.395 485.4 321.083 485.4C323.803 485.4 326.075 486.152 327.899 487.656C329.723 489.128 331.099 491.16 332.027 493.752C332.987 496.344 333.467 499.32 333.467 502.68C333.467 506.04 332.987 509.016 332.027 511.608C331.099 514.2 329.723 516.248 327.899 517.752C326.075 519.224 323.803 519.96 321.083 519.96ZM321.083 515.256C323.387 515.256 325.179 514.168 326.459 511.992C327.771 509.816 328.427 506.712 328.427 502.68C328.427 498.648 327.771 495.544 326.459 493.368C325.179 491.192 323.387 490.104 321.083 490.104C318.779 490.104 316.971 491.192 315.659 493.368C314.379 495.544 313.739 498.648 313.739 502.68C313.739 506.712 314.379 509.816 315.659 511.992C316.971 514.168 318.779 515.256 321.083 515.256ZM346.303 519.288C346.303 520.632 345.999 521.896 345.391 523.08C344.783 524.264 343.983 525.288 342.991 526.152C342.031 527.016 341.007 527.656 339.919 528.072L338.095 525.864C339.215 525.224 340.127 524.488 340.831 523.656C341.535 522.824 341.887 522.104 341.887 521.496C341.887 521.016 341.743 520.584 341.455 520.2C341.167 519.848 340.847 519.512 340.495 519.192C340.143 518.84 339.823 518.456 339.535 518.04C339.247 517.592 339.103 517.048 339.103 516.408C339.103 515.608 339.391 514.984 339.967 514.536C340.543 514.088 341.231 513.864 342.031 513.864C343.119 513.864 344.095 514.328 344.959 515.256C345.855 516.184 346.303 517.528 346.303 519.288ZM363.036 519.96C360.348 519.96 358.076 519.224 356.22 517.752C354.396 516.248 353.02 514.2 352.092 511.608C351.164 509.016 350.7 506.04 350.7 502.68C350.7 499.32 351.164 496.344 352.092 493.752C353.02 491.16 354.396 489.128 356.22 487.656C358.076 486.152 360.348 485.4 363.036 485.4C365.756 485.4 368.028 486.152 369.852 487.656C371.676 489.128 373.052 491.16 373.98 493.752C374.94 496.344 375.42 499.32 375.42 502.68C375.42 506.04 374.94 509.016 373.98 511.608C373.052 514.2 371.676 516.248 369.852 517.752C368.028 519.224 365.756 519.96 363.036 519.96ZM363.036 515.256C365.34 515.256 367.132 514.168 368.412 511.992C369.724 509.816 370.38 506.712 370.38 502.68C370.38 498.648 369.724 495.544 368.412 493.368C367.132 491.192 365.34 490.104 363.036 490.104C360.732 490.104 358.924 491.192 357.612 493.368C356.332 495.544 355.692 498.648 355.692 502.68C355.692 506.712 356.332 509.816 357.612 511.992C358.924 514.168 360.732 515.256 363.036 515.256ZM392.192 519.96C389.504 519.96 387.232 519.224 385.376 517.752C383.552 516.248 382.176 514.2 381.248 511.608C380.32 509.016 379.856 506.04 379.856 502.68C379.856 499.32 380.32 496.344 381.248 493.752C382.176 491.16 383.552 489.128 385.376 487.656C387.232 486.152 389.504 485.4 392.192 485.4C394.912 485.4 397.184 486.152 399.008 487.656C400.832 489.128 402.208 491.16 403.136 493.752C404.096 496.344 404.576 499.32 404.576 502.68C404.576 506.04 404.096 509.016 403.136 511.608C402.208 514.2 400.832 516.248 399.008 517.752C397.184 519.224 394.912 519.96 392.192 519.96ZM392.192 515.256C394.496 515.256 396.288 514.168 397.568 511.992C398.88 509.816 399.536 506.712 399.536 502.68C399.536 498.648 398.88 495.544 397.568 493.368C396.288 491.192 394.496 490.104 392.192 490.104C389.888 490.104 388.08 491.192 386.768 493.368C385.488 495.544 384.848 498.648 384.848 502.68C384.848 506.712 385.488 509.816 386.768 511.992C388.08 514.168 389.888 515.256 392.192 515.256Z" fill="#F1F4F8"/>
<g clip-path="url(#clip0)">
<path d="M289.279 141.189C344.093 141.189 340.043 141.177 340.887 141.21C340.391 139.317 339.406 137.526 337.925 136.044L322.896 121.016C319.649 117.769 314.663 116.824 310.489 118.668C308.248 119.659 305.577 119.159 303.843 117.425C302.109 115.692 301.61 113.021 302.6 110.779C304.443 106.606 303.5 101.62 300.251 98.3715L285.224 83.3434C280.769 78.8896 273.522 78.8893 269.067 83.3434L250.266 102.145C255.564 107.448 283.994 135.9 289.279 141.189Z" fill="#F1F4F8"/>
<path d="M243.258 109.153L211.222 141.189H275.263C275.147 141.072 272.696 138.619 243.258 109.153V109.153Z" fill="#F1F4F8"/>
<path d="M344.367 194.21C348.622 192.563 351.48 188.37 351.48 183.777V162.524C351.48 156.225 346.355 151.1 340.056 151.1H316.793V248.478H340.056C346.355 248.478 351.48 243.353 351.48 237.054V215.801C351.48 211.208 348.622 207.015 344.368 205.367C342.082 204.482 340.547 202.24 340.547 199.789C340.547 197.337 342.082 195.095 344.367 194.21V194.21Z" fill="#F1F4F8"/>
<path d="M183 162.524V183.777C183 188.37 185.859 192.563 190.113 194.21C192.398 195.095 193.933 197.337 193.933 199.789C193.933 202.24 192.398 204.482 190.113 205.367C185.858 207.015 183 211.208 183 215.801V237.054C183 243.353 188.125 248.478 194.424 248.478H306.883V151.1H194.424C188.125 151.1 183 156.224 183 162.524V162.524ZM217.687 174.149H292.017V184.059H217.687V174.149ZM217.687 193.97H292.017V203.881H217.687V193.97ZM217.687 213.791H292.017V223.702H217.687V213.791Z" fill="#F1F4F8"/>
</g>
<path d="M861.077 495.104C861.077 497.12 860.469 498.992 859.253 500.72C858.069 502.448 856.517 503.728 854.597 504.56L862.421 518.048L856.133 518L849.029 505.376H841.349V518H836.165V484.4H850.469C852.229 484.4 853.909 484.832 855.509 485.696C857.141 486.56 858.469 487.792 859.493 489.392C860.549 490.992 861.077 492.896 861.077 495.104ZM849.605 489.392H841.349V500.384H850.949C852.485 500.384 853.669 499.84 854.501 498.752C855.365 497.664 855.797 496.432 855.797 495.056C855.797 493.296 855.189 491.92 853.973 490.928C852.757 489.904 851.301 489.392 849.605 489.392ZM881.444 492.368C883.684 492.368 885.684 492.928 887.444 494.048C889.236 495.136 890.644 496.656 891.668 498.608C892.692 500.56 893.204 502.816 893.204 505.376C893.204 507.904 892.692 510.16 891.668 512.144C890.644 514.096 889.252 515.632 887.492 516.752C885.732 517.872 883.764 518.432 881.588 518.432C879.796 518.432 878.164 518.048 876.692 517.28C875.252 516.512 874.116 515.632 873.284 514.64V528.56H868.292V492.752H873.284V496.448C874.02 495.392 875.124 494.448 876.596 493.616C878.068 492.784 879.684 492.368 881.444 492.368ZM880.772 496.928C879.268 496.928 877.924 497.296 876.74 498.032C875.588 498.768 874.676 499.776 874.004 501.056C873.364 502.304 873.044 503.744 873.044 505.376C873.044 506.976 873.364 508.416 874.004 509.696C874.676 510.976 875.588 512 876.74 512.768C877.924 513.504 879.268 513.872 880.772 513.872C882.276 513.872 883.604 513.504 884.756 512.768C885.908 512 886.804 510.976 887.444 509.696C888.116 508.416 888.452 506.976 888.452 505.376C888.452 503.744 888.116 502.304 887.444 501.056C886.804 499.776 885.908 498.768 884.756 498.032C883.604 497.296 882.276 496.928 880.772 496.928ZM912.013 518V508.88H898.765L896.557 504.56L913.021 484.4H917.005V504.128H922.861V508.88H917.005V518H912.013ZM902.653 504.128H912.013V492.704L902.653 504.128ZM939.427 518.48C936.739 518.48 934.467 517.744 932.611 516.272C930.787 514.768 929.411 512.72 928.483 510.128C927.555 507.536 927.091 504.56 927.091 501.2C927.091 497.84 927.555 494.864 928.483 492.272C929.411 489.68 930.787 487.648 932.611 486.176C934.467 484.672 936.739 483.92 939.427 483.92C942.147 483.92 944.419 484.672 946.243 486.176C948.067 487.648 949.443 489.68 950.371 492.272C951.331 494.864 951.811 497.84 951.811 501.2C951.811 504.56 951.331 507.536 950.371 510.128C949.443 512.72 948.067 514.768 946.243 516.272C944.419 517.744 942.147 518.48 939.427 518.48ZM939.427 513.776C941.731 513.776 943.523 512.688 944.803 510.512C946.115 508.336 946.771 505.232 946.771 501.2C946.771 497.168 946.115 494.064 944.803 491.888C943.523 489.712 941.731 488.624 939.427 488.624C937.123 488.624 935.315 489.712 934.003 491.888C932.723 494.064 932.083 497.168 932.083 501.2C932.083 505.232 932.723 508.336 934.003 510.512C935.315 512.688 937.123 513.776 939.427 513.776ZM959.511 518.528C958.391 518.528 957.559 518.208 957.015 517.568C956.471 516.896 956.199 516.016 956.199 514.928C956.199 514 956.471 513.168 957.015 512.432C957.559 511.696 958.391 511.328 959.511 511.328C960.631 511.328 961.463 511.664 962.007 512.336C962.551 512.976 962.823 513.84 962.823 514.928C962.823 515.824 962.551 516.656 962.007 517.424C961.463 518.16 960.631 518.528 959.511 518.528ZM979.505 518.48C976.817 518.48 974.545 517.744 972.689 516.272C970.865 514.768 969.489 512.72 968.561 510.128C967.633 507.536 967.169 504.56 967.169 501.2C967.169 497.84 967.633 494.864 968.561 492.272C969.489 489.68 970.865 487.648 972.689 486.176C974.545 484.672 976.817 483.92 979.505 483.92C982.225 483.92 984.497 484.672 986.321 486.176C988.145 487.648 989.521 489.68 990.449 492.272C991.409 494.864 991.889 497.84 991.889 501.2C991.889 504.56 991.409 507.536 990.449 510.128C989.521 512.72 988.145 514.768 986.321 516.272C984.497 517.744 982.225 518.48 979.505 518.48ZM979.505 513.776C981.809 513.776 983.601 512.688 984.881 510.512C986.193 508.336 986.849 505.232 986.849 501.2C986.849 497.168 986.193 494.064 984.881 491.888C983.601 489.712 981.809 488.624 979.505 488.624C977.201 488.624 975.393 489.712 974.081 491.888C972.801 494.064 972.161 497.168 972.161 501.2C972.161 505.232 972.801 508.336 974.081 510.512C975.393 512.688 977.201 513.776 979.505 513.776ZM1008.66 518.48C1005.97 518.48 1003.7 517.744 1001.85 516.272C1000.02 514.768 998.645 512.72 997.717 510.128C996.789 507.536 996.325 504.56 996.325 501.2C996.325 497.84 996.789 494.864 997.717 492.272C998.645 489.68 1000.02 487.648 1001.85 486.176C1003.7 484.672 1005.97 483.92 1008.66 483.92C1011.38 483.92 1013.65 484.672 1015.48 486.176C1017.3 487.648 1018.68 489.68 1019.61 492.272C1020.57 494.864 1021.05 497.84 1021.05 501.2C1021.05 504.56 1020.57 507.536 1019.61 510.128C1018.68 512.72 1017.3 514.768 1015.48 516.272C1013.65 517.744 1011.38 518.48 1008.66 518.48ZM1008.66 513.776C1010.97 513.776 1012.76 512.688 1014.04 510.512C1015.35 508.336 1016.01 505.232 1016.01 501.2C1016.01 497.168 1015.35 494.064 1014.04 491.888C1012.76 489.712 1010.97 488.624 1008.66 488.624C1006.36 488.624 1004.55 489.712 1003.24 491.888C1001.96 494.064 1001.32 497.168 1001.32 501.2C1001.32 505.232 1001.96 508.336 1003.24 510.512C1004.55 512.688 1006.36 513.776 1008.66 513.776ZM1037.82 518.48C1035.13 518.48 1032.86 517.744 1031 516.272C1029.18 514.768 1027.8 512.72 1026.87 510.128C1025.95 507.536 1025.48 504.56 1025.48 501.2C1025.48 497.84 1025.95 494.864 1026.87 492.272C1027.8 489.68 1029.18 487.648 1031 486.176C1032.86 484.672 1035.13 483.92 1037.82 483.92C1040.54 483.92 1042.81 484.672 1044.63 486.176C1046.46 487.648 1047.83 489.68 1048.76 492.272C1049.72 494.864 1050.2 497.84 1050.2 501.2C1050.2 504.56 1049.72 507.536 1048.76 510.128C1047.83 512.72 1046.46 514.768 1044.63 516.272C1042.81 517.744 1040.54 518.48 1037.82 518.48ZM1037.82 513.776C1040.12 513.776 1041.91 512.688 1043.19 510.512C1044.51 508.336 1045.16 505.232 1045.16 501.2C1045.16 497.168 1044.51 494.064 1043.19 491.888C1041.91 489.712 1040.12 488.624 1037.82 488.624C1035.51 488.624 1033.71 489.712 1032.39 491.888C1031.11 494.064 1030.47 497.168 1030.47 501.2C1030.47 505.232 1031.11 508.336 1032.39 510.512C1033.71 512.688 1035.51 513.776 1037.82 513.776ZM1063.04 517.808C1063.04 519.152 1062.73 520.416 1062.13 521.6C1061.52 522.784 1060.72 523.808 1059.73 524.672C1058.77 525.536 1057.74 526.176 1056.65 526.592L1054.83 524.384C1055.95 523.744 1056.86 523.008 1057.57 522.176C1058.27 521.344 1058.62 520.624 1058.62 520.016C1058.62 519.536 1058.48 519.104 1058.19 518.72C1057.9 518.368 1057.58 518.032 1057.23 517.712C1056.88 517.36 1056.56 516.976 1056.27 516.56C1055.98 516.112 1055.84 515.568 1055.84 514.928C1055.84 514.128 1056.13 513.504 1056.7 513.056C1057.28 512.608 1057.97 512.384 1058.77 512.384C1059.85 512.384 1060.83 512.848 1061.69 513.776C1062.59 514.704 1063.04 516.048 1063.04 517.808ZM1079.77 518.48C1077.08 518.48 1074.81 517.744 1072.95 516.272C1071.13 514.768 1069.75 512.72 1068.83 510.128C1067.9 507.536 1067.43 504.56 1067.43 501.2C1067.43 497.84 1067.9 494.864 1068.83 492.272C1069.75 489.68 1071.13 487.648 1072.95 486.176C1074.81 484.672 1077.08 483.92 1079.77 483.92C1082.49 483.92 1084.76 484.672 1086.59 486.176C1088.41 487.648 1089.79 489.68 1090.71 492.272C1091.67 494.864 1092.15 497.84 1092.15 501.2C1092.15 504.56 1091.67 507.536 1090.71 510.128C1089.79 512.72 1088.41 514.768 1086.59 516.272C1084.76 517.744 1082.49 518.48 1079.77 518.48ZM1079.77 513.776C1082.07 513.776 1083.87 512.688 1085.15 510.512C1086.46 508.336 1087.11 505.232 1087.11 501.2C1087.11 497.168 1086.46 494.064 1085.15 491.888C1083.87 489.712 1082.07 488.624 1079.77 488.624C1077.47 488.624 1075.66 489.712 1074.35 491.888C1073.07 494.064 1072.43 497.168 1072.43 501.2C1072.43 505.232 1073.07 508.336 1074.35 510.512C1075.66 512.688 1077.47 513.776 1079.77 513.776ZM1108.93 518.48C1106.24 518.48 1103.97 517.744 1102.11 516.272C1100.29 514.768 1098.91 512.72 1097.98 510.128C1097.05 507.536 1096.59 504.56 1096.59 501.2C1096.59 497.84 1097.05 494.864 1097.98 492.272C1098.91 489.68 1100.29 487.648 1102.11 486.176C1103.97 484.672 1106.24 483.92 1108.93 483.92C1111.65 483.92 1113.92 484.672 1115.74 486.176C1117.57 487.648 1118.94 489.68 1119.87 492.272C1120.83 494.864 1121.31 497.84 1121.31 501.2C1121.31 504.56 1120.83 507.536 1119.87 510.128C1118.94 512.72 1117.57 514.768 1115.74 516.272C1113.92 517.744 1111.65 518.48 1108.93 518.48ZM1108.93 513.776C1111.23 513.776 1113.02 512.688 1114.3 510.512C1115.61 508.336 1116.27 505.232 1116.27 501.2C1116.27 497.168 1115.61 494.064 1114.3 491.888C1113.02 489.712 1111.23 488.624 1108.93 488.624C1106.62 488.624 1104.81 489.712 1103.5 491.888C1102.22 494.064 1101.58 497.168 1101.58 501.2C1101.58 505.232 1102.22 508.336 1103.5 510.512C1104.81 512.688 1106.62 513.776 1108.93 513.776Z" fill="#F1F4F8"/>
<path d="M885.102 343.328C886.371 342.32 886.95 341.853 886.838 341.928C890.497 338.904 893.371 336.421 895.462 334.48C897.59 332.539 899.382 330.504 900.838 328.376C902.294 326.248 903.022 324.176 903.022 322.16C903.022 320.629 902.667 319.435 901.958 318.576C901.249 317.717 900.185 317.288 898.766 317.288C897.347 317.288 896.227 317.829 895.406 318.912C894.622 319.957 894.23 321.451 894.23 323.392H884.99C885.065 320.219 885.737 317.568 887.006 315.44C888.313 313.312 890.011 311.744 892.102 310.736C894.23 309.728 896.582 309.224 899.158 309.224C903.601 309.224 906.942 310.363 909.182 312.64C911.459 314.917 912.598 317.885 912.598 321.544C912.598 325.539 911.235 329.253 908.51 332.688C905.785 336.085 902.313 339.408 898.094 342.656H913.214V350.44H885.102V343.328ZM944.977 311.688C949.121 311.688 952.743 312.509 955.841 314.152C958.94 315.795 961.329 318.109 963.009 321.096C964.727 324.045 965.585 327.461 965.585 331.344C965.585 335.189 964.727 338.605 963.009 341.592C961.329 344.579 958.921 346.893 955.785 348.536C952.687 350.179 949.084 351 944.977 351H930.249V311.688H944.977ZM944.361 342.712C947.983 342.712 950.801 341.723 952.817 339.744C954.833 337.765 955.841 334.965 955.841 331.344C955.841 327.723 954.833 324.904 952.817 322.888C950.801 320.872 947.983 319.864 944.361 319.864H939.825V342.712H944.361ZM969.033 335.32C969.033 332.109 969.63 329.291 970.825 326.864C972.057 324.437 973.718 322.571 975.809 321.264C977.9 319.957 980.233 319.304 982.809 319.304C985.012 319.304 986.934 319.752 988.577 320.648C990.257 321.544 991.545 322.72 992.441 324.176V319.752H1002.02V351H992.441V346.576C991.508 348.032 990.201 349.208 988.521 350.104C986.878 351 984.956 351.448 982.753 351.448C980.214 351.448 977.9 350.795 975.809 349.488C973.718 348.144 972.057 346.259 970.825 343.832C969.63 341.368 969.033 338.531 969.033 335.32ZM992.441 335.376C992.441 332.987 991.769 331.101 990.425 329.72C989.118 328.339 987.513 327.648 985.609 327.648C983.705 327.648 982.081 328.339 980.737 329.72C979.43 331.064 978.777 332.931 978.777 335.32C978.777 337.709 979.43 339.613 980.737 341.032C982.081 342.413 983.705 343.104 985.609 343.104C987.513 343.104 989.118 342.413 990.425 341.032C991.769 339.651 992.441 337.765 992.441 335.376ZM1040.86 319.752L1021.26 365.84H1010.96L1018.13 349.936L1005.42 319.752H1016.11L1023.34 339.296L1030.5 319.752H1040.86ZM1057.04 351.448C1054.31 351.448 1051.89 350.981 1049.76 350.048C1047.63 349.115 1045.95 347.845 1044.72 346.24C1043.49 344.597 1042.8 342.768 1042.65 340.752H1052.11C1052.22 341.835 1052.73 342.712 1053.62 343.384C1054.52 344.056 1055.62 344.392 1056.93 344.392C1058.12 344.392 1059.04 344.168 1059.67 343.72C1060.34 343.235 1060.68 342.619 1060.68 341.872C1060.68 340.976 1060.21 340.323 1059.28 339.912C1058.35 339.464 1056.83 338.979 1054.74 338.456C1052.5 337.933 1050.64 337.392 1049.14 336.832C1047.65 336.235 1046.36 335.32 1045.28 334.088C1044.2 332.819 1043.66 331.12 1043.66 328.992C1043.66 327.2 1044.14 325.576 1045.11 324.12C1046.12 322.627 1047.58 321.451 1049.48 320.592C1051.42 319.733 1053.72 319.304 1056.37 319.304C1060.29 319.304 1063.37 320.275 1065.61 322.216C1067.88 324.157 1069.19 326.733 1069.53 329.944H1060.68C1060.53 328.861 1060.04 328.003 1059.22 327.368C1058.44 326.733 1057.39 326.416 1056.09 326.416C1054.97 326.416 1054.11 326.64 1053.51 327.088C1052.91 327.499 1052.62 328.077 1052.62 328.824C1052.62 329.72 1053.08 330.392 1054.02 330.84C1054.99 331.288 1056.48 331.736 1058.5 332.184C1060.81 332.781 1062.7 333.379 1064.15 333.976C1065.61 334.536 1066.88 335.469 1067.96 336.776C1069.08 338.045 1069.66 339.763 1069.7 341.928C1069.7 343.757 1069.17 345.4 1068.13 346.856C1067.12 348.275 1065.64 349.395 1063.7 350.216C1061.8 351.037 1059.58 351.448 1057.04 351.448ZM733.931 395.688L723.683 435H712.091L705.819 409.128L699.323 435H687.731L677.763 395.688H688.011L693.667 424.304L700.667 395.688H711.195L717.915 424.304L723.627 395.688H733.931ZM768.19 418.872C768.19 419.768 768.134 420.701 768.022 421.672H746.35C746.499 423.613 747.115 425.107 748.198 426.152C749.318 427.16 750.68 427.664 752.286 427.664C754.675 427.664 756.336 426.656 757.27 424.64H767.462C766.939 426.693 765.987 428.541 764.606 430.184C763.262 431.827 761.563 433.115 759.51 434.048C757.456 434.981 755.16 435.448 752.622 435.448C749.56 435.448 746.835 434.795 744.446 433.488C742.056 432.181 740.19 430.315 738.846 427.888C737.502 425.461 736.83 422.624 736.83 419.376C736.83 416.128 737.483 413.291 738.79 410.864C740.134 408.437 742 406.571 744.39 405.264C746.779 403.957 749.523 403.304 752.622 403.304C755.646 403.304 758.334 403.939 760.686 405.208C763.038 406.477 764.867 408.288 766.174 410.64C767.518 412.992 768.19 415.736 768.19 418.872ZM758.39 416.352C758.39 414.709 757.83 413.403 756.71 412.432C755.59 411.461 754.19 410.976 752.51 410.976C750.904 410.976 749.542 411.443 748.422 412.376C747.339 413.309 746.667 414.635 746.406 416.352H758.39ZM782.818 408.176C783.714 406.72 785.002 405.544 786.682 404.648C788.362 403.752 790.284 403.304 792.45 403.304C795.026 403.304 797.359 403.957 799.45 405.264C801.54 406.571 803.183 408.437 804.378 410.864C805.61 413.291 806.226 416.109 806.226 419.32C806.226 422.531 805.61 425.368 804.378 427.832C803.183 430.259 801.54 432.144 799.45 433.488C797.359 434.795 795.026 435.448 792.45 435.448C790.247 435.448 788.324 435.019 786.682 434.16C785.039 433.264 783.751 432.088 782.818 430.632V435H773.242V393.56H782.818V408.176ZM796.482 419.32C796.482 416.931 795.81 415.064 794.466 413.72C793.159 412.339 791.535 411.648 789.594 411.648C787.69 411.648 786.066 412.339 784.722 413.72C783.415 415.101 782.762 416.987 782.762 419.376C782.762 421.765 783.415 423.651 784.722 425.032C786.066 426.413 787.69 427.104 789.594 427.104C791.498 427.104 793.122 426.413 794.466 425.032C795.81 423.613 796.482 421.709 796.482 419.32ZM816.065 400.504C814.385 400.504 813.004 400.019 811.921 399.048C810.876 398.04 810.353 396.808 810.353 395.352C810.353 393.859 810.876 392.627 811.921 391.656C813.004 390.648 814.385 390.144 816.065 390.144C817.708 390.144 819.052 390.648 820.097 391.656C821.18 392.627 821.721 393.859 821.721 395.352C821.721 396.808 821.18 398.04 820.097 399.048C819.052 400.019 817.708 400.504 816.065 400.504ZM820.825 403.752V435H811.249V403.752H820.825ZM846.805 403.416C850.464 403.416 853.376 404.611 855.541 407C857.744 409.352 858.845 412.6 858.845 416.744V435H849.325V418.032C849.325 415.941 848.784 414.317 847.701 413.16C846.618 412.003 845.162 411.424 843.333 411.424C841.504 411.424 840.048 412.003 838.965 413.16C837.882 414.317 837.341 415.941 837.341 418.032V435H827.765V403.752H837.341V407.896C838.312 406.515 839.618 405.432 841.261 404.648C842.904 403.827 844.752 403.416 846.805 403.416ZM863.595 419.32C863.595 416.109 864.193 413.291 865.387 410.864C866.619 408.437 868.281 406.571 870.371 405.264C872.462 403.957 874.795 403.304 877.371 403.304C879.574 403.304 881.497 403.752 883.139 404.648C884.819 405.544 886.107 406.72 887.003 408.176V403.752H896.579V435H887.003V430.576C886.07 432.032 884.763 433.208 883.083 434.104C881.441 435 879.518 435.448 877.315 435.448C874.777 435.448 872.462 434.795 870.371 433.488C868.281 432.144 866.619 430.259 865.387 427.832C864.193 425.368 863.595 422.531 863.595 419.32ZM887.003 419.376C887.003 416.987 886.331 415.101 884.987 413.72C883.681 412.339 882.075 411.648 880.171 411.648C878.267 411.648 876.643 412.339 875.299 413.72C873.993 415.064 873.339 416.931 873.339 419.32C873.339 421.709 873.993 423.613 875.299 425.032C876.643 426.413 878.267 427.104 880.171 427.104C882.075 427.104 883.681 426.413 884.987 425.032C886.331 423.651 887.003 421.765 887.003 419.376ZM913.083 408.96C914.203 407.243 915.603 405.899 917.283 404.928C918.963 403.92 920.83 403.416 922.883 403.416V413.552H920.251C917.862 413.552 916.07 414.075 914.875 415.12C913.68 416.128 913.083 417.92 913.083 420.496V435H903.507V403.752H913.083V408.96ZM967.719 419.712H957.975V429.68H948.903V419.712H939.159V411.144H948.903V401.12H957.975V411.144H967.719V419.712ZM1040.45 395.688L1030.21 435H1018.61L1012.34 409.128L1005.85 435H994.255L984.287 395.688H994.535L1000.19 424.304L1007.19 395.688H1017.72L1024.44 424.304L1030.15 395.688H1040.45ZM1059.48 435.448C1056.42 435.448 1053.66 434.795 1051.19 433.488C1048.77 432.181 1046.84 430.315 1045.43 427.888C1044.04 425.461 1043.35 422.624 1043.35 419.376C1043.35 416.165 1044.06 413.347 1045.48 410.92C1046.9 408.456 1048.84 406.571 1051.31 405.264C1053.77 403.957 1056.53 403.304 1059.59 403.304C1062.65 403.304 1065.42 403.957 1067.88 405.264C1070.35 406.571 1072.29 408.456 1073.71 410.92C1075.12 413.347 1075.83 416.165 1075.83 419.376C1075.83 422.587 1075.11 425.424 1073.65 427.888C1072.23 430.315 1070.27 432.181 1067.77 433.488C1065.31 434.795 1062.54 435.448 1059.48 435.448ZM1059.48 427.16C1061.31 427.16 1062.86 426.488 1064.13 425.144C1065.44 423.8 1066.09 421.877 1066.09 419.376C1066.09 416.875 1065.45 414.952 1064.19 413.608C1062.95 412.264 1061.42 411.592 1059.59 411.592C1057.73 411.592 1056.18 412.264 1054.95 413.608C1053.71 414.915 1053.1 416.837 1053.1 419.376C1053.1 421.877 1053.69 423.8 1054.89 425.144C1056.12 426.488 1057.65 427.16 1059.48 427.16ZM1090.49 408.96C1091.61 407.243 1093.01 405.899 1094.69 404.928C1096.37 403.92 1098.24 403.416 1100.29 403.416V413.552H1097.66C1095.27 413.552 1093.48 414.075 1092.28 415.12C1091.09 416.128 1090.49 417.92 1090.49 420.496V435H1080.91V403.752H1090.49V408.96ZM1123.96 435L1114.44 421.896V435H1104.87V393.56H1114.44V416.464L1123.91 403.752H1135.72L1122.73 419.432L1135.83 435H1123.96ZM1152.2 435.448C1149.47 435.448 1147.04 434.981 1144.92 434.048C1142.79 433.115 1141.11 431.845 1139.88 430.24C1138.64 428.597 1137.95 426.768 1137.8 424.752H1147.27C1147.38 425.835 1147.88 426.712 1148.78 427.384C1149.68 428.056 1150.78 428.392 1152.08 428.392C1153.28 428.392 1154.19 428.168 1154.83 427.72C1155.5 427.235 1155.84 426.619 1155.84 425.872C1155.84 424.976 1155.37 424.323 1154.44 423.912C1153.5 423.464 1151.99 422.979 1149.9 422.456C1147.66 421.933 1145.79 421.392 1144.3 420.832C1142.81 420.235 1141.52 419.32 1140.44 418.088C1139.35 416.819 1138.81 415.12 1138.81 412.992C1138.81 411.2 1139.3 409.576 1140.27 408.12C1141.28 406.627 1142.73 405.451 1144.64 404.592C1146.58 403.733 1148.87 403.304 1151.52 403.304C1155.44 403.304 1158.52 404.275 1160.76 406.216C1163.04 408.157 1164.35 410.733 1164.68 413.944H1155.84C1155.69 412.861 1155.2 412.003 1154.38 411.368C1153.6 410.733 1152.55 410.416 1151.24 410.416C1150.12 410.416 1149.27 410.64 1148.67 411.088C1148.07 411.499 1147.77 412.077 1147.77 412.824C1147.77 413.72 1148.24 414.392 1149.17 414.84C1150.14 415.288 1151.64 415.736 1153.65 416.184C1155.97 416.781 1157.85 417.379 1159.31 417.976C1160.76 418.536 1162.03 419.469 1163.12 420.776C1164.24 422.045 1164.81 423.763 1164.85 425.928C1164.85 427.757 1164.33 429.4 1163.28 430.856C1162.28 432.275 1160.8 433.395 1158.86 434.216C1156.96 435.037 1154.73 435.448 1152.2 435.448ZM1189.92 403.416C1193.5 403.416 1196.38 404.611 1198.54 407C1200.71 409.352 1201.79 412.6 1201.79 416.744V435H1192.27V418.032C1192.27 415.941 1191.73 414.317 1190.65 413.16C1189.56 412.003 1188.11 411.424 1186.28 411.424C1184.45 411.424 1182.99 412.003 1181.91 413.16C1180.83 414.317 1180.29 415.941 1180.29 418.032V435H1170.71V393.56H1180.29V407.952C1181.26 406.571 1182.58 405.469 1184.26 404.648C1185.94 403.827 1187.83 403.416 1189.92 403.416ZM1222.67 435.448C1219.61 435.448 1216.84 434.795 1214.38 433.488C1211.95 432.181 1210.03 430.315 1208.61 427.888C1207.23 425.461 1206.54 422.624 1206.54 419.376C1206.54 416.165 1207.25 413.347 1208.67 410.92C1210.09 408.456 1212.03 406.571 1214.49 405.264C1216.96 403.957 1219.72 403.304 1222.78 403.304C1225.84 403.304 1228.6 403.957 1231.07 405.264C1233.53 406.571 1235.47 408.456 1236.89 410.92C1238.31 413.347 1239.02 416.165 1239.02 419.376C1239.02 422.587 1238.29 425.424 1236.84 427.888C1235.42 430.315 1233.46 432.181 1230.96 433.488C1228.49 434.795 1225.73 435.448 1222.67 435.448ZM1222.67 427.16C1224.5 427.16 1226.05 426.488 1227.32 425.144C1228.62 423.8 1229.28 421.877 1229.28 419.376C1229.28 416.875 1228.64 414.952 1227.37 413.608C1226.14 412.264 1224.61 411.592 1222.78 411.592C1220.91 411.592 1219.36 412.264 1218.13 413.608C1216.9 414.915 1216.28 416.837 1216.28 419.376C1216.28 421.877 1216.88 423.8 1218.08 425.144C1219.31 426.488 1220.84 427.16 1222.67 427.16ZM1253.68 408.176C1254.61 406.72 1255.9 405.544 1257.54 404.648C1259.18 403.752 1261.11 403.304 1263.31 403.304C1265.88 403.304 1268.22 403.957 1270.31 405.264C1272.4 406.571 1274.04 408.437 1275.24 410.864C1276.47 413.291 1277.08 416.109 1277.08 419.32C1277.08 422.531 1276.47 425.368 1275.24 427.832C1274.04 430.259 1272.4 432.144 1270.31 433.488C1268.22 434.795 1265.88 435.448 1263.31 435.448C1261.14 435.448 1259.22 435 1257.54 434.104C1255.9 433.208 1254.61 432.051 1253.68 430.632V449.896H1244.1V403.752H1253.68V408.176ZM1267.34 419.32C1267.34 416.931 1266.67 415.064 1265.32 413.72C1264.02 412.339 1262.39 411.648 1260.45 411.648C1258.55 411.648 1256.92 412.339 1255.58 413.72C1254.27 415.101 1253.62 416.987 1253.62 419.376C1253.62 421.765 1254.27 423.651 1255.58 425.032C1256.92 426.413 1258.55 427.104 1260.45 427.104C1262.36 427.104 1263.98 426.413 1265.32 425.032C1266.67 423.613 1267.34 421.709 1267.34 419.32Z" fill="#F1F4F8"/>
<g clip-path="url(#clip1)">
<path d="M734.279 141.189C789.093 141.189 785.043 141.177 785.887 141.21C785.391 139.317 784.406 137.526 782.925 136.044L767.896 121.016C764.649 117.769 759.663 116.824 755.489 118.668C753.248 119.659 750.577 119.159 748.843 117.425C747.109 115.692 746.61 113.021 747.6 110.779C749.443 106.606 748.5 101.62 745.251 98.3715L730.224 83.3434C725.769 78.8896 718.522 78.8893 714.067 83.3434L695.266 102.145C700.564 107.448 728.994 135.9 734.279 141.189Z" fill="#F1F4F8"/>
<path d="M688.258 109.153L656.222 141.189H720.263C720.147 141.072 717.696 138.619 688.258 109.153V109.153Z" fill="#F1F4F8"/>
<path d="M789.367 194.21C793.622 192.563 796.48 188.37 796.48 183.777V162.524C796.48 156.225 791.355 151.1 785.056 151.1H761.793V248.478H785.056C791.355 248.478 796.48 243.353 796.48 237.054V215.801C796.48 211.208 793.622 207.015 789.368 205.367C787.082 204.482 785.547 202.24 785.547 199.789C785.547 197.337 787.082 195.095 789.367 194.21V194.21Z" fill="#F1F4F8"/>
<path d="M628 162.524V183.777C628 188.37 630.859 192.563 635.113 194.21C637.398 195.095 638.933 197.337 638.933 199.789C638.933 202.24 637.398 204.482 635.113 205.367C630.858 207.015 628 211.208 628 215.801V237.054C628 243.353 633.125 248.478 639.424 248.478H751.883V151.1H639.424C633.125 151.1 628 156.224 628 162.524V162.524ZM662.687 174.149H737.017V184.059H662.687V174.149ZM662.687 193.97H737.017V203.881H662.687V193.97ZM662.687 213.791H737.017V223.702H662.687V213.791Z" fill="#F1F4F8"/>
</g>
<g clip-path="url(#clip2)">
<path d="M916.06 141.189C970.874 141.189 966.825 141.177 967.669 141.21C967.173 139.317 966.187 137.526 964.706 136.044L949.678 121.016C946.431 117.769 941.445 116.824 937.271 118.668C935.029 119.659 932.358 119.159 930.625 117.425C928.891 115.692 928.391 113.021 929.381 110.779C931.225 106.606 930.281 101.62 927.033 98.3715L912.005 83.3434C907.551 78.8896 900.303 78.8893 895.849 83.3434L877.047 102.145C882.346 107.448 910.776 135.9 916.06 141.189Z" fill="#F1F4F8"/>
<path d="M870.039 109.153L838.004 141.189H902.044C901.928 141.072 899.477 138.619 870.039 109.153V109.153Z" fill="#F1F4F8"/>
<path d="M971.149 194.21C975.403 192.563 978.262 188.37 978.262 183.777V162.524C978.262 156.225 973.137 151.1 966.838 151.1H943.575V248.478H966.838C973.137 248.478 978.262 243.353 978.262 237.054V215.801C978.262 211.208 975.404 207.015 971.149 205.367C968.864 204.482 967.328 202.24 967.328 199.789C967.328 197.337 968.864 195.095 971.149 194.21V194.21Z" fill="#F1F4F8"/>
<path d="M809.781 162.524V183.777C809.781 188.37 812.64 192.563 816.894 194.21C819.18 195.095 820.715 197.337 820.715 199.789C820.715 202.24 819.179 204.482 816.894 205.367C812.64 207.015 809.781 211.208 809.781 215.801V237.054C809.781 243.353 814.907 248.478 821.206 248.478H933.664V151.1H821.206C814.907 151.1 809.781 156.224 809.781 162.524V162.524ZM844.469 174.149H918.798V184.059H844.469V174.149ZM844.469 193.97H918.798V203.881H844.469V193.97ZM844.469 213.791H918.798V223.702H844.469V213.791Z" fill="#F1F4F8"/>
</g>
<g clip-path="url(#clip3)">
<path d="M1244.54 141.188C1299.35 141.188 1295.3 141.176 1296.15 141.209C1295.65 139.316 1294.67 137.525 1293.19 136.043L1278.16 121.015C1274.91 117.768 1269.93 116.823 1265.75 118.667C1263.51 119.658 1260.84 119.158 1259.1 117.424C1257.37 115.691 1256.87 113.02 1257.86 110.778C1259.7 106.605 1258.76 101.619 1255.51 98.3706L1240.49 83.3424C1236.03 78.8886 1228.78 78.8883 1224.33 83.3424L1205.53 102.144C1210.83 107.447 1239.26 135.899 1244.54 141.188Z" fill="#F1F4F8"/>
<path d="M1198.52 109.152L1166.48 141.188H1230.52C1230.41 141.071 1227.96 138.618 1198.52 109.152V109.152Z" fill="#F1F4F8"/>
<path d="M1299.63 194.209C1303.88 192.562 1306.74 188.369 1306.74 183.776V162.523C1306.74 156.224 1301.62 151.099 1295.32 151.099H1272.05V248.477H1295.32C1301.62 248.477 1306.74 243.352 1306.74 237.053V215.8C1306.74 211.207 1303.88 207.014 1299.63 205.366C1297.34 204.481 1295.81 202.239 1295.81 199.788C1295.81 197.336 1297.34 195.094 1299.63 194.209V194.209Z" fill="#F1F4F8"/>
<path d="M1138.26 162.523V183.776C1138.26 188.369 1141.12 192.562 1145.37 194.209C1147.66 195.094 1149.19 197.336 1149.19 199.788C1149.19 202.239 1147.66 204.481 1145.37 205.366C1141.12 207.014 1138.26 211.207 1138.26 215.8V237.053C1138.26 243.352 1143.39 248.477 1149.69 248.477H1262.14V151.099H1149.69C1143.39 151.099 1138.26 156.223 1138.26 162.523V162.523ZM1172.95 174.148H1247.28V184.058H1172.95V174.148ZM1172.95 193.969H1247.28V203.88H1172.95V193.969ZM1172.95 213.79H1247.28V223.701H1172.95V213.79Z" fill="#F1F4F8"/>
</g>
<path d="M1088.96 166.562C1090.34 166.562 1091.52 167.041 1092.47 167.999C1093.54 168.957 1094.07 170.127 1094.07 171.51C1094.07 172.894 1093.59 174.117 1092.63 175.181C1091.67 176.139 1090.45 176.618 1088.96 176.618H1060.07V205.348C1060.07 206.838 1059.59 208.062 1058.64 209.019C1057.68 209.977 1056.51 210.456 1055.12 210.456C1053.74 210.456 1052.57 209.977 1051.61 209.019C1050.65 207.955 1050.18 206.732 1050.18 205.348V176.618H1021.29C1019.9 176.618 1018.68 176.139 1017.61 175.181C1016.66 174.117 1016.18 172.894 1016.18 171.51C1016.18 170.127 1016.66 168.957 1017.61 167.999C1018.68 167.041 1019.9 166.562 1021.29 166.562H1050.18V137.832C1050.18 136.342 1050.65 135.119 1051.61 134.161C1052.57 133.097 1053.74 132.565 1055.12 132.565C1056.51 132.565 1057.68 133.097 1058.64 134.161C1059.59 135.119 1060.07 136.342 1060.07 137.832V166.562H1088.96Z" fill="#F1F4F8"/>
<defs>
<clipPath id="clip0">
<rect width="168.48" height="168.48" fill="white" transform="translate(183 80)"/>
</clipPath>
<clipPath id="clip1">
<rect width="168.48" height="168.48" fill="white" transform="translate(628 80)"/>
</clipPath>
<clipPath id="clip2">
<rect width="168.48" height="168.48" fill="white" transform="translate(809.781 80)"/>
</clipPath>
<clipPath id="clip3">
<rect width="168.48" height="168.48" fill="white" transform="translate(1138.26 80)"/>
</clipPath>
</defs>
</svg>
