<svg width="104" height="104" viewBox="0 0 104 104" fill="none" xmlns="http://www.w3.org/2000/svg">
<circle cx="52" cy="52" r="52" fill="white"/>
<path d="M55.14 62.75C56.0737 55.3494 65.625 49.2556 65.625 30.875H39.375C39.375 49.2556 48.9469 55.3494 49.8825 62.75H55.14ZM48.3637 41.24L51.1012 40.8612L52.3069 38.375L53.5125 40.8612L56.25 41.24L54.2569 43.1544L54.7444 45.875L52.3069 44.5719L49.8694 45.875L50.3569 43.1544L48.3637 41.24ZM41.2331 48.98C41.7694 50.1763 42.33 51.2881 42.8869 52.3231C35.265 49.7956 30.6975 42.3219 30 34.625H37.6444C37.7119 35.5287 37.7944 36.4156 37.905 37.2594H32.8631C33.6637 41.0113 35.7675 46.1263 41.2331 48.98ZM60 69.5356V72.125H45V69.5356C48.6394 69.5356 49.4419 66.8488 49.8206 64.625H55.1944C55.5562 66.8506 56.2537 69.5356 60 69.5356ZM75 34.625C74.3025 42.3219 69.735 49.7956 62.1131 52.3212C62.67 51.2862 63.2306 50.1744 63.7669 48.9781C69.2325 46.1262 71.3363 41.0094 72.1369 37.2575H67.0969C67.2075 36.4137 67.29 35.5287 67.3575 34.6231H75V34.625Z" fill="#00192E"/>
</svg>
