<svg width="819" height="234" fill="none" xmlns="http://www.w3.org/2000/svg">
  <path d="M321.476 191.828c0 1.512-.456 2.916-1.368 4.212a8.016 8.016 0 01-3.492 2.88l5.868 10.116-4.716-.036-5.328-9.468h-5.76V209h-3.888v-25.2h10.728c1.32 0 2.58.324 3.78.972a7.88 7.88 0 012.988 2.772c.792 1.2 1.188 2.628 1.188 4.284zm-8.604-4.284h-6.192v8.244h7.2c1.152 0 2.04-.408 2.664-1.224a4.34 4.34 0 00.972-2.772c0-1.32-.456-2.352-1.368-3.096-.912-.768-2.004-1.152-3.276-1.152zm23.879 2.232c1.68 0 3.18.42 4.5 1.26 1.344.816 2.4 1.956 3.168 3.42.768 1.464 1.152 3.156 1.152 5.076 0 1.896-.384 3.588-1.152 5.076-.768 1.464-1.812 2.616-3.132 3.456-1.32.84-2.796 1.26-4.428 1.26-1.344 0-2.568-.288-3.672-.864-1.08-.576-1.932-1.236-2.556-1.98v10.44h-3.744v-26.856h3.744v2.772c.552-.792 1.38-1.5 2.484-2.124 1.104-.624 2.316-.936 3.636-.936zm-.504 3.42c-1.128 0-2.136.276-3.024.828-.864.552-1.548 1.308-2.052 2.268-.48.936-.72 2.016-.72 3.24 0 1.2.24 2.28.72 3.24a6.15 6.15 0 002.052 2.304c.888.552 1.896.828 3.024.828 1.128 0 2.124-.276 2.988-.828a5.867 5.867 0 002.016-2.304c.504-.96.756-2.04.756-3.24 0-1.224-.252-2.304-.756-3.24-.48-.96-1.152-1.716-2.016-2.268-.864-.552-1.86-.828-2.988-.828zm24.593 8.928c.36.528.792 1.092 1.296 1.692.528.6 1.14 1.104 1.836 1.512.72.408 1.536.612 2.448.612.72 0 1.44-.18 2.16-.54a4.942 4.942 0 001.8-1.656c.504-.744.756-1.644.756-2.7 0-1.08-.204-1.944-.612-2.592-.384-.648-.9-1.116-1.548-1.404a5.17 5.17 0 00-2.124-.432c-.744 0-1.5.12-2.268.36-.744.216-1.44.456-2.088.72l-1.08-2.844 6.768-7.452h-8.964v-3.6h14.436l.72 1.44-7.056 7.812c1.392 0 2.652.348 3.78 1.044a7.399 7.399 0 012.736 2.772c.696 1.176 1.044 2.496 1.044 3.96 0 1.728-.42 3.24-1.26 4.536a8.342 8.342 0 01-3.24 2.952 8.973 8.973 0 01-4.248 1.044c-1.416 0-2.64-.228-3.672-.684a8.42 8.42 0 01-2.628-1.944 17.569 17.569 0 01-2.016-2.7l3.024-1.908zm19.414 7.272c-.84 0-1.464-.24-1.872-.72-.408-.504-.612-1.164-.612-1.98 0-.696.204-1.32.612-1.872.408-.552 1.032-.828 1.872-.828.84 0 1.464.252 1.872.756.408.48.612 1.128.612 1.944 0 .672-.204 1.296-.612 1.872-.408.552-1.032.828-1.872.828zm14.996-.036c-2.016 0-3.72-.552-5.112-1.656-1.368-1.128-2.4-2.664-3.096-4.608-.696-1.944-1.044-4.176-1.044-6.696 0-2.52.348-4.752 1.044-6.696.696-1.944 1.728-3.468 3.096-4.572 1.392-1.128 3.096-1.692 5.112-1.692 2.04 0 3.744.564 5.112 1.692 1.368 1.104 2.4 2.628 3.096 4.572.72 1.944 1.08 4.176 1.08 6.696 0 2.52-.36 4.752-1.08 6.696-.696 1.944-1.728 3.48-3.096 4.608-1.368 1.104-3.072 1.656-5.112 1.656zm0-3.528c1.728 0 3.072-.816 4.032-2.448.984-1.632 1.476-3.96 1.476-6.984s-.492-5.352-1.476-6.984c-.96-1.632-2.304-2.448-4.032-2.448-1.728 0-3.084.816-4.068 2.448-.96 1.632-1.44 3.96-1.44 6.984s.48 5.352 1.44 6.984c.984 1.632 2.34 2.448 4.068 2.448zm21.867 3.528c-2.016 0-3.72-.552-5.112-1.656-1.368-1.128-2.4-2.664-3.096-4.608-.696-1.944-1.044-4.176-1.044-6.696 0-2.52.348-4.752 1.044-6.696.696-1.944 1.728-3.468 3.096-4.572 1.392-1.128 3.096-1.692 5.112-1.692 2.04 0 3.744.564 5.112 1.692 1.368 1.104 2.4 2.628 3.096 4.572.72 1.944 1.08 4.176 1.08 6.696 0 2.52-.36 4.752-1.08 6.696-.696 1.944-1.728 3.48-3.096 4.608-1.368 1.104-3.072 1.656-5.112 1.656zm0-3.528c1.728 0 3.072-.816 4.032-2.448.984-1.632 1.476-3.96 1.476-6.984s-.492-5.352-1.476-6.984c-.96-1.632-2.304-2.448-4.032-2.448-1.728 0-3.084.816-4.068 2.448-.96 1.632-1.44 3.96-1.44 6.984s.48 5.352 1.44 6.984c.984 1.632 2.34 2.448 4.068 2.448zm21.867 3.528c-2.016 0-3.72-.552-5.112-1.656-1.368-1.128-2.4-2.664-3.096-4.608-.696-1.944-1.044-4.176-1.044-6.696 0-2.52.348-4.752 1.044-6.696.696-1.944 1.728-3.468 3.096-4.572 1.392-1.128 3.096-1.692 5.112-1.692 2.04 0 3.744.564 5.112 1.692 1.368 1.104 2.4 2.628 3.096 4.572.72 1.944 1.08 4.176 1.08 6.696 0 2.52-.36 4.752-1.08 6.696-.696 1.944-1.728 3.48-3.096 4.608-1.368 1.104-3.072 1.656-5.112 1.656zm0-3.528c1.728 0 3.072-.816 4.032-2.448.984-1.632 1.476-3.96 1.476-6.984s-.492-5.352-1.476-6.984c-.96-1.632-2.304-2.448-4.032-2.448-1.728 0-3.084.816-4.068 2.448-.96 1.632-1.44 3.96-1.44 6.984s.48 5.352 1.44 6.984c.984 1.632 2.34 2.448 4.068 2.448zm15.063 3.564c-.84 0-1.464-.24-1.872-.72-.408-.504-.612-1.164-.612-1.98 0-.696.204-1.32.612-1.872.408-.552 1.032-.828 1.872-.828.84 0 1.464.252 1.872.756.408.48.612 1.128.612 1.944 0 .672-.204 1.296-.612 1.872-.408.552-1.032.828-1.872.828zm14.996-.036c-2.016 0-3.72-.552-5.112-1.656-1.368-1.128-2.4-2.664-3.096-4.608-.696-1.944-1.044-4.176-1.044-6.696 0-2.52.348-4.752 1.044-6.696.696-1.944 1.728-3.468 3.096-4.572 1.392-1.128 3.096-1.692 5.112-1.692 2.04 0 3.744.564 5.112 1.692 1.368 1.104 2.4 2.628 3.096 4.572.72 1.944 1.08 4.176 1.08 6.696 0 2.52-.36 4.752-1.08 6.696-.696 1.944-1.728 3.48-3.096 4.608-1.368 1.104-3.072 1.656-5.112 1.656zm0-3.528c1.728 0 3.072-.816 4.032-2.448.984-1.632 1.476-3.96 1.476-6.984s-.492-5.352-1.476-6.984c-.96-1.632-2.304-2.448-4.032-2.448-1.728 0-3.084.816-4.068 2.448-.96 1.632-1.44 3.96-1.44 6.984s.48 5.352 1.44 6.984c.984 1.632 2.34 2.448 4.068 2.448zm21.867 3.528c-2.016 0-3.72-.552-5.112-1.656-1.368-1.128-2.4-2.664-3.096-4.608-.696-1.944-1.044-4.176-1.044-6.696 0-2.52.348-4.752 1.044-6.696.696-1.944 1.728-3.468 3.096-4.572 1.392-1.128 3.096-1.692 5.112-1.692 2.04 0 3.744.564 5.112 1.692 1.368 1.104 2.4 2.628 3.096 4.572.72 1.944 1.08 4.176 1.08 6.696 0 2.52-.36 4.752-1.08 6.696-.696 1.944-1.728 3.48-3.096 4.608-1.368 1.104-3.072 1.656-5.112 1.656zm0-3.528c1.728 0 3.072-.816 4.032-2.448.984-1.632 1.476-3.96 1.476-6.984s-.492-5.352-1.476-6.984c-.96-1.632-2.304-2.448-4.032-2.448-1.728 0-3.084.816-4.068 2.448-.96 1.632-1.44 3.96-1.44 6.984s.48 5.352 1.44 6.984c.984 1.632 2.34 2.448 4.068 2.448zm21.867 3.528c-2.016 0-3.72-.552-5.112-1.656-1.368-1.128-2.4-2.664-3.096-4.608-.696-1.944-1.044-4.176-1.044-6.696 0-2.52.348-4.752 1.044-6.696.696-1.944 1.728-3.468 3.096-4.572 1.392-1.128 3.096-1.692 5.112-1.692 2.04 0 3.744.564 5.112 1.692 1.368 1.104 2.4 2.628 3.096 4.572.72 1.944 1.08 4.176 1.08 6.696 0 2.52-.36 4.752-1.08 6.696-.696 1.944-1.728 3.48-3.096 4.608-1.368 1.104-3.072 1.656-5.112 1.656zm0-3.528c1.728 0 3.072-.816 4.032-2.448.984-1.632 1.476-3.96 1.476-6.984s-.492-5.352-1.476-6.984c-.96-1.632-2.304-2.448-4.032-2.448-1.728 0-3.084.816-4.068 2.448-.96 1.632-1.44 3.96-1.44 6.984s.48 5.352 1.44 6.984c.984 1.632 2.34 2.448 4.068 2.448z" fill="#fff"/>
  <circle cx="412.5" cy="75.5" r="74.5" fill="#4FE0BE"/>
  <g clip-path="url(#Group_56__clip0)">
    <path d="M437.258 37.114c0 33.4-17.356 44.472-19.052 57.92h-9.554c-1.7-13.448-19.093-24.52-19.093-57.92h47.699zm-41.317 38.973a93.334 93.334 0 01-3.005-6.075c-9.932-5.185-13.754-14.48-15.209-21.297h9.161a86.33 86.33 0 01-.473-4.787h-13.891c1.268 13.986 9.567 27.567 23.417 32.16zm31.096 35.982v-4.705c-6.808 0-8.075-4.879-8.733-8.923h-9.764c-.688 4.04-2.146 8.923-8.759 8.923v4.705h27.256zm3.839-35.985c13.85-4.59 22.149-18.17 23.417-32.156v-.003h-13.887a86.94 86.94 0 01-.474 4.787h9.158c-1.455 6.817-5.277 16.115-15.209 21.297a93.334 93.334 0 01-3.005 6.075z" fill="#00192E"/>
    <path d="M421.215 66.256V70h-15.228l-1.188-2.952 7.704-8.676a46.75 46.75 0 002.7-3.312c.816-1.104 1.224-2.232 1.224-3.384 0-1.2-.348-2.1-1.044-2.7-.696-.624-1.608-.936-2.736-.936-.552 0-1.164.168-1.836.504-.672.336-1.308.864-1.908 1.584-.6.72-1.08 1.668-1.44 2.844l-2.988-1.872c.648-2.232 1.764-3.9 3.348-5.004 1.608-1.104 3.372-1.656 5.292-1.656 1.368 0 2.604.288 3.708.864a6.445 6.445 0 012.628 2.376c.648 1.032.972 2.268.972 3.708 0 1.656-.504 3.3-1.512 4.932-.984 1.608-2.196 3.204-3.636 4.788l-4.716 5.148h10.656z" fill="#fff"/>
  </g>
  <path d="M30.773 191.828c0 1.512-.456 2.916-1.369 4.212a8.016 8.016 0 01-3.491 2.88l5.867 10.116-4.716-.036-5.328-9.468h-5.76V209h-3.888v-25.2h10.729c1.32 0 2.58.324 3.78.972a7.88 7.88 0 012.987 2.772c.793 1.2 1.189 2.628 1.189 4.284zm-8.604-4.284h-6.193v8.244h7.2c1.152 0 2.04-.408 2.665-1.224a4.34 4.34 0 00.971-2.772c0-1.32-.456-2.352-1.367-3.096-.913-.768-2.005-1.152-3.276-1.152zm23.879 2.232c1.68 0 3.18.42 4.5 1.26 1.344.816 2.4 1.956 3.168 3.42.768 1.464 1.152 3.156 1.152 5.076 0 1.896-.384 3.588-1.152 5.076-.768 1.464-1.812 2.616-3.132 3.456-1.32.84-2.796 1.26-4.428 1.26-1.344 0-2.568-.288-3.672-.864-1.08-.576-1.932-1.236-2.556-1.98v10.44h-3.744v-26.856h3.744v2.772c.552-.792 1.38-1.5 2.484-2.124 1.104-.624 2.316-.936 3.636-.936zm-.504 3.42c-1.128 0-2.136.276-3.024.828-.864.552-1.548 1.308-2.052 2.268-.48.936-.72 2.016-.72 3.24 0 1.2.24 2.28.72 3.24a6.15 6.15 0 002.052 2.304c.888.552 1.896.828 3.024.828 1.128 0 2.124-.276 2.988-.828a5.867 5.867 0 002.016-2.304c.504-.96.756-2.04.756-3.24 0-1.224-.252-2.304-.756-3.24-.48-.96-1.152-1.716-2.016-2.268-.864-.552-1.86-.828-2.988-.828zm30.1 16.056c-1.823 0-3.395-.42-4.715-1.26-1.296-.84-2.34-1.884-3.132-3.132l2.16-2.412c.864.96 1.716 1.74 2.556 2.34.864.6 1.908.9 3.132.9 1.008 0 1.908-.216 2.7-.648a5.186 5.186 0 001.872-1.8c.456-.744.684-1.56.684-2.448 0-.984-.228-1.848-.684-2.592a4.635 4.635 0 00-1.8-1.8c-.744-.432-1.572-.648-2.484-.648-1.224 0-2.256.192-3.096.576-.816.384-1.464.696-1.944.936l-2.052-2.772 1.476-10.692h13.608v3.6H73.413l-.828 5.58a9.43 9.43 0 011.908-.576 9.327 9.327 0 012.124-.252c1.464 0 2.796.336 3.996 1.008 1.224.672 2.208 1.632 2.952 2.88.744 1.224 1.116 2.688 1.116 4.392 0 1.68-.408 3.192-1.224 4.536a8.64 8.64 0 01-3.24 3.132c-1.344.768-2.868 1.152-4.572 1.152zm15.313.144c-.84 0-1.463-.24-1.871-.72-.409-.504-.612-1.164-.612-1.98 0-.696.203-1.32.611-1.872.409-.552 1.033-.828 1.873-.828.84 0 1.463.252 1.871.756.409.48.613 1.128.613 1.944 0 .672-.204 1.296-.612 1.872-.409.552-1.032.828-1.873.828zm14.996-.036c-2.016 0-3.72-.552-5.112-1.656-1.368-1.128-2.4-2.664-3.096-4.608-.696-1.944-1.044-4.176-1.044-6.696 0-2.52.348-4.752 1.044-6.696.696-1.944 1.728-3.468 3.096-4.572 1.392-1.128 3.096-1.692 5.112-1.692 2.04 0 3.744.564 5.112 1.692 1.368 1.104 2.4 2.628 3.096 4.572.72 1.944 1.08 4.176 1.08 6.696 0 2.52-.36 4.752-1.08 6.696-.696 1.944-1.728 3.48-3.096 4.608-1.368 1.104-3.072 1.656-5.112 1.656zm0-3.528c1.728 0 3.072-.816 4.032-2.448.984-1.632 1.476-3.96 1.476-6.984s-.492-5.352-1.476-6.984c-.96-1.632-2.304-2.448-4.032-2.448-1.728 0-3.084.816-4.068 2.448-.96 1.632-1.44 3.96-1.44 6.984s.48 5.352 1.44 6.984c.984 1.632 2.34 2.448 4.068 2.448zm21.867 3.528c-2.016 0-3.72-.552-5.112-1.656-1.368-1.128-2.4-2.664-3.096-4.608-.696-1.944-1.044-4.176-1.044-6.696 0-2.52.348-4.752 1.044-6.696.696-1.944 1.728-3.468 3.096-4.572 1.392-1.128 3.096-1.692 5.112-1.692 2.04 0 3.744.564 5.112 1.692 1.368 1.104 2.4 2.628 3.096 4.572.72 1.944 1.08 4.176 1.08 6.696 0 2.52-.36 4.752-1.08 6.696-.696 1.944-1.728 3.48-3.096 4.608-1.368 1.104-3.072 1.656-5.112 1.656zm0-3.528c1.728 0 3.072-.816 4.032-2.448.984-1.632 1.476-3.96 1.476-6.984s-.492-5.352-1.476-6.984c-.96-1.632-2.304-2.448-4.032-2.448-1.728 0-3.084.816-4.068 2.448-.96 1.632-1.44 3.96-1.44 6.984s.48 5.352 1.44 6.984c.984 1.632 2.34 2.448 4.068 2.448zm21.867 3.528c-2.016 0-3.72-.552-5.112-1.656-1.368-1.128-2.4-2.664-3.096-4.608-.696-1.944-1.044-4.176-1.044-6.696 0-2.52.348-4.752 1.044-6.696.696-1.944 1.728-3.468 3.096-4.572 1.392-1.128 3.096-1.692 5.112-1.692 2.04 0 3.744.564 5.112 1.692 1.368 1.104 2.4 2.628 3.096 4.572.72 1.944 1.08 4.176 1.08 6.696 0 2.52-.36 4.752-1.08 6.696-.696 1.944-1.728 3.48-3.096 4.608-1.368 1.104-3.072 1.656-5.112 1.656zm0-3.528c1.728 0 3.072-.816 4.032-2.448.984-1.632 1.476-3.96 1.476-6.984s-.492-5.352-1.476-6.984c-.96-1.632-2.304-2.448-4.032-2.448-1.728 0-3.084.816-4.068 2.448-.96 1.632-1.44 3.96-1.44 6.984s.48 5.352 1.44 6.984c.984 1.632 2.34 2.448 4.068 2.448zm15.063 3.564c-.84 0-1.464-.24-1.872-.72-.408-.504-.612-1.164-.612-1.98 0-.696.204-1.32.612-1.872.408-.552 1.032-.828 1.872-.828.84 0 1.464.252 1.872.756.408.48.612 1.128.612 1.944 0 .672-.204 1.296-.612 1.872-.408.552-1.032.828-1.872.828zm14.996-.036c-2.016 0-3.72-.552-5.112-1.656-1.368-1.128-2.4-2.664-3.096-4.608-.696-1.944-1.044-4.176-1.044-6.696 0-2.52.348-4.752 1.044-6.696.696-1.944 1.728-3.468 3.096-4.572 1.392-1.128 3.096-1.692 5.112-1.692 2.04 0 3.744.564 5.112 1.692 1.368 1.104 2.4 2.628 3.096 4.572.72 1.944 1.08 4.176 1.08 6.696 0 2.52-.36 4.752-1.08 6.696-.696 1.944-1.728 3.48-3.096 4.608-1.368 1.104-3.072 1.656-5.112 1.656zm0-3.528c1.728 0 3.072-.816 4.032-2.448.984-1.632 1.476-3.96 1.476-6.984s-.492-5.352-1.476-6.984c-.96-1.632-2.304-2.448-4.032-2.448-1.728 0-3.084.816-4.068 2.448-.96 1.632-1.44 3.96-1.44 6.984s.48 5.352 1.44 6.984c.984 1.632 2.34 2.448 4.068 2.448zm21.867 3.528c-2.016 0-3.72-.552-5.112-1.656-1.368-1.128-2.4-2.664-3.096-4.608-.696-1.944-1.044-4.176-1.044-6.696 0-2.52.348-4.752 1.044-6.696.696-1.944 1.728-3.468 3.096-4.572 1.392-1.128 3.096-1.692 5.112-1.692 2.04 0 3.744.564 5.112 1.692 1.368 1.104 2.4 2.628 3.096 4.572.72 1.944 1.08 4.176 1.08 6.696 0 2.52-.36 4.752-1.08 6.696-.696 1.944-1.728 3.48-3.096 4.608-1.368 1.104-3.072 1.656-5.112 1.656zm0-3.528c1.728 0 3.072-.816 4.032-2.448.984-1.632 1.476-3.96 1.476-6.984s-.492-5.352-1.476-6.984c-.96-1.632-2.304-2.448-4.032-2.448-1.728 0-3.084.816-4.068 2.448-.96 1.632-1.44 3.96-1.44 6.984s.48 5.352 1.44 6.984c.984 1.632 2.34 2.448 4.068 2.448zm21.867 3.528c-2.016 0-3.72-.552-5.112-1.656-1.368-1.128-2.4-2.664-3.096-4.608-.696-1.944-1.044-4.176-1.044-6.696 0-2.52.348-4.752 1.044-6.696.696-1.944 1.728-3.468 3.096-4.572 1.392-1.128 3.096-1.692 5.112-1.692 2.04 0 3.744.564 5.112 1.692 1.368 1.104 2.4 2.628 3.096 4.572.72 1.944 1.08 4.176 1.08 6.696 0 2.52-.36 4.752-1.08 6.696-.696 1.944-1.728 3.48-3.096 4.608-1.368 1.104-3.072 1.656-5.112 1.656zm0-3.528c1.728 0 3.072-.816 4.032-2.448.984-1.632 1.476-3.96 1.476-6.984s-.492-5.352-1.476-6.984c-.96-1.632-2.304-2.448-4.032-2.448-1.728 0-3.084.816-4.068 2.448-.96 1.632-1.44 3.96-1.44 6.984s.48 5.352 1.44 6.984c.984 1.632 2.34 2.448 4.068 2.448z" fill="#fff"/>
  <circle cx="121.5" cy="75.5" r="74.5" fill="#16CECC"/>
  <g clip-path="url(#Group_56__clip1)">
    <path d="M146.258 37.114c0 33.4-17.356 44.472-19.052 57.92h-9.554c-1.7-13.448-19.093-24.52-19.093-57.92h47.699zm-41.317 38.973a93.334 93.334 0 01-3.005-6.075c-9.932-5.185-13.754-14.48-15.21-21.297h9.162a86.998 86.998 0 01-.473-4.787h-13.89c1.267 13.986 9.566 27.567 23.416 32.16zm31.096 35.982v-4.705c-6.808 0-8.075-4.879-8.733-8.923h-9.764c-.688 4.04-2.146 8.923-8.759 8.923v4.705h27.256zm3.839-35.985c13.85-4.59 22.149-18.17 23.417-32.156v-.003h-13.887a86.94 86.94 0 01-.474 4.787h9.158c-1.455 6.817-5.277 16.115-15.209 21.297a93.334 93.334 0 01-3.005 6.075z" fill="#00192E"/>
    <path d="M128.34 70h-12.024v-3.744h3.996v-16.74l-3.636 1.908-1.044-3.384 6.732-3.6h1.872v21.816h4.104V70z" fill="#fff"/>
  </g>
  <path d="M607.142 191.828c0 1.512-.456 2.916-1.368 4.212a8.016 8.016 0 01-3.492 2.88l5.868 10.116-4.716-.036-5.328-9.468h-5.76V209h-3.888v-25.2h10.728c1.32 0 2.58.324 3.78.972a7.88 7.88 0 012.988 2.772c.792 1.2 1.188 2.628 1.188 4.284zm-8.604-4.284h-6.192v8.244h7.2c1.152 0 2.04-.408 2.664-1.224a4.34 4.34 0 00.972-2.772c0-1.32-.456-2.352-1.368-3.096-.912-.768-2.004-1.152-3.276-1.152zm23.879 2.232c1.68 0 3.18.42 4.5 1.26 1.344.816 2.4 1.956 3.168 3.42.768 1.464 1.152 3.156 1.152 5.076 0 1.896-.384 3.588-1.152 5.076-.768 1.464-1.812 2.616-3.132 3.456-1.32.84-2.796 1.26-4.428 1.26-1.344 0-2.568-.288-3.672-.864-1.08-.576-1.932-1.236-2.556-1.98v10.44h-3.744v-26.856h3.744v2.772c.552-.792 1.38-1.5 2.484-2.124 1.104-.624 2.316-.936 3.636-.936zm-.504 3.42c-1.128 0-2.136.276-3.024.828-.864.552-1.548 1.308-2.052 2.268-.48.936-.72 2.016-.72 3.24 0 1.2.24 2.28.72 3.24a6.15 6.15 0 002.052 2.304c.888.552 1.896.828 3.024.828 1.128 0 2.124-.276 2.988-.828a5.867 5.867 0 002.016-2.304c.504-.96.756-2.04.756-3.24 0-1.224-.252-2.304-.756-3.24-.48-.96-1.152-1.716-2.016-2.268-.864-.552-1.86-.828-2.988-.828zm39.425 12.06V209H646.11l-1.188-2.952 7.704-8.676a46.75 46.75 0 002.7-3.312c.816-1.104 1.224-2.232 1.224-3.384 0-1.2-.348-2.1-1.044-2.7-.696-.624-1.608-.936-2.736-.936-.552 0-1.164.168-1.836.504-.672.336-1.308.864-1.908 1.584-.6.72-1.08 1.668-1.44 2.844l-2.988-1.872c.648-2.232 1.764-3.9 3.348-5.004 1.608-1.104 3.372-1.656 5.292-1.656 1.368 0 2.604.288 3.708.864a6.445 6.445 0 012.628 2.376c.648 1.032.972 2.268.972 3.708 0 1.656-.504 3.3-1.512 4.932-.984 1.608-2.196 3.204-3.636 4.788l-4.716 5.148h10.656zm5.25 4.14c-.84 0-1.464-.24-1.872-.72-.408-.504-.612-1.164-.612-1.98 0-.696.204-1.32.612-1.872.408-.552 1.032-.828 1.872-.828.84 0 1.464.252 1.872.756.408.48.612 1.128.612 1.944 0 .672-.204 1.296-.612 1.872-.408.552-1.032.828-1.872.828zm14.996-.036c-2.016 0-3.72-.552-5.112-1.656-1.368-1.128-2.4-2.664-3.096-4.608-.696-1.944-1.044-4.176-1.044-6.696 0-2.52.348-4.752 1.044-6.696.696-1.944 1.728-3.468 3.096-4.572 1.392-1.128 3.096-1.692 5.112-1.692 2.04 0 3.744.564 5.112 1.692 1.368 1.104 2.4 2.628 3.096 4.572.72 1.944 1.08 4.176 1.08 6.696 0 2.52-.36 4.752-1.08 6.696-.696 1.944-1.728 3.48-3.096 4.608-1.368 1.104-3.072 1.656-5.112 1.656zm0-3.528c1.728 0 3.072-.816 4.032-2.448.984-1.632 1.476-3.96 1.476-6.984s-.492-5.352-1.476-6.984c-.96-1.632-2.304-2.448-4.032-2.448-1.728 0-3.084.816-4.068 2.448-.96 1.632-1.44 3.96-1.44 6.984s.48 5.352 1.44 6.984c.984 1.632 2.34 2.448 4.068 2.448zm21.867 3.528c-2.016 0-3.72-.552-5.112-1.656-1.368-1.128-2.4-2.664-3.096-4.608-.696-1.944-1.044-4.176-1.044-6.696 0-2.52.348-4.752 1.044-6.696.696-1.944 1.728-3.468 3.096-4.572 1.392-1.128 3.096-1.692 5.112-1.692 2.04 0 3.744.564 5.112 1.692 1.368 1.104 2.4 2.628 3.096 4.572.72 1.944 1.08 4.176 1.08 6.696 0 2.52-.36 4.752-1.08 6.696-.696 1.944-1.728 3.48-3.096 4.608-1.368 1.104-3.072 1.656-5.112 1.656zm0-3.528c1.728 0 3.072-.816 4.032-2.448.984-1.632 1.476-3.96 1.476-6.984s-.492-5.352-1.476-6.984c-.96-1.632-2.304-2.448-4.032-2.448-1.728 0-3.084.816-4.068 2.448-.96 1.632-1.44 3.96-1.44 6.984s.48 5.352 1.44 6.984c.984 1.632 2.34 2.448 4.068 2.448zm21.867 3.528c-2.016 0-3.72-.552-5.112-1.656-1.368-1.128-2.4-2.664-3.096-4.608-.696-1.944-1.044-4.176-1.044-6.696 0-2.52.348-4.752 1.044-6.696.696-1.944 1.728-3.468 3.096-4.572 1.392-1.128 3.096-1.692 5.112-1.692 2.04 0 3.744.564 5.112 1.692 1.368 1.104 2.4 2.628 3.096 4.572.72 1.944 1.08 4.176 1.08 6.696 0 2.52-.36 4.752-1.08 6.696-.696 1.944-1.728 3.48-3.096 4.608-1.368 1.104-3.072 1.656-5.112 1.656zm0-3.528c1.728 0 3.072-.816 4.032-2.448.984-1.632 1.476-3.96 1.476-6.984s-.492-5.352-1.476-6.984c-.96-1.632-2.304-2.448-4.032-2.448-1.728 0-3.084.816-4.068 2.448-.96 1.632-1.44 3.96-1.44 6.984s.48 5.352 1.44 6.984c.984 1.632 2.34 2.448 4.068 2.448zm15.063 3.564c-.84 0-1.464-.24-1.872-.72-.408-.504-.612-1.164-.612-1.98 0-.696.204-1.32.612-1.872.408-.552 1.032-.828 1.872-.828.84 0 1.464.252 1.872.756.408.48.612 1.128.612 1.944 0 .672-.204 1.296-.612 1.872-.408.552-1.032.828-1.872.828zm14.996-.036c-2.016 0-3.72-.552-5.112-1.656-1.368-1.128-2.4-2.664-3.096-4.608-.696-1.944-1.044-4.176-1.044-6.696 0-2.52.348-4.752 1.044-6.696.696-1.944 1.728-3.468 3.096-4.572 1.392-1.128 3.096-1.692 5.112-1.692 2.04 0 3.744.564 5.112 1.692 1.368 1.104 2.4 2.628 3.096 4.572.72 1.944 1.08 4.176 1.08 6.696 0 2.52-.36 4.752-1.08 6.696-.696 1.944-1.728 3.48-3.096 4.608-1.368 1.104-3.072 1.656-5.112 1.656zm0-3.528c1.728 0 3.072-.816 4.032-2.448.984-1.632 1.476-3.96 1.476-6.984s-.492-5.352-1.476-6.984c-.96-1.632-2.304-2.448-4.032-2.448-1.728 0-3.084.816-4.068 2.448-.96 1.632-1.44 3.96-1.44 6.984s.48 5.352 1.44 6.984c.984 1.632 2.34 2.448 4.068 2.448zm21.867 3.528c-2.016 0-3.72-.552-5.112-1.656-1.368-1.128-2.4-2.664-3.096-4.608-.696-1.944-1.044-4.176-1.044-6.696 0-2.52.348-4.752 1.044-6.696.696-1.944 1.728-3.468 3.096-4.572 1.392-1.128 3.096-1.692 5.112-1.692 2.04 0 3.744.564 5.112 1.692 1.368 1.104 2.4 2.628 3.096 4.572.72 1.944 1.08 4.176 1.08 6.696 0 2.52-.36 4.752-1.08 6.696-.696 1.944-1.728 3.48-3.096 4.608-1.368 1.104-3.072 1.656-5.112 1.656zm0-3.528c1.728 0 3.072-.816 4.032-2.448.984-1.632 1.476-3.96 1.476-6.984s-.492-5.352-1.476-6.984c-.96-1.632-2.304-2.448-4.032-2.448-1.728 0-3.084.816-4.068 2.448-.96 1.632-1.44 3.96-1.44 6.984s.48 5.352 1.44 6.984c.984 1.632 2.34 2.448 4.068 2.448zm21.867 3.528c-2.016 0-3.72-.552-5.112-1.656-1.368-1.128-2.4-2.664-3.096-4.608-.696-1.944-1.044-4.176-1.044-6.696 0-2.52.348-4.752 1.044-6.696.696-1.944 1.728-3.468 3.096-4.572 1.392-1.128 3.096-1.692 5.112-1.692 2.04 0 3.744.564 5.112 1.692 1.368 1.104 2.4 2.628 3.096 4.572.72 1.944 1.08 4.176 1.08 6.696 0 2.52-.36 4.752-1.08 6.696-.696 1.944-1.728 3.48-3.096 4.608-1.368 1.104-3.072 1.656-5.112 1.656zm0-3.528c1.728 0 3.072-.816 4.032-2.448.984-1.632 1.476-3.96 1.476-6.984s-.492-5.352-1.476-6.984c-.96-1.632-2.304-2.448-4.032-2.448-1.728 0-3.084.816-4.068 2.448-.96 1.632-1.44 3.96-1.44 6.984s.48 5.352 1.44 6.984c.984 1.632 2.34 2.448 4.068 2.448z" fill="#fff"/>
  <circle cx="697.5" cy="74.5" r="74.5" fill="#36A3D9"/>
  <g clip-path="url(#Group_56__clip2)">
    <path d="M722.258 36.114c0 33.4-17.356 44.472-19.052 57.92h-9.554c-1.7-13.448-19.093-24.52-19.093-57.92h47.699zm-41.317 38.973a93.334 93.334 0 01-3.005-6.075c-9.932-5.185-13.754-14.48-15.209-21.297h9.161a86.33 86.33 0 01-.473-4.787h-13.891c1.268 13.986 9.567 27.567 23.417 32.16zm31.096 35.982v-4.705c-6.808 0-8.075-4.879-8.733-8.923h-9.764c-.688 4.04-2.147 8.923-8.76 8.923v4.705h27.257zm3.839-35.985c13.85-4.59 22.149-18.17 23.417-32.156v-.003h-13.887a86.94 86.94 0 01-.474 4.787h9.158c-1.455 6.817-5.277 16.115-15.209 21.297a93.334 93.334 0 01-3.005 6.075z" fill="#00192E"/>
    <path d="M691.717 62.124c.36.528.792 1.092 1.296 1.692.528.6 1.14 1.104 1.836 1.512.72.408 1.536.612 2.448.612.72 0 1.44-.18 2.16-.54a4.942 4.942 0 001.8-1.656c.504-.744.756-1.644.756-2.7 0-1.08-.204-1.944-.612-2.592-.384-.648-.9-1.116-1.548-1.404a5.17 5.17 0 00-2.124-.432c-.744 0-1.5.12-2.268.36-.744.216-1.44.456-2.088.72l-1.08-2.844 6.768-7.452h-8.964v-3.6h14.436l.72 1.44-7.056 7.812c1.392 0 2.652.348 3.78 1.044a7.399 7.399 0 012.736 2.772c.696 1.176 1.044 2.496 1.044 3.96 0 1.728-.42 3.24-1.26 4.536a8.342 8.342 0 01-3.24 2.952 8.973 8.973 0 01-4.248 1.044c-1.416 0-2.64-.228-3.672-.684a8.42 8.42 0 01-2.628-1.944 17.569 17.569 0 01-2.016-2.7l3.024-1.908z" fill="#fff"/>
  </g>
  <defs>
    <clipPath id="Group_56__clip0">
      <path fill="#fff" transform="translate(372.524 33.707)" d="M0 0h81.768v81.768H0z"/>
    </clipPath>
    <clipPath id="Group_56__clip1">
      <path fill="#fff" transform="translate(81.524 33.707)" d="M0 0h81.768v81.768H0z"/>
    </clipPath>
    <clipPath id="Group_56__clip2">
      <path fill="#fff" transform="translate(657.524 32.707)" d="M0 0h81.768v81.768H0z"/>
    </clipPath>
  </defs>
</svg>
