<?xml version="1.0" standalone="no"?>
<!DOCTYPE svg PUBLIC "-//W3C//DTD SVG 20010904//EN"
 "http://www.w3.org/TR/2001/REC-SVG-20010904/DTD/svg10.dtd">
<svg version="1.0" xmlns="http://www.w3.org/2000/svg"
 width="2500.000000pt" height="2500.000000pt" viewBox="0 0 2500.000000 2500.000000"
 preserveAspectRatio="xMidYMid meet">

<g transform="translate(0.000000,2500.000000) scale(0.100000,-0.100000)"
fill="#000000" stroke="none">
<path d="M13050 21723 c-419 -40 -734 -127 -1095 -303 -609 -297 -1181 -813
-1701 -1535 l-98 -135 -355 0 -354 0 19 21 c19 21 19 21 -1 18 -20 -4 -20 -13
-23 -542 l-2 -538 29 -42 29 -42 -68 -135 c-527 -1052 -1050 -2572 -1455
-4223 -35 -142 -65 -260 -67 -263 -2 -2 -224 -4 -494 -5 -503 -2 -574 -4 -574
-21 0 -5 9 -6 21 -3 16 5 14 0 -12 -24 -27 -26 -29 -31 -13 -31 18 -1 18 -2 2
-14 -15 -11 -15 -16 -3 -39 9 -17 10 -26 2 -24 -6 1 -13 -7 -15 -18 -4 -17 -3
-18 14 -5 11 8 16 10 12 6 -4 -5 -2 -16 5 -25 10 -13 10 -14 -3 -5 -23 16 -45
11 -46 -11 0 -11 -4 -28 -8 -38 -5 -10 -3 -23 4 -32 6 -8 9 -19 5 -24 -3 -6 0
-8 8 -5 8 3 18 0 23 -7 4 -7 3 -10 -3 -6 -6 4 -17 -1 -24 -10 -8 -10 -9 -14
-2 -10 8 5 11 1 10 -12 -1 -15 -4 -17 -13 -10 -10 8 -11 2 -2 -28 5 -21 15
-44 22 -52 9 -12 8 -13 -7 -8 -10 4 -20 7 -23 7 -2 0 -1 6 2 14 3 8 1 17 -5
21 -6 3 -11 -1 -11 -10 0 -9 -4 -14 -9 -11 -5 3 -11 -1 -14 -9 -4 -9 -1 -12 7
-9 7 3 19 -2 26 -10 7 -9 16 -13 21 -10 5 3 9 0 9 -5 0 -14 -17 -14 -25 -1
-13 21 -25 8 -25 -27 0 -25 3 -33 9 -25 6 10 10 8 14 -9 3 -13 2 -28 -4 -35
-6 -8 -4 -16 6 -24 10 -8 12 -17 6 -24 -5 -6 -8 -22 -7 -36 1 -14 -3 -28 -9
-32 -6 -5 -3 -8 8 -8 9 0 17 6 17 13 0 6 6 3 13 -8 13 -23 17 -65 5 -65 -4 0
-4 -8 -1 -17 5 -15 4 -16 -8 -7 -29 22 -45 23 -46 0 0 -11 1 -15 4 -8 7 17 30
15 37 -4 10 -25 7 -34 -9 -34 -17 0 -20 -25 -5 -35 6 -4 9 -1 8 5 -2 7 5 14
14 15 10 2 16 -2 15 -8 -2 -14 242 -24 637 -26 l249 -1 -7 -32 c-22 -104 -108
-642 -130 -808 -66 -497 -95 -879 -103 -1330 -10 -578 27 -1040 118 -1505 33
-170 95 -414 109 -431 6 -6 7 -13 5 -16 -3 -3 0 -18 6 -34 7 -16 14 -38 16
-49 4 -22 23 -37 40 -31 12 5 25 -18 16 -28 -10 -9 -25 -7 -19 3 3 5 -1 11 -9
15 -18 7 -18 5 -3 -31 13 -32 15 -38 17 -55 2 -17 49 -39 57 -27 12 19 23 7
19 -21 -2 -17 0 -28 5 -25 4 3 11 -2 14 -11 4 -9 13 -14 21 -10 8 3 15 0 15
-7 0 -8 3 -9 8 -1 4 6 15 13 25 17 18 7 23 26 7 28 -5 1 -15 2 -21 3 -14 1
-36 33 -28 40 9 10 59 15 54 5 -4 -5 -11 -7 -16 -4 -14 9 -11 -5 5 -21 18 -18
27 -18 20 0 -3 8 -1 17 5 20 6 4 9 -10 8 -36 -2 -38 0 -42 28 -49 20 -6 32 -4
37 4 5 8 8 4 8 -11 0 -13 -4 -21 -9 -18 -5 3 -15 -2 -22 -11 -12 -15 -12 -16
1 -8 15 9 20 11 40 14 5 0 7 14 5 30 -2 18 2 31 9 34 9 4 12 -3 10 -24 l-4
-29 30 15 c26 13 29 14 24 0 -3 -8 -11 -12 -17 -8 -6 3 -2 -6 9 -20 17 -24 63
-40 49 -17 -3 6 -1 10 5 10 6 0 14 -8 17 -18 4 -9 11 -20 17 -24 6 -4 5 -12
-3 -21 -10 -13 -6 -18 20 -31 18 -9 37 -16 43 -15 6 0 1 4 -11 9 -23 9 -32 30
-13 30 5 0 9 5 7 12 -3 17 -21 37 -29 32 -4 -2 -10 1 -14 7 -4 8 -3 9 4 5 7
-4 12 -2 12 3 0 6 -6 11 -14 11 -14 0 -26 20 -32 50 -2 10 2 9 12 -4 8 -11 14
-23 14 -27 0 -4 9 -9 21 -12 12 -3 19 -10 16 -15 -4 -4 3 -16 14 -25 16 -14
17 -21 9 -37 -13 -24 5 -28 18 -4 6 11 11 13 16 5 4 -6 4 -11 -1 -11 -4 0 -8
-13 -8 -29 -1 -22 3 -27 17 -23 10 2 18 -1 18 -7 0 -6 5 -11 11 -11 8 0 7 6
-2 16 -12 14 -11 16 6 12 13 -2 19 -10 17 -22 -2 -11 1 -15 7 -11 10 5 15 -7
12 -27 0 -5 4 -8 9 -8 6 0 10 5 10 11 0 5 5 7 10 4 6 -3 10 1 10 9 0 9 -6 13
-14 10 -7 -3 -20 6 -30 20 -20 31 -21 42 -1 26 11 -9 19 -8 37 4 12 9 18 16
13 16 -5 0 -4 5 3 12 9 9 15 9 25 -1 10 -10 9 -11 -4 -6 -13 5 -15 1 -12 -19
4 -20 1 -26 -11 -26 -10 0 -14 -5 -11 -10 3 -6 17 -8 31 -6 28 5 46 -21 23
-34 -15 -10 -31 8 -22 25 4 5 2 6 -3 2 -5 -5 -9 -14 -10 -20 0 -7 -2 -21 -3
-32 -1 -17 -3 -18 -11 -5 -5 8 -10 11 -10 5 0 -5 4 -17 9 -24 8 -12 11 -9 17
13 6 26 8 27 17 10 12 -21 27 -34 42 -34 6 1 1 7 -9 15 -12 9 -15 15 -7 15 7
0 11 6 8 15 -4 8 -2 17 3 20 6 4 10 1 10 -4 0 -6 6 -10 13 -8 6 1 11 -4 10
-10 -2 -7 2 -13 7 -13 6 0 17 -6 24 -12 12 -11 12 -16 -1 -30 -9 -11 -11 -18
-4 -23 6 -3 11 1 11 9 0 9 12 19 28 22 42 10 64 34 58 64 -4 20 -2 18 9 -7 8
-18 21 -33 27 -33 7 0 1 -8 -12 -17 -14 -10 -38 -16 -55 -14 -16 2 -28 0 -24
-3 3 -3 20 -7 38 -8 18 -1 35 -6 37 -10 7 -12 33 15 26 27 -3 6 1 4 10 -2 8
-7 19 -9 23 -5 5 4 5 1 1 -6 -4 -7 -11 -10 -16 -7 -4 3 -11 -2 -14 -11 -8 -21
-8 -24 5 -24 5 0 7 5 4 10 -10 16 11 12 25 -5 11 -13 8 -15 -16 -16 l-29 -1
30 -8 c20 -5 24 -8 10 -9 -15 -1 -17 -3 -6 -10 8 -5 9 -11 3 -15 -6 -3 -13 -2
-17 4 -4 7 -12 7 -26 0 -10 -6 -20 -8 -20 -5 -1 3 -3 10 -4 15 -1 6 -3 12 -4
15 0 3 -7 0 -15 -7 -12 -11 -11 -14 8 -22 11 -5 31 -8 44 -7 12 1 22 -2 22 -8
0 -6 4 -11 10 -11 5 0 9 5 7 12 -1 7 5 13 13 13 8 0 14 6 13 13 -8 36 -6 52 7
52 6 0 10 -11 10 -25 l0 -24 26 24 c31 29 40 31 48 10 3 -8 1 -15 -4 -15 -6 0
-10 5 -10 11 0 5 -5 7 -10 4 -6 -4 -8 -11 -5 -16 3 -5 -1 -6 -9 -3 -9 4 -16 1
-16 -6 0 -8 9 -11 25 -8 14 3 25 1 25 -6 0 -6 5 -4 11 4 9 13 10 13 6 0 -3
-10 -16 -15 -45 -14 -30 1 -42 -3 -42 -13 0 -8 -5 -11 -12 -7 -7 5 -8 3 -4 -5
5 -7 10 -10 13 -7 3 3 15 0 26 -6 16 -8 19 -8 14 5 -3 9 1 18 9 21 8 3 14 1
14 -3 0 -5 8 -8 18 -7 9 2 19 0 22 -5 3 -4 16 -1 30 7 l25 14 -25 -3 c-17 -1
-25 3 -27 18 -4 20 -4 20 8 0 11 -17 13 -17 18 -3 5 13 9 12 25 -10 11 -14 15
-22 9 -19 -6 4 -18 1 -26 -7 -8 -8 -17 -12 -21 -9 -3 4 -6 -1 -6 -11 0 -9 4
-15 9 -12 5 3 12 -1 15 -9 4 -13 10 -14 26 -5 14 8 20 8 20 0 0 -6 5 -8 11 -5
6 4 8 13 5 21 -3 7 0 16 6 20 6 4 8 3 4 -4 -6 -11 30 -28 49 -23 5 1 7 0 3 -4
-4 -4 -3 -18 2 -31 8 -19 6 -24 -6 -24 -11 0 -15 6 -11 20 8 30 -25 45 -41 19
-7 -11 -8 -19 -2 -19 5 0 10 5 10 10 0 6 7 10 16 10 8 0 12 -4 9 -10 -20 -32
-13 -45 26 -45 21 -1 39 3 39 8 0 4 -4 5 -10 2 -5 -3 -10 -3 -11 2 0 4 -2 22
-5 40 -3 26 -1 31 12 26 8 -3 13 -12 10 -20 -7 -17 20 -73 35 -73 6 0 7 -5 4
-10 -4 -6 -3 -10 2 -9 21 5 41 -13 36 -34 -4 -19 -2 -18 20 8 14 16 23 33 21
37 -3 4 1 5 9 2 18 -6 30 -57 13 -51 -6 2 -10 13 -8 23 2 18 2 18 -13 -1 -9
-12 -12 -21 -5 -23 5 -2 10 -8 10 -14 0 -6 -7 -5 -16 3 -13 11 -15 10 -12 -6
1 -10 -3 -20 -11 -23 -8 -3 -11 0 -7 7 4 6 1 11 -8 11 -8 0 -18 -6 -22 -13 -4
-6 -4 -9 1 -5 4 4 14 3 21 -3 10 -8 21 -5 43 10 34 25 65 29 35 5 -10 -8 -13
-12 -5 -8 9 4 19 0 28 -11 7 -11 13 -14 13 -9 0 6 -5 15 -12 22 -9 9 -9 12 3
12 12 0 12 2 -1 10 -8 5 -11 12 -7 16 3 4 13 2 20 -4 10 -9 17 -8 27 1 9 9 11
9 6 0 -3 -6 2 -17 11 -23 14 -9 14 -10 2 -7 -9 3 -22 1 -30 -4 -10 -6 -7 -9
12 -9 28 0 59 25 39 32 -20 6 -19 44 2 57 11 7 17 8 14 2 -4 -5 -2 -13 4 -16
6 -4 8 -16 4 -27 -4 -12 -1 -24 7 -30 11 -8 10 -9 -3 -4 -14 4 -17 -1 -15 -24
1 -15 5 -26 9 -24 4 2 9 0 12 -5 7 -11 -39 -20 -54 -11 -9 5 -9 9 -1 11 7 3 7
9 1 19 -8 13 -10 12 -10 -3 0 -10 -4 -15 -10 -12 -6 3 -7 -1 -4 -9 3 -9 13
-16 21 -16 8 0 11 -5 7 -12 -4 -7 -3 -8 5 -4 11 7 45 -17 36 -26 -2 -2 4 -4
15 -4 15 0 16 4 9 18 -6 10 -14 16 -19 13 -5 -3 -11 -1 -14 4 -3 5 4 11 15 14
15 4 20 11 15 23 -5 14 -4 15 9 4 13 -11 13 -15 3 -21 -12 -8 -4 -13 16 -10 5
1 6 -5 3 -13 -3 -8 0 -17 7 -19 13 -5 13 11 1 50 -4 13 -12 23 -17 23 -5 0 -6
5 -3 11 5 6 13 3 22 -10 11 -16 18 -19 32 -12 13 7 18 6 18 -4 0 -8 -4 -12 -8
-9 -4 2 -10 0 -14 -6 -3 -5 0 -10 8 -10 7 0 14 -7 14 -15 0 -8 -4 -15 -9 -15
-4 0 -8 -4 -8 -8 0 -5 6 -9 14 -9 8 0 14 5 13 10 -1 5 3 11 10 14 7 3 9 -3 6
-18 -4 -15 -3 -20 5 -15 16 9 57 17 49 9 -4 -3 1 -11 10 -18 13 -9 13 -14 3
-20 -9 -6 -11 -4 -5 6 5 8 4 11 0 6 -13 -11 -16 -47 -5 -47 6 0 9 5 7 12 -1 6
6 14 16 16 10 2 17 -2 17 -12 0 -9 7 -16 16 -16 8 0 12 -5 9 -10 -4 -6 -11 -7
-17 -4 -6 4 -8 2 -5 -4 4 -5 17 -8 29 -4 14 3 19 2 14 -6 -4 -7 -1 -12 8 -12
8 0 18 -5 22 -12 5 -7 3 -8 -5 -3 -7 4 -5 -5 5 -21 15 -22 20 -24 22 -11 3 16
247 17 4095 13 2251 -3 4139 -7 4196 -11 68 -4 107 -3 114 4 8 8 312 11 1004
11 l993 0 37 48 c78 99 1008 1324 1011 1331 2 6 -969 933 -1094 1044 l-42 37
-428 -542 c-235 -299 -438 -555 -451 -569 l-25 -27 -3919 -1 c-2155 -1 -3919
1 -3919 5 0 3 44 61 98 128 54 66 779 964 1611 1995 l1514 1873 2126 -7 c1169
-4 2129 -10 2133 -14 4 -4 9 -90 10 -192 l3 -186 1173 415 c644 229 1172 418
1172 421 0 3 -521 186 -1158 406 l-1157 400 -3 -177 -2 -178 -2078 0 -2079 0
-1454 1842 c-1691 2142 -1789 2267 -1789 2287 0 8 -7 23 -17 33 -9 10 -14 20
-12 22 8 7 7664 15 7674 8 6 -4 15 -15 20 -24 6 -9 171 -240 367 -513 l357
-495 683 603 c376 331 683 608 683 615 0 7 -211 318 -470 691 l-470 679 -1140
5 c-1019 3 -2054 19 -2143 31 -19 3 -30 1 -27 -5 4 -5 -33 -9 -92 -10 -54 0
-114 -3 -133 -5 -61 -9 -4920 -15 -4920 -7 0 27 256 317 431 488 316 309 641
526 1000 670 266 107 522 160 824 172 491 18 996 -104 1540 -372 203 -100 373
-199 641 -372 288 -187 266 -174 224 -129 -58 64 -309 296 -415 385 -879 736
-1851 1138 -2730 1129 -88 0 -176 -3 -195 -5z m-1389 -6071 c658 -906 1196
-1648 1195 -1649 -1 -2 -207 -3 -458 -3 -412 -1 -457 -2 -470 -17 -9 -12 -9
-15 0 -9 6 4 12 3 12 -3 0 -5 -4 -13 -10 -16 -5 -3 -10 -12 -10 -18 0 -7 4 -6
10 3 6 9 10 10 10 3 0 -7 -6 -16 -13 -20 -17 -10 -38 -91 -26 -99 5 -3 9 -2 8
3 -3 19 2 33 12 33 8 0 8 -5 -1 -15 -7 -8 -9 -15 -5 -15 4 0 2 -6 -4 -13 -6
-8 -7 -18 -3 -22 4 -5 1 -5 -6 -1 -7 4 -10 12 -7 17 4 5 1 9 -4 9 -14 0 -14
-33 -1 -46 7 -7 6 -11 -4 -11 -8 0 -13 4 -10 9 9 15 -3 8 -17 -9 -12 -14 -12
-16 0 -9 9 6 12 5 9 -5 -3 -8 -1 -22 4 -31 10 -21 0 -24 -16 -5 -6 7 -10 10
-9 8 2 -2 -2 -10 -8 -18 -9 -10 -7 -13 12 -13 22 0 22 0 3 -16 -13 -11 -15
-17 -6 -20 8 -4 5 -12 -10 -26 -13 -11 -17 -17 -10 -13 7 4 12 0 12 -9 0 -9
-4 -16 -9 -16 -5 0 -11 -13 -13 -29 -2 -17 -1 -28 3 -25 10 6 5 -24 -6 -33 -4
-4 -5 -2 -1 5 4 6 5 12 1 12 -12 0 -22 -45 -11 -52 7 -5 8 -11 1 -15 -5 -5
-10 -14 -11 -20 -2 -30 -5 -34 -14 -28 -6 4 -7 -1 -3 -11 5 -13 3 -15 -8 -10
-8 4 -5 -1 6 -11 26 -23 26 -49 0 -45 -11 2 -18 2 -15 0 3 -1 18 -14 33 -28
l29 -25 -7 28 c-6 21 -4 26 7 22 10 -4 13 -16 10 -35 -2 -17 -8 -27 -13 -24
-5 3 -7 -12 -4 -33 4 -33 3 -35 -5 -14 -6 14 -9 34 -8 45 2 16 -3 21 -20 22
-26 1 -39 -13 -24 -28 6 -6 8 -17 5 -25 -5 -12 -7 -12 -15 -1 -6 9 -8 3 -6
-19 3 -18 1 -30 -2 -28 -4 2 -6 -11 -6 -30 1 -27 5 -34 21 -34 11 0 234 -4
496 -8 l477 -8 -441 -530 c-1304 -1570 -2264 -2721 -2339 -2805 -180 -202
-538 -632 -538 -645 0 -8 -7 -15 -15 -15 -13 0 -15 -62 -15 -492 -1 -332 -4
-487 -11 -476 -5 10 -17 15 -27 12 -13 -4 -14 -3 -4 4 10 7 0 30 -48 103 -33
52 -92 155 -129 229 -142 279 -211 500 -252 805 -21 153 -23 209 -23 565 0
417 9 571 60 1030 61 549 177 1242 337 2020 l42 205 480 3 c485 2 512 4 484
38 -6 7 -2 17 11 29 21 19 28 51 8 39 -7 -4 -8 -3 -4 4 4 7 14 12 22 12 8 0
12 5 9 10 -4 7 -12 7 -25 0 -16 -9 -17 -7 -7 14 8 16 14 20 19 13 13 -21 20 1
7 25 -11 20 -11 22 3 10 11 -9 18 -10 23 -2 3 5 1 10 -5 10 -6 0 -8 5 -4 12 5
8 2 9 -10 5 -14 -6 -15 -3 -6 13 13 25 27 26 33 3 3 -10 5 -2 6 18 0 20 4 39
8 43 4 4 8 19 8 34 1 18 5 26 15 24 12 -3 12 -1 3 9 -9 9 -16 9 -25 1 -11 -8
-14 -7 -15 9 -1 11 2 17 8 14 5 -4 9 -2 9 3 0 4 9 18 20 30 12 12 17 22 12 22
-14 0 -22 39 -10 47 6 3 8 1 4 -5 -3 -6 -2 -13 4 -17 5 -3 10 1 10 9 0 27 -2
31 -11 29 -5 -2 -9 4 -9 13 0 8 4 13 9 9 6 -3 14 3 20 13 7 14 5 21 -10 31
-14 8 -17 16 -11 24 5 7 8 22 7 35 -2 21 9 30 18 15 2 -5 2 -2 0 6 -2 8 2 18
9 23 8 6 4 7 -12 3 -24 -6 -24 -5 -6 9 13 11 19 28 18 63 0 38 2 43 8 23 7
-23 8 -24 9 -3 1 12 -7 27 -16 32 -10 6 -13 11 -6 11 7 0 10 11 9 27 -2 19
-11 30 -27 34 -13 4 -219 7 -456 8 -339 1 -433 4 -433 14 0 37 347 1402 476
1872 139 505 430 1416 453 1415 3 -1 544 -742 1202 -1648z m-4831 -1882 c-6
-12 -7 -20 -1 -20 5 0 12 5 14 10 3 6 4 5 3 -2 -1 -7 -12 -14 -24 -14 -17 -1
-20 2 -11 12 6 7 8 18 4 24 -3 5 1 10 10 10 13 0 14 -4 5 -20z m-5 -51 c11
-16 1 -19 -13 -3 -7 8 -8 14 -3 14 5 0 13 -5 16 -11z m3595 -59 c0 -5 -7 -7
-15 -4 -8 4 -15 8 -15 10 0 2 7 4 15 4 8 0 15 -4 15 -10z m1430 -94 c0 -3 -4
-8 -10 -11 -5 -3 -10 -1 -10 4 0 6 5 11 10 11 6 0 10 -2 10 -4z m-5030 -77 c0
-14 -16 -11 -29 5 -10 12 -8 13 8 9 12 -3 21 -9 21 -14z m-5 -29 c3 -5 1 -10
-4 -10 -6 0 -11 5 -11 10 0 6 2 10 4 10 3 0 8 -4 11 -10z m3555 -4 c0 -3 -4
-8 -10 -11 -5 -3 -10 -1 -10 4 0 6 5 11 10 11 6 0 10 -2 10 -4z m1466 -92 c1
-9 0 -13 -4 -10 -3 4 -7 14 -8 22 -1 9 0 13 4 10 3 -4 7 -14 8 -22z m-5021 -4
c3 -5 1 -10 -4 -10 -6 0 -11 5 -11 10 0 6 2 10 4 10 3 0 8 -4 11 -10z m4978
-135 c4 -8 2 -17 -3 -20 -6 -4 -10 3 -10 14 0 25 6 27 13 6z m10 -42 c-7 -2
-19 -2 -25 0 -7 3 -2 5 12 5 14 0 19 -2 13 -5z m-3 -33 c0 -5 -3 -10 -7 -11
-5 0 -16 -2 -25 -4 -11 -2 -15 2 -11 11 6 16 43 19 43 4z m-3985 -4200 c3 -5
1 -10 -4 -10 -6 0 -11 5 -11 10 0 6 2 10 4 10 3 0 8 -4 11 -10z m-20 -42 c20
-19 20 -19 -10 -7 -40 17 -49 26 -28 26 10 0 27 -9 38 -19z m51 -26 c-3 -20
-33 -36 -33 -18 0 9 7 12 16 8 13 -5 14 -3 4 9 -10 13 -10 16 1 16 8 0 13 -7
12 -15z m48 10 c3 -5 -1 -9 -9 -9 -8 0 -12 4 -9 9 3 4 7 8 9 8 2 0 6 -4 9 -8z
m-17 -53 c2 -26 -12 -32 -54 -24 -27 5 -33 9 -22 16 19 12 32 11 24 -1 -3 -5
-2 -10 3 -10 12 0 33 25 27 32 -3 2 1 5 8 5 7 0 14 -8 14 -18z m178 -29 c11
-17 -5 -11 -28 11 l-22 21 22 -11 c12 -6 25 -16 28 -21z m-52 -19 c1 -16 6
-21 18 -18 12 3 16 0 12 -9 -3 -8 -9 -14 -14 -14 -5 0 -9 -7 -9 -15 0 -8 8
-15 18 -15 14 0 15 -2 2 -10 -10 -6 -16 -6 -18 0 -2 6 -9 7 -15 3 -6 -4 -8 -1
-5 8 3 8 2 36 -2 62 -4 28 -3 44 2 39 5 -5 10 -19 11 -31z m-69 18 c-3 -6 -12
-8 -20 -5 -7 3 -16 1 -19 -5 -4 -5 -11 -7 -16 -4 -5 4 -9 1 -9 -4 0 -6 5 -11
10 -11 6 0 10 -6 10 -13 0 -16 34 -50 42 -41 3 3 9 1 12 -4 3 -5 -3 -12 -14
-15 -11 -3 -18 -1 -14 4 3 5 0 9 -5 9 -6 0 -11 -5 -11 -11 0 -5 -5 -7 -11 -3
-8 5 -8 9 1 14 9 5 9 9 1 14 -6 4 -17 4 -23 0 -10 -6 -10 -5 -1 7 9 11 8 18
-2 32 -11 16 -14 16 -28 3 -14 -15 -27 -12 -27 6 0 5 5 6 10 3 6 -3 10 -2 10
3 0 5 17 13 38 18 53 13 73 14 66 3z m-124 -3 c0 -11 -19 -15 -25 -6 -3 5 1
10 9 10 9 0 16 -2 16 -4z m350 -29 c0 -2 -10 -12 -22 -23 l-23 -19 19 23 c18
21 26 27 26 19z m-55 -37 c3 -11 14 -20 22 -20 19 0 15 -7 -7 -12 -9 -1 -17 2
-19 7 -8 27 -23 35 -40 23 -14 -12 -14 -11 -2 5 18 23 38 22 46 -3z m179 -84
c-3 -13 -1 -27 5 -30 14 -9 14 -26 1 -26 -5 0 -9 3 -8 8 0 4 -2 15 -6 25 -5 9
-6 24 -2 32 9 24 17 17 10 -9z m-116 0 c-7 -8 -15 -12 -17 -11 -5 6 10 25 20
25 5 0 4 -6 -3 -14z m182 -41 c-10 -12 -10 -15 4 -15 19 0 22 -33 4 -47 -31
-24 -44 -21 -43 8 1 27 26 69 41 69 4 0 1 -7 -6 -15z m48 -6 c-10 -7 -9 -9 5
-9 9 0 17 -5 17 -10 0 -15 -36 5 -43 24 -4 10 0 12 15 8 15 -4 17 -7 6 -13z
m-163 -28 c-3 -6 -11 -11 -17 -11 -6 0 -6 6 2 15 14 17 26 13 15 -4z m281 -30
c-3 -5 6 -12 20 -15 28 -7 28 -30 0 -32 -13 -2 -13 -1 -1 3 18 5 10 23 -11 23
-19 0 -18 -36 1 -44 8 -3 22 -2 32 1 11 4 14 3 9 -6 -10 -16 -57 -6 -73 16
-17 22 -16 33 2 33 8 0 14 3 14 8 -2 12 1 22 7 22 3 0 3 -4 0 -9z m81 -27 c-3
-3 -12 -4 -19 -1 -8 3 -5 6 6 6 11 1 17 -2 13 -5z m-7 -54 c0 -5 -5 -10 -11
-10 -5 0 -7 5 -4 10 3 6 8 10 11 10 2 0 4 -4 4 -10z m125 -10 c3 -5 1 -10 -4
-10 -6 0 -11 5 -11 10 0 6 2 10 4 10 3 0 8 -4 11 -10z m-119 -21 c-4 6 -1 11
8 11 8 0 18 -5 22 -12 4 -7 3 -8 -4 -4 -7 4 -12 2 -12 -3 0 -17 -37 -13 -44 4
-5 13 -2 14 15 4 15 -8 19 -8 15 0z m215 -48 c-6 -10 -7 -22 -3 -26 4 -4 1 -6
-7 -3 -8 2 -17 10 -19 18 -3 7 0 10 7 6 6 -4 11 -1 11 8 0 9 5 16 10 16 7 0 7
-6 1 -19z m89 -31 c6 -11 8 -20 6 -20 -3 0 -10 9 -16 20 -6 11 -8 20 -6 20 3
0 10 -9 16 -20z m48 -16 c-3 -16 -4 -15 -18 1 -9 11 -10 16 -2 11 8 -5 12 -1
13 11 0 10 3 13 6 6 2 -7 3 -20 1 -29z m-74 11 c3 -8 1 -15 -4 -15 -6 0 -10 7
-10 15 0 8 2 15 4 15 2 0 6 -7 10 -15z m125 -84 c7 -5 9 -11 5 -14 -5 -3 -15
1 -22 9 -14 16 -5 18 17 5z m64 -4 c4 3 7 1 7 -5 0 -14 -2 -14 -24 -6 -9 3
-16 11 -16 16 0 7 5 6 13 -1 8 -6 17 -8 20 -4z m62 -7 c-3 -5 -1 -10 4 -10 6
0 11 -8 11 -17 0 -15 -2 -14 -14 2 -13 18 -13 35 0 35 3 0 2 -4 -1 -10z m-177
-12 c-3 -7 -12 -14 -21 -16 -12 -2 -15 1 -11 12 7 19 38 22 32 4z m172 -37 c0
-6 -4 -12 -8 -15 -5 -3 -9 1 -9 9 0 8 4 15 9 15 4 0 8 -4 8 -9z m27 -41 c-1
-10 -4 -18 -7 -18 -22 2 -20 -5 5 -16 18 -7 25 -15 18 -19 -17 -11 -77 43 -63
57 8 8 13 7 19 -3 6 -9 11 -10 15 -2 4 6 4 16 0 23 -4 6 -3 8 4 4 6 -3 10 -15
9 -26z m104 -7 c13 -16 12 -17 -3 -4 -10 7 -18 15 -18 17 0 8 8 3 21 -13z
m-21 -23 c0 -5 -2 -10 -4 -10 -3 0 -8 5 -11 10 -3 6 -1 10 4 10 6 0 11 -4 11
-10z m60 -24 c0 -2 -7 -7 -16 -10 -8 -3 -12 -2 -9 4 6 10 25 14 25 6z m90 -21
c-10 -12 -10 -18 1 -32 12 -17 12 -17 -5 -2 -15 14 -16 20 -5 37 7 12 15 19
18 17 2 -3 -2 -11 -9 -20z m50 -55 c0 -5 -2 -10 -4 -10 -3 0 -8 5 -11 10 -3 6
-1 10 4 10 6 0 11 -4 11 -10z"/>
<path d="M10422 13720 c-10 -17 -10 -21 3 -26 20 -8 23 -4 16 24 -6 22 -6 22
-19 2z"/>
<path d="M11765 13350 c3 -5 8 -10 11 -10 2 0 4 5 4 10 0 6 -5 10 -11 10 -5 0
-7 -4 -4 -10z"/>
<path d="M8326 8581 c9 -9 34 -9 34 -1 0 5 -9 8 -20 7 -10 -1 -17 -3 -14 -6z"/>
<path d="M4210 14483 l0 -428 239 -220 240 -220 -27 -28 c-15 -16 -120 -115
-234 -220 l-208 -191 0 -384 0 -384 39 34 c44 38 116 102 481 433 146 132 276
247 290 256 14 9 54 43 90 75 35 33 118 108 185 168 66 60 159 144 208 188 48
44 87 83 87 87 0 10 -366 344 -385 351 -7 3 -133 116 -281 251 -148 135 -371
339 -496 453 l-228 207 0 -428z"/>
<path d="M3130 14383 l0 -428 239 -220 240 -220 -27 -28 c-15 -16 -120 -115
-234 -220 l-208 -191 0 -384 0 -384 39 34 c42 37 73 64 541 487 179 162 413
374 520 470 107 97 213 193 235 214 l40 37 -30 27 c-32 28 -331 300 -635 578
-102 94 -306 279 -453 413 l-267 243 0 -428z"/>
<path d="M2030 14333 l0 -428 239 -220 240 -220 -27 -28 c-15 -16 -120 -115
-234 -220 l-208 -191 0 -384 0 -384 39 34 c42 37 73 64 541 487 179 162 413
374 520 470 107 97 213 193 235 214 l40 37 -30 27 c-32 28 -331 300 -635 578
-102 94 -306 279 -453 413 l-267 243 0 -428z"/>
<path d="M6806 13848 c3 -5 10 -6 15 -3 13 9 11 12 -6 12 -8 0 -12 -4 -9 -9z"/>
<path d="M6756 13655 c4 -8 9 -15 13 -15 4 0 8 7 8 15 0 8 -6 15 -13 15 -8 0
-11 -6 -8 -15z"/>
<path d="M6798 13293 c-10 -3 -18 -9 -18 -15 0 -5 7 -8 15 -4 13 4 14 2 5 -14
-8 -16 -8 -20 3 -20 8 0 17 11 19 25 6 28 1 33 -24 28z"/>
<path d="M6795 13190 c3 -5 8 -10 11 -10 2 0 4 5 4 10 0 6 -5 10 -11 10 -5 0
-7 -4 -4 -10z"/>
<path d="M4192 12368 c6 -18 25 -21 25 -3 0 8 -7 15 -14 15 -8 0 -13 -5 -11
-12z"/>
<path d="M3112 12268 c6 -18 25 -21 25 -3 0 8 -7 15 -14 15 -8 0 -13 -5 -11
-12z"/>
<path d="M2012 12218 c6 -18 25 -21 25 -3 0 8 -7 15 -14 15 -8 0 -13 -5 -11
-12z"/>
<path d="M7820 8700 c-9 -6 -10 -10 -3 -10 6 0 15 5 18 10 8 12 4 12 -15 0z"/>
<path d="M7947 8676 c-4 -10 1 -12 14 -9 23 6 24 9 5 16 -8 3 -17 0 -19 -7z"/>
<path d="M7998 8673 c7 -3 16 -2 19 1 4 3 -2 6 -13 5 -11 0 -14 -3 -6 -6z"/>
<path d="M8091 8655 c0 -5 4 -19 8 -30 5 -12 4 -26 -3 -34 -9 -12 -7 -12 14
-1 24 13 24 12 10 -5 -9 -11 -10 -16 -2 -11 7 4 12 2 12 -6 0 -7 7 0 15 16 16
30 20 50 7 28 -5 -7 -16 -10 -26 -6 -14 5 -14 9 -4 22 9 11 9 14 1 9 -7 -4
-16 0 -22 10 -6 10 -10 14 -10 8z"/>
<path d="M8165 8603 c-11 -25 -18 -69 -10 -61 4 3 6 9 5 13 0 3 9 15 22 25 13
11 17 19 10 20 -7 0 -10 5 -7 10 3 6 2 10 -3 10 -6 0 -13 -8 -17 -17z"/>
<path d="M8180 8560 c0 -5 5 -10 11 -10 5 0 7 5 4 10 -3 6 -8 10 -11 10 -2 0
-4 -4 -4 -10z"/>
<path d="M8223 8537 c4 -10 2 -17 -5 -17 -6 0 -9 -3 -5 -6 3 -3 12 -2 20 3 13
7 13 10 -1 23 -14 13 -15 12 -9 -3z"/>
<path d="M8313 8460 c1 -20 12 -26 20 -12 3 4 -1 13 -8 19 -11 10 -13 9 -12
-7z"/>
<path d="M8385 8430 c3 -5 8 -10 11 -10 2 0 4 5 4 10 0 6 -5 10 -11 10 -5 0
-7 -4 -4 -10z"/>
<path d="M8524 8415 c3 -8 1 -15 -4 -15 -6 0 -10 -5 -10 -11 0 -8 5 -8 15 1
17 15 20 40 4 40 -6 0 -9 -7 -5 -15z"/>
<path d="M8455 8400 c3 -5 8 -10 11 -10 2 0 4 5 4 10 0 6 -5 10 -11 10 -5 0
-7 -4 -4 -10z"/>
<path d="M8578 8378 c8 -9 20 -14 28 -11 8 3 21 -3 29 -13 8 -11 15 -17 15
-14 8 34 6 36 -24 35 -17 0 -38 4 -46 10 -13 9 -13 8 -2 -7z"/>
<path d="M8460 8369 c0 -5 5 -7 10 -4 6 3 10 8 10 11 0 2 -4 4 -10 4 -5 0 -10
-5 -10 -11z"/>
<path d="M8670 8341 c0 -25 6 -27 13 -6 4 8 2 17 -3 20 -6 4 -10 -3 -10 -14z"/>
<path d="M8820 8263 c0 -2 6 -10 13 -17 10 -11 15 -10 25 1 7 7 9 13 5 14 -4
0 -16 2 -25 4 -10 2 -18 1 -18 -2z"/>
<path d="M8688 8243 c7 -3 16 -2 19 1 4 3 -2 6 -13 5 -11 0 -14 -3 -6 -6z"/>
<path d="M8770 8236 c0 -13 19 -26 46 -31 17 -4 10 28 -7 33 -11 3 -11 1 1 -8
13 -9 12 -10 -5 -7 -11 2 -19 9 -17 15 1 7 -2 12 -8 12 -5 0 -10 -6 -10 -14z"/>
<path d="M8890 8198 c0 -4 4 -8 10 -8 5 0 7 -8 4 -17 -3 -10 1 -8 8 5 8 12 17
20 21 17 4 -3 5 -2 2 2 -8 10 -45 11 -45 1z"/>
<path d="M8960 8170 c0 -5 5 -10 10 -10 6 0 10 5 10 10 0 6 -4 10 -10 10 -5 0
-10 -4 -10 -10z"/>
<path d="M9037 8143 c9 -3 10 -10 3 -24 -8 -15 -7 -17 5 -13 8 3 12 10 9 15
-10 16 9 9 22 -8 13 -17 14 -17 8 0 -6 17 -35 38 -51 36 -4 0 -2 -3 4 -6z"/>
<path d="M9009 8113 c-13 -16 -12 -17 4 -4 9 7 17 15 17 17 0 8 -8 3 -21 -13z"/>
<path d="M9317 8106 c-3 -8 -2 -18 3 -21 13 -8 24 15 12 27 -6 6 -11 4 -15 -6z"/>
<path d="M9093 8092 c-7 -4 -9 -13 -4 -21 7 -11 13 -11 27 -1 18 11 18 11 -1
6 -20 -6 -20 -6 -1 9 14 11 16 15 5 15 -8 0 -19 -4 -26 -8z"/>
<path d="M9120 8020 c0 -5 5 -10 11 -10 5 0 7 5 4 10 -3 6 -8 10 -11 10 -2 0
-4 -4 -4 -10z"/>
<path d="M9205 8020 c3 -5 10 -10 16 -10 5 0 9 5 9 10 0 6 -7 10 -16 10 -8 0
-12 -4 -9 -10z"/>
<path d="M9285 7940 c3 -5 8 -10 11 -10 2 0 4 5 4 10 0 6 -5 10 -11 10 -5 0
-7 -4 -4 -10z"/>
<path d="M9510 7922 c0 -5 -16 -8 -35 -7 -35 3 -48 -11 -20 -21 8 -4 12 -10 9
-15 -3 -5 2 -6 11 -3 14 6 14 8 -2 19 -15 11 -13 12 15 9 23 -3 32 0 32 11 0
8 -2 15 -5 15 -3 0 -5 -4 -5 -8z"/>
<path d="M9415 7870 c-3 -6 1 -7 9 -4 18 7 21 14 7 14 -6 0 -13 -4 -16 -10z"/>
<path d="M9540 7811 c0 -5 7 -11 14 -14 10 -4 13 -1 9 9 -6 15 -23 19 -23 5z"/>
<path d="M9583 7805 c-9 -24 1 -27 15 -5 8 13 8 20 2 20 -6 0 -13 -7 -17 -15z"/>
<path d="M9785 7691 c-3 -5 -2 -12 3 -15 5 -3 9 1 9 9 0 17 -3 19 -12 6z"/>
<path d="M9817 7665 c3 -8 9 -12 14 -9 12 7 11 11 -5 17 -10 4 -13 1 -9 -8z"/>
<path d="M13065 7369 c-102 -33 -413 -107 -557 -133 -369 -68 -665 -92 -1018
-82 -140 4 -276 9 -302 11 -34 3 -50 -1 -60 -13 -11 -14 -11 -15 6 -9 15 6 17
4 13 -13 -3 -13 0 -23 9 -27 8 -3 14 -14 14 -24 0 -10 7 -19 15 -19 8 0 15 -4
15 -10 0 -11 33 -14 43 -3 4 3 -5 15 -20 25 -20 13 -23 18 -11 18 11 0 15 5
12 15 -3 8 -9 14 -12 13 -4 -1 -17 3 -29 8 -22 9 -22 10 -3 22 11 7 20 9 19 5
-4 -22 3 -31 19 -28 9 1 25 -2 35 -7 19 -10 23 -28 6 -28 -5 0 -7 5 -4 10 3 6
2 10 -3 10 -20 0 -21 -30 -1 -43 12 -9 17 -20 13 -31 -7 -17 11 -23 21 -6 3 5
12 7 20 3 8 -3 15 -1 15 5 0 6 -6 13 -12 15 -10 4 -10 6 0 6 7 1 10 6 7 11 -3
6 -2 10 3 10 5 0 9 -14 10 -31 1 -27 -2 -30 -20 -26 -14 4 -18 3 -11 -4 6 -6
24 -13 42 -15 29 -5 37 2 32 29 -1 5 3 6 8 3 5 -4 12 0 14 6 3 8 6 6 6 -4 1
-10 -3 -18 -8 -18 -5 0 -11 -6 -14 -13 -3 -8 1 -14 9 -14 7 0 11 4 8 9 -3 4 1
8 10 8 8 0 21 3 30 6 9 3 16 1 16 -6 0 -6 -4 -9 -8 -6 -14 9 -35 -12 -29 -28
4 -10 15 -15 29 -13 12 2 33 -2 47 -10 14 -7 32 -13 39 -13 7 0 10 -5 7 -10
-4 -6 -11 -8 -16 -5 -5 4 -9 -1 -9 -9 0 -24 16 -27 38 -6 23 21 44 28 24 8
-17 -17 -15 -29 3 -22 8 4 15 2 15 -3 0 -20 -14 -22 -32 -6 -11 9 -18 11 -18
5 0 -7 -9 -12 -19 -12 -15 0 -19 6 -17 30 1 17 -2 30 -7 30 -5 0 -7 -11 -5
-25 3 -13 1 -22 -3 -19 -5 3 -9 15 -9 26 0 12 -3 18 -7 15 -3 -4 -12 1 -20 11
-10 13 -13 13 -11 2 2 -8 9 -21 16 -29 10 -10 11 -16 2 -21 -15 -9 4 -50 23
-50 7 0 6 4 -3 10 -8 5 -10 10 -5 10 6 0 3 5 -5 10 -13 8 -13 10 2 10 24 0 41
-33 25 -50 -10 -12 -9 -12 5 -1 10 7 15 18 11 24 -4 6 0 8 9 4 9 -3 21 0 27 6
8 8 11 8 11 -2 0 -8 6 -11 15 -7 10 3 17 -3 21 -19 7 -28 -3 -48 -18 -39 -7 4
-8 2 -4 -5 4 -6 12 -9 17 -6 5 4 12 -1 15 -9 3 -9 11 -13 16 -10 6 4 6 9 -2
14 -17 11 -2 33 17 26 11 -4 13 -2 10 9 -4 8 -1 17 5 21 7 5 8 2 3 -5 -5 -9
-2 -12 11 -9 27 5 23 32 -4 36 -16 3 -22 8 -18 18 3 9 1 12 -4 9 -6 -3 -10 -1
-10 4 0 6 7 11 15 11 8 0 15 -7 15 -16 0 -8 4 -13 9 -10 5 3 12 -2 15 -11 6
-15 8 -15 17 -3 7 11 8 7 3 -12 -5 -23 -2 -30 17 -38 20 -8 18 -9 -17 -6 -36
3 -41 1 -36 -16 4 -15 7 -16 20 -6 14 11 15 10 8 -6 -7 -19 -6 -19 14 -1 11
10 23 15 27 12 3 -4 14 3 24 15 l19 21 0 -21 c0 -23 20 -32 20 -9 0 6 5 4 11
-7 9 -14 8 -20 -1 -26 -19 -11 1 -18 38 -13 21 4 32 11 32 22 0 10 3 12 8 5 8
-12 12 -12 97 11 203 54 746 329 1099 557 66 43 65 44 -19 17z m-1878 -291
c-3 -7 -5 -2 -5 12 0 14 2 19 5 13 2 -7 2 -19 0 -25z m293 -83 c0 -5 -5 -3
-10 5 -5 8 -10 20 -10 25 0 6 5 3 10 -5 5 -8 10 -19 10 -25z m44 9 c3 -8 2
-12 -4 -9 -6 3 -10 10 -10 16 0 14 7 11 14 -7z m41 -12 c-3 -3 -11 0 -18 7 -9
10 -8 11 6 5 10 -3 15 -9 12 -12z m-70 -22 c3 -5 1 -10 -4 -10 -6 0 -11 5 -11
10 0 6 2 10 4 10 3 0 8 -4 11 -10z m55 -10 c0 -5 -5 -10 -11 -10 -5 0 -7 5 -4
10 3 6 8 10 11 10 2 0 4 -4 4 -10z m55 -9 c-3 -6 -15 -11 -26 -11 -11 0 -18 4
-14 10 3 5 12 7 20 3 8 -3 15 1 15 8 0 7 3 10 6 6 3 -3 3 -10 -1 -16z m55 -18
c0 -3 -6 -3 -14 0 -7 3 -19 0 -25 -6 -8 -8 -11 -8 -11 0 0 6 6 13 13 16 13 4
37 -2 37 -10z m-47 -37 c14 -21 15 -25 1 -30 -8 -3 -12 -1 -9 4 3 5 1 19 -5
30 -15 28 -6 25 13 -4z m142 -6 c3 -5 1 -10 -4 -10 -6 0 -11 5 -11 10 0 6 2
10 4 10 3 0 8 -4 11 -10z m70 -21 c-4 -5 -12 -9 -18 -8 -9 0 -8 2 1 6 6 2 9
10 6 15 -4 7 -2 8 5 4 6 -4 9 -12 6 -17z m-90 -8 c3 -5 2 -12 -3 -15 -5 -3 -9
1 -9 9 0 17 3 19 12 6z m-105 -21 c0 -5 -2 -10 -4 -10 -3 0 -8 5 -11 10 -3 6
-1 10 4 10 6 0 11 -4 11 -10z m140 6 c0 -2 -7 -7 -16 -10 -8 -3 -12 -2 -9 4 6
10 25 14 25 6z m44 -12 c3 -8 2 -12 -4 -9 -6 3 -10 10 -10 16 0 14 7 11 14 -7z
m44 -18 c-15 -11 -16 -14 -2 -28 14 -14 13 -16 -11 -20 -19 -4 -23 -2 -16 5
15 15 14 30 -1 22 -7 -4 -2 3 11 14 13 12 26 21 30 21 3 0 -2 -6 -11 -14z m77
-14 c-3 -3 -11 0 -18 7 -9 10 -8 11 6 5 10 -3 15 -9 12 -12z"/>
<path d="M10580 7279 c0 -5 5 -7 10 -4 6 3 10 8 10 11 0 2 -4 4 -10 4 -5 0
-10 -5 -10 -11z"/>
<path d="M10653 7252 c-8 -5 -9 -13 -3 -22 6 -9 10 -10 10 -3 0 13 17 12 40
-2 12 -7 13 -6 3 7 -7 8 -9 19 -5 24 4 4 0 3 -10 -4 -10 -8 -17 -9 -20 -3 -1
6 -8 7 -15 3z"/>
<path d="M10720 7242 c0 -4 12 -9 26 -10 31 -2 46 -11 40 -21 -3 -4 2 -8 10
-8 12 0 12 3 -3 17 -20 19 -73 35 -73 22z"/>
<path d="M10827 7208 c-9 -6 -8 -8 3 -8 11 0 11 -3 2 -12 -7 -7 -12 -17 -12
-22 0 -6 7 0 16 12 12 18 19 20 29 12 11 -9 14 -7 12 8 -1 21 -26 25 -50 10z"/>
<path d="M10935 7191 c-3 -5 -1 -12 5 -16 5 -3 10 1 10 9 0 18 -6 21 -15 7z"/>
<path d="M10960 7186 c0 -8 6 -17 13 -20 6 -3 -8 -3 -33 0 -44 6 -44 5 -22
-11 13 -10 30 -14 43 -10 11 4 27 1 36 -7 10 -8 14 -8 10 -1 -10 16 5 24 23
13 9 -6 20 -4 30 5 14 13 16 12 17 -5 1 -11 -2 -22 -7 -25 -5 -3 -6 -13 -3
-23 10 -27 45 -62 56 -55 6 4 8 0 5 -9 -4 -8 -2 -21 3 -29 6 -9 8 -3 5 19 -3
31 8 45 17 20 2 -7 7 -10 11 -7 3 3 2 17 -3 30 -5 13 -10 19 -10 12 -1 -6 -15
-11 -33 -10 -24 2 -34 7 -36 22 l-4 20 16 -20 c14 -19 15 -18 7 10 -7 23 -4
35 11 51 l19 22 -45 4 c-34 2 -45 0 -42 -9 7 -17 -16 -12 -31 7 -11 13 -12 11
-13 -10 0 -19 -3 -21 -9 -11 -5 8 -7 20 -4 28 3 7 -2 13 -11 13 -9 0 -16 -6
-16 -14z"/>
<path d="M10778 7153 c7 -3 16 -2 19 1 4 3 -2 6 -13 5 -11 0 -14 -3 -6 -6z"/>
<path d="M10858 7138 c5 -5 16 -8 23 -6 8 3 3 7 -10 11 -17 4 -21 3 -13 -5z"/>
<path d="M11055 7140 c-4 -6 -11 -7 -17 -4 -7 4 -8 2 -4 -4 10 -16 23 -15 30
3 6 17 0 20 -9 5z"/>
<path d="M10960 7131 c0 -7 -4 -9 -10 -6 -5 3 -10 4 -10 1 0 -3 9 -10 19 -16
15 -7 19 -7 17 5 -3 19 -16 32 -16 16z"/>
<path d="M11107 7121 c3 -12 9 -24 13 -26 12 -8 6 23 -8 37 -8 8 -9 5 -5 -11z"/>
<path d="M10926 7107 c3 -10 9 -15 12 -12 3 3 0 11 -7 18 -10 9 -11 8 -5 -6z"/>
<path d="M11037 7103 c-14 -13 -7 -33 16 -43 20 -10 20 -10 5 3 -21 17 -23 33
-5 40 6 3 7 6 1 6 -6 1 -14 -2 -17 -6z"/>
<path d="M11060 7032 c0 -5 7 -9 15 -9 8 0 12 4 9 9 -3 4 -9 8 -15 8 -5 0 -9
-4 -9 -8z"/>
<path d="M11175 7029 c-9 -14 -2 -20 14 -10 8 6 9 11 3 15 -6 3 -14 1 -17 -5z"/>
<path d="M11220 7018 c0 -4 4 -8 9 -8 6 0 12 4 15 8 3 5 -1 9 -9 9 -8 0 -15
-4 -15 -9z"/>
<path d="M11277 6995 c-22 -16 -22 -41 -1 -49 14 -6 15 -4 4 9 -12 14 -11 15
14 3 16 -7 23 -14 17 -16 -6 -2 -8 -8 -5 -14 3 -5 12 -1 20 10 14 21 29 23 54
7 13 -8 13 -7 1 8 -7 9 -18 14 -24 10 -6 -4 -8 0 -4 10 3 10 2 17 -3 17 -6 0
-10 -8 -11 -17 0 -15 -2 -14 -9 3 -11 27 -32 35 -53 19z m46 -26 c3 -11 0 -16
-8 -12 -19 7 -26 30 -10 30 8 0 16 -8 18 -18z"/>
<path d="M11213 6984 c-7 -7 -13 -19 -13 -26 0 -8 4 -6 11 4 5 10 17 15 27 12
10 -4 13 -2 7 3 -5 4 -12 11 -15 15 -3 3 -11 0 -17 -8z"/>
<path d="M11396 6959 c15 -17 16 -22 4 -29 -8 -5 -19 -6 -25 -4 -5 3 -1 -1 9
-10 10 -8 23 -13 27 -10 5 3 9 0 9 -6 0 -6 5 -8 12 -4 8 5 6 11 -6 20 -10 7
-13 15 -7 18 11 7 -17 46 -33 46 -5 0 -1 -9 10 -21z"/>
<path d="M11344 6932 c-6 -4 -8 -16 -4 -27 6 -17 7 -16 12 8 3 15 5 27 4 27 0
0 -6 -4 -12 -8z"/>
<path d="M11270 6916 c0 -2 9 -6 20 -9 11 -3 18 -1 14 4 -5 9 -34 13 -34 5z"/>
<path d="M11380 6876 c0 -2 8 -10 18 -17 15 -13 16 -12 3 4 -13 16 -21 21 -21
13z"/>
<path d="M11420 6876 c0 -21 23 -56 37 -56 15 0 15 2 -3 16 -10 8 -12 13 -4 9
10 -4 9 -2 -2 8 -10 8 -15 17 -11 20 3 4 1 7 -5 7 -7 0 -12 -2 -12 -4z"/>
<path d="M11540 6837 c0 -4 -10 -12 -22 -18 -20 -8 -19 -9 7 -3 17 4 35 7 42
7 7 0 10 4 7 8 -2 4 2 9 8 12 7 2 1 4 -14 3 -16 0 -28 -5 -28 -9z"/>
<path d="M11756 6791 c-4 -6 -14 -7 -23 -4 -13 5 -15 2 -10 -16 4 -18 2 -21
-14 -16 -12 4 -19 2 -19 -7 0 -10 -2 -10 -9 1 -5 8 -11 9 -15 3 -3 -5 2 -13
11 -17 10 -3 19 -1 21 5 3 8 8 7 18 -1 14 -11 19 -3 15 27 -1 6 6 11 14 11 8
0 15 -4 15 -9 0 -4 7 -8 15 -8 19 0 19 14 1 29 -9 8 -16 8 -20 2z"/>
<path d="M11594 6744 c-18 -15 -18 -15 2 -5 12 6 25 7 29 3 5 -4 5 -1 1 6 -9
15 -8 15 -32 -4z"/>
<path d="M8750 5830 c-147 -21 -279 -84 -352 -170 -61 -71 -80 -141 -85 -320
-6 -181 3 -240 53 -340 47 -92 110 -148 324 -284 317 -201 327 -212 337 -374
9 -146 -24 -212 -107 -212 -83 0 -99 44 -100 263 l0 147 -252 0 -251 0 6 -157
c6 -161 27 -275 62 -344 26 -50 97 -112 174 -153 214 -112 545 -112 761 0 95
50 135 87 169 157 37 76 51 158 51 303 0 244 -50 390 -169 492 -79 68 -195
146 -340 228 -178 100 -221 156 -221 286 0 107 39 163 110 156 57 -5 70 -35
77 -176 l6 -122 250 0 250 0 -7 128 c-8 133 -26 233 -51 282 -41 79 -164 156
-308 190 -95 23 -291 33 -387 20z"/>
<path d="M6970 4820 l0 -980 270 0 270 0 2 412 3 413 109 -405 c60 -223 112
-408 116 -413 3 -4 128 -6 276 -5 l270 3 -108 340 c-59 187 -135 428 -169 536
l-62 195 118 335 c64 184 134 382 156 442 l38 107 -249 0 -249 0 -125 -377
-125 -378 0 378 -1 377 -270 0 -270 0 0 -980z"/>
<path d="M9720 4820 l0 -980 470 0 470 0 0 195 0 195 -200 0 -200 0 0 215 0
215 170 0 170 0 0 185 0 185 -170 0 -170 0 0 190 0 190 180 0 180 0 0 195 0
195 -450 0 -450 0 0 -980z"/>
<path d="M10820 4821 l0 -981 270 0 270 0 0 394 0 393 148 5 c91 4 173 12 214
23 140 36 223 114 247 231 32 162 21 569 -18 675 -29 77 -80 132 -154 169
-112 55 -173 61 -594 67 l-383 5 0 -981z m668 628 c39 -24 47 -65 47 -229 0
-221 -19 -260 -130 -260 l-45 0 0 256 0 257 54 -6 c29 -3 63 -11 74 -18z"/>
<path d="M12610 4820 l0 -980 270 0 270 0 0 980 0 980 -270 0 -270 0 0 -980z"/>
<path d="M13280 5605 l0 -195 160 0 160 0 0 -785 0 -785 270 0 270 0 0 785 0
785 160 0 160 0 0 195 0 195 -590 0 -590 0 0 -195z"/>
<path d="M14590 4819 l0 -981 458 5 c276 3 483 9 522 16 97 17 168 57 208 115
60 90 67 132 67 411 0 240 -1 252 -24 310 -32 82 -97 144 -181 174 -36 12 -74
26 -85 30 -16 7 -8 12 40 25 166 49 204 102 213 296 8 208 -25 333 -115 430
-118 127 -235 150 -790 150 l-313 0 0 -981z m648 640 c52 -18 66 -51 70 -170
2 -60 -1 -131 -8 -163 -11 -52 -15 -59 -46 -72 -18 -8 -54 -14 -79 -14 l-45 0
0 215 0 215 39 0 c21 0 52 -5 69 -11z m31 -749 c10 -5 22 -17 27 -27 4 -10 9
-103 12 -208 5 -265 -5 -287 -128 -302 l-50 -6 0 283 0 283 60 -6 c34 -4 69
-11 79 -17z"/>
</g>
</svg>
