<svg width="1153" height="274" fill="none" xmlns="http://www.w3.org/2000/svg">
  <path d="M287.731 136.482h68.314m211.076 0h78.825M0 135.289h78.825m206.391 1.193h74.334m-215.748 0h75.322m205.694 0h77.785" stroke="#4FE0BE" stroke-width="3.004"/>
  <path d="M109.352 100.865a35.031 35.031 0 0132.367 21.627 35.03 35.03 0 01-25.532 47.767 35.036 35.036 0 01-35.964-14.896 35.037 35.037 0 01-5.904-19.464h4.42a30.612 30.612 0 0036.586 30.026 30.614 30.614 0 00-5.973-60.64v-4.42z" fill="#16CECC"/>
  <path fill="#16CECC" d="M105.265 22.624h4.087v82.65h-4.087zm285.521 78.241a35.034 35.034 0 11-35.033 35.034h4.419a30.61 30.61 0 0018.899 28.284 30.617 30.617 0 0041.741-22.311 30.62 30.62 0 00-13.018-31.428 30.61 30.61 0 00-17.008-5.159v-4.42z"/>
  <path fill="#16CECC" d="M386.699 22.624h4.087v82.65h-4.087zM250.07 171.516a35.031 35.031 0 0032.367-21.627 35.038 35.038 0 00-25.532-47.767 35.034 35.034 0 00-41.868 34.36h4.419a30.612 30.612 0 0118.899-28.284 30.617 30.617 0 0133.363 6.637 30.612 30.612 0 016.636 33.363 30.615 30.615 0 01-28.284 18.898v4.42z"/>
  <path fill="#16CECC" d="M245.983 249.757h4.087v-82.65h-4.087zm287.856-78.241a35.031 35.031 0 0032.367-21.627 35.038 35.038 0 00-25.532-47.767 35.034 35.034 0 00-41.868 34.36h4.419a30.612 30.612 0 0118.899-28.284 30.617 30.617 0 0133.363 6.637 30.612 30.612 0 016.636 33.363 30.615 30.615 0 01-28.284 18.898v4.42z"/>
  <path fill="#16CECC" d="M529.752 249.757h4.087v-82.65h-4.087z"/>
  <circle cx="109.17" cy="136.19" r="24.636" fill="#F1F4F8" fill-opacity=".75"/>
  <circle cx="249.777" cy="136.19" r="24.636" fill="#F1F4F8" fill-opacity=".75"/>
  <circle cx="390.982" cy="136.19" r="24.636" fill="#F1F4F8" fill-opacity=".75"/>
  <circle cx="533.992" cy="136.19" r="24.636" fill="#F1F4F8" fill-opacity=".75"/>
  <path d="M122.677 12.734v3.071h4.953v2.856h-4.953v3.331h5.602v2.964h-9.301V9.77h9.301v2.964h-5.602zm7.268 6.165c0-1.24.231-2.33.693-3.267.476-.937 1.117-1.658 1.925-2.163.807-.505 1.709-.757 2.704-.757.851 0 1.593.173 2.228.52.649.345 1.146.8 1.493 1.362v-1.709h3.699v12.07h-3.699v-1.708c-.361.562-.866 1.016-1.515 1.363-.634.346-1.377.519-2.228.519a4.96 4.96 0 01-2.682-.758c-.808-.519-1.449-1.247-1.925-2.184-.462-.952-.693-2.048-.693-3.288zm9.043.021c0-.923-.26-1.65-.779-2.185a2.462 2.462 0 00-1.861-.8c-.735 0-1.362.267-1.882.8-.504.52-.757 1.24-.757 2.164 0 .923.253 1.658.757 2.206.52.534 1.147.8 1.882.8a2.46 2.46 0 001.861-.8c.519-.534.779-1.262.779-2.185zm10.074-4.023a4.77 4.77 0 011.622-1.558 4.124 4.124 0 012.163-.584v3.916h-1.016c-.923 0-1.616.201-2.077.605-.462.39-.692 1.082-.692 2.077v5.603h-3.699V12.885h3.699v2.012zm9.252-5.949v16.008h-3.699V8.948h3.699zm15.011 3.937l-7.571 17.803h-3.98l2.769-6.143-4.911-11.66h4.132l2.79 7.55 2.769-7.55h4.002zm15.115 4.283c.88.188 1.587.627 2.12 1.32a3.67 3.67 0 01.801 2.336c0 1.269-.447 2.278-1.341 3.028-.88.736-2.113 1.104-3.7 1.104h-7.073V9.77h6.836c1.543 0 2.747.353 3.612 1.06.88.707 1.32 1.666 1.32 2.877 0 .894-.238 1.637-.714 2.228-.462.591-1.082 1.002-1.861 1.233zm-5.494-1.254h2.423c.605 0 1.067-.13 1.384-.39.332-.274.498-.67.498-1.19 0-.519-.166-.915-.498-1.19-.317-.273-.779-.41-1.384-.41h-2.423v3.18zm2.726 6.056c.62 0 1.096-.137 1.427-.41.346-.29.519-.7.519-1.234 0-.533-.18-.951-.54-1.254-.347-.303-.83-.455-1.45-.455h-2.682v3.353h2.726zm9.694-10.34c-.649 0-1.182-.187-1.6-.562a1.907 1.907 0 01-.606-1.428c0-.577.202-1.053.606-1.427.418-.39.951-.585 1.6-.585.635 0 1.154.195 1.558.585.418.375.627.85.627 1.427 0 .563-.209 1.039-.627 1.428-.404.375-.923.562-1.558.562zm1.839 1.255v12.07h-3.699v-12.07h3.699zm6.38 2.012a4.77 4.77 0 011.622-1.558 4.124 4.124 0 012.163-.584v3.916h-1.016c-.923 0-1.615.201-2.077.605-.461.39-.692 1.082-.692 2.077v5.603h-3.699V12.885h3.699v2.012zm4.818 4.002c0-1.24.231-2.33.692-3.267.476-.937 1.118-1.658 1.925-2.163.808-.505 1.709-.757 2.704-.757.794 0 1.515.166 2.164.498.663.331 1.182.778 1.557 1.34V8.949h3.699v16.008h-3.699v-1.731c-.346.577-.844 1.038-1.493 1.384-.634.347-1.377.52-2.228.52a5 5 0 01-2.704-.758c-.807-.519-1.449-1.247-1.925-2.184-.461-.952-.692-2.048-.692-3.288zm9.042.021c0-.923-.259-1.65-.779-2.185a2.46 2.46 0 00-1.86-.8 2.53 2.53 0 00-1.882.8c-.505.52-.757 1.24-.757 2.164 0 .923.252 1.658.757 2.206a2.53 2.53 0 001.882.8 2.46 2.46 0 001.86-.8c.52-.534.779-1.262.779-2.185zm-90.723 38.036l-3.158-5.733h-.887v5.733h-3.699V41.77h6.208c1.197 0 2.214.21 3.05.627.851.419 1.486.995 1.904 1.73.418.722.627 1.53.627 2.424a4.48 4.48 0 01-.865 2.704c-.563.793-1.399 1.355-2.509 1.687l3.504 6.014h-4.175zm-4.045-8.35h2.293c.678 0 1.182-.166 1.514-.498.346-.331.519-.8.519-1.406 0-.577-.173-1.031-.519-1.363-.332-.331-.836-.497-1.514-.497h-2.293v3.764zm21.79 2.12c0 .346-.021.706-.064 1.081h-8.372c.058.75.296 1.327.714 1.73.433.39.959.585 1.579.585.923 0 1.565-.39 1.925-1.168h3.937a5.328 5.328 0 01-1.103 2.141 5.367 5.367 0 01-1.968 1.493c-.794.36-1.681.54-2.661.54-1.183 0-2.235-.252-3.158-.757a5.392 5.392 0 01-2.164-2.163c-.519-.937-.778-2.033-.778-3.288 0-1.254.252-2.35.757-3.288a5.383 5.383 0 012.163-2.163c.923-.505 1.983-.757 3.18-.757 1.168 0 2.206.245 3.115.735a5.216 5.216 0 012.12 2.099c.519.908.778 1.968.778 3.18zm-3.785-.974c0-.634-.216-1.14-.649-1.514-.433-.375-.973-.563-1.622-.563-.621 0-1.147.18-1.58.541-.418.36-.677.873-.778 1.536h4.629zm10.323-5.04c.851 0 1.593.173 2.228.52.649.345 1.146.8 1.493 1.362v-1.709h3.699v12.049c0 1.11-.224 2.113-.671 3.007-.433.908-1.103 1.63-2.012 2.163-.894.534-2.012.8-3.353.8-1.788 0-3.237-.425-4.348-1.276-1.11-.836-1.745-1.976-1.903-3.418h3.655c.116.462.39.822.822 1.082.433.274.967.41 1.601.41.765 0 1.37-.223 1.817-.67.462-.432.693-1.132.693-2.098v-1.709a4.2 4.2 0 01-1.493 1.384c-.635.347-1.377.52-2.228.52-.995 0-1.897-.253-2.704-.758-.808-.519-1.449-1.247-1.925-2.184-.462-.952-.693-2.048-.693-3.288 0-1.24.231-2.33.693-3.267.476-.937 1.117-1.658 1.925-2.163.807-.505 1.709-.757 2.704-.757zm3.721 6.208c0-.923-.26-1.65-.779-2.184a2.462 2.462 0 00-1.861-.8 2.53 2.53 0 00-1.882.8c-.504.519-.757 1.24-.757 2.163 0 .923.253 1.658.757 2.206.52.534 1.147.8 1.882.8a2.46 2.46 0 001.861-.8c.519-.533.779-1.262.779-2.185zm8.235-7.29c-.649 0-1.183-.187-1.601-.562a1.906 1.906 0 01-.605-1.428c0-.577.201-1.053.605-1.428.418-.389.952-.584 1.601-.584.635 0 1.154.195 1.557.584.419.375.628.851.628 1.428 0 .563-.209 1.039-.628 1.428-.403.375-.922.562-1.557.562zm1.839 1.255v12.07h-3.699v-12.07h3.699zm7.591 12.244c-1.053 0-1.99-.18-2.812-.541-.822-.36-1.471-.851-1.947-1.471a3.956 3.956 0 01-.801-2.12h3.656c.043.418.238.757.584 1.017.346.26.772.389 1.276.389.462 0 .815-.087 1.06-.26.26-.187.39-.425.39-.713 0-.346-.18-.599-.541-.758-.36-.173-.945-.36-1.752-.562a17.847 17.847 0 01-2.163-.627 3.882 3.882 0 01-1.493-1.06c-.418-.49-.627-1.147-.627-1.969 0-.692.187-1.32.562-1.882.39-.577.952-1.03 1.687-1.363.75-.331 1.637-.497 2.661-.497 1.514 0 2.704.375 3.569 1.125.88.75 1.385 1.745 1.515 2.985h-3.418a1.457 1.457 0 00-.563-.995c-.302-.245-.706-.368-1.211-.368-.433 0-.764.087-.995.26a.766.766 0 00-.346.67c0 .346.18.606.541.78.375.172.951.345 1.73.518.894.231 1.623.462 2.185.693a3.555 3.555 0 011.471 1.081c.433.49.656 1.154.671 1.99 0 .707-.202 1.341-.606 1.904-.39.548-.959.98-1.709 1.298-.736.317-1.594.476-2.574.476zm13.879-3.31v3.137h-1.882c-1.341 0-2.387-.325-3.136-.974-.75-.663-1.125-1.738-1.125-3.223v-4.802h-1.471v-3.072h1.471v-2.942h3.699v2.942h2.422v3.072h-2.422v4.845c0 .36.086.62.259.779.173.159.462.238.866.238h1.319zm5.76-6.922a4.77 4.77 0 011.622-1.558 4.124 4.124 0 012.163-.584v3.916h-1.017c-.923 0-1.615.202-2.076.605-.462.39-.692 1.082-.692 2.077v5.603h-3.699V44.885h3.699v2.012zm4.818 4.002c0-1.24.23-2.33.692-3.267.476-.937 1.118-1.658 1.925-2.163.808-.505 1.709-.757 2.704-.757.851 0 1.594.173 2.228.52.649.345 1.147.8 1.493 1.362v-1.709h3.699v12.07h-3.699v-1.708c-.361.562-.865 1.016-1.514 1.362-.635.347-1.378.52-2.228.52a4.963 4.963 0 01-2.683-.758c-.807-.519-1.449-1.247-1.925-2.184-.462-.952-.692-2.048-.692-3.288zm9.042.021c0-.923-.26-1.65-.779-2.184a2.461 2.461 0 00-1.86-.8c-.736 0-1.363.266-1.882.8-.505.519-.757 1.24-.757 2.163 0 .923.252 1.658.757 2.206.519.534 1.146.8 1.882.8a2.46 2.46 0 001.86-.8c.519-.533.779-1.262.779-2.185zm13.102 2.899v3.137h-1.882c-1.341 0-2.386-.325-3.136-.974-.75-.663-1.125-1.738-1.125-3.223v-4.802h-1.471v-3.072h1.471v-2.942h3.699v2.942h2.423v3.072h-2.423v4.845c0 .36.087.62.26.779.173.159.461.238.865.238h1.319zm3.921-10.189c-.649 0-1.182-.187-1.601-.562a1.91 1.91 0 01-.605-1.428c0-.577.202-1.053.605-1.428.419-.389.952-.584 1.601-.584.635 0 1.154.195 1.558.584.418.375.627.851.627 1.428 0 .563-.209 1.039-.627 1.428-.404.375-.923.562-1.558.562zm1.839 1.255v12.07h-3.699v-12.07h3.699zm8.175 12.244c-1.182 0-2.25-.253-3.201-.758a5.634 5.634 0 01-2.229-2.163c-.533-.937-.8-2.033-.8-3.288 0-1.24.274-2.329.822-3.266a5.557 5.557 0 012.25-2.185c.952-.505 2.019-.757 3.201-.757 1.183 0 2.25.252 3.202.757a5.557 5.557 0 012.25 2.185c.548.937.822 2.026.822 3.266 0 1.24-.282 2.337-.844 3.288a5.563 5.563 0 01-2.271 2.163c-.952.505-2.019.758-3.202.758zm0-3.202c.707 0 1.305-.26 1.795-.779.505-.519.758-1.262.758-2.228 0-.966-.246-1.709-.736-2.228a2.309 2.309 0 00-1.774-.779c-.721 0-1.319.26-1.795.78-.476.504-.714 1.247-.714 2.227 0 .966.231 1.71.692 2.228.476.52 1.067.78 1.774.78zm15.634-9.172c1.413 0 2.538.462 3.374 1.385.851.908 1.277 2.163 1.277 3.764v7.052h-3.678V50.4c0-.808-.209-1.435-.627-1.882-.418-.447-.981-.67-1.687-.67-.707 0-1.269.223-1.688.67-.418.447-.627 1.075-.627 1.882v6.555h-3.699v-12.07h3.699v1.6c.375-.533.88-.951 1.514-1.254.635-.317 1.349-.476 2.142-.476z" fill="#4FE0BE"/>
  <path d="M127.441 80.5V82h-6.1l-.476-1.183 3.086-3.475c.395-.442.755-.885 1.082-1.327.327-.442.49-.894.49-1.355 0-.481-.139-.842-.418-1.082-.279-.25-.644-.375-1.096-.375-.221 0-.466.067-.735.202-.27.135-.524.346-.765.635-.24.288-.432.668-.577 1.139l-1.197-.75c.26-.894.707-1.562 1.342-2.005a3.665 3.665 0 012.12-.663 3.16 3.16 0 011.485.346c.442.221.793.538 1.053.952.259.413.389.908.389 1.485 0 .664-.202 1.322-.606 1.976a12.769 12.769 0 01-1.456 1.918l-1.889 2.062h4.268zm8.193 1.644c-.461 0-.865-.072-1.211-.216a3.169 3.169 0 01-.88-.534 4.19 4.19 0 01-.577-.605 3.812 3.812 0 01-.302-.476l.98-1.024c.164.22.332.437.505.649.173.202.375.37.606.504.24.126.533.188.879.188.539 0 .962-.178 1.269-.534a1.97 1.97 0 00.462-1.312v-5.437h-1.846v-1.442h4.961v1.442h-1.558v5.581c0 .548-.129 1.068-.389 1.558-.25.49-.62.89-1.11 1.197-.491.307-1.087.461-1.789.461zm11.044-3.158v-4.557h1.485V82h-1.485v-1.211c-.221.355-.548.673-.981.951-.423.27-.932.404-1.528.404-.789 0-1.428-.269-1.918-.807-.491-.539-.736-1.284-.736-2.236V74.43h1.486v4.269c0 .384.057.74.173 1.067.125.327.317.591.577.793.269.192.61.288 1.024.288.519 0 .966-.163 1.341-.49.375-.327.562-.784.562-1.37zM150.247 82V71.328h1.485V82h-1.485zm4.6-9.215c-.336 0-.586-.087-.75-.26-.163-.173-.245-.399-.245-.678 0-.24.082-.456.245-.648.164-.193.414-.289.75-.289.337 0 .587.087.75.26.164.173.245.399.245.677 0 .24-.081.457-.245.65-.163.192-.413.288-.75.288zm.765 9.215h-1.486v-7.571h1.486V82zm6.022-3.389v-1.47h4.153v1.47h-4.153zM176.932 82h-4.816v-1.5h1.6v-6.706l-1.456.765-.418-1.356 2.696-1.442h.75v8.74h1.644V82zm7.211 0h-4.817v-1.5h1.601v-6.706l-1.457.765-.418-1.356 2.697-1.442h.75v8.74h1.644V82zm8.599.144c-.462 0-.865-.072-1.212-.216a3.148 3.148 0 01-.879-.534 4.082 4.082 0 01-.577-.605 3.97 3.97 0 01-.303-.476l.981-1.024c.163.22.331.437.504.649.173.202.375.37.606.504.24.126.534.188.88.188.538 0 .961-.178 1.269-.534.308-.365.461-.802.461-1.312v-5.437h-1.846v-1.442h4.961v1.442h-1.557v5.581c0 .548-.13 1.068-.39 1.558-.25.49-.62.89-1.11 1.197-.49.307-1.086.461-1.788.461zm11.044-3.158v-4.557h1.485V82h-1.485v-1.211c-.222.355-.548.673-.981.951-.423.27-.933.404-1.529.404-.788 0-1.427-.269-1.918-.807-.49-.539-.735-1.284-.735-2.236V74.43h1.485v4.269c0 .384.058.74.173 1.067.125.327.317.591.577.793.269.192.611.288 1.024.288.519 0 .966-.163 1.341-.49.375-.327.563-.784.563-1.37zM207.354 82V71.328h1.486V82h-1.486zm4.601-9.215c-.337 0-.587-.087-.75-.26-.164-.173-.245-.399-.245-.678a.97.97 0 01.245-.648c.163-.193.413-.289.75-.289.336 0 .586.087.75.26.163.173.245.399.245.677 0 .24-.082.457-.245.65-.164.192-.414.288-.75.288zm.764 9.215h-1.485v-7.571h1.485V82zm12.699-1.5V82h-6.1l-.476-1.183 3.086-3.475c.394-.442.755-.885 1.082-1.327.327-.442.49-.894.49-1.355 0-.481-.139-.842-.418-1.082-.279-.25-.644-.375-1.096-.375-.221 0-.466.067-.736.202a2.431 2.431 0 00-.764.635c-.24.288-.432.668-.577 1.139l-1.197-.75c.26-.894.707-1.562 1.342-2.005a3.664 3.664 0 012.119-.663 3.16 3.16 0 011.486.346c.442.221.793.538 1.053.952.259.413.389.908.389 1.485 0 .664-.202 1.322-.606 1.976a12.769 12.769 0 01-1.456 1.918L221.15 80.5h4.268zm4.829 1.644c-.807 0-1.49-.22-2.048-.663-.548-.452-.961-1.067-1.24-1.846-.279-.779-.418-1.673-.418-2.682 0-1.01.139-1.904.418-2.683.279-.778.692-1.389 1.24-1.831.558-.452 1.241-.678 2.048-.678.817 0 1.5.226 2.048.678.548.442.961 1.053 1.24 1.831.289.779.433 1.673.433 2.683 0 1.01-.144 1.903-.433 2.682-.279.779-.692 1.394-1.24 1.846-.548.442-1.231.663-2.048.663zm0-1.413c.692 0 1.231-.327 1.615-.98.395-.654.592-1.587.592-2.798 0-1.212-.197-2.144-.592-2.798-.384-.654-.923-.98-1.615-.98s-1.235.326-1.629.98c-.385.654-.577 1.586-.577 2.798 0 1.211.192 2.144.577 2.797.394.654.937.98 1.629.98zm11.832-.23V82h-6.101l-.475-1.183 3.086-3.475c.394-.442.754-.885 1.081-1.327.327-.442.491-.894.491-1.355 0-.481-.14-.842-.419-1.082-.278-.25-.644-.375-1.096-.375-.221 0-.466.067-.735.202a2.42 2.42 0 00-.764.635c-.241.288-.433.668-.577 1.139l-1.197-.75c.259-.894.706-1.562 1.341-2.005a3.667 3.667 0 012.12-.663 3.16 3.16 0 011.485.346 2.58 2.58 0 011.053.952c.26.413.389.908.389 1.485 0 .664-.202 1.322-.605 1.976-.394.644-.88 1.283-1.457 1.918L237.81 80.5h4.269zM248.883 82h-4.816v-1.5h1.6v-6.706l-1.456.765-.418-1.356 2.696-1.442h.75v8.74h1.644V82zm16.102 122.771h-4.817v-1.5h1.601v-6.706l-1.457.764-.418-1.355 2.697-1.443h.75v8.74h1.644v1.5zm8.306-1.5v1.5h-6.1l-.476-1.183 3.086-3.476c.395-.442.755-.884 1.082-1.326.327-.443.49-.894.49-1.356 0-.481-.139-.841-.418-1.081-.279-.25-.644-.375-1.096-.375-.221 0-.466.067-.735.201-.27.135-.524.347-.765.635-.24.288-.432.668-.577 1.139l-1.197-.75c.26-.894.707-1.562 1.342-2.004a3.667 3.667 0 012.12-.664c.548 0 1.043.116 1.485.347.442.221.793.538 1.053.951.259.414.389.909.389 1.486 0 .663-.202 1.322-.606 1.975a12.698 12.698 0 01-1.456 1.918l-1.889 2.063h4.268zm8.193 1.644c-.461 0-.865-.072-1.211-.217a3.175 3.175 0 01-.88-.533 4.231 4.231 0 01-.577-.606 3.776 3.776 0 01-.302-.476l.98-1.024c.164.221.332.438.505.649.173.202.375.37.606.505.24.125.533.187.879.187.539 0 .962-.177 1.269-.533.308-.365.462-.803.462-1.312v-5.437h-1.846v-1.442h4.961v1.442h-1.558v5.581c0 .548-.129 1.067-.389 1.557-.25.491-.62.89-1.11 1.197-.491.308-1.087.462-1.789.462zm11.044-3.159v-4.557h1.485v7.572h-1.485v-1.212c-.221.356-.548.673-.981.952-.423.269-.932.404-1.528.404-.789 0-1.428-.269-1.918-.808-.491-.538-.736-1.283-.736-2.235v-4.673h1.486v4.269c0 .385.057.74.173 1.067.125.327.317.591.577.793.269.193.61.289 1.024.289.519 0 .966-.164 1.341-.491.375-.326.562-.783.562-1.37zm3.569 3.015v-10.672h1.485v10.672h-1.485zm4.6-9.216c-.336 0-.586-.086-.75-.259-.163-.173-.245-.399-.245-.678 0-.24.082-.457.245-.649.164-.192.414-.288.75-.288.337 0 .587.086.75.259.164.173.245.399.245.678 0 .24-.081.457-.245.649-.163.192-.413.288-.75.288zm.765 9.216h-1.486v-7.572h1.486v7.572zm6.022-3.389v-1.471h4.153v1.471h-4.153zm16.394 1.889v1.5h-6.1l-.476-1.183 3.086-3.476c.394-.442.755-.884 1.082-1.326.327-.443.49-.894.49-1.356 0-.481-.139-.841-.418-1.081-.279-.25-.644-.375-1.096-.375-.221 0-.466.067-.735.201-.27.135-.524.347-.765.635-.24.288-.432.668-.577 1.139l-1.197-.75c.26-.894.707-1.562 1.342-2.004a3.666 3.666 0 012.119-.664c.548 0 1.044.116 1.486.347.442.221.793.538 1.053.951.259.414.389.909.389 1.486 0 .663-.202 1.322-.606 1.975a12.698 12.698 0 01-1.456 1.918l-1.889 2.063h4.268zm4.166 1.6c-.731 0-1.361-.168-1.889-.504a4.105 4.105 0 01-1.255-1.255l.865-.966c.346.384.688.697 1.024.937.346.241.764.361 1.255.361.404 0 .764-.087 1.081-.26.318-.182.568-.423.75-.721.183-.298.274-.625.274-.981 0-.394-.091-.74-.274-1.038a1.851 1.851 0 00-.721-.721 1.943 1.943 0 00-.995-.259c-.49 0-.904.076-1.24.23-.327.154-.586.279-.779.375l-.822-1.11.591-4.283h5.452v1.442h-4.211l-.332 2.235c.221-.096.476-.173.764-.231.289-.067.572-.101.851-.101.587 0 1.12.135 1.601.404.49.269.884.654 1.182 1.154.299.49.448 1.077.448 1.759a3.43 3.43 0 01-.491 1.817c-.317.529-.75.947-1.298 1.255-.538.308-1.149.461-1.831.461zm12.224.044c-.462 0-.866-.072-1.212-.217a3.154 3.154 0 01-.879-.533 4.123 4.123 0 01-.577-.606 3.93 3.93 0 01-.303-.476l.981-1.024c.163.221.331.438.504.649.173.202.375.37.606.505.24.125.534.187.88.187.538 0 .961-.177 1.269-.533.307-.365.461-.803.461-1.312v-5.437h-1.846v-1.442h4.961v1.442h-1.557v5.581c0 .548-.13 1.067-.39 1.557-.25.491-.62.89-1.11 1.197-.49.308-1.086.462-1.788.462zm11.043-3.159v-4.557h1.486v7.572h-1.486v-1.212c-.221.356-.548.673-.98.952-.423.269-.933.404-1.529.404-.788 0-1.428-.269-1.918-.808-.49-.538-.735-1.283-.735-2.235v-4.673h1.485v4.269c0 .385.058.74.173 1.067.125.327.317.591.577.793.269.193.61.289 1.024.289.519 0 .966-.164 1.341-.491.375-.326.562-.783.562-1.37zm3.569 3.015v-10.672h1.486v10.672h-1.486zm4.601-9.216c-.337 0-.587-.086-.75-.259-.164-.173-.245-.399-.245-.678 0-.24.081-.457.245-.649.163-.192.413-.288.75-.288.336 0 .586.086.749.259.164.173.246.399.246.678 0 .24-.082.457-.246.649-.163.192-.413.288-.749.288zm.764 9.216h-1.485v-7.572h1.485v7.572zm12.699-1.5v1.5h-6.1l-.476-1.183 3.086-3.476c.394-.442.755-.884 1.082-1.326.327-.443.49-.894.49-1.356 0-.481-.139-.841-.418-1.081-.279-.25-.644-.375-1.096-.375-.221 0-.466.067-.736.201a2.433 2.433 0 00-.764.635c-.24.288-.433.668-.577 1.139l-1.197-.75c.26-.894.707-1.562 1.341-2.004a3.671 3.671 0 012.12-.664c.548 0 1.043.116 1.486.347.442.221.793.538 1.052.951.26.414.39.909.39 1.486 0 .663-.202 1.322-.606 1.975-.394.645-.88 1.284-1.456 1.918l-1.89 2.063h4.269zm4.829 1.644c-.807 0-1.49-.221-2.048-.664-.548-.452-.961-1.067-1.24-1.846-.279-.778-.418-1.672-.418-2.682 0-1.009.139-1.904.418-2.682.279-.779.692-1.39 1.24-1.832.558-.452 1.241-.678 2.048-.678.817 0 1.5.226 2.048.678.548.442.961 1.053 1.24 1.832.289.778.433 1.673.433 2.682 0 1.01-.144 1.904-.433 2.682-.279.779-.692 1.394-1.24 1.846-.548.443-1.231.664-2.048.664zm0-1.414c.692 0 1.231-.326 1.615-.98.394-.654.592-1.587.592-2.798s-.198-2.144-.592-2.798c-.384-.653-.923-.98-1.615-.98s-1.235.327-1.629.98c-.385.654-.577 1.587-.577 2.798s.192 2.144.577 2.798c.394.654.937.98 1.629.98zm11.832-.23v1.5h-6.101l-.476-1.183 3.087-3.476a18.79 18.79 0 001.081-1.326c.327-.443.491-.894.491-1.356 0-.481-.14-.841-.419-1.081-.278-.25-.644-.375-1.096-.375-.221 0-.466.067-.735.201a2.433 2.433 0 00-.764.635c-.241.288-.433.668-.577 1.139l-1.197-.75c.259-.894.706-1.562 1.341-2.004a3.669 3.669 0 012.12-.664c.548 0 1.043.116 1.485.347.442.221.793.538 1.053.951.26.414.389.909.389 1.486 0 .663-.202 1.322-.605 1.975-.395.645-.88 1.284-1.457 1.918l-1.889 2.063h4.269zm6.804 1.5h-4.816v-1.5h1.6v-6.706l-1.456.764-.418-1.355 2.696-1.443h.75v8.74h1.644v1.5zm11.028-158.235v1.5h-6.101l-.475-1.183 3.086-3.476a18.8 18.8 0 001.081-1.326c.327-.443.491-.895.491-1.356 0-.48-.14-.841-.419-1.082-.278-.25-.644-.374-1.096-.374-.221 0-.466.067-.735.201a2.42 2.42 0 00-.764.635c-.241.288-.433.668-.577 1.14l-1.197-.75c.259-.895.706-1.563 1.341-2.005a3.667 3.667 0 012.12-.664 3.16 3.16 0 011.485.346c.442.222.793.539 1.053.952.26.414.389.909.389 1.486 0 .663-.202 1.322-.605 1.975-.395.645-.88 1.284-1.457 1.918l-1.889 2.063h4.269zm4.54 1.5a3.52 3.52 0 01-1.759-.448 3.377 3.377 0 01-1.269-1.254c-.318-.539-.476-1.159-.476-1.86 0-.433.086-.91.259-1.428.173-.52.39-1.044.649-1.572.269-.529.539-1.024.808-1.486l1.312-2.22h1.514l.058.144-1.586 2.668c-.135.22-.26.442-.375.663.173-.087.36-.149.562-.188.212-.047.433-.072.664-.072a2.72 2.72 0 011.543.462c.471.308.846.711 1.125 1.211a3.3 3.3 0 01.418 1.63c0 .682-.14 1.307-.418 1.875a3.443 3.443 0 01-1.197 1.37c-.51.336-1.12.504-1.832.504zm0-1.443c.346 0 .668-.081.966-.245a1.86 1.86 0 00.707-.735c.183-.318.274-.697.274-1.14 0-.336-.082-.658-.245-.966a2.131 2.131 0 00-.678-.779 1.65 1.65 0 00-.995-.302c-.423 0-.788.096-1.096.288a1.989 1.989 0 00-.692.75c-.164.308-.245.64-.245.995 0 .375.076.726.23 1.053.164.317.394.577.693.778.307.202.668.303 1.081.303zm11.68 1.587c-.461 0-.865-.072-1.211-.217a3.154 3.154 0 01-.88-.533 4.135 4.135 0 01-.577-.606 3.97 3.97 0 01-.303-.476l.981-1.024c.163.221.332.438.505.65.173.201.375.37.605.504.241.125.534.187.88.187.538 0 .961-.178 1.269-.533a1.97 1.97 0 00.462-1.313v-5.436h-1.846V37.94h4.961v1.442h-1.558v5.58c0 .549-.13 1.068-.389 1.558-.25.49-.62.89-1.111 1.197-.49.308-1.086.462-1.788.462zm11.044-3.159v-4.557h1.485v7.571h-1.485v-1.211c-.221.356-.548.673-.981.952-.423.269-.932.404-1.529.404-.788 0-1.427-.27-1.918-.808-.49-.538-.735-1.283-.735-2.235v-4.673h1.485v4.269c0 .385.058.74.173 1.067.125.327.318.591.577.793.269.193.611.289 1.024.289.519 0 .966-.164 1.341-.49.375-.328.563-.784.563-1.37zm3.569 3.014V37.364h1.485v10.671h-1.485zm4.6-9.215c-.337 0-.587-.086-.75-.26-.163-.172-.245-.398-.245-.677 0-.24.082-.457.245-.65.163-.191.413-.287.75-.287.336 0 .586.086.75.26.163.172.245.398.245.677a.98.98 0 01-.245.649c-.164.192-.414.288-.75.288zm.764 9.215h-1.485v-7.57h1.485v7.57zm12.699-1.5v1.5h-6.1l-.476-1.182 3.087-3.476a18.8 18.8 0 001.081-1.326c.327-.443.49-.895.49-1.356 0-.48-.139-.841-.418-1.082-.279-.25-.644-.374-1.096-.374-.221 0-.466.067-.735.201a2.434 2.434 0 00-.765.635c-.24.288-.432.668-.576 1.14l-1.197-.75c.259-.895.706-1.563 1.341-2.005a3.667 3.667 0 012.12-.664 3.16 3.16 0 011.485.346c.442.222.793.539 1.053.952.259.414.389.909.389 1.486 0 .663-.202 1.322-.605 1.975-.395.645-.88 1.284-1.457 1.918l-1.889 2.063h4.268zm4.829 1.645c-.807 0-1.49-.221-2.047-.664-.548-.452-.962-1.067-1.241-1.846-.278-.778-.418-1.672-.418-2.682s.14-1.904.418-2.682c.279-.78.693-1.39 1.241-1.832.557-.452 1.24-.678 2.047-.678.818 0 1.5.226 2.048.678.548.442.962 1.053 1.24 1.832.289.778.433 1.672.433 2.682s-.144 1.904-.433 2.682c-.278.78-.692 1.394-1.24 1.846-.548.443-1.23.664-2.048.664zm0-1.414c.693 0 1.231-.326 1.616-.98.394-.654.591-1.587.591-2.798s-.197-2.144-.591-2.798c-.385-.654-.923-.98-1.616-.98-.692 0-1.235.326-1.629.98-.385.654-.577 1.587-.577 2.798s.192 2.144.577 2.798c.394.654.937.98 1.629.98zm11.832-.23v1.5h-6.1l-.476-1.183 3.086-3.476a18.82 18.82 0 001.082-1.326c.326-.443.49-.895.49-1.356 0-.48-.14-.841-.418-1.082-.279-.25-.644-.374-1.096-.374-.221 0-.467.067-.736.201a2.42 2.42 0 00-.764.635c-.24.288-.433.668-.577 1.14l-1.197-.75c.26-.895.707-1.563 1.341-2.005a3.667 3.667 0 012.12-.664c.548 0 1.043.116 1.486.346.442.222.793.539 1.052.952.26.414.39.909.39 1.486 0 .663-.202 1.322-.606 1.975-.394.645-.88 1.284-1.457 1.918l-1.889 2.063h4.269zm6.805 1.5h-4.817v-1.5h1.601V39.83l-1.457.764-.418-1.355 2.697-1.443h.75v8.74h1.644v1.5zm73.245 182.37v1.5h-6.101l-.475-1.183 3.086-3.476a18.79 18.79 0 001.081-1.326c.327-.443.491-.894.491-1.356 0-.481-.14-.841-.419-1.081-.278-.25-.644-.375-1.096-.375-.221 0-.466.067-.735.201a2.433 2.433 0 00-.764.635c-.241.288-.433.668-.577 1.139l-1.197-.75c.259-.894.706-1.562 1.341-2.004a3.669 3.669 0 012.12-.664c.548 0 1.043.116 1.485.347a2.58 2.58 0 011.053.951c.26.414.389.909.389 1.486 0 .663-.202 1.322-.605 1.975-.394.645-.88 1.284-1.457 1.918l-1.889 2.063h4.269zm2.074 1.5l3.966-8.653h-4.716v-1.442h6.245l.202.995-4.024 9.1h-1.673zm13.935.144c-.462 0-.865-.072-1.212-.217a3.154 3.154 0 01-.879-.533 4.123 4.123 0 01-.577-.606 3.93 3.93 0 01-.303-.476l.981-1.024c.163.221.331.438.504.649.174.202.375.37.606.505.241.125.534.188.88.188.538 0 .961-.178 1.269-.534.308-.365.461-.803.461-1.312v-5.437h-1.846v-1.442h4.961v1.442h-1.557v5.581c0 .548-.13 1.067-.389 1.557-.25.491-.621.89-1.111 1.197-.49.308-1.086.462-1.788.462zm11.044-3.159v-4.557h1.485v7.572h-1.485v-1.212c-.222.356-.548.673-.981.952-.423.269-.933.404-1.529.404-.788 0-1.427-.269-1.918-.808-.49-.538-.735-1.283-.735-2.235v-4.673h1.485v4.269c0 .385.058.74.173 1.067.125.327.317.592.577.793.269.193.611.289 1.024.289.519 0 .966-.164 1.341-.49.375-.327.563-.784.563-1.371zm3.568 3.015v-10.672h1.486v10.672h-1.486zm4.601-9.216c-.337 0-.587-.086-.75-.259-.164-.173-.245-.399-.245-.678 0-.24.081-.457.245-.649.163-.192.413-.288.75-.288.336 0 .586.086.75.259.163.173.245.399.245.678 0 .24-.082.457-.245.649-.164.192-.414.288-.75.288zm.764 9.216h-1.485v-7.572h1.485v7.572zm6.022-3.389v-1.471h4.154v1.471h-4.154zm16.395 1.889v1.5h-6.1l-.476-1.183 3.086-3.476a18.79 18.79 0 001.081-1.326c.327-.443.491-.894.491-1.356 0-.481-.14-.841-.419-1.081-.278-.25-.644-.375-1.096-.375-.221 0-.466.067-.735.201a2.433 2.433 0 00-.764.635c-.241.288-.433.668-.577 1.139l-1.197-.75c.259-.894.706-1.562 1.341-2.004a3.669 3.669 0 012.12-.664c.548 0 1.043.116 1.485.347a2.58 2.58 0 011.053.951c.26.414.389.909.389 1.486 0 .663-.201 1.322-.605 1.975-.394.645-.88 1.284-1.457 1.918l-1.889 2.063h4.269zm2.074 1.5l3.966-8.653h-4.716v-1.442h6.245l.202.995-4.024 9.1h-1.673zm18.319 0l-.952-2.51h-4.225l-.952 2.51h-1.586l3.908-10.095h1.586l3.879 10.095h-1.658zm-3.836-6.029l-.764 2.019h3.086l-.793-2.076c-.125-.337-.25-.697-.375-1.082l-.375-1.182-.404 1.211c-.125.404-.25.774-.375 1.11zm7.794 7.283c.288.221.649.399 1.081.534.433.134.856.202 1.269.202.779 0 1.375-.193 1.788-.577.414-.375.621-.942.621-1.702v-.923a2.61 2.61 0 01-.577.664c-.25.201-.543.37-.88.504a2.996 2.996 0 01-1.053.188 3.662 3.662 0 01-1.903-.505 3.72 3.72 0 01-1.356-1.399c-.327-.596-.49-1.274-.49-2.033 0-.769.163-1.447.49-2.034a3.648 3.648 0 011.327-1.399 3.637 3.637 0 011.889-.504c.577 0 1.086.13 1.529.389.452.25.793.524 1.024.822v-1.053h1.485v7.11c0 .904-.183 1.63-.548 2.178a3.074 3.074 0 01-1.428 1.211 4.678 4.678 0 01-1.918.389 5.252 5.252 0 01-1.615-.259c-.529-.164-.957-.38-1.283-.649l.548-1.154zm2.408-7.629c-.462 0-.875.116-1.24.346-.356.222-.64.529-.851.923a2.782 2.782 0 00-.303 1.313c0 .49.101.928.303 1.312.211.385.495.692.851.923.365.221.778.332 1.24.332.481 0 .899-.111 1.255-.332a2.27 2.27 0 00.85-.909c.202-.394.303-.836.303-1.326 0-.5-.101-.942-.303-1.327a2.277 2.277 0 00-.85-.909c-.356-.23-.774-.346-1.255-.346zm10.969 3.36v-4.557h1.485v7.572h-1.485v-1.212c-.221.356-.548.673-.981.952-.423.269-.932.404-1.529.404-.788 0-1.427-.269-1.918-.808-.49-.538-.735-1.283-.735-2.235v-4.673h1.485v4.269c0 .385.058.74.173 1.067.125.327.318.592.577.793.269.193.611.289 1.024.289.519 0 .966-.164 1.341-.49.375-.327.563-.784.563-1.371zm7.938-2.566a3.507 3.507 0 00-.923-.664c-.336-.173-.649-.259-.937-.259-.202 0-.404.024-.606.072a1.027 1.027 0 00-.49.274c-.135.125-.202.312-.202.562.01.346.163.591.461.736.308.144.688.274 1.14.389.394.106.778.24 1.153.404.375.154.683.384.923.692.25.298.375.721.375 1.269 0 .471-.134.875-.404 1.211-.259.337-.6.596-1.023.779a3.37 3.37 0 01-1.313.26 4.793 4.793 0 01-1.629-.289 3.109 3.109 0 01-1.356-1.024l1.01-.865c.259.298.552.534.879.707.337.163.745.245 1.226.245.183 0 .365-.029.548-.087.183-.067.337-.168.461-.302.135-.145.202-.337.202-.577 0-.231-.072-.409-.216-.534a1.384 1.384 0 00-.548-.317 6.425 6.425 0 00-.764-.231 11.503 11.503 0 01-1.226-.418 2.801 2.801 0 01-.995-.721c-.26-.317-.389-.745-.389-1.284 0-.452.124-.836.374-1.153.26-.327.597-.577 1.01-.75a3.24 3.24 0 011.327-.274c.452 0 .942.096 1.471.288.528.192.966.5 1.312.923l-.851.938zm4.954 5.581h-1.485v-6.129h-1.572v-1.443h1.572v-1.932h1.485v1.932h1.759v1.443h-1.759v6.129zm8.275-3.015v-4.557h1.485v7.572h-1.485v-1.212c-.221.356-.548.673-.981.952-.423.269-.932.404-1.529.404-.788 0-1.427-.269-1.918-.808-.49-.538-.735-1.283-.735-2.235v-4.673h1.485v4.269c0 .385.058.74.173 1.067.125.327.318.592.577.793.269.193.611.289 1.024.289.519 0 .966-.164 1.341-.49.375-.327.563-.784.563-1.371zm7.938-2.566a3.507 3.507 0 00-.923-.664c-.336-.173-.649-.259-.937-.259-.202 0-.404.024-.606.072a1.027 1.027 0 00-.49.274c-.135.125-.202.312-.202.562.01.346.163.591.461.736.308.144.688.274 1.14.389.394.106.778.24 1.153.404.375.154.683.384.923.692.25.298.375.721.375 1.269 0 .471-.134.875-.403 1.211-.26.337-.601.596-1.024.779a3.37 3.37 0 01-1.313.26 4.793 4.793 0 01-1.629-.289 3.109 3.109 0 01-1.356-1.024l1.01-.865c.259.298.552.534.879.707.337.163.745.245 1.226.245.183 0 .365-.029.548-.087.183-.067.337-.168.462-.302.134-.145.201-.337.201-.577 0-.231-.072-.409-.216-.534a1.377 1.377 0 00-.548-.317 6.425 6.425 0 00-.764-.231 11.503 11.503 0 01-1.226-.418 2.801 2.801 0 01-.995-.721c-.26-.317-.389-.745-.389-1.284 0-.452.125-.836.375-1.153a2.485 2.485 0 011.009-.75 3.24 3.24 0 011.327-.274c.452 0 .942.096 1.471.288.529.192.966.5 1.312.923l-.851.938zm12.976 4.081v1.5h-6.1l-.476-1.183 3.086-3.476c.394-.442.755-.884 1.082-1.326.327-.443.49-.894.49-1.356 0-.481-.139-.841-.418-1.081-.279-.25-.644-.375-1.096-.375-.221 0-.466.067-.735.201-.27.135-.524.347-.765.635-.24.288-.432.668-.577 1.139l-1.197-.75c.26-.894.707-1.562 1.342-2.004a3.666 3.666 0 012.119-.664c.548 0 1.044.116 1.486.347.442.221.793.538 1.053.951.259.414.389.909.389 1.486 0 .663-.202 1.322-.606 1.975a12.698 12.698 0 01-1.456 1.918l-1.889 2.063h4.268zm4.829 1.644c-.807 0-1.49-.221-2.048-.664-.548-.452-.961-1.067-1.24-1.846-.279-.778-.418-1.672-.418-2.682 0-1.009.139-1.904.418-2.682.279-.779.692-1.389 1.24-1.832.558-.452 1.241-.678 2.048-.678.817 0 1.5.226 2.048.678.548.443.961 1.053 1.24 1.832.289.778.433 1.673.433 2.682 0 1.01-.144 1.904-.433 2.682-.279.779-.692 1.394-1.24 1.846-.548.443-1.231.664-2.048.664zm0-1.414c.692 0 1.231-.326 1.615-.98.395-.654.592-1.587.592-2.798s-.197-2.144-.592-2.798c-.384-.653-.923-.98-1.615-.98s-1.235.327-1.629.98c-.385.654-.577 1.587-.577 2.798s.192 2.144.577 2.798c.394.654.937.98 1.629.98zm11.832-.23v1.5h-6.1l-.476-1.183 3.086-3.476a18.79 18.79 0 001.081-1.326c.327-.443.491-.894.491-1.356 0-.481-.14-.841-.419-1.081-.278-.25-.644-.375-1.096-.375-.221 0-.466.067-.735.201a2.433 2.433 0 00-.764.635c-.241.288-.433.668-.577 1.139l-1.197-.75c.259-.894.706-1.562 1.341-2.004a3.669 3.669 0 012.12-.664c.548 0 1.043.116 1.485.347a2.58 2.58 0 011.053.951c.26.414.389.909.389 1.486 0 .663-.201 1.322-.605 1.975-.394.645-.88 1.284-1.457 1.918l-1.889 2.063h4.269zm6.804 1.5h-4.816v-1.5h1.6V223.7l-1.456.764-.418-1.355 2.696-1.443h.75v8.74h1.644v1.5z" fill="#fff"/>
  <path d="M273.565 235.942h-3.699l-6.186-9.366v9.366h-3.699v-15.185h3.699l6.186 9.41v-9.41h3.699v15.185zm8.176.173c-1.182 0-2.25-.252-3.201-.757a5.622 5.622 0 01-2.228-2.163c-.534-.937-.801-2.033-.801-3.288 0-1.24.274-2.329.822-3.266a5.558 5.558 0 012.25-2.185c.952-.505 2.019-.757 3.201-.757 1.183 0 2.25.252 3.202.757a5.558 5.558 0 012.25 2.185c.548.937.822 2.026.822 3.266 0 1.24-.282 2.336-.844 3.288a5.554 5.554 0 01-2.271 2.163c-.952.505-2.019.757-3.202.757zm0-3.201c.707 0 1.305-.26 1.796-.779.504-.519.757-1.262.757-2.228 0-.966-.245-1.709-.736-2.228a2.31 2.31 0 00-1.774-.779c-.721 0-1.319.26-1.795.779-.476.505-.714 1.247-.714 2.228 0 .966.231 1.709.692 2.228a2.31 2.31 0 001.774.779zm11.978-7.03a4.784 4.784 0 011.622-1.558 4.13 4.13 0 012.164-.584v3.915h-1.017c-.923 0-1.615.202-2.077.606-.461.389-.692 1.082-.692 2.077v5.602h-3.699v-12.07h3.699v2.012zm20.956-2.142c1.499 0 2.689.454 3.569 1.363.894.908 1.341 2.17 1.341 3.785v7.052h-3.677v-6.554c0-.779-.21-1.377-.628-1.795-.404-.433-.966-.649-1.687-.649-.721 0-1.291.216-1.709.649-.404.418-.606 1.016-.606 1.795v6.554h-3.677v-6.554c0-.779-.209-1.377-.627-1.795-.404-.433-.967-.649-1.688-.649s-1.29.216-1.709.649c-.403.418-.605 1.016-.605 1.795v6.554h-3.699v-12.07h3.699v1.514a3.868 3.868 0 011.471-1.19c.605-.303 1.29-.454 2.055-.454.908 0 1.716.195 2.423.584a4.169 4.169 0 011.687 1.666 4.864 4.864 0 011.709-1.623 4.62 4.62 0 012.358-.627zm6.762 6.143c0-1.24.23-2.329.692-3.266.476-.937 1.117-1.658 1.925-2.163.808-.505 1.709-.757 2.704-.757.851 0 1.594.173 2.228.519.649.346 1.147.8 1.493 1.363v-1.709h3.699v12.07h-3.699v-1.709c-.361.563-.866 1.017-1.515 1.363-.634.346-1.377.519-2.228.519-.98 0-1.874-.252-2.682-.757-.808-.519-1.449-1.247-1.925-2.184-.462-.952-.692-2.048-.692-3.289zm9.042.022c0-.923-.26-1.651-.779-2.185a2.463 2.463 0 00-1.86-.8 2.53 2.53 0 00-1.882.8c-.505.519-.758 1.241-.758 2.163 0 .923.253 1.659.758 2.207.519.534 1.146.8 1.882.8a2.46 2.46 0 001.86-.8c.519-.534.779-1.262.779-2.185zm10.074-9.972v16.007h-3.699v-16.007h3.699zm-72.828 48.007l-3.158-5.732h-.887v5.732h-3.699v-15.185h6.208c1.197 0 2.214.209 3.05.627.851.418 1.485.995 1.904 1.731.418.721.627 1.528.627 2.422 0 1.01-.289 1.911-.865 2.704-.563.794-1.399 1.356-2.51 1.688l3.505 6.013h-4.175zm-4.045-8.349h2.293c.677 0 1.182-.166 1.514-.498.346-.332.519-.8.519-1.406 0-.577-.173-1.031-.519-1.363-.332-.332-.837-.497-1.514-.497h-2.293v3.764zm21.79 2.119c0 .347-.021.707-.065 1.082h-8.371c.058.75.296 1.327.714 1.731.432.389.959.584 1.579.584.923 0 1.565-.39 1.925-1.169h3.937a5.334 5.334 0 01-1.103 2.142 5.364 5.364 0 01-1.969 1.493c-.793.36-1.68.54-2.66.54-1.183 0-2.236-.252-3.159-.757a5.375 5.375 0 01-2.163-2.163c-.519-.937-.779-2.033-.779-3.288s.253-2.351.758-3.288a5.387 5.387 0 012.163-2.163c.923-.505 1.983-.757 3.18-.757 1.168 0 2.206.245 3.115.735a5.219 5.219 0 012.12 2.099c.519.908.778 1.968.778 3.179zm-3.785-.973c0-.635-.217-1.139-.649-1.514-.433-.375-.974-.563-1.623-.563-.62 0-1.146.181-1.579.541-.418.361-.678.873-.778 1.536h4.629zm10.323-5.04c.851 0 1.593.173 2.228.519.649.346 1.146.8 1.492 1.363v-1.709h3.699v12.049c0 1.11-.223 2.112-.67 3.007-.433.908-1.103 1.629-2.012 2.163-.894.533-2.012.8-3.353.8-1.788 0-3.237-.425-4.348-1.276-1.11-.837-1.745-1.976-1.904-3.418h3.656c.116.462.39.822.822 1.082.433.274.967.411 1.601.411.764 0 1.37-.224 1.817-.671.462-.433.692-1.132.692-2.098v-1.709c-.36.562-.858 1.024-1.492 1.384-.635.346-1.377.519-2.228.519-.995 0-1.897-.252-2.704-.757-.808-.519-1.45-1.247-1.926-2.184-.461-.952-.692-2.048-.692-3.289 0-1.24.231-2.329.692-3.266.476-.937 1.118-1.658 1.926-2.163.807-.505 1.709-.757 2.704-.757zm3.72 6.208c0-.923-.259-1.651-.778-2.185a2.463 2.463 0 00-1.861-.8c-.735 0-1.363.267-1.882.8-.504.519-.757 1.241-.757 2.163 0 .923.253 1.659.757 2.207.519.534 1.147.8 1.882.8a2.46 2.46 0 001.861-.8c.519-.534.778-1.262.778-2.185zm8.236-7.29c-.649 0-1.183-.187-1.601-.562a1.91 1.91 0 01-.606-1.428c0-.577.202-1.053.606-1.428.418-.389.952-.584 1.601-.584.634 0 1.153.195 1.557.584.418.375.628.851.628 1.428a1.88 1.88 0 01-.628 1.428c-.404.375-.923.562-1.557.562zm1.838 1.255v12.07h-3.699v-12.07h3.699zm7.592 12.243c-1.053 0-1.991-.18-2.813-.54-.822-.361-1.471-.851-1.946-1.471a3.957 3.957 0 01-.801-2.12h3.656c.043.418.238.757.584 1.016.346.26.772.39 1.276.39.462 0 .815-.087 1.06-.26.26-.187.39-.425.39-.714 0-.346-.181-.598-.541-.757-.361-.173-.945-.36-1.752-.562a17.892 17.892 0 01-2.164-.627 3.899 3.899 0 01-1.492-1.06c-.418-.491-.627-1.147-.627-1.969 0-.692.187-1.319.562-1.882.389-.577.952-1.031 1.687-1.363.75-.331 1.637-.497 2.661-.497 1.514 0 2.704.375 3.569 1.125.88.75 1.385 1.745 1.514 2.985H314.8a1.46 1.46 0 00-.563-.995c-.303-.245-.706-.368-1.211-.368-.433 0-.764.087-.995.26a.765.765 0 00-.346.67c0 .346.18.606.54.779.375.173.952.346 1.731.519.894.231 1.622.462 2.185.692a3.56 3.56 0 011.471 1.082c.432.49.656 1.154.67 1.99a3.19 3.19 0 01-.605 1.904c-.39.548-.959.98-1.709 1.298-.736.317-1.594.475-2.574.475zm13.879-3.309v3.136h-1.882c-1.341 0-2.387-.324-3.137-.973-.75-.663-1.125-1.738-1.125-3.223v-4.802h-1.47v-3.072h1.47v-2.942h3.7v2.942h2.422v3.072h-2.422v4.845c0 .361.086.62.259.779.173.158.462.238.865.238h1.32zm5.759-6.922a4.778 4.778 0 011.623-1.558 4.127 4.127 0 012.163-.584v3.915h-1.017c-.923 0-1.615.202-2.076.606-.462.389-.693 1.082-.693 2.077v5.602h-3.699v-12.07h3.699v2.012zm4.819 4.001c0-1.24.23-2.329.692-3.266.476-.937 1.117-1.658 1.925-2.163.808-.505 1.709-.757 2.704-.757.851 0 1.593.173 2.228.519.649.346 1.147.8 1.493 1.363v-1.709h3.699v12.07h-3.699v-1.709c-.361.563-.866 1.017-1.515 1.363-.634.346-1.377.519-2.228.519-.98 0-1.874-.252-2.682-.757-.808-.519-1.449-1.247-1.925-2.184-.462-.952-.692-2.048-.692-3.289zm9.042.022c0-.923-.26-1.651-.779-2.185a2.463 2.463 0 00-1.86-.8 2.53 2.53 0 00-1.882.8c-.505.519-.758 1.241-.758 2.163 0 .923.253 1.659.758 2.207.519.534 1.146.8 1.882.8a2.46 2.46 0 001.86-.8c.519-.534.779-1.262.779-2.185zm13.102 2.899v3.136h-1.882c-1.341 0-2.386-.324-3.136-.973-.75-.663-1.125-1.738-1.125-3.223v-4.802h-1.471v-3.072h1.471v-2.942h3.699v2.942h2.423v3.072h-2.423v4.845c0 .361.086.62.259.779.173.158.462.238.866.238h1.319zm3.921-10.189c-.649 0-1.183-.187-1.601-.562a1.908 1.908 0 01-.605-1.428c0-.577.201-1.053.605-1.428.418-.389.952-.584 1.601-.584.635 0 1.154.195 1.558.584.418.375.627.851.627 1.428 0 .562-.209 1.038-.627 1.428-.404.375-.923.562-1.558.562zm1.839 1.255v12.07h-3.699v-12.07h3.699zm8.175 12.243c-1.183 0-2.25-.252-3.202-.757a5.628 5.628 0 01-2.228-2.163c-.533-.937-.8-2.033-.8-3.288 0-1.24.274-2.329.822-3.266a5.558 5.558 0 012.25-2.185c.951-.505 2.019-.757 3.201-.757 1.183 0 2.25.252 3.202.757a5.562 5.562 0 012.249 2.185c.548.937.822 2.026.822 3.266 0 1.24-.281 2.336-.843 3.288a5.55 5.55 0 01-2.272 2.163c-.951.505-2.019.757-3.201.757zm0-3.201c.706 0 1.305-.26 1.795-.779.505-.519.757-1.262.757-2.228 0-.966-.245-1.709-.735-2.228a2.31 2.31 0 00-1.774-.779c-.721 0-1.319.26-1.795.779-.476.505-.714 1.247-.714 2.228 0 .966.231 1.709.692 2.228a2.31 2.31 0 001.774.779zm15.634-9.172c1.413 0 2.538.462 3.374 1.384.851.909 1.276 2.164 1.276 3.764v7.052h-3.677v-6.554c0-.808-.209-1.435-.627-1.882-.419-.447-.981-.671-1.688-.671-.706 0-1.269.224-1.687.671-.418.447-.627 1.074-.627 1.882v6.554h-3.699v-12.07h3.699v1.601a3.813 3.813 0 011.514-1.255c.635-.317 1.348-.476 2.142-.476zm169.35-3.039c0 .88-.202 1.688-.606 2.423-.403.721-1.023 1.305-1.86 1.752-.836.447-1.875.671-3.115.671h-2.293V263h-3.699v-15.186h5.992c1.212 0 2.235.21 3.072.628.836.418 1.464.995 1.882 1.73.418.736.627 1.579.627 2.531zm-5.862 1.904c.707 0 1.233-.166 1.579-.498.346-.331.519-.8.519-1.406 0-.605-.173-1.074-.519-1.406-.346-.331-.872-.497-1.579-.497h-2.012v3.807h2.012zm11.487-1.666a4.781 4.781 0 011.622-1.557 4.12 4.12 0 012.164-.584v3.915h-1.017c-.923 0-1.615.202-2.077.606-.461.389-.692 1.081-.692 2.076V263h-3.699v-12.071h3.699v2.012zm16.932 3.829c0 .346-.022.707-.065 1.082h-8.371c.057.75.295 1.326.713 1.73.433.39.959.584 1.579.584.923 0 1.565-.389 1.926-1.168h3.937a5.336 5.336 0 01-1.104 2.142 5.367 5.367 0 01-1.968 1.492c-.793.361-1.68.541-2.661.541-1.182 0-2.235-.252-3.158-.757a5.387 5.387 0 01-2.163-2.163c-.519-.938-.779-2.034-.779-3.288 0-1.255.252-2.351.757-3.288a5.375 5.375 0 012.163-2.163c.923-.505 1.983-.758 3.18-.758 1.168 0 2.207.246 3.115.736a5.21 5.21 0 012.12 2.098c.519.909.779 1.969.779 3.18zm-3.786-.973c0-.635-.216-1.14-.649-1.515-.432-.375-.973-.562-1.622-.562-.62 0-1.146.18-1.579.541-.418.36-.678.872-.779 1.536h4.629zm9.436-8.805V263h-3.699v-16.008h3.699zm4.541 2.683c-.649 0-1.182-.188-1.6-.563a1.905 1.905 0 01-.606-1.427c0-.577.202-1.053.606-1.428.418-.389.951-.584 1.6-.584.635 0 1.154.195 1.558.584.418.375.627.851.627 1.428 0 .562-.209 1.038-.627 1.427-.404.375-.923.563-1.558.563zm1.839 1.254V263h-3.699v-12.071h3.699zm18.083-.129c1.499 0 2.689.454 3.569 1.362.894.909 1.341 2.171 1.341 3.786V263h-3.677v-6.554c0-.779-.21-1.378-.628-1.796-.404-.433-.966-.649-1.687-.649-.721 0-1.291.216-1.709.649-.404.418-.606 1.017-.606 1.796V263h-3.677v-6.554c0-.779-.209-1.378-.627-1.796-.404-.433-.967-.649-1.688-.649s-1.29.216-1.709.649c-.403.418-.605 1.017-.605 1.796V263h-3.699v-12.071h3.699v1.515a3.858 3.858 0 011.471-1.19c.605-.303 1.29-.454 2.055-.454.908 0 1.716.194 2.423.584a4.166 4.166 0 011.687 1.665 4.862 4.862 0 011.709-1.622 4.62 4.62 0 012.358-.627zm9.357-1.125c-.649 0-1.182-.188-1.6-.563a1.905 1.905 0 01-.606-1.427c0-.577.202-1.053.606-1.428.418-.389.951-.584 1.6-.584.635 0 1.154.195 1.558.584.418.375.627.851.627 1.428 0 .562-.209 1.038-.627 1.427-.404.375-.923.563-1.558.563zm1.839 1.254V263h-3.699v-12.071h3.699zm10.036-.129c1.413 0 2.538.461 3.374 1.384.851.909 1.276 2.163 1.276 3.764V263h-3.677v-6.554c0-.808-.209-1.435-.627-1.882-.419-.447-.981-.671-1.688-.671-.706 0-1.269.224-1.687.671-.418.447-.627 1.074-.627 1.882V263h-3.699v-12.071h3.699v1.601a3.81 3.81 0 011.514-1.254c.635-.318 1.348-.476 2.142-.476zm6.485 6.143c0-1.24.231-2.329.693-3.266.475-.938 1.117-1.659 1.925-2.163.807-.505 1.709-.758 2.704-.758.851 0 1.593.173 2.228.52.649.346 1.146.8 1.492 1.362v-1.709h3.7V263h-3.7v-1.709c-.36.563-.865 1.017-1.514 1.363-.634.346-1.377.519-2.228.519-.98 0-1.875-.252-2.682-.757-.808-.519-1.45-1.247-1.925-2.185-.462-.952-.693-2.048-.693-3.288zm9.042.022c0-.923-.259-1.652-.778-2.185a2.46 2.46 0 00-1.861-.8 2.53 2.53 0 00-1.882.8c-.504.519-.757 1.24-.757 2.163 0 .923.253 1.659.757 2.207.52.533 1.147.8 1.882.8.736 0 1.356-.267 1.861-.8.519-.534.778-1.262.778-2.185zm10.075-4.024a4.772 4.772 0 011.622-1.557 4.118 4.118 0 012.163-.584v3.915h-1.016c-.923 0-1.616.202-2.077.606-.462.389-.692 1.081-.692 2.076V263h-3.699v-12.071h3.699v2.012zm17.883-2.012l-7.571 17.803h-3.98l2.769-6.143-4.911-11.66h4.132l2.791 7.55 2.769-7.55h4.001zm11.417 12.222c-1.111 0-2.106-.18-2.986-.54-.879-.361-1.586-.894-2.12-1.601-.519-.707-.793-1.558-.822-2.553h3.937c.058.563.253.995.585 1.298.331.289.764.433 1.297.433.548 0 .981-.123 1.298-.368.318-.259.476-.613.476-1.06 0-.375-.13-.685-.389-.93a2.893 2.893 0 00-.93-.606c-.361-.158-.88-.339-1.558-.54-.98-.303-1.781-.606-2.401-.909a4.441 4.441 0 01-1.601-1.341c-.447-.591-.67-1.363-.67-2.315 0-1.413.512-2.516 1.536-3.309 1.023-.808 2.357-1.212 4.001-1.212 1.673 0 3.022.404 4.046 1.212 1.024.793 1.572 1.903 1.644 3.331h-4.002c-.029-.49-.209-.873-.541-1.147-.332-.288-.757-.432-1.276-.432-.447 0-.808.122-1.082.367-.274.231-.411.57-.411 1.017 0 .49.231.873.692 1.147.462.274 1.183.569 2.163.887.981.331 1.774.648 2.38.951.62.303 1.154.743 1.601 1.32.447.577.67 1.319.67 2.228 0 .865-.223 1.651-.67 2.358-.433.706-1.067 1.269-1.904 1.687-.836.418-1.824.627-2.963.627zm14.541-3.288V263h-1.882c-1.341 0-2.386-.324-3.136-.973-.75-.664-1.125-1.738-1.125-3.224v-4.802h-1.471v-3.072h1.471v-2.941h3.699v2.941h2.423v3.072h-2.423v4.846c0 .36.086.62.259.778.173.159.462.238.866.238h1.319zm1.325-2.92c0-1.24.231-2.329.692-3.266.476-.938 1.118-1.659 1.926-2.163.807-.505 1.709-.758 2.704-.758.85 0 1.593.173 2.228.52.649.346 1.146.8 1.492 1.362v-1.709h3.699V263h-3.699v-1.709c-.36.563-.865 1.017-1.514 1.363-.634.346-1.377.519-2.228.519a4.954 4.954 0 01-2.682-.757c-.808-.519-1.45-1.247-1.926-2.185-.461-.952-.692-2.048-.692-3.288zm9.042.022c0-.923-.259-1.652-.778-2.185a2.46 2.46 0 00-1.861-.8c-.735 0-1.363.266-1.882.8-.505.519-.757 1.24-.757 2.163 0 .923.252 1.659.757 2.207.519.533 1.147.8 1.882.8.736 0 1.356-.267 1.861-.8.519-.534.778-1.262.778-2.185zm10.961-6.209c.851 0 1.594.173 2.228.52.649.346 1.147.8 1.493 1.362v-1.709h3.699v12.049c0 1.111-.223 2.113-.671 3.007-.432.909-1.103 1.63-2.011 2.163-.894.534-2.012.801-3.353.801-1.788 0-3.238-.426-4.348-1.277-1.111-.836-1.745-1.975-1.904-3.417h3.656c.115.461.389.822.822 1.081.433.274.966.411 1.601.411.764 0 1.37-.223 1.817-.67.461-.433.692-1.132.692-2.099v-1.709c-.361.563-.858 1.024-1.493 1.385-.634.346-1.377.519-2.228.519-.995 0-1.896-.252-2.704-.757-.807-.519-1.449-1.247-1.925-2.185-.461-.952-.692-2.048-.692-3.288 0-1.24.231-2.329.692-3.266.476-.938 1.118-1.659 1.925-2.163a4.998 4.998 0 012.704-.758zm3.721 6.209c0-.923-.26-1.652-.779-2.185a2.458 2.458 0 00-1.86-.8c-.736 0-1.363.266-1.882.8-.505.519-.757 1.24-.757 2.163 0 .923.252 1.659.757 2.207a2.53 2.53 0 001.882.8c.735 0 1.356-.267 1.86-.8.519-.534.779-1.262.779-2.185zm17.753-.195c0 .346-.021.707-.064 1.082h-8.372c.058.75.296 1.326.714 1.73.433.39.959.584 1.579.584.923 0 1.565-.389 1.925-1.168h3.937a5.334 5.334 0 01-1.103 2.142 5.367 5.367 0 01-1.968 1.492c-.794.361-1.681.541-2.661.541-1.183 0-2.235-.252-3.158-.757a5.396 5.396 0 01-2.164-2.163c-.519-.938-.778-2.034-.778-3.288 0-1.255.252-2.351.757-3.288a5.375 5.375 0 012.163-2.163c.923-.505 1.983-.758 3.18-.758 1.168 0 2.206.246 3.115.736a5.216 5.216 0 012.12 2.098c.519.909.778 1.969.778 3.18zm-3.785-.973c0-.635-.216-1.14-.649-1.515-.433-.375-.973-.562-1.622-.562-.621 0-1.147.18-1.58.541-.418.36-.677.872-.778 1.536h4.629zM415.785 7.814L410.399 23h-4.63l-5.386-15.186h3.937l3.764 11.465 3.786-11.465h3.915zm3.406 1.86c-.649 0-1.182-.187-1.6-.562a1.907 1.907 0 01-.606-1.427c0-.577.202-1.053.606-1.428.418-.39.951-.584 1.6-.584.635 0 1.154.195 1.558.584.418.375.627.85.627 1.428 0 .562-.209 1.038-.627 1.427-.404.375-.923.563-1.558.563zm1.839 1.255V23h-3.699V10.93h3.699zm6.38 2.012a4.77 4.77 0 011.622-1.557 4.124 4.124 0 012.163-.584v3.915h-1.016c-.923 0-1.616.202-2.077.606-.462.39-.692 1.081-.692 2.076V23h-3.699V10.93h3.699v2.011zm12.281 6.922V23h-1.882c-1.341 0-2.387-.325-3.137-.973-.75-.664-1.125-1.738-1.125-3.224v-4.802h-1.471V10.93h1.471V7.988h3.699v2.941h2.423v3.072h-2.423v4.846c0 .36.087.62.26.778.173.16.462.238.865.238h1.32zm13.979-8.934V23h-3.699v-1.644c-.375.534-.887.966-1.535 1.298-.635.317-1.342.476-2.12.476-.923 0-1.738-.202-2.445-.606-.706-.418-1.254-1.017-1.644-1.795-.389-.78-.584-1.695-.584-2.748V10.93h3.678v6.555c0 .807.209 1.435.627 1.882.418.447.981.67 1.687.67.721 0 1.291-.223 1.709-.67.418-.447.627-1.075.627-1.882V10.93h3.699zm1.922 6.014c0-1.24.231-2.329.692-3.266.476-.938 1.118-1.659 1.925-2.163a5 5 0 012.704-.758c.851 0 1.594.173 2.228.52.649.346 1.147.8 1.493 1.362V10.93h3.699V23h-3.699v-1.709c-.36.563-.865 1.017-1.514 1.363-.635.346-1.377.52-2.228.52a4.962 4.962 0 01-2.683-.758c-.807-.52-1.449-1.247-1.925-2.185-.461-.952-.692-2.048-.692-3.288zm9.042.022c0-.923-.26-1.652-.779-2.185a2.46 2.46 0 00-1.86-.8c-.736 0-1.363.266-1.882.8-.505.52-.757 1.24-.757 2.163 0 .923.252 1.659.757 2.206.519.534 1.146.8 1.882.8a2.46 2.46 0 001.86-.8c.519-.533.779-1.261.779-2.184zm10.074-9.973V23h-3.699V6.992h3.699zm18.189.822v2.964h-4.024V23h-3.699V10.778h-4.023V7.814h11.746zm5.555 5.127a4.782 4.782 0 011.623-1.557 4.124 4.124 0 012.163-.584v3.915h-1.017c-.923 0-1.615.202-2.076.606-.462.39-.693 1.081-.693 2.076V23h-3.699V10.93h3.699v2.011zm4.819 4.002c0-1.24.23-2.329.692-3.266.476-.938 1.117-1.659 1.925-2.163a5 5 0 012.704-.758c.851 0 1.594.173 2.228.52.649.346 1.147.8 1.493 1.362V10.93h3.699V23h-3.699v-1.709c-.361.563-.866 1.017-1.514 1.363-.635.346-1.378.52-2.229.52a4.96 4.96 0 01-2.682-.758c-.808-.52-1.449-1.247-1.925-2.185-.462-.952-.692-2.048-.692-3.288zm9.042.022c0-.923-.26-1.652-.779-2.185a2.461 2.461 0 00-1.86-.8c-.736 0-1.363.266-1.882.8-.505.52-.757 1.24-.757 2.163 0 .923.252 1.659.757 2.206.519.534 1.146.8 1.882.8a2.46 2.46 0 001.86-.8c.519-.533.779-1.261.779-2.184zm8.235-7.29c-.649 0-1.182-.188-1.601-.563a1.91 1.91 0 01-.605-1.427c0-.577.202-1.053.605-1.428.419-.39.952-.584 1.601-.584.635 0 1.154.195 1.558.584.418.375.627.85.627 1.428 0 .562-.209 1.038-.627 1.427-.404.375-.923.563-1.558.563zm1.839 1.254V23h-3.699V10.93h3.699zm10.035-.13c1.414 0 2.539.462 3.375 1.385.851.909 1.276 2.163 1.276 3.764V23h-3.677v-6.554c0-.808-.209-1.435-.628-1.882-.418-.447-.98-.671-1.687-.671-.706 0-1.269.223-1.687.67-.418.448-.627 1.075-.627 1.883V23h-3.699V10.93h3.699v1.6a3.814 3.814 0 011.514-1.254c.634-.318 1.348-.476 2.141-.476zm9.082-1.124c-.649 0-1.183-.188-1.601-.563a1.906 1.906 0 01-.605-1.427c0-.577.201-1.053.605-1.428.418-.39.952-.584 1.601-.584.635 0 1.154.195 1.558.584.418.375.627.85.627 1.428 0 .562-.209 1.038-.627 1.427-.404.375-.923.563-1.558.563zm1.839 1.254V23h-3.699V10.93h3.699zm10.035-.13c1.413 0 2.538.462 3.375 1.385.851.909 1.276 2.163 1.276 3.764V23h-3.677v-6.554c0-.808-.209-1.435-.628-1.882-.418-.447-.98-.671-1.687-.671-.707 0-1.269.223-1.687.67-.418.448-.628 1.075-.628 1.883V23h-3.699V10.93h3.699v1.6c.375-.533.88-.952 1.515-1.254.634-.318 1.348-.476 2.141-.476zm11.807-.043c.851 0 1.594.173 2.229.52.648.346 1.146.8 1.492 1.362V10.93h3.699v12.05c0 1.11-.223 2.112-.67 3.006-.433.909-1.104 1.63-2.012 2.163-.894.534-2.012.8-3.353.8-1.788 0-3.238-.425-4.348-1.276-1.111-.836-1.745-1.975-1.904-3.417h3.656c.115.461.389.822.822 1.081.433.274.966.411 1.601.411.764 0 1.37-.223 1.817-.67.461-.433.692-1.132.692-2.099V21.27c-.36.563-.858 1.024-1.492 1.385-.635.346-1.378.52-2.229.52a4.999 4.999 0 01-2.704-.758c-.807-.52-1.449-1.247-1.925-2.185-.461-.952-.692-2.048-.692-3.288 0-1.24.231-2.329.692-3.266.476-.938 1.118-1.659 1.925-2.163a5 5 0 012.704-.758zm3.721 6.209c0-.923-.259-1.652-.779-2.185a2.458 2.458 0 00-1.86-.8 2.53 2.53 0 00-1.882.8c-.505.52-.757 1.24-.757 2.163 0 .923.252 1.659.757 2.206a2.53 2.53 0 001.882.8c.736 0 1.356-.266 1.86-.8.52-.533.779-1.261.779-2.184z" fill="#4FE0BE"/>
  <path d="M854.773 136.768h68.314m-70.828 0h74.333m-215.748 0h75.322m205.695 0h77.789" stroke="#4FE0BE" stroke-width="3.004"/>
  <path d="M676.395 101.152a35.031 35.031 0 016.835 69.393 35.039 35.039 0 01-35.965-14.896 35.038 35.038 0 01-5.904-19.464h4.42a30.61 30.61 0 0018.898 28.284 30.617 30.617 0 0041.742-22.311 30.617 30.617 0 00-30.026-36.587v-4.419z" fill="#16CECC"/>
  <path fill="#16CECC" d="M672.308 22.91h4.087v82.65h-4.087zm285.521 78.241a35.03 35.03 0 0134.36 41.869 35.03 35.03 0 01-27.526 27.525 35.035 35.035 0 01-41.868-34.36h4.419a30.612 30.612 0 0018.899 28.284 30.617 30.617 0 0041.742-22.312 30.615 30.615 0 00-30.026-36.586v-4.42z"/>
  <path fill="#16CECC" d="M953.741 22.91h4.087v82.65h-4.087zM817.113 171.802a35.035 35.035 0 0024.772-59.806 35.03 35.03 0 00-38.179-7.595 35.04 35.04 0 00-21.627 32.367h4.42a30.61 30.61 0 0118.898-28.284 30.617 30.617 0 0141.742 22.312 30.617 30.617 0 01-13.018 31.427 30.61 30.61 0 01-17.008 5.159v4.42z"/>
  <path fill="#16CECC" d="M813.026 250.043h4.087v-82.65h-4.087z"/>
  <circle cx="676.213" cy="136.477" r="24.636" fill="#F1F4F8" fill-opacity=".75"/>
  <circle cx="816.819" cy="136.477" r="24.636" fill="#F1F4F8" fill-opacity=".75"/>
  <circle cx="958.025" cy="136.477" r="24.636" fill="#F1F4F8" fill-opacity=".75"/>
  <path d="M697.785 4.99a4.95 4.95 0 01-.606 2.423c-.404.72-1.024 1.305-1.86 1.752-.837.447-1.875.67-3.115.67h-2.293v5.452h-3.699V.1h5.992c1.211 0 2.235.21 3.072.627.836.419 1.463.995 1.882 1.731.418.735.627 1.58.627 2.53zm-5.862 1.903c.706 0 1.233-.165 1.579-.497.346-.332.519-.8.519-1.406 0-.606-.173-1.075-.519-1.406-.346-.332-.873-.498-1.579-.498h-2.012v3.807h2.012zm19.166 2.164c0 .346-.022.706-.065 1.081h-8.371c.057.75.295 1.327.713 1.73.433.39.959.585 1.58.585.923 0 1.564-.39 1.925-1.168h3.937a5.34 5.34 0 01-1.103 2.141 5.38 5.38 0 01-1.969 1.493c-.793.36-1.68.54-2.661.54-1.182 0-2.235-.252-3.158-.756a5.384 5.384 0 01-2.163-2.164c-.519-.937-.779-2.033-.779-3.288 0-1.254.253-2.35.757-3.288a5.39 5.39 0 012.163-2.163c.923-.505 1.983-.757 3.18-.757 1.168 0 2.207.245 3.115.736a5.204 5.204 0 012.12 2.098c.519.908.779 1.968.779 3.18zm-3.786-.974c0-.634-.216-1.14-.649-1.514-.432-.375-.973-.562-1.622-.562-.62 0-1.146.18-1.579.54-.418.36-.678.873-.779 1.536h4.629zm13.092-4.997c1.414 0 2.538.462 3.375 1.385.851.908 1.276 2.163 1.276 3.764v7.052h-3.677V8.732c0-.807-.209-1.435-.628-1.882-.418-.447-.98-.67-1.687-.67-.707 0-1.269.223-1.687.67-.418.447-.628 1.075-.628 1.882v6.555h-3.699V3.217h3.699v1.6c.375-.534.88-.952 1.515-1.255.634-.317 1.348-.476 2.141-.476zm11.807-.043c.851 0 1.594.173 2.229.52.649.345 1.146.8 1.492 1.362V3.216h3.699v12.049c0 1.11-.223 2.113-.67 3.007-.433.908-1.104 1.63-2.012 2.163-.894.534-2.012.8-3.353.8-1.788 0-3.238-.425-4.348-1.276-1.111-.836-1.745-1.976-1.904-3.418h3.656c.115.462.389.822.822 1.082.433.274.966.41 1.601.41.764 0 1.37-.223 1.817-.67.461-.432.692-1.132.692-2.098v-1.709c-.36.563-.858 1.024-1.492 1.385-.635.346-1.378.519-2.229.519a5 5 0 01-2.703-.757c-.808-.52-1.45-1.248-1.926-2.185-.461-.952-.692-2.048-.692-3.288 0-1.24.231-2.33.692-3.267.476-.937 1.118-1.658 1.926-2.163.807-.505 1.708-.757 2.703-.757zm3.721 6.208c0-.923-.259-1.65-.779-2.184a2.458 2.458 0 00-1.86-.8 2.53 2.53 0 00-1.882.8c-.505.519-.757 1.24-.757 2.163 0 .923.252 1.658.757 2.206a2.53 2.53 0 001.882.8c.736 0 1.356-.266 1.86-.8.52-.533.779-1.262.779-2.185zm18.294-6.035v12.07h-3.699v-1.643c-.375.533-.887.966-1.535 1.297-.635.318-1.342.476-2.12.476-.923 0-1.738-.202-2.445-.605-.706-.418-1.254-1.017-1.644-1.796-.389-.779-.584-1.694-.584-2.747V3.216h3.678v6.555c0 .807.209 1.434.627 1.881.418.448.98.671 1.687.671.721 0 1.291-.223 1.709-.67.418-.448.627-1.075.627-1.882V3.216h3.699zm18.059-.13c1.5 0 2.69.455 3.57 1.363.894.909 1.341 2.17 1.341 3.786v7.052h-3.678V8.732c0-.779-.209-1.377-.627-1.795-.404-.433-.966-.65-1.687-.65-.721 0-1.291.217-1.709.65-.404.418-.606 1.016-.606 1.795v6.555h-3.677V8.732c0-.779-.209-1.377-.628-1.795-.403-.433-.966-.65-1.687-.65-.721 0-1.291.217-1.709.65-.404.418-.606 1.016-.606 1.795v6.555h-3.699V3.217h3.699V4.73a3.872 3.872 0 011.471-1.19c.606-.302 1.291-.454 2.055-.454.909 0 1.717.195 2.423.584.721.39 1.284.945 1.687 1.666a4.87 4.87 0 011.709-1.622 4.617 4.617 0 012.358-.628zm19.417.13v12.07h-3.699v-1.643c-.375.533-.887.966-1.536 1.297-.635.318-1.341.476-2.12.476-.923 0-1.738-.202-2.444-.605-.707-.418-1.255-1.017-1.644-1.796-.39-.779-.584-1.694-.584-2.747V3.216h3.677v6.555c0 .807.209 1.434.627 1.881.418.448.981.671 1.688.671.721 0 1.29-.223 1.708-.67.419-.448.628-1.075.628-1.882V3.216h3.699zm18.059-.13c1.499 0 2.689.455 3.569 1.363.894.909 1.341 2.17 1.341 3.786v7.052h-3.677V8.732c0-.779-.209-1.377-.628-1.795-.403-.433-.966-.65-1.687-.65-.721 0-1.291.217-1.709.65-.404.418-.606 1.016-.606 1.795v6.555h-3.677V8.732c0-.779-.209-1.377-.627-1.795-.404-.433-.966-.65-1.688-.65-.721 0-1.29.217-1.708.65-.404.418-.606 1.016-.606 1.795v6.555h-3.699V3.217h3.699V4.73a3.864 3.864 0 011.471-1.19c.606-.302 1.291-.454 2.055-.454.908 0 1.716.195 2.423.584a4.17 4.17 0 011.687 1.666 4.861 4.861 0 011.709-1.622 4.617 4.617 0 012.358-.628zm6.762 6.144c0-1.24.23-2.33.692-3.267.476-.937 1.117-1.658 1.925-2.163a5 5 0 012.704-.757c.851 0 1.594.173 2.228.52.649.345 1.147.8 1.493 1.362V3.216h3.699v12.07h-3.699v-1.708c-.361.562-.866 1.016-1.514 1.363-.635.346-1.378.519-2.229.519-.98 0-1.874-.253-2.682-.757-.808-.52-1.449-1.248-1.925-2.185-.462-.952-.692-2.048-.692-3.288zm9.042.021c0-.923-.26-1.65-.779-2.184a2.461 2.461 0 00-1.86-.8c-.736 0-1.363.266-1.882.8-.505.519-.757 1.24-.757 2.163 0 .923.252 1.658.757 2.206.519.534 1.146.8 1.882.8a2.46 2.46 0 001.86-.8c.519-.533.779-1.262.779-2.185zm13.73-6.165c1.413 0 2.538.462 3.374 1.385.851.908 1.277 2.163 1.277 3.764v7.052h-3.678V8.732c0-.807-.209-1.435-.627-1.882-.418-.447-.981-.67-1.687-.67-.707 0-1.27.223-1.688.67-.418.447-.627 1.075-.627 1.882v6.555h-3.699V3.217h3.699v1.6a3.82 3.82 0 011.514-1.255c.635-.317 1.349-.476 2.142-.476zM696.963 34.718h-6.749v2.986c.288-.318.692-.577 1.211-.779a4.616 4.616 0 011.687-.303c1.082 0 1.976.245 2.683.736a4.307 4.307 0 011.579 1.903c.332.779.497 1.623.497 2.531 0 1.687-.475 3.029-1.427 4.024-.952.98-2.293 1.47-4.024 1.47-1.153 0-2.156-.194-3.007-.583-.85-.404-1.507-.96-1.968-1.666-.462-.707-.714-1.521-.757-2.444h3.612a2 2 0 00.628 1.124c.331.289.786.433 1.362.433.678 0 1.183-.216 1.515-.649.331-.433.497-1.01.497-1.73 0-.707-.173-1.248-.519-1.623-.346-.375-.851-.562-1.514-.562-.491 0-.894.122-1.212.367a1.618 1.618 0 00-.627.93h-3.569v-9.41h10.102v3.245zm17.788-2.617v2.964h-6.187v3.201h4.629v2.877h-4.629v6.144h-3.699V32.1h9.886zm3.804 1.86c-.649 0-1.182-.187-1.6-.562a1.907 1.907 0 01-.606-1.428c0-.576.202-1.052.606-1.427.418-.39.951-.585 1.6-.585.635 0 1.154.195 1.558.585.418.375.627.85.627 1.427 0 .563-.209 1.039-.627 1.428-.404.375-.923.562-1.558.562zm1.839 1.255v12.07h-3.699v-12.07h3.699zm10.036-.13c1.413 0 2.538.462 3.374 1.385.851.908 1.276 2.163 1.276 3.764v7.052h-3.677v-6.555c0-.807-.209-1.435-.627-1.882-.419-.447-.981-.67-1.688-.67-.706 0-1.269.223-1.687.67-.418.447-.627 1.075-.627 1.882v6.555h-3.699v-12.07h3.699v1.6a3.814 3.814 0 011.514-1.255c.634-.317 1.348-.476 2.142-.476zm6.485 6.144c0-1.24.231-2.33.693-3.267.475-.937 1.117-1.658 1.925-2.163.807-.505 1.709-.757 2.704-.757.851 0 1.593.173 2.228.52.649.345 1.146.8 1.492 1.362v-1.709h3.699v12.07h-3.699v-1.708c-.36.562-.865 1.016-1.514 1.362-.634.347-1.377.52-2.228.52a4.957 4.957 0 01-2.682-.757c-.808-.52-1.45-1.248-1.925-2.185-.462-.952-.693-2.048-.693-3.288zm9.042.021c0-.923-.259-1.65-.778-2.184a2.462 2.462 0 00-1.861-.8 2.53 2.53 0 00-1.882.8c-.504.519-.757 1.24-.757 2.163 0 .923.253 1.658.757 2.206.52.534 1.147.8 1.882.8a2.46 2.46 0 001.861-.8c.519-.533.778-1.262.778-2.185zm10.075-9.972v16.008h-3.699V31.279h3.699zm4.541 2.682c-.649 0-1.183-.187-1.601-.562a1.907 1.907 0 01-.606-1.428c0-.576.202-1.052.606-1.427.418-.39.952-.585 1.601-.585.634 0 1.153.195 1.557.585.418.375.627.85.627 1.427 0 .563-.209 1.039-.627 1.428-.404.375-.923.562-1.557.562zm1.838 1.255v12.07h-3.699v-12.07h3.699zm7.591 12.244c-1.052 0-1.99-.18-2.812-.541-.822-.36-1.471-.851-1.947-1.471a3.955 3.955 0 01-.8-2.12h3.656c.043.418.238.757.584 1.017.346.26.771.39 1.276.39.462 0 .815-.087 1.06-.26.26-.188.389-.426.389-.714 0-.347-.18-.599-.54-.758-.361-.172-.945-.36-1.753-.562a17.847 17.847 0 01-2.163-.627 3.88 3.88 0 01-1.492-1.06c-.419-.49-.628-1.147-.628-1.969 0-.692.188-1.32.563-1.882.389-.576.952-1.03 1.687-1.362.75-.332 1.637-.498 2.661-.498 1.514 0 2.704.375 3.569 1.125.88.75 1.384 1.745 1.514 2.985h-3.418a1.456 1.456 0 00-.562-.995c-.303-.245-.707-.368-1.211-.368-.433 0-.765.087-.995.26a.767.767 0 00-.347.67c0 .346.181.606.541.78.375.172.952.345 1.731.518.894.231 1.622.462 2.185.693a3.562 3.562 0 011.471 1.081c.432.49.656 1.154.67 1.99 0 .707-.202 1.341-.606 1.904-.389.548-.959.98-1.708 1.298-.736.317-1.594.476-2.575.476z" fill="#4FE0BE"/>
  <path d="M686.486 72.63l3.966-8.652h-4.716v-1.443h6.244l.202.996-4.023 9.1h-1.673zm12.031-3.042c.394.567.803 1.009 1.226 1.326.432.308.99.462 1.673.462.327 0 .639-.053.937-.159.298-.106.543-.26.736-.461a1.01 1.01 0 00.288-.721c0-.481-.207-.856-.62-1.125-.404-.27-.976-.476-1.716-.62-.942-.193-1.692-.524-2.25-.996-.558-.48-.836-1.172-.836-2.076 0-.577.158-1.077.475-1.5a3.21 3.21 0 011.284-.98 4.246 4.246 0 011.716-.347c.798 0 1.485.154 2.062.462a3.361 3.361 0 011.356 1.312l-1.096 1.082a3.334 3.334 0 00-.981-1.053c-.394-.27-.855-.404-1.384-.404-.529 0-.976.125-1.341.375a1.15 1.15 0 00-.534 1.01c0 .49.188.85.563 1.081.384.221.889.4 1.514.534a7.086 7.086 0 011.615.533c.509.24.923.553 1.24.938.327.375.49.831.49 1.37 0 .961-.326 1.725-.98 2.293-.654.567-1.553.85-2.697.85-.779 0-1.49-.153-2.134-.46-.635-.308-1.192-.808-1.673-1.5l1.067-1.226zm14.753 2.047h-.014c-.308.298-.731.563-1.269.793a4.244 4.244 0 01-1.688.347c-.788 0-1.485-.164-2.091-.49a3.677 3.677 0 01-1.398-1.37c-.337-.587-.505-1.25-.505-1.99 0-.847.178-1.568.533-2.164a3.618 3.618 0 011.414-1.385 3.87 3.87 0 011.918-.49c.634 0 1.211.159 1.73.476.519.308.933.736 1.24 1.284.308.548.462 1.187.462 1.918l-.014.634h-5.798c.087.683.366 1.226.837 1.63.48.394 1.086.591 1.817.591.528 0 .956-.096 1.283-.288.327-.202.596-.395.808-.577l.735 1.081zm-3.1-5.379c-.568 0-1.063.135-1.486.404-.423.26-.702.711-.836 1.356h4.24v-.101a1.626 1.626 0 00-.332-.866 1.83 1.83 0 00-.692-.577 1.92 1.92 0 00-.894-.216zm8.998-1.327c.673 0 1.273.169 1.802.505.539.327.962.784 1.269 1.37.308.587.462 1.264.462 2.034 0 .76-.154 1.437-.462 2.033a3.57 3.57 0 01-1.254 1.384 3.235 3.235 0 01-1.774.505 3.13 3.13 0 01-1.471-.346c-.433-.23-.774-.495-1.024-.793v4.182h-1.5V65.045h1.5v1.11c.221-.317.553-.6.995-.85a2.91 2.91 0 011.457-.376zm-.202 1.37a2.25 2.25 0 00-1.212.332 2.35 2.35 0 00-.822.909c-.192.375-.288.807-.288 1.298 0 .48.096.913.288 1.297.202.385.476.693.822.923.356.222.76.332 1.212.332.452 0 .851-.11 1.197-.332a2.34 2.34 0 00.807-.923c.202-.384.303-.817.303-1.297 0-.49-.101-.923-.303-1.298a2.243 2.243 0 00-.807-.909 2.174 2.174 0 00-1.197-.332zm7.771 6.331h-1.486v-6.129h-1.572V65.06h1.572v-1.932h1.486v1.932h1.759v1.442h-1.759v6.13zm9.545-.995h-.014c-.308.298-.731.563-1.269.793a4.244 4.244 0 01-1.688.347c-.788 0-1.485-.164-2.091-.49a3.677 3.677 0 01-1.398-1.37c-.337-.587-.505-1.25-.505-1.99 0-.847.178-1.568.533-2.164a3.618 3.618 0 011.414-1.385 3.87 3.87 0 011.918-.49c.634 0 1.211.159 1.73.476.519.308.933.736 1.24 1.284.308.548.462 1.187.462 1.918l-.015.634h-5.797c.087.683.365 1.226.837 1.63.48.394 1.086.591 1.817.591.528 0 .956-.096 1.283-.288.327-.202.596-.395.808-.577l.735 1.081zm-3.1-5.379c-.568 0-1.063.135-1.486.404-.423.26-.702.711-.836 1.356h4.24v-.101a1.626 1.626 0 00-.332-.866 1.83 1.83 0 00-.692-.577 1.92 1.92 0 00-.894-.216zm8.897-1.327c.625 0 1.124.145 1.499.433.375.279.645.663.808 1.154.135-.24.332-.48.591-.721.26-.25.563-.457.909-.62a2.567 2.567 0 011.11-.246c.654 0 1.164.145 1.529.433.365.279.62.659.764 1.14.154.47.231 1 .231 1.586v4.542h-1.5v-4.456c0-.557-.106-1.01-.317-1.355-.212-.347-.611-.52-1.197-.52-.558 0-1.019.178-1.384.534-.356.346-.534.77-.534 1.27v4.527h-1.5v-4.485c0-.538-.115-.98-.346-1.326-.231-.347-.61-.52-1.139-.52a1.95 1.95 0 00-.981.246 1.84 1.84 0 00-.678.649 1.62 1.62 0 00-.245.88v4.556h-1.5v-7.57h1.5v1.21c.231-.346.553-.653.966-.922a2.513 2.513 0 011.414-.419zm13.367-.028c.673 0 1.274.168 1.802.504a3.4 3.4 0 011.269 1.385c.308.586.462 1.264.462 2.033 0 .77-.154 1.452-.462 2.048a3.544 3.544 0 01-1.254 1.399 3.235 3.235 0 01-1.774.505 3.132 3.132 0 01-1.471-.347c-.433-.24-.774-.51-1.024-.807v.966h-1.485V61.96h1.485v4.196c.221-.317.553-.605.995-.865.442-.26.928-.39 1.457-.39zm-.202 1.355c-.452 0-.856.11-1.212.332-.346.221-.62.529-.822.923a2.899 2.899 0 00-.288 1.312c0 .49.096.933.288 1.327.202.384.476.692.822.923.356.23.76.346 1.212.346.452 0 .851-.115 1.197-.346a2.34 2.34 0 00.807-.923c.202-.394.303-.837.303-1.327s-.101-.928-.303-1.312a2.223 2.223 0 00-.807-.923 2.174 2.174 0 00-1.197-.332zm11.852 5.38h-.014c-.308.297-.731.562-1.269.793a4.243 4.243 0 01-1.687.346c-.789 0-1.486-.164-2.092-.49a3.677 3.677 0 01-1.398-1.37c-.337-.587-.505-1.25-.505-1.99 0-.847.178-1.568.533-2.164a3.618 3.618 0 011.414-1.385 3.87 3.87 0 011.918-.49c.634 0 1.211.159 1.73.476.519.308.933.736 1.24 1.284.308.548.462 1.187.462 1.918l-.014.634h-5.798c.087.683.366 1.226.837 1.63.48.394 1.086.591 1.817.591.528 0 .956-.096 1.283-.288.327-.202.596-.395.808-.577l.735 1.081zm-3.1-5.38c-.568 0-1.063.135-1.486.404-.423.26-.701.711-.836 1.356h4.24v-.101a1.626 1.626 0 00-.332-.866 1.83 1.83 0 00-.692-.577 1.92 1.92 0 00-.894-.216zm9.286.404a1.444 1.444 0 00-.36-.115 1.574 1.574 0 00-.433-.058c-.308 0-.611.082-.909.245a2.02 2.02 0 00-.75.678c-.192.288-.288.634-.288 1.038v4.182h-1.5v-7.57h1.5v1.427a2.81 2.81 0 01.952-1.14c.432-.297.884-.446 1.355-.446.356 0 .63.048.822.144l-.389 1.615zm12.021 4.47v1.5h-6.1l-.476-1.182 3.087-3.476a18.79 18.79 0 001.081-1.326c.327-.443.49-.895.49-1.356 0-.48-.139-.841-.418-1.082-.279-.25-.644-.375-1.096-.375-.221 0-.466.068-.735.202a2.433 2.433 0 00-.765.635c-.24.288-.432.668-.576 1.14l-1.197-.75c.259-.895.706-1.563 1.341-2.005a3.666 3.666 0 012.12-.664 3.16 3.16 0 011.485.346 2.59 2.59 0 011.053.952c.259.414.389.909.389 1.486 0 .663-.202 1.322-.605 1.975a12.84 12.84 0 01-1.457 1.918l-1.889 2.063h4.268zm4.829 1.645c-.807 0-1.49-.222-2.047-.664-.548-.452-.962-1.067-1.241-1.846-.278-.778-.418-1.673-.418-2.682 0-1.01.14-1.904.418-2.682.279-.78.693-1.39 1.241-1.832.557-.452 1.24-.678 2.047-.678.818 0 1.5.226 2.048.678.548.442.962 1.053 1.24 1.832.289.778.433 1.672.433 2.682s-.144 1.904-.433 2.682c-.278.779-.692 1.394-1.24 1.846-.548.442-1.23.664-2.048.664zm0-1.414c.693 0 1.231-.327 1.616-.98.394-.654.591-1.587.591-2.798s-.197-2.144-.591-2.798c-.385-.653-.923-.98-1.616-.98-.692 0-1.235.327-1.629.98-.385.654-.577 1.587-.577 2.798s.192 2.144.577 2.798c.394.653.937.98 1.629.98zm11.832-.23v1.5h-6.1l-.476-1.183 3.086-3.476a18.82 18.82 0 001.082-1.326c.326-.443.49-.895.49-1.356 0-.48-.139-.841-.418-1.082-.279-.25-.644-.375-1.096-.375-.221 0-.467.068-.736.202a2.42 2.42 0 00-.764.635c-.24.288-.433.668-.577 1.14l-1.197-.75c.26-.895.707-1.563 1.341-2.005a3.666 3.666 0 012.12-.664c.548 0 1.043.116 1.486.346a2.58 2.58 0 011.052.952c.26.414.39.909.39 1.486 0 .663-.202 1.322-.606 1.975-.394.644-.88 1.284-1.457 1.918l-1.889 2.063h4.269zm6.805 1.5h-4.817v-1.5h1.601v-6.706l-1.457.764-.418-1.356 2.697-1.442h.75v8.74h1.644v1.5zm23.409 159.561h-4.817v-1.5h1.601v-6.706l-1.457.765-.418-1.356 2.697-1.442h.75v8.739h1.644v1.5zm4.817-10.268c.634 0 1.216.149 1.744.447.529.298.952.702 1.27 1.212.317.509.475 1.081.475 1.716 0 .615-.144 1.303-.432 2.062-.289.75-.62 1.524-.995 2.322l-1.197 2.509h-1.529l-.058-.144 1.818-3.851a3.02 3.02 0 01-.75.361 2.801 2.801 0 01-2.337-.303 3.275 3.275 0 01-1.11-1.154 3.072 3.072 0 01-.418-1.571c0-.702.154-1.322.461-1.861a3.465 3.465 0 011.269-1.283 3.541 3.541 0 011.789-.462zm-.116 1.442c-.481 0-.904.173-1.269.52-.356.346-.533.831-.533 1.456 0 .308.072.611.216.909.154.288.365.528.634.721.27.182.577.274.923.274.414 0 .765-.087 1.053-.26.288-.183.51-.418.663-.707.164-.288.246-.596.246-.923 0-.355-.077-.682-.231-.98a1.834 1.834 0 00-.664-.721c-.288-.192-.634-.289-1.038-.289zm9.937 5.783c.394.567.803 1.01 1.226 1.327.433.308.99.461 1.673.461.327 0 .639-.052.937-.158a1.86 1.86 0 00.736-.462 1.01 1.01 0 00.288-.721c0-.48-.207-.855-.62-1.125-.404-.269-.976-.475-1.716-.62-.942-.192-1.692-.524-2.25-.995-.557-.48-.836-1.173-.836-2.076 0-.577.158-1.077.476-1.5a3.21 3.21 0 011.283-.981 4.24 4.24 0 011.716-.346c.798 0 1.486.154 2.062.462a3.358 3.358 0 011.356 1.312l-1.096 1.081a3.325 3.325 0 00-.981-1.052c-.394-.269-.855-.404-1.384-.404-.529 0-.976.125-1.341.375a1.15 1.15 0 00-.534 1.009c0 .491.188.851.563 1.082.384.221.889.399 1.514.534a7.069 7.069 0 011.615.533c.51.24.923.553 1.24.938.327.374.491.831.491 1.37 0 .961-.327 1.725-.981 2.292-.654.568-1.553.851-2.697.851a4.88 4.88 0 01-2.134-.461c-.635-.308-1.192-.808-1.673-1.5l1.067-1.226zm14.753 2.048h-.014c-.308.298-.731.563-1.269.793a4.234 4.234 0 01-1.687.346c-.789 0-1.486-.163-2.091-.49a3.668 3.668 0 01-1.399-1.37c-.337-.586-.505-1.25-.505-1.99 0-.846.178-1.567.534-2.163a3.614 3.614 0 011.413-1.385 3.872 3.872 0 011.918-.49c.634 0 1.211.159 1.73.476.52.308.933.735 1.241 1.283.307.548.461 1.188.461 1.918l-.014.635h-5.798c.087.682.366 1.226.837 1.629.48.395 1.086.592 1.817.592.529 0 .956-.096 1.283-.289.327-.202.596-.394.808-.577l.735 1.082zm-3.1-5.379c-.567 0-1.063.135-1.486.404-.423.259-.701.711-.836 1.355h4.24v-.101a1.628 1.628 0 00-.332-.865 1.834 1.834 0 00-.692-.577 1.922 1.922 0 00-.894-.216zm8.998-1.327c.673 0 1.274.168 1.802.505.539.327.962.784 1.269 1.37.308.586.462 1.264.462 2.033 0 .76-.154 1.438-.462 2.034a3.56 3.56 0 01-1.254 1.384 3.231 3.231 0 01-1.774.505 3.129 3.129 0 01-1.471-.346c-.433-.231-.774-.495-1.024-.793v4.182h-1.5v-10.758h1.5v1.11c.221-.317.553-.601.995-.851a2.91 2.91 0 011.457-.375zm-.202 1.37a2.25 2.25 0 00-1.212.332c-.346.221-.62.524-.822.908-.192.375-.288.808-.288 1.298 0 .481.096.914.288 1.298.202.385.476.692.822.923.356.221.76.332 1.212.332.452 0 .851-.111 1.197-.332.346-.231.615-.538.807-.923.202-.384.303-.817.303-1.298 0-.49-.101-.923-.303-1.298a2.244 2.244 0 00-.807-.908 2.175 2.175 0 00-1.197-.332zm7.771 6.331h-1.486v-6.129h-1.571v-1.442h1.571v-1.932h1.486v1.932h1.759v1.442h-1.759v6.129zm9.545-.995h-.014c-.308.298-.731.563-1.269.793a4.238 4.238 0 01-1.687.346c-.789 0-1.486-.163-2.091-.49a3.668 3.668 0 01-1.399-1.37c-.337-.586-.505-1.25-.505-1.99 0-.846.178-1.567.533-2.163a3.623 3.623 0 011.414-1.385 3.872 3.872 0 011.918-.49c.634 0 1.211.159 1.73.476.52.308.933.735 1.241 1.283.307.548.461 1.188.461 1.918l-.014.635h-5.798c.087.682.366 1.226.837 1.629.48.395 1.086.592 1.817.592.529 0 .956-.096 1.283-.289.327-.202.596-.394.808-.577l.735 1.082zm-3.1-5.379c-.567 0-1.063.135-1.486.404-.423.259-.701.711-.836 1.355h4.24v-.101a1.628 1.628 0 00-.332-.865 1.834 1.834 0 00-.692-.577 1.922 1.922 0 00-.894-.216zm8.897-1.327c.625 0 1.125.144 1.5.433.375.279.644.663.807 1.154a3.03 3.03 0 01.591-.722c.26-.249.563-.456.909-.62a2.572 2.572 0 011.11-.245c.654 0 1.164.144 1.529.433.365.279.62.658.764 1.139.154.471.231 1 .231 1.586v4.543h-1.5v-4.456c0-.558-.105-1.009-.317-1.356-.211-.346-.61-.519-1.197-.519-.558 0-1.019.178-1.384.534a1.702 1.702 0 00-.534 1.269v4.528h-1.5v-4.485c0-.538-.115-.98-.346-1.327-.231-.346-.61-.519-1.139-.519-.365 0-.692.082-.981.245-.288.164-.514.38-.678.649-.163.26-.245.553-.245.88v4.557h-1.5v-7.571h1.5v1.211c.231-.346.553-.653.967-.923a2.518 2.518 0 011.413-.418zm13.367-.029c.673 0 1.274.169 1.802.505.539.327.962.788 1.269 1.385.308.586.462 1.264.462 2.033 0 .769-.154 1.452-.462 2.048a3.541 3.541 0 01-1.254 1.399 3.239 3.239 0 01-1.774.504 3.129 3.129 0 01-1.471-.346c-.433-.24-.774-.509-1.024-.807v.966h-1.485V221.52h1.485v4.197c.221-.317.553-.606.995-.865.442-.26.928-.39 1.457-.39zm-.202 1.356a2.25 2.25 0 00-1.212.332c-.346.221-.62.528-.822.923a2.896 2.896 0 00-.288 1.312c0 .49.096.933.288 1.327.202.384.476.692.822.923.356.23.76.346 1.212.346.452 0 .851-.116 1.197-.346.346-.231.615-.539.807-.923.202-.394.303-.837.303-1.327s-.101-.928-.303-1.312a2.217 2.217 0 00-.807-.923 2.175 2.175 0 00-1.197-.332zm11.852 5.379h-.014c-.308.298-.731.563-1.269.793a4.234 4.234 0 01-1.687.346c-.789 0-1.486-.163-2.091-.49a3.668 3.668 0 01-1.399-1.37c-.337-.586-.505-1.25-.505-1.99 0-.846.178-1.567.534-2.163a3.614 3.614 0 011.413-1.385 3.872 3.872 0 011.918-.49c.634 0 1.211.159 1.73.476.52.308.933.735 1.241 1.283.307.548.461 1.188.461 1.918l-.014.635h-5.798c.087.682.366 1.226.837 1.629.48.395 1.086.592 1.817.592.529 0 .956-.096 1.283-.289.327-.202.596-.394.808-.577l.735 1.082zm-3.1-5.379c-.567 0-1.063.135-1.486.404-.423.259-.701.711-.836 1.355h4.24v-.101a1.628 1.628 0 00-.332-.865 1.827 1.827 0 00-.692-.577 1.922 1.922 0 00-.894-.216zm9.286.404a1.45 1.45 0 00-.36-.116 1.59 1.59 0 00-.433-.057c-.308 0-.61.081-.908.245-.299.154-.548.38-.75.678-.193.288-.289.634-.289 1.038v4.182h-1.5v-7.571h1.5v1.428c.212-.462.529-.842.952-1.14.433-.298.884-.447 1.356-.447.355 0 .629.048.822.145l-.39 1.615zm12.022 4.47v1.5h-6.101l-.475-1.182 3.086-3.476c.394-.442.754-.884 1.081-1.327.327-.442.491-.894.491-1.355 0-.481-.14-.841-.419-1.082-.278-.25-.644-.375-1.096-.375-.221 0-.466.068-.735.202a2.42 2.42 0 00-.764.635c-.241.288-.433.668-.577 1.139l-1.197-.75c.259-.894.706-1.562 1.341-2.005a3.668 3.668 0 012.12-.663c.548 0 1.043.115 1.485.346.443.221.793.539 1.053.952.26.413.389.909.389 1.485 0 .664-.202 1.322-.605 1.976-.394.644-.88 1.284-1.457 1.918l-1.889 2.062h4.269zm4.829 1.644c-.808 0-1.491-.221-2.048-.663-.548-.452-.962-1.067-1.24-1.846-.279-.779-.419-1.673-.419-2.682 0-1.01.14-1.904.419-2.683.278-.778.692-1.389 1.24-1.831.557-.452 1.24-.678 2.048-.678.817 0 1.499.226 2.047.678.548.442.962 1.053 1.241 1.831.288.779.432 1.673.432 2.683 0 1.009-.144 1.903-.432 2.682-.279.779-.693 1.394-1.241 1.846-.548.442-1.23.663-2.047.663zm0-1.413c.692 0 1.23-.327 1.615-.981.394-.653.591-1.586.591-2.797 0-1.212-.197-2.144-.591-2.798-.385-.654-.923-.981-1.615-.981-.693 0-1.236.327-1.63.981-.385.654-.577 1.586-.577 2.798 0 1.211.192 2.144.577 2.797.394.654.937.981 1.63.981zm11.831-.231v1.5h-6.1l-.476-1.182 3.086-3.476c.394-.442.755-.884 1.082-1.327.327-.442.49-.894.49-1.355 0-.481-.139-.841-.418-1.082-.279-.25-.644-.375-1.096-.375-.221 0-.466.068-.736.202a2.42 2.42 0 00-.764.635c-.24.288-.433.668-.577 1.139l-1.197-.75c.26-.894.707-1.562 1.341-2.005a3.67 3.67 0 012.12-.663c.548 0 1.043.115 1.486.346a2.58 2.58 0 011.052.952c.26.413.39.909.39 1.485 0 .664-.202 1.322-.606 1.976-.394.644-.88 1.284-1.456 1.918l-1.89 2.062h4.269zm6.805 1.5h-4.817v-1.5h1.601v-6.706l-1.457.765-.418-1.356 2.697-1.442h.75v8.739h1.644v1.5zm17.25-161.062v1.5h-6.101l-.475-1.182 3.086-3.476a18.79 18.79 0 001.081-1.326c.327-.443.491-.895.491-1.356 0-.48-.14-.841-.419-1.082-.278-.25-.644-.375-1.096-.375-.221 0-.466.068-.735.202a2.42 2.42 0 00-.764.635c-.241.288-.433.668-.577 1.14l-1.197-.75c.259-.895.706-1.563 1.341-2.005a3.666 3.666 0 012.12-.664 3.16 3.16 0 011.485.346 2.59 2.59 0 011.053.952c.26.414.389.909.389 1.486 0 .663-.202 1.322-.605 1.975a12.84 12.84 0 01-1.457 1.918l-1.889 2.063h4.269zm4.54 1.5a3.52 3.52 0 01-1.759-.447 3.377 3.377 0 01-1.269-1.254c-.318-.539-.476-1.159-.476-1.86 0-.433.086-.91.259-1.428.173-.52.39-1.044.649-1.572.27-.53.539-1.024.808-1.486l1.312-2.22h1.514l.058.144-1.586 2.668c-.135.22-.26.442-.375.663.173-.087.36-.149.562-.188a2.99 2.99 0 01.664-.072 2.72 2.72 0 011.543.462c.471.307.846.711 1.125 1.211a3.3 3.3 0 01.418 1.63c0 .683-.14 1.307-.418 1.875a3.443 3.443 0 01-1.197 1.37c-.51.336-1.12.504-1.832.504zm0-1.442c.346 0 .668-.082.966-.245a1.86 1.86 0 00.707-.735c.183-.318.274-.697.274-1.14 0-.336-.082-.658-.245-.966a2.13 2.13 0 00-.678-.779 1.65 1.65 0 00-.995-.302c-.423 0-.788.096-1.096.288a1.99 1.99 0 00-.692.75c-.164.308-.245.64-.245.995 0 .375.077.726.23 1.053.164.317.395.576.693.778.307.202.668.303 1.081.303zm9.777-1.6c.394.567.802 1.009 1.225 1.326.433.308.991.462 1.673.462.327 0 .64-.053.938-.159.298-.106.543-.26.735-.461a1.01 1.01 0 00.288-.721c0-.481-.206-.856-.62-1.125-.403-.27-.975-.476-1.716-.62-.942-.193-1.692-.524-2.249-.996-.558-.48-.837-1.172-.837-2.076 0-.577.159-1.077.476-1.5.327-.423.755-.75 1.283-.98a4.247 4.247 0 011.717-.347c.798 0 1.485.154 2.062.462a3.352 3.352 0 011.355 1.312l-1.096 1.082a3.32 3.32 0 00-.98-1.053c-.394-.27-.856-.404-1.385-.404-.528 0-.976.125-1.341.375a1.15 1.15 0 00-.533 1.01c0 .49.187.85.562 1.081.385.221.889.4 1.514.534a7.07 7.07 0 011.615.533c.51.24.923.553 1.241.938.326.375.49.831.49 1.37 0 .961-.327 1.725-.981 2.293-.653.567-1.552.85-2.696.85a4.89 4.89 0 01-2.135-.46c-.634-.308-1.192-.808-1.673-1.5l1.068-1.226zm14.755 2.047h-.02c-.3.298-.73.563-1.27.793a4.2 4.2 0 01-1.68.347c-.791 0-1.488-.164-2.094-.49a3.687 3.687 0 01-1.399-1.37c-.336-.587-.505-1.25-.505-1.99 0-.847.178-1.568.534-2.164a3.623 3.623 0 011.413-1.385 3.879 3.879 0 011.921-.49c.63 0 1.21.159 1.73.476.52.308.93.736 1.24 1.284.31.548.46 1.187.46 1.918l-.02.634h-5.792c.086.683.365 1.226.836 1.63.481.394 1.087.591 1.816.591.53 0 .96-.096 1.28-.288.33-.202.6-.395.81-.577l.74 1.081zm-3.1-5.379c-.57 0-1.065.135-1.488.404-.423.26-.702.711-.837 1.356h4.245v-.101a1.58 1.58 0 00-.34-.866c-.18-.25-.41-.442-.69-.577a1.927 1.927 0 00-.89-.216zm9-1.327c.67 0 1.27.169 1.8.505.54.327.96.784 1.27 1.37.3.587.46 1.264.46 2.034 0 .76-.16 1.437-.46 2.033a3.591 3.591 0 01-1.26 1.384 3.23 3.23 0 01-1.77.505c-.54 0-1.03-.115-1.47-.346-.44-.23-.78-.495-1.03-.793v4.182h-1.5V65.045h1.5v1.11c.22-.317.56-.6 1-.85.44-.25.93-.376 1.46-.376zm-.21 1.37c-.45 0-.85.111-1.21.332a2.38 2.38 0 00-.82.909c-.19.375-.29.807-.29 1.298 0 .48.1.913.29 1.297.2.385.48.693.82.923.36.222.76.332 1.21.332.46 0 .85-.11 1.2-.332a2.3 2.3 0 00.81-.923c.2-.384.3-.817.3-1.297 0-.49-.1-.923-.3-1.298a2.175 2.175 0 00-2.01-1.24zm7.77 6.331h-1.48v-6.129h-1.57V65.06h1.57v-1.932h1.48v1.932h1.76v1.442h-1.76v6.13zm9.55-.995h-.01c-.31.298-.74.563-1.27.793-.54.231-1.1.347-1.69.347-.79 0-1.49-.164-2.09-.49a3.683 3.683 0 01-1.4-1.37c-.34-.587-.51-1.25-.51-1.99 0-.847.18-1.568.54-2.164a3.55 3.55 0 011.41-1.385c.59-.326 1.23-.49 1.92-.49.63 0 1.21.159 1.73.476.52.308.93.736 1.24 1.284.31.548.46 1.187.46 1.918l-.01.634h-5.8c.09.683.36 1.226.84 1.63.48.394 1.08.591 1.81.591.53 0 .96-.096 1.29-.288.32-.202.59-.395.8-.577l.74 1.081zm-3.1-5.379c-.57 0-1.06.135-1.49.404-.42.26-.7.711-.83 1.356h4.24v-.101a1.649 1.649 0 00-.33-.866c-.19-.25-.42-.442-.7-.577a1.898 1.898 0 00-.89-.216zm8.9-1.327c.62 0 1.12.145 1.5.433.37.279.64.663.8 1.154.14-.24.34-.48.59-.721.26-.25.57-.457.91-.62.35-.164.72-.246 1.11-.246.66 0 1.17.145 1.53.433.37.279.62.659.77 1.14.15.47.23 1 .23 1.586v4.542h-1.5v-4.456c0-.557-.11-1.01-.32-1.355-.21-.347-.61-.52-1.2-.52-.55 0-1.02.178-1.38.534-.36.346-.53.77-.53 1.27v4.527h-1.5v-4.485c0-.538-.12-.98-.35-1.326-.23-.347-.61-.52-1.14-.52-.37 0-.69.082-.98.246-.29.163-.51.38-.68.649-.16.26-.24.552-.24.88v4.556h-1.5v-7.57h1.5v1.21c.23-.346.55-.653.96-.922.43-.28.9-.419 1.42-.419zm13.36-.028c.68 0 1.28.168 1.81.504.53.327.96.789 1.26 1.385.31.586.47 1.264.47 2.033 0 .77-.16 1.452-.47 2.048-.3.596-.72 1.062-1.25 1.399-.53.336-1.12.505-1.77.505-.54 0-1.03-.116-1.47-.347-.44-.24-.78-.51-1.03-.807v.966h-1.48V61.96h1.48v4.196c.22-.317.55-.605 1-.865.44-.26.92-.39 1.45-.39zm-.2 1.355c-.45 0-.85.11-1.21.332a2.28 2.28 0 00-.82.923c-.19.384-.29.822-.29 1.312 0 .49.1.933.29 1.327.2.384.47.692.82.923.36.23.76.346 1.21.346.45 0 .85-.115 1.2-.346.34-.23.61-.538.81-.923.2-.394.3-.837.3-1.327s-.1-.928-.3-1.312c-.2-.394-.47-.702-.81-.923a2.199 2.199 0 00-1.2-.332zm11.85 5.38h-.01c-.31.297-.73.562-1.27.793-.54.23-1.1.346-1.69.346-.79 0-1.48-.164-2.09-.49a3.754 3.754 0 01-1.4-1.37 3.99 3.99 0 01-.5-1.99c0-.847.18-1.568.53-2.164a3.64 3.64 0 011.42-1.385c.58-.326 1.22-.49 1.91-.49.64 0 1.21.159 1.73.476.52.308.94.736 1.24 1.284.31.548.47 1.187.47 1.918l-.02.634h-5.8c.09.683.37 1.226.84 1.63.48.394 1.09.591 1.82.591.53 0 .95-.096 1.28-.288.33-.202.6-.395.81-.577l.73 1.081zm-3.1-5.38c-.56 0-1.06.135-1.48.404-.43.26-.7.711-.84 1.356h4.24v-.101a1.649 1.649 0 00-.33-.866c-.18-.25-.41-.442-.69-.577a1.938 1.938 0 00-.9-.216zm9.29.404c-.1-.048-.22-.087-.36-.115a1.6 1.6 0 00-.43-.058c-.31 0-.61.082-.91.245-.3.154-.55.38-.75.678-.19.288-.29.634-.29 1.038v4.182h-1.5v-7.57h1.5v1.427c.21-.462.53-.841.95-1.14a2.37 2.37 0 011.36-.446c.35 0 .63.048.82.144l-.39 1.615zm12.02 4.47v1.5h-6.1l-.48-1.182 3.09-3.476c.4-.442.76-.884 1.08-1.326.33-.443.49-.895.49-1.356 0-.48-.14-.841-.42-1.082-.27-.25-.64-.375-1.09-.375-.22 0-.47.068-.74.202-.27.135-.52.346-.76.635-.24.288-.43.668-.58 1.14l-1.19-.75c.25-.895.7-1.563 1.34-2.005a3.655 3.655 0 012.12-.664c.54 0 1.04.116 1.48.346.44.221.79.539 1.05.952.26.414.39.909.39 1.486 0 .663-.2 1.322-.6 1.975-.4.644-.88 1.284-1.46 1.918l-1.89 2.063h4.27zm4.83 1.645c-.81 0-1.49-.222-2.05-.664-.55-.452-.96-1.067-1.24-1.846-.28-.778-.42-1.673-.42-2.682 0-1.01.14-1.904.42-2.682.28-.78.69-1.39 1.24-1.832.56-.452 1.24-.678 2.05-.678.82 0 1.5.226 2.05.678.55.442.96 1.053 1.24 1.832.29.778.43 1.672.43 2.682s-.14 1.904-.43 2.682c-.28.779-.69 1.394-1.24 1.846-.55.442-1.23.664-2.05.664zm0-1.414c.69 0 1.23-.327 1.62-.98.39-.654.59-1.587.59-2.798s-.2-2.144-.59-2.798c-.39-.653-.93-.98-1.62-.98-.69 0-1.24.327-1.63.98-.38.654-.58 1.587-.58 2.798s.2 2.144.58 2.798c.39.653.94.98 1.63.98zm11.83-.23v1.5h-6.1l-.47-1.183 3.08-3.476c.4-.442.76-.884 1.08-1.326.33-.443.49-.895.49-1.356 0-.48-.14-.841-.41-1.082-.28-.25-.65-.375-1.1-.375-.22 0-.47.068-.74.202-.27.135-.52.346-.76.635-.24.288-.43.668-.58 1.14l-1.19-.75c.26-.895.7-1.563 1.34-2.005a3.655 3.655 0 012.12-.664c.54 0 1.04.116 1.48.346.44.221.8.539 1.05.952.26.414.39.909.39 1.486 0 .663-.2 1.322-.6 1.975-.4.644-.88 1.284-1.46 1.918l-1.89 2.063h4.27zm6.81 1.5h-4.82v-1.5h1.6v-6.706l-1.46.764-.41-1.356 2.69-1.442h.75v8.74h1.65v1.5z" fill="#fff"/>
  <path d="M837.25 248.042v2.964h-6.186v3.201h4.629v2.877h-4.629v6.144h-3.7v-15.186h9.886zm3.805 1.86c-.649 0-1.183-.187-1.601-.562a1.906 1.906 0 01-.606-1.428c0-.577.202-1.053.606-1.427.418-.39.952-.585 1.601-.585.634 0 1.153.195 1.557.585.418.374.628.85.628 1.427 0 .563-.21 1.039-.628 1.428-.404.375-.923.562-1.557.562zm1.838 1.255v12.071h-3.699v-12.071h3.699zm10.036-.13c1.413 0 2.538.462 3.374 1.385.851.908 1.277 2.163 1.277 3.764v7.052h-3.678v-6.555c0-.807-.209-1.435-.627-1.882-.418-.447-.981-.67-1.687-.67-.707 0-1.269.223-1.688.67-.418.447-.627 1.075-.627 1.882v6.555h-3.699v-12.071h3.699v1.601a3.82 3.82 0 011.514-1.255c.635-.317 1.349-.476 2.142-.476zm6.486 6.144c0-1.241.23-2.329.692-3.267.476-.937 1.118-1.658 1.925-2.163.808-.505 1.709-.757 2.704-.757.851 0 1.594.173 2.228.519.649.346 1.147.8 1.493 1.363v-1.709h3.699v12.071h-3.699v-1.709c-.361.562-.865 1.016-1.514 1.362-.635.347-1.378.52-2.228.52a4.96 4.96 0 01-2.683-.758c-.807-.519-1.449-1.247-1.925-2.184-.462-.952-.692-2.048-.692-3.288zm9.042.021c0-.923-.26-1.651-.779-2.185a2.463 2.463 0 00-1.86-.8 2.53 2.53 0 00-1.882.8c-.505.52-.757 1.241-.757 2.164s.252 1.658.757 2.206c.519.534 1.146.8 1.882.8a2.46 2.46 0 001.86-.8c.519-.534.779-1.262.779-2.185zm10.074-9.972v16.008h-3.699V247.22h3.699zm12.759 16.159c-1.11 0-2.105-.18-2.985-.541-.88-.36-1.586-.894-2.12-1.601-.519-.706-.793-1.557-.822-2.552h3.937c.058.562.252.995.584 1.298.332.288.764.432 1.298.432.548 0 .981-.122 1.298-.367.317-.26.476-.613.476-1.06 0-.375-.13-.685-.39-.93a2.86 2.86 0 00-.93-.606c-.36-.159-.879-.339-1.557-.541-.981-.303-1.781-.606-2.401-.908a4.434 4.434 0 01-1.601-1.342c-.447-.591-.671-1.362-.671-2.314 0-1.414.512-2.517 1.536-3.31 1.024-.808 2.358-1.211 4.002-1.211 1.673 0 3.021.403 4.045 1.211 1.024.793 1.572 1.904 1.644 3.331h-4.002c-.028-.49-.209-.872-.54-1.146-.332-.289-.758-.433-1.277-.433-.447 0-.807.123-1.081.368-.274.231-.411.57-.411 1.017 0 .49.23.872.692 1.146.461.274 1.182.57 2.163.887.981.332 1.774.649 2.38.952.62.303 1.153.743 1.6 1.319.447.577.671 1.32.671 2.228 0 .866-.224 1.652-.671 2.358-.432.707-1.067 1.269-1.903 1.688-.837.418-1.825.627-2.964.627zm14.542-3.288v3.137h-1.882c-1.341 0-2.387-.325-3.137-.974-.75-.663-1.125-1.738-1.125-3.223v-4.802h-1.471v-3.072h1.471v-2.942h3.699v2.942h2.423v3.072h-2.423v4.845c0 .361.087.62.26.779.173.159.462.238.865.238h1.32zm1.325-2.92c0-1.241.231-2.329.692-3.267.476-.937 1.118-1.658 1.925-2.163.808-.505 1.709-.757 2.704-.757.851 0 1.594.173 2.228.519.649.346 1.147.8 1.493 1.363v-1.709h3.699v12.071h-3.699v-1.709c-.361.562-.865 1.016-1.514 1.362-.635.347-1.378.52-2.228.52a4.96 4.96 0 01-2.683-.758c-.807-.519-1.449-1.247-1.925-2.184-.461-.952-.692-2.048-.692-3.288zm9.042.021c0-.923-.26-1.651-.779-2.185a2.463 2.463 0 00-1.86-.8 2.53 2.53 0 00-1.882.8c-.505.52-.757 1.241-.757 2.164s.252 1.658.757 2.206c.519.534 1.146.8 1.882.8a2.46 2.46 0 001.86-.8c.519-.534.779-1.262.779-2.185zm10.961-6.208c.851 0 1.594.173 2.228.519.649.346 1.147.8 1.493 1.363v-1.709h3.699v12.049c0 1.11-.224 2.113-.671 3.007-.433.908-1.103 1.629-2.012 2.163-.894.533-2.011.8-3.353.8-1.788 0-3.237-.425-4.348-1.276-1.11-.836-1.745-1.976-1.903-3.418h3.656c.115.462.389.822.822 1.082.432.274.966.411 1.6.411.765 0 1.37-.224 1.817-.671.462-.432.693-1.132.693-2.098v-1.709a4.192 4.192 0 01-1.493 1.384c-.634.347-1.377.52-2.228.52a4.998 4.998 0 01-2.704-.758c-.808-.519-1.449-1.247-1.925-2.184-.462-.952-.692-2.048-.692-3.288 0-1.241.23-2.329.692-3.267.476-.937 1.117-1.658 1.925-2.163.808-.505 1.709-.757 2.704-.757zm3.721 6.208c0-.923-.26-1.651-.779-2.185a2.463 2.463 0 00-1.86-.8 2.53 2.53 0 00-1.882.8c-.505.52-.758 1.241-.758 2.164s.253 1.658.758 2.206c.519.534 1.146.8 1.882.8a2.46 2.46 0 001.86-.8c.519-.534.779-1.262.779-2.185zm17.753-.194c0 .346-.022.706-.065 1.081h-8.371c.057.75.295 1.327.714 1.731.432.389.959.584 1.579.584.923 0 1.564-.39 1.925-1.168h3.937a5.336 5.336 0 01-1.103 2.141 5.373 5.373 0 01-1.969 1.493c-.793.36-1.68.541-2.661.541-1.182 0-2.235-.253-3.158-.758a5.375 5.375 0 01-2.163-2.163c-.519-.937-.779-2.033-.779-3.288 0-1.254.253-2.35.757-3.288a5.396 5.396 0 012.164-2.163c.923-.505 1.982-.757 3.179-.757 1.169 0 2.207.245 3.115.735a5.207 5.207 0 012.12 2.099c.52.908.779 1.968.779 3.18zm-3.785-.974c0-.634-.217-1.139-.649-1.514-.433-.375-.974-.563-1.623-.563-.62 0-1.146.181-1.579.541-.418.361-.678.873-.779 1.536h4.63zM979.79 4.99a4.95 4.95 0 01-.605 2.423c-.404.72-1.024 1.305-1.861 1.752-.836.447-1.874.67-3.115.67h-2.293v5.452h-3.699V.1h5.992c1.212 0 2.236.21 3.072.627.837.419 1.464.995 1.882 1.731.418.735.627 1.58.627 2.53zm-5.862 1.903c.707 0 1.233-.165 1.579-.497.346-.332.52-.8.52-1.406 0-.606-.174-1.075-.52-1.406-.346-.332-.872-.498-1.579-.498h-2.012v3.807h2.012zm19.167 2.164c0 .346-.022.706-.065 1.081h-8.372c.058.75.296 1.327.714 1.73.433.39.959.585 1.579.585.923 0 1.565-.39 1.925-1.168h3.937a5.328 5.328 0 01-1.103 2.141 5.368 5.368 0 01-1.968 1.493c-.794.36-1.68.54-2.661.54-1.183 0-2.235-.252-3.158-.756a5.392 5.392 0 01-2.164-2.164c-.519-.937-.778-2.033-.778-3.288 0-1.254.252-2.35.757-3.288a5.384 5.384 0 012.163-2.163c.923-.505 1.983-.757 3.18-.757 1.168 0 2.206.245 3.115.736a5.216 5.216 0 012.12 2.098c.519.908.779 1.968.779 3.18zm-3.786-.974c0-.634-.216-1.14-.649-1.514-.433-.375-.973-.562-1.622-.562-.62 0-1.147.18-1.579.54-.419.36-.678.873-.779 1.536h4.629zm13.091-4.997c1.41 0 2.54.462 3.38 1.385.85.908 1.27 2.163 1.27 3.764v7.052h-3.68V8.732c0-.807-.2-1.435-.62-1.882-.42-.447-.98-.67-1.69-.67s-1.269.223-1.688.67c-.418.447-.627 1.075-.627 1.882v6.555h-3.699V3.217h3.699v1.6c.375-.534.88-.952 1.515-1.255.63-.317 1.35-.476 2.14-.476zm11.81-.043c.85 0 1.59.173 2.23.52.65.345 1.14.8 1.49 1.362V3.216h3.7v12.049c0 1.11-.23 2.113-.67 3.007a5.018 5.018 0 01-2.01 2.163c-.9.534-2.02.8-3.36.8-1.79 0-3.24-.425-4.35-1.276-1.11-.836-1.74-1.976-1.9-3.418h3.66c.11.462.39.822.82 1.082.43.274.96.41 1.6.41.76 0 1.37-.223 1.82-.67.46-.432.69-1.132.69-2.098v-1.709c-.36.563-.86 1.024-1.49 1.385-.64.346-1.38.519-2.23.519-1 0-1.9-.253-2.71-.757-.8-.52-1.45-1.248-1.92-2.185-.46-.952-.69-2.048-.69-3.288 0-1.24.23-2.33.69-3.267.47-.937 1.12-1.658 1.92-2.163.81-.505 1.71-.757 2.71-.757zm3.72 6.208c0-.923-.26-1.65-.78-2.184-.5-.534-1.12-.8-1.86-.8s-1.36.266-1.88.8c-.51.519-.76 1.24-.76 2.163 0 .923.25 1.658.76 2.206.52.534 1.14.8 1.88.8s1.36-.266 1.86-.8c.52-.533.78-1.262.78-2.185zm18.29-6.035v12.07h-3.7v-1.643c-.37.533-.88.966-1.53 1.297-.64.318-1.34.476-2.12.476-.92 0-1.74-.202-2.45-.605-.7-.418-1.25-1.017-1.64-1.796-.39-.779-.58-1.694-.58-2.747V3.216h3.67v6.555c0 .807.21 1.434.63 1.881.42.448.98.671 1.69.671.72 0 1.29-.223 1.71-.67.41-.448.62-1.075.62-1.882V3.216h3.7zm18.06-.13c1.5 0 2.69.455 3.57 1.363.9.909 1.34 2.17 1.34 3.786v7.052h-3.68V8.732c0-.779-.2-1.377-.62-1.795-.41-.433-.97-.65-1.69-.65s-1.29.217-1.71.65c-.4.418-.6 1.016-.6 1.795v6.555h-3.68V8.732c0-.779-.21-1.377-.63-1.795-.4-.433-.97-.65-1.69-.65s-1.29.217-1.71.65c-.4.418-.6 1.016-.6 1.795v6.555h-3.7V3.217h3.7V4.73c.37-.504.86-.901 1.47-1.19.61-.302 1.29-.454 2.05-.454.91 0 1.72.195 2.43.584.72.39 1.28.945 1.69 1.666.41-.663.98-1.204 1.7-1.622a4.651 4.651 0 012.36-.628zm19.42.13v12.07h-3.7v-1.643c-.38.533-.89.966-1.54 1.297-.63.318-1.34.476-2.12.476-.92 0-1.73-.202-2.44-.605a4.14 4.14 0 01-1.64-1.796c-.39-.779-.59-1.694-.59-2.747V3.216h3.68v6.555c0 .807.21 1.434.63 1.881.41.448.98.671 1.68.671.72 0 1.29-.223 1.71-.67.42-.448.63-1.075.63-1.882V3.216h3.7zm18.06-.13c1.5 0 2.69.455 3.57 1.363.89.909 1.34 2.17 1.34 3.786v7.052h-3.68V8.732c0-.779-.21-1.377-.63-1.795-.4-.433-.96-.65-1.68-.65-.73 0-1.3.217-1.71.65-.41.418-.61 1.016-.61 1.795v6.555h-3.68V8.732c0-.779-.21-1.377-.62-1.795-.41-.433-.97-.65-1.69-.65s-1.29.217-1.71.65c-.4.418-.61 1.016-.61 1.795v6.555h-3.69V3.217h3.69V4.73c.38-.504.87-.901 1.48-1.19.6-.302 1.29-.454 2.05-.454.91 0 1.72.195 2.42.584.72.39 1.29.945 1.69 1.666a4.89 4.89 0 011.71-1.622 4.625 4.625 0 012.36-.628zm6.76 6.144c0-1.24.23-2.33.69-3.267.48-.937 1.12-1.658 1.93-2.163.8-.505 1.71-.757 2.7-.757.85 0 1.59.173 2.23.52.65.345 1.15.8 1.49 1.362V3.216h3.7v12.07h-3.7v-1.708c-.36.562-.86 1.016-1.51 1.363-.64.346-1.38.519-2.23.519-.98 0-1.88-.253-2.68-.757-.81-.52-1.45-1.248-1.93-2.185-.46-.952-.69-2.048-.69-3.288zm9.04.021c0-.923-.26-1.65-.78-2.184-.5-.534-1.12-.8-1.86-.8-.73 0-1.36.266-1.88.8-.5.519-.76 1.24-.76 2.163 0 .923.26 1.658.76 2.206.52.534 1.15.8 1.88.8.74 0 1.36-.266 1.86-.8.52-.533.78-1.262.78-2.185zm13.73-6.165c1.41 0 2.54.462 3.38 1.385.85.908 1.27 2.163 1.27 3.764v7.052h-3.68V8.732c0-.807-.2-1.435-.62-1.882-.42-.447-.98-.67-1.69-.67s-1.27.223-1.69.67c-.42.447-.62 1.075-.62 1.882v6.555h-3.7V3.217h3.7v1.6c.37-.534.88-.952 1.51-1.255.63-.317 1.35-.476 2.14-.476zM979.79 36.99a4.95 4.95 0 01-.605 2.423c-.404.72-1.024 1.305-1.861 1.752-.836.447-1.874.67-3.115.67h-2.293v5.452h-3.699V32.1h5.992c1.212 0 2.236.21 3.072.627.837.419 1.464.995 1.882 1.731.418.735.627 1.58.627 2.53zm-5.862 1.904c.707 0 1.233-.166 1.579-.498.346-.332.52-.8.52-1.406 0-.606-.174-1.075-.52-1.406-.346-.332-.872-.498-1.579-.498h-2.012v3.808h2.012zm19.167 2.163c0 .346-.022.706-.065 1.081h-8.372c.058.75.296 1.327.714 1.73.433.39.959.585 1.579.585.923 0 1.565-.39 1.925-1.168h3.937a5.328 5.328 0 01-1.103 2.141 5.368 5.368 0 01-1.968 1.493c-.794.36-1.68.54-2.661.54-1.183 0-2.235-.252-3.158-.756a5.392 5.392 0 01-2.164-2.164c-.519-.937-.778-2.033-.778-3.288 0-1.254.252-2.35.757-3.288a5.384 5.384 0 012.163-2.163c.923-.505 1.983-.757 3.18-.757 1.168 0 2.206.245 3.115.736a5.215 5.215 0 012.12 2.098c.519.908.779 1.968.779 3.18zm-3.786-.974c0-.634-.216-1.139-.649-1.514-.433-.375-.973-.562-1.622-.562-.62 0-1.147.18-1.579.54-.419.36-.678.873-.779 1.536h4.629zm21.141-4.997c1.5 0 2.69.455 3.57 1.363.89.909 1.34 2.17 1.34 3.786v7.052h-3.68v-6.555c0-.779-.21-1.377-.63-1.795-.4-.433-.96-.65-1.68-.65s-1.29.217-1.71.65c-.41.418-.61 1.016-.61 1.795v6.555h-3.68v-6.555c0-.779-.2-1.377-.62-1.795-.41-.433-.97-.65-1.69-.65s-1.291.217-1.709.65c-.404.418-.606 1.016-.606 1.795v6.555h-3.699v-12.07h3.699v1.513a3.848 3.848 0 011.475-1.19c.6-.302 1.29-.454 2.05-.454.91 0 1.72.195 2.42.584.72.39 1.29.945 1.69 1.666a4.89 4.89 0 011.71-1.622 4.625 4.625 0 012.36-.628zm18.87 5.97c0 .347-.02.707-.06 1.082h-8.37c.05.75.29 1.327.71 1.73.43.39.96.585 1.58.585.92 0 1.56-.39 1.93-1.168h3.93c-.2.793-.57 1.507-1.1 2.141a5.409 5.409 0 01-1.97 1.493c-.79.36-1.68.54-2.66.54-1.18 0-2.24-.252-3.16-.756a5.401 5.401 0 01-2.16-2.164c-.52-.937-.78-2.033-.78-3.288 0-1.254.25-2.35.76-3.288a5.401 5.401 0 012.16-2.163c.92-.505 1.98-.757 3.18-.757 1.17 0 2.21.245 3.11.736.91.49 1.62 1.19 2.12 2.098.52.908.78 1.968.78 3.18zm-3.78-.973c0-.634-.22-1.139-.65-1.514-.43-.375-.97-.562-1.62-.562-.62 0-1.15.18-1.58.54-.42.36-.68.873-.78 1.536h4.63zm13.09-4.997c1.41 0 2.54.462 3.37 1.385.86.908 1.28 2.163 1.28 3.764v7.052h-3.68v-6.555c0-.807-.21-1.435-.62-1.882-.42-.447-.98-.67-1.69-.67s-1.27.223-1.69.67c-.42.447-.63 1.075-.63 1.882v6.555h-3.69v-12.07h3.69v1.6c.38-.534.88-.952 1.52-1.255.63-.317 1.35-.476 2.14-.476zm6.49 6.144c0-1.24.23-2.33.69-3.267.47-.937 1.12-1.658 1.92-2.163.81-.505 1.71-.757 2.71-.757.85 0 1.59.173 2.23.52.64.345 1.14.8 1.49 1.362v-1.709h3.7v12.07h-3.7v-1.708c-.36.562-.87 1.016-1.52 1.362-.63.347-1.37.52-2.22.52a4.97 4.97 0 01-2.69-.757c-.8-.52-1.45-1.248-1.92-2.185-.46-.952-.69-2.048-.69-3.288zm9.04.021c0-.923-.26-1.65-.78-2.184-.51-.534-1.13-.8-1.86-.8-.74 0-1.36.266-1.88.8-.51.519-.76 1.24-.76 2.163 0 .923.25 1.658.76 2.206.52.534 1.14.8 1.88.8.73 0 1.35-.266 1.86-.8.52-.533.78-1.262.78-2.185zm13.73-6.165c1.41 0 2.54.462 3.37 1.385.85.908 1.28 2.163 1.28 3.764v7.052h-3.68v-6.555c0-.807-.21-1.435-.63-1.882-.41-.447-.98-.67-1.68-.67-.71 0-1.27.223-1.69.67-.42.447-.63 1.075-.63 1.882v6.555h-3.7v-12.07h3.7v1.6c.38-.534.88-.952 1.52-1.255.63-.317 1.34-.476 2.14-.476zm11.8-.043c.86 0 1.6.173 2.23.52.65.345 1.15.8 1.5 1.362v-1.709h3.69v12.049c0 1.11-.22 2.113-.67 3.007-.43.908-1.1 1.63-2.01 2.163-.89.534-2.01.8-3.35.8-1.79 0-3.24-.425-4.35-1.276-1.11-.836-1.74-1.976-1.9-3.418h3.65c.12.462.39.822.83 1.082.43.274.96.41 1.6.41.76 0 1.37-.223 1.81-.67.46-.432.7-1.132.7-2.098v-1.709c-.36.563-.86 1.024-1.5 1.385-.63.346-1.37.519-2.23.519-.99 0-1.89-.253-2.7-.757-.81-.52-1.45-1.248-1.92-2.185-.47-.952-.7-2.048-.7-3.288 0-1.24.23-2.33.7-3.267.47-.937 1.11-1.658 1.92-2.163a5.003 5.003 0 012.7-.757zm3.73 6.208c0-.923-.26-1.65-.78-2.184-.51-.534-1.13-.8-1.86-.8-.74 0-1.37.266-1.89.8-.5.519-.75 1.24-.75 2.163 0 .923.25 1.658.75 2.206.52.534 1.15.8 1.89.8.73 0 1.35-.266 1.86-.8.52-.533.78-1.262.78-2.185z" fill="#4FE0BE"/>
</svg>
