<svg width="1100" height="436" viewBox="0 0 1100 436" fill="none" xmlns="http://www.w3.org/2000/svg">
<path d="M478.846 215.486H592.535M943.812 215.486H1074.99M-3.05176e-05 213.5H131.182" stroke="#16CECC" stroke-width="5"/>
<path d="M474.662 215.486L598.369 215.486M239.317 215.486L364.67 215.486M706.989 215.486L836.441 215.486" stroke="#4FE0BE" stroke-width="5"/>
<path d="M181.986 156.211C193.517 156.211 204.79 159.63 214.378 166.037C223.965 172.443 231.438 181.549 235.851 192.202C240.264 202.856 241.419 214.579 239.169 225.888C236.919 237.198 231.367 247.587 223.213 255.741C215.059 263.895 204.67 269.447 193.36 271.697C182.051 273.947 170.328 272.792 159.674 268.379C149.021 263.966 139.915 256.494 133.509 246.906C127.102 237.318 123.683 226.045 123.683 214.514L131.037 214.514C131.037 224.591 134.025 234.441 139.624 242.82C145.222 251.198 153.179 257.728 162.489 261.584C171.798 265.441 182.043 266.45 191.926 264.484C201.809 262.518 210.887 257.665 218.012 250.54C225.137 243.415 229.99 234.337 231.956 224.454C233.921 214.571 232.912 204.326 229.056 195.017C225.2 185.707 218.67 177.75 210.291 172.152C201.913 166.554 192.063 163.565 181.986 163.565V156.211Z" fill="#16CECC"/>
<rect x="175.184" y="26" width="6.80206" height="137.547" fill="#16CECC"/>
<path d="M650.353 156.211C661.884 156.211 673.156 159.63 682.744 166.037C692.332 172.443 699.805 181.549 704.218 192.202C708.631 202.856 709.785 214.579 707.536 225.888C705.286 237.198 699.733 247.587 691.579 255.741C683.425 263.895 673.037 269.447 661.727 271.697C650.417 273.947 638.695 272.792 628.041 268.379C617.387 263.966 608.282 256.494 601.875 246.906C595.469 237.318 592.049 226.045 592.049 214.514L599.404 214.514C599.404 224.591 602.392 234.441 607.99 242.82C613.589 251.198 621.546 257.728 630.856 261.584C640.165 265.441 650.409 266.45 660.292 264.484C670.175 262.518 679.253 257.665 686.379 250.54C693.504 243.415 698.356 234.337 700.322 224.454C702.288 214.571 701.279 204.326 697.423 195.017C693.567 185.707 687.037 177.75 678.658 172.152C670.28 166.554 660.429 163.565 650.353 163.565V156.211Z" fill="#16CECC"/>
<rect x="643.551" y="26" width="6.80206" height="137.547" fill="#16CECC"/>
<path d="M416.171 273.789C427.702 273.789 438.975 270.37 448.563 263.963C458.151 257.557 465.623 248.451 470.036 237.798C474.449 227.144 475.604 215.421 473.354 204.112C471.104 192.802 465.552 182.413 457.398 174.259C449.244 166.105 438.855 160.553 427.545 158.303C416.236 156.053 404.513 157.208 393.859 161.621C383.206 166.034 374.1 173.506 367.694 183.094C361.287 192.682 357.868 203.955 357.868 215.486L365.222 215.486C365.222 205.409 368.211 195.559 373.809 187.18C379.407 178.802 387.364 172.272 396.674 168.416C405.984 164.559 416.228 163.55 426.111 165.516C435.994 167.482 445.072 172.335 452.197 179.46C459.322 186.585 464.175 195.663 466.141 205.546C468.107 215.429 467.098 225.674 463.241 234.983C459.385 244.293 452.855 252.25 444.477 257.848C436.098 263.446 426.248 266.435 416.171 266.435V273.789Z" fill="#16CECC"/>
<rect width="6.80206" height="137.547" transform="matrix(1 0 0 -1 409.369 404)" fill="#16CECC"/>
<path d="M888.424 273.789C899.955 273.789 911.228 270.37 920.816 263.963C930.403 257.557 937.876 248.451 942.289 237.798C946.702 227.144 947.857 215.421 945.607 204.112C943.357 192.802 937.805 182.413 929.651 174.259C921.497 166.105 911.108 160.553 899.798 158.303C888.489 156.053 876.766 157.208 866.112 161.621C855.459 166.034 846.353 173.506 839.947 183.094C833.54 192.682 830.121 203.955 830.121 215.486L837.475 215.486C837.475 205.409 840.463 195.559 846.062 187.18C851.66 178.802 859.617 172.272 868.927 168.416C878.236 164.559 888.48 163.55 898.364 165.516C908.247 167.482 917.325 172.335 924.45 179.46C931.575 186.585 936.428 195.663 938.394 205.546C940.359 215.429 939.35 225.674 935.494 234.983C931.638 244.293 925.108 252.25 916.729 257.848C908.351 263.446 898.501 266.435 888.424 266.435V273.789Z" fill="#16CECC"/>
<rect width="6.80206" height="137.547" transform="matrix(1 0 0 -1 881.622 404)" fill="#16CECC"/>
<circle cx="181.683" cy="215" r="41" fill="#F1F4F8"/>
<circle cx="415.683" cy="215" r="41" fill="#F1F4F8"/>
<circle cx="650.679" cy="215" r="41" fill="#F1F4F8"/>
<circle cx="888.678" cy="215" r="41" fill="#F1F4F8"/>
<path d="M204.071 28.248H212.135V33H197.915V7.728H204.071V28.248ZM213.847 22.92C213.847 20.856 214.231 19.044 214.999 17.484C215.791 15.924 216.859 14.724 218.203 13.884C219.547 13.044 221.047 12.624 222.703 12.624C224.119 12.624 225.355 12.912 226.411 13.488C227.491 14.064 228.319 14.82 228.895 15.756V12.912H235.051V33H228.895V30.156C228.295 31.092 227.455 31.848 226.375 32.424C225.319 33 224.083 33.288 222.667 33.288C221.035 33.288 219.547 32.868 218.203 32.028C216.859 31.164 215.791 29.952 214.999 28.392C214.231 26.808 213.847 24.984 213.847 22.92ZM228.895 22.956C228.895 21.42 228.463 20.208 227.599 19.32C226.759 18.432 225.727 17.988 224.503 17.988C223.279 17.988 222.235 18.432 221.371 19.32C220.531 20.184 220.111 21.384 220.111 22.92C220.111 24.456 220.531 25.68 221.371 26.592C222.235 27.48 223.279 27.924 224.503 27.924C225.727 27.924 226.759 27.48 227.599 26.592C228.463 25.704 228.895 24.492 228.895 22.956ZM259.34 12.912V33H253.184V30.264C252.56 31.152 251.708 31.872 250.628 32.424C249.572 32.952 248.396 33.216 247.1 33.216C245.564 33.216 244.208 32.88 243.032 32.208C241.856 31.512 240.944 30.516 240.296 29.22C239.648 27.924 239.324 26.4 239.324 24.648V12.912H245.444V23.82C245.444 25.164 245.792 26.208 246.488 26.952C247.184 27.696 248.12 28.068 249.296 28.068C250.496 28.068 251.444 27.696 252.14 26.952C252.836 26.208 253.184 25.164 253.184 23.82V12.912H259.34ZM276.002 12.696C278.354 12.696 280.226 13.464 281.618 15C283.034 16.512 283.742 18.6 283.742 21.264V33H277.622V22.092C277.622 20.748 277.274 19.704 276.578 18.96C275.882 18.216 274.946 17.844 273.77 17.844C272.594 17.844 271.658 18.216 270.962 18.96C270.266 19.704 269.918 20.748 269.918 22.092V33H263.762V12.912H269.918V15.576C270.542 14.688 271.382 13.992 272.438 13.488C273.494 12.96 274.682 12.696 276.002 12.696ZM286.796 22.956C286.796 20.868 287.216 19.044 288.056 17.484C288.92 15.924 290.108 14.724 291.62 13.884C293.156 13.044 294.908 12.624 296.876 12.624C299.396 12.624 301.496 13.284 303.176 14.604C304.88 15.924 305.996 17.784 306.524 20.184H299.972C299.42 18.648 298.352 17.88 296.768 17.88C295.64 17.88 294.74 18.324 294.068 19.212C293.396 20.076 293.06 21.324 293.06 22.956C293.06 24.588 293.396 25.848 294.068 26.736C294.74 27.6 295.64 28.032 296.768 28.032C298.352 28.032 299.42 27.264 299.972 25.728H306.524C305.996 28.08 304.88 29.928 303.176 31.272C301.472 32.616 299.372 33.288 296.876 33.288C294.908 33.288 293.156 32.868 291.62 32.028C290.108 31.188 288.92 29.988 288.056 28.428C287.216 26.868 286.796 25.044 286.796 22.956ZM322.165 12.696C324.469 12.696 326.317 13.464 327.709 15C329.101 16.512 329.797 18.6 329.797 21.264V33H323.677V22.092C323.677 20.748 323.329 19.704 322.633 18.96C321.937 18.216 321.001 17.844 319.825 17.844C318.649 17.844 317.713 18.216 317.017 18.96C316.321 19.704 315.973 20.748 315.973 22.092V33H309.817V6.36H315.973V15.612C316.597 14.724 317.449 14.016 318.529 13.488C319.609 12.96 320.821 12.696 322.165 12.696Z" fill="#16CECC"/>
<path d="M201.827 69.24C201.059 69.24 200.387 69.12 199.811 68.88C199.235 68.64 198.747 68.344 198.347 67.992C197.947 67.64 197.627 67.304 197.387 66.984C197.147 66.648 196.979 66.384 196.883 66.192L198.515 64.488C198.787 64.856 199.067 65.216 199.355 65.568C199.643 65.904 199.979 66.184 200.363 66.408C200.763 66.616 201.251 66.72 201.827 66.72C202.723 66.72 203.427 66.424 203.939 65.832C204.451 65.224 204.707 64.496 204.707 63.648V54.6H201.635V52.2H209.891V54.6H207.299V63.888C207.299 64.8 207.083 65.664 206.651 66.48C206.235 67.296 205.619 67.96 204.803 68.472C203.987 68.984 202.995 69.24 201.827 69.24ZM220.206 63.984V56.4H222.678V69H220.206V66.984C219.838 67.576 219.294 68.104 218.574 68.568C217.87 69.016 217.022 69.24 216.03 69.24C214.718 69.24 213.654 68.792 212.838 67.896C212.022 67 211.614 65.76 211.614 64.176V56.4H214.086V63.504C214.086 64.144 214.182 64.736 214.374 65.28C214.582 65.824 214.902 66.264 215.334 66.6C215.782 66.92 216.35 67.08 217.038 67.08C217.902 67.08 218.646 66.808 219.27 66.264C219.894 65.72 220.206 64.96 220.206 63.984ZM226.145 69V51.24H228.617V69H226.145ZM233.801 53.664C233.241 53.664 232.825 53.52 232.553 53.232C232.281 52.944 232.145 52.568 232.145 52.104C232.145 51.704 232.281 51.344 232.553 51.024C232.825 50.704 233.241 50.544 233.801 50.544C234.361 50.544 234.777 50.688 235.049 50.976C235.321 51.264 235.457 51.64 235.457 52.104C235.457 52.504 235.321 52.864 235.049 53.184C234.777 53.504 234.361 53.664 233.801 53.664ZM235.073 69H232.601V56.4H235.073V69ZM256.207 66.504V69H246.055L245.263 67.032L250.399 61.248C251.055 60.512 251.655 59.776 252.199 59.04C252.743 58.304 253.015 57.552 253.015 56.784C253.015 55.984 252.783 55.384 252.319 54.984C251.855 54.568 251.247 54.36 250.495 54.36C250.127 54.36 249.719 54.472 249.271 54.696C248.823 54.92 248.399 55.272 247.999 55.752C247.599 56.232 247.279 56.864 247.039 57.648L245.047 56.4C245.479 54.912 246.223 53.8 247.279 53.064C248.351 52.328 249.527 51.96 250.807 51.96C251.719 51.96 252.543 52.152 253.279 52.536C254.015 52.904 254.599 53.432 255.031 54.12C255.463 54.808 255.679 55.632 255.679 56.592C255.679 57.696 255.343 58.792 254.671 59.88C254.015 60.952 253.207 62.016 252.247 63.072L249.103 66.504H256.207ZM264.244 69.24C262.9 69.24 261.764 68.872 260.836 68.136C259.924 67.384 259.236 66.36 258.772 65.064C258.308 63.768 258.076 62.28 258.076 60.6C258.076 58.92 258.308 57.432 258.772 56.136C259.236 54.84 259.924 53.824 260.836 53.088C261.764 52.336 262.9 51.96 264.244 51.96C265.604 51.96 266.74 52.336 267.652 53.088C268.564 53.824 269.252 54.84 269.716 56.136C270.196 57.432 270.436 58.92 270.436 60.6C270.436 62.28 270.196 63.768 269.716 65.064C269.252 66.36 268.564 67.384 267.652 68.136C266.74 68.872 265.604 69.24 264.244 69.24ZM264.244 66.888C265.396 66.888 266.292 66.344 266.932 65.256C267.588 64.168 267.916 62.616 267.916 60.6C267.916 58.584 267.588 57.032 266.932 55.944C266.292 54.856 265.396 54.312 264.244 54.312C263.092 54.312 262.188 54.856 261.532 55.944C260.892 57.032 260.572 58.584 260.572 60.6C260.572 62.616 260.892 64.168 261.532 65.256C262.188 66.344 263.092 66.888 264.244 66.888ZM283.934 66.504V69H273.782L272.99 67.032L278.126 61.248C278.782 60.512 279.382 59.776 279.926 59.04C280.47 58.304 280.742 57.552 280.742 56.784C280.742 55.984 280.51 55.384 280.046 54.984C279.582 54.568 278.974 54.36 278.222 54.36C277.854 54.36 277.446 54.472 276.998 54.696C276.55 54.92 276.126 55.272 275.726 55.752C275.326 56.232 275.006 56.864 274.766 57.648L272.774 56.4C273.206 54.912 273.95 53.8 275.006 53.064C276.078 52.328 277.254 51.96 278.534 51.96C279.446 51.96 280.27 52.152 281.006 52.536C281.742 52.904 282.326 53.432 282.758 54.12C283.19 54.808 283.406 55.632 283.406 56.592C283.406 57.696 283.07 58.792 282.398 59.88C281.742 60.952 280.934 62.016 279.974 63.072L276.83 66.504H283.934ZM295.258 69H287.242V66.504H289.906V55.344L287.482 56.616L286.786 54.36L291.274 51.96H292.522V66.504H295.258V69Z" fill="white"/>
<path d="M436.826 375.24C436.058 375.24 435.386 375.12 434.81 374.88C434.234 374.64 433.746 374.344 433.346 373.992C432.946 373.64 432.626 373.304 432.386 372.984C432.146 372.648 431.978 372.384 431.882 372.192L433.514 370.488C433.786 370.856 434.066 371.216 434.354 371.568C434.642 371.904 434.978 372.184 435.362 372.408C435.762 372.616 436.25 372.72 436.826 372.72C437.722 372.72 438.426 372.424 438.938 371.832C439.45 371.224 439.706 370.496 439.706 369.648V360.6H436.634V358.2H444.89V360.6H442.298V369.888C442.298 370.8 442.082 371.664 441.65 372.48C441.234 373.296 440.618 373.96 439.802 374.472C438.986 374.984 437.994 375.24 436.826 375.24ZM455.205 369.984V362.4H457.677V375H455.205V372.984C454.837 373.576 454.293 374.104 453.573 374.568C452.869 375.016 452.021 375.24 451.029 375.24C449.717 375.24 448.653 374.792 447.837 373.896C447.021 373 446.613 371.76 446.613 370.176V362.4H449.085V369.504C449.085 370.144 449.181 370.736 449.373 371.28C449.581 371.824 449.901 372.264 450.333 372.6C450.781 372.92 451.349 373.08 452.037 373.08C452.901 373.08 453.645 372.808 454.269 372.264C454.893 371.72 455.205 370.96 455.205 369.984ZM461.145 375V357.24H463.617V375H461.145ZM468.801 359.664C468.241 359.664 467.825 359.52 467.553 359.232C467.281 358.944 467.145 358.568 467.145 358.104C467.145 357.704 467.281 357.344 467.553 357.024C467.825 356.704 468.241 356.544 468.801 356.544C469.361 356.544 469.777 356.688 470.049 356.976C470.321 357.264 470.457 357.64 470.457 358.104C470.457 358.504 470.321 358.864 470.049 359.184C469.777 359.504 469.361 359.664 468.801 359.664ZM470.073 375H467.601V362.4H470.073V375ZM480.095 369.36V366.912H487.007V369.36H480.095ZM497.971 369.936C498.627 370.88 499.307 371.616 500.011 372.144C500.731 372.656 501.659 372.912 502.795 372.912C503.339 372.912 503.859 372.824 504.355 372.648C504.851 372.472 505.259 372.216 505.579 371.88C505.899 371.544 506.059 371.144 506.059 370.68C506.059 369.88 505.715 369.256 505.027 368.808C504.355 368.36 503.403 368.016 502.171 367.776C500.603 367.456 499.355 366.904 498.427 366.12C497.499 365.32 497.035 364.168 497.035 362.664C497.035 361.704 497.299 360.872 497.827 360.168C498.371 359.464 499.083 358.92 499.963 358.536C500.843 358.152 501.795 357.96 502.819 357.96C504.147 357.96 505.291 358.216 506.251 358.728C507.211 359.24 507.963 359.968 508.507 360.912L506.683 362.712C506.251 361.992 505.707 361.408 505.051 360.96C504.395 360.512 503.627 360.288 502.747 360.288C501.867 360.288 501.123 360.496 500.515 360.912C499.923 361.312 499.627 361.872 499.627 362.592C499.627 363.408 499.939 364.008 500.563 364.392C501.203 364.76 502.043 365.056 503.083 365.28C504.027 365.472 504.923 365.768 505.771 366.168C506.619 366.568 507.307 367.088 507.835 367.728C508.379 368.352 508.651 369.112 508.651 370.008C508.651 371.608 508.107 372.88 507.019 373.824C505.931 374.768 504.435 375.24 502.531 375.24C501.235 375.24 500.051 374.984 498.979 374.472C497.923 373.96 496.995 373.128 496.195 371.976L497.971 369.936ZM522.523 373.344H522.499C521.987 373.84 521.283 374.28 520.387 374.664C519.491 375.048 518.555 375.24 517.579 375.24C516.267 375.24 515.107 374.968 514.099 374.424C513.107 373.864 512.331 373.104 511.771 372.144C511.211 371.168 510.931 370.064 510.931 368.832C510.931 367.424 511.227 366.224 511.819 365.232C512.411 364.224 513.195 363.456 514.171 362.928C515.147 362.384 516.211 362.112 517.363 362.112C518.419 362.112 519.379 362.376 520.243 362.904C521.107 363.416 521.795 364.128 522.307 365.04C522.819 365.952 523.075 367.016 523.075 368.232L523.051 369.288H513.403C513.547 370.424 514.011 371.328 514.795 372C515.595 372.656 516.603 372.984 517.819 372.984C518.699 372.984 519.411 372.824 519.955 372.504C520.499 372.168 520.947 371.848 521.299 371.544L522.523 373.344ZM517.363 364.392C516.419 364.392 515.595 364.616 514.891 365.064C514.187 365.496 513.723 366.248 513.499 367.32H520.555V367.152C520.507 366.608 520.323 366.128 520.003 365.712C519.699 365.296 519.315 364.976 518.851 364.752C518.387 364.512 517.891 364.392 517.363 364.392ZM532.338 362.184C533.458 362.184 534.458 362.464 535.338 363.024C536.234 363.568 536.938 364.328 537.45 365.304C537.962 366.28 538.218 367.408 538.218 368.688C538.218 369.952 537.962 371.08 537.45 372.072C536.938 373.048 536.242 373.816 535.362 374.376C534.482 374.936 533.498 375.216 532.41 375.216C531.514 375.216 530.698 375.024 529.962 374.64C529.242 374.256 528.674 373.816 528.258 373.32V380.28H525.762V362.376H528.258V364.224C528.626 363.696 529.178 363.224 529.914 362.808C530.65 362.392 531.458 362.184 532.338 362.184ZM532.002 364.464C531.25 364.464 530.578 364.648 529.986 365.016C529.41 365.384 528.954 365.888 528.618 366.528C528.298 367.152 528.138 367.872 528.138 368.688C528.138 369.488 528.298 370.208 528.618 370.848C528.954 371.488 529.41 372 529.986 372.384C530.578 372.752 531.25 372.936 532.002 372.936C532.754 372.936 533.418 372.752 533.994 372.384C534.57 372 535.018 371.488 535.338 370.848C535.674 370.208 535.842 369.488 535.842 368.688C535.842 367.872 535.674 367.152 535.338 366.528C535.018 365.888 534.57 365.384 533.994 365.016C533.418 364.648 532.754 364.464 532.002 364.464ZM544.935 375H542.463V364.8H539.847V362.4H542.463V359.184H544.935V362.4H547.863V364.8H544.935V375ZM560.82 373.344H560.796C560.284 373.84 559.58 374.28 558.684 374.664C557.788 375.048 556.852 375.24 555.876 375.24C554.564 375.24 553.404 374.968 552.396 374.424C551.404 373.864 550.628 373.104 550.068 372.144C549.508 371.168 549.228 370.064 549.228 368.832C549.228 367.424 549.524 366.224 550.116 365.232C550.708 364.224 551.492 363.456 552.468 362.928C553.444 362.384 554.508 362.112 555.66 362.112C556.716 362.112 557.676 362.376 558.54 362.904C559.404 363.416 560.092 364.128 560.604 365.04C561.116 365.952 561.372 367.016 561.372 368.232L561.348 369.288H551.7C551.844 370.424 552.308 371.328 553.092 372C553.892 372.656 554.9 372.984 556.116 372.984C556.996 372.984 557.708 372.824 558.252 372.504C558.796 372.168 559.244 371.848 559.596 371.544L560.82 373.344ZM555.66 364.392C554.716 364.392 553.892 364.616 553.188 365.064C552.484 365.496 552.02 366.248 551.796 367.32H558.852V367.152C558.804 366.608 558.62 366.128 558.3 365.712C557.996 365.296 557.612 364.976 557.148 364.752C556.684 364.512 556.188 364.392 555.66 364.392ZM570.467 362.184C571.507 362.184 572.339 362.424 572.963 362.904C573.587 363.368 574.035 364.008 574.307 364.824C574.531 364.424 574.859 364.024 575.291 363.624C575.723 363.208 576.227 362.864 576.803 362.592C577.379 362.32 577.995 362.184 578.651 362.184C579.739 362.184 580.587 362.424 581.195 362.904C581.803 363.368 582.227 364 582.467 364.8C582.723 365.584 582.851 366.464 582.851 367.44V375H580.355V367.584C580.355 366.656 580.179 365.904 579.827 365.328C579.475 364.752 578.811 364.464 577.835 364.464C576.907 364.464 576.139 364.76 575.531 365.352C574.939 365.928 574.643 366.632 574.643 367.464V375H572.147V367.536C572.147 366.64 571.955 365.904 571.571 365.328C571.187 364.752 570.555 364.464 569.675 364.464C569.067 364.464 568.523 364.6 568.043 364.872C567.563 365.144 567.187 365.504 566.915 365.952C566.643 366.384 566.507 366.872 566.507 367.416V375H564.011V362.4H566.507V364.416C566.891 363.84 567.427 363.328 568.115 362.88C568.819 362.416 569.603 362.184 570.467 362.184ZM592.712 362.136C593.832 362.136 594.832 362.416 595.712 362.976C596.608 363.52 597.312 364.288 597.824 365.28C598.336 366.256 598.592 367.384 598.592 368.664C598.592 369.944 598.336 371.08 597.824 372.072C597.312 373.064 596.616 373.84 595.736 374.4C594.856 374.96 593.872 375.24 592.784 375.24C591.888 375.24 591.072 375.048 590.336 374.664C589.616 374.264 589.048 373.816 588.632 373.32V374.928H586.16V357.24H588.632V364.224C589 363.696 589.552 363.216 590.288 362.784C591.024 362.352 591.832 362.136 592.712 362.136ZM592.376 364.392C591.624 364.392 590.952 364.576 590.36 364.944C589.784 365.312 589.328 365.824 588.992 366.48C588.672 367.12 588.512 367.848 588.512 368.664C588.512 369.48 588.672 370.216 588.992 370.872C589.328 371.512 589.784 372.024 590.36 372.408C590.952 372.792 591.624 372.984 592.376 372.984C593.128 372.984 593.792 372.792 594.368 372.408C594.944 372.024 595.392 371.512 595.712 370.872C596.048 370.216 596.216 369.48 596.216 368.664C596.216 367.848 596.048 367.12 595.712 366.48C595.392 365.824 594.944 365.312 594.368 364.944C593.792 364.576 593.128 364.392 592.376 364.392ZM612.102 373.344H612.078C611.566 373.84 610.862 374.28 609.966 374.664C609.07 375.048 608.134 375.24 607.158 375.24C605.846 375.24 604.686 374.968 603.678 374.424C602.686 373.864 601.91 373.104 601.35 372.144C600.79 371.168 600.51 370.064 600.51 368.832C600.51 367.424 600.806 366.224 601.398 365.232C601.99 364.224 602.774 363.456 603.75 362.928C604.726 362.384 605.79 362.112 606.942 362.112C607.998 362.112 608.958 362.376 609.822 362.904C610.686 363.416 611.374 364.128 611.886 365.04C612.398 365.952 612.654 367.016 612.654 368.232L612.63 369.288H602.982C603.126 370.424 603.59 371.328 604.374 372C605.174 372.656 606.182 372.984 607.398 372.984C608.278 372.984 608.99 372.824 609.534 372.504C610.078 372.168 610.526 371.848 610.878 371.544L612.102 373.344ZM606.942 364.392C605.998 364.392 605.174 364.616 604.47 365.064C603.766 365.496 603.302 366.248 603.078 367.32H610.134V367.152C610.086 366.608 609.902 366.128 609.582 365.712C609.278 365.296 608.894 364.976 608.43 364.752C607.966 364.512 607.47 364.392 606.942 364.392ZM622.396 365.064C622.236 364.984 622.036 364.92 621.796 364.872C621.572 364.808 621.332 364.776 621.076 364.776C620.564 364.776 620.06 364.912 619.564 365.184C619.068 365.44 618.652 365.816 618.316 366.312C617.996 366.792 617.836 367.368 617.836 368.04V375H615.34V362.4H617.836V364.776C618.188 364.008 618.716 363.376 619.42 362.88C620.14 362.384 620.892 362.136 621.676 362.136C622.268 362.136 622.724 362.216 623.044 362.376L622.396 365.064ZM642.402 372.504V375H632.25L631.458 373.032L636.594 367.248C637.25 366.512 637.85 365.776 638.394 365.04C638.938 364.304 639.21 363.552 639.21 362.784C639.21 361.984 638.978 361.384 638.514 360.984C638.05 360.568 637.442 360.36 636.69 360.36C636.322 360.36 635.914 360.472 635.466 360.696C635.018 360.92 634.594 361.272 634.194 361.752C633.794 362.232 633.474 362.864 633.234 363.648L631.242 362.4C631.674 360.912 632.418 359.8 633.474 359.064C634.546 358.328 635.722 357.96 637.002 357.96C637.914 357.96 638.738 358.152 639.474 358.536C640.21 358.904 640.794 359.432 641.226 360.12C641.658 360.808 641.874 361.632 641.874 362.592C641.874 363.696 641.538 364.792 640.866 365.88C640.21 366.952 639.402 368.016 638.442 369.072L635.298 372.504H642.402ZM650.439 375.24C649.095 375.24 647.959 374.872 647.031 374.136C646.119 373.384 645.431 372.36 644.967 371.064C644.503 369.768 644.271 368.28 644.271 366.6C644.271 364.92 644.503 363.432 644.967 362.136C645.431 360.84 646.119 359.824 647.031 359.088C647.959 358.336 649.095 357.96 650.439 357.96C651.799 357.96 652.935 358.336 653.847 359.088C654.759 359.824 655.447 360.84 655.911 362.136C656.391 363.432 656.631 364.92 656.631 366.6C656.631 368.28 656.391 369.768 655.911 371.064C655.447 372.36 654.759 373.384 653.847 374.136C652.935 374.872 651.799 375.24 650.439 375.24ZM650.439 372.888C651.591 372.888 652.487 372.344 653.127 371.256C653.783 370.168 654.111 368.616 654.111 366.6C654.111 364.584 653.783 363.032 653.127 361.944C652.487 360.856 651.591 360.312 650.439 360.312C649.287 360.312 648.383 360.856 647.727 361.944C647.087 363.032 646.767 364.584 646.767 366.6C646.767 368.616 647.087 370.168 647.727 371.256C648.383 372.344 649.287 372.888 650.439 372.888ZM670.129 372.504V375H659.977L659.185 373.032L664.321 367.248C664.977 366.512 665.577 365.776 666.121 365.04C666.665 364.304 666.937 363.552 666.937 362.784C666.937 361.984 666.705 361.384 666.241 360.984C665.777 360.568 665.169 360.36 664.417 360.36C664.049 360.36 663.641 360.472 663.193 360.696C662.745 360.92 662.321 361.272 661.921 361.752C661.521 362.232 661.201 362.864 660.961 363.648L658.969 362.4C659.401 360.912 660.145 359.8 661.201 359.064C662.273 358.328 663.449 357.96 664.729 357.96C665.641 357.96 666.465 358.152 667.201 358.536C667.937 358.904 668.521 359.432 668.953 360.12C669.385 360.808 669.601 361.632 669.601 362.592C669.601 363.696 669.265 364.792 668.593 365.88C667.937 366.952 667.129 368.016 666.169 369.072L663.025 372.504H670.129ZM681.453 375H673.437V372.504H676.101V361.344L673.677 362.616L672.981 360.36L677.469 357.96H678.717V372.504H681.453V375Z" fill="white"/>
<path d="M668.654 63.936C669.31 64.88 669.99 65.616 670.694 66.144C671.414 66.656 672.342 66.912 673.478 66.912C674.022 66.912 674.542 66.824 675.038 66.648C675.534 66.472 675.942 66.216 676.262 65.88C676.582 65.544 676.742 65.144 676.742 64.68C676.742 63.88 676.398 63.256 675.71 62.808C675.038 62.36 674.086 62.016 672.854 61.776C671.286 61.456 670.038 60.904 669.11 60.12C668.182 59.32 667.718 58.168 667.718 56.664C667.718 55.704 667.982 54.872 668.51 54.168C669.054 53.464 669.766 52.92 670.646 52.536C671.526 52.152 672.478 51.96 673.502 51.96C674.83 51.96 675.974 52.216 676.934 52.728C677.894 53.24 678.646 53.968 679.19 54.912L677.366 56.712C676.934 55.992 676.39 55.408 675.734 54.96C675.078 54.512 674.31 54.288 673.43 54.288C672.55 54.288 671.806 54.496 671.198 54.912C670.606 55.312 670.31 55.872 670.31 56.592C670.31 57.408 670.622 58.008 671.246 58.392C671.886 58.76 672.726 59.056 673.766 59.28C674.71 59.472 675.606 59.768 676.454 60.168C677.302 60.568 677.99 61.088 678.518 61.728C679.062 62.352 679.334 63.112 679.334 64.008C679.334 65.608 678.79 66.88 677.702 67.824C676.614 68.768 675.118 69.24 673.214 69.24C671.918 69.24 670.734 68.984 669.662 68.472C668.606 67.96 667.678 67.128 666.878 65.976L668.654 63.936ZM693.207 67.344H693.183C692.671 67.84 691.967 68.28 691.071 68.664C690.175 69.048 689.239 69.24 688.263 69.24C686.951 69.24 685.791 68.968 684.783 68.424C683.791 67.864 683.015 67.104 682.455 66.144C681.895 65.168 681.615 64.064 681.615 62.832C681.615 61.424 681.911 60.224 682.503 59.232C683.095 58.224 683.879 57.456 684.855 56.928C685.831 56.384 686.895 56.112 688.047 56.112C689.103 56.112 690.063 56.376 690.927 56.904C691.791 57.416 692.479 58.128 692.991 59.04C693.503 59.952 693.759 61.016 693.759 62.232L693.735 63.288H684.087C684.231 64.424 684.695 65.328 685.479 66C686.279 66.656 687.287 66.984 688.503 66.984C689.383 66.984 690.095 66.824 690.639 66.504C691.183 66.168 691.631 65.848 691.983 65.544L693.207 67.344ZM688.047 58.392C687.103 58.392 686.279 58.616 685.575 59.064C684.871 59.496 684.407 60.248 684.183 61.32H691.239V61.152C691.191 60.608 691.007 60.128 690.687 59.712C690.383 59.296 689.999 58.976 689.535 58.752C689.071 58.512 688.575 58.392 688.047 58.392ZM703.021 56.184C704.141 56.184 705.141 56.464 706.021 57.024C706.917 57.568 707.621 58.328 708.133 59.304C708.645 60.28 708.901 61.408 708.901 62.688C708.901 63.952 708.645 65.08 708.133 66.072C707.621 67.048 706.925 67.816 706.045 68.376C705.165 68.936 704.181 69.216 703.093 69.216C702.197 69.216 701.381 69.024 700.645 68.64C699.925 68.256 699.357 67.816 698.941 67.32V74.28H696.445V56.376H698.941V58.224C699.309 57.696 699.861 57.224 700.597 56.808C701.333 56.392 702.141 56.184 703.021 56.184ZM702.685 58.464C701.933 58.464 701.261 58.648 700.669 59.016C700.093 59.384 699.637 59.888 699.301 60.528C698.981 61.152 698.821 61.872 698.821 62.688C698.821 63.488 698.981 64.208 699.301 64.848C699.637 65.488 700.093 66 700.669 66.384C701.261 66.752 701.933 66.936 702.685 66.936C703.437 66.936 704.101 66.752 704.677 66.384C705.253 66 705.701 65.488 706.021 64.848C706.357 64.208 706.525 63.488 706.525 62.688C706.525 61.872 706.357 61.152 706.021 60.528C705.701 59.888 705.253 59.384 704.677 59.016C704.101 58.648 703.437 58.464 702.685 58.464ZM715.618 69H713.146V58.8H710.53V56.4H713.146V53.184H715.618V56.4H718.546V58.8H715.618V69ZM731.504 67.344H731.48C730.968 67.84 730.264 68.28 729.368 68.664C728.472 69.048 727.536 69.24 726.56 69.24C725.248 69.24 724.088 68.968 723.08 68.424C722.088 67.864 721.312 67.104 720.752 66.144C720.192 65.168 719.912 64.064 719.912 62.832C719.912 61.424 720.208 60.224 720.8 59.232C721.392 58.224 722.176 57.456 723.152 56.928C724.128 56.384 725.192 56.112 726.344 56.112C727.4 56.112 728.36 56.376 729.224 56.904C730.088 57.416 730.776 58.128 731.288 59.04C731.8 59.952 732.056 61.016 732.056 62.232L732.032 63.288H722.384C722.528 64.424 722.992 65.328 723.776 66C724.576 66.656 725.584 66.984 726.8 66.984C727.68 66.984 728.392 66.824 728.936 66.504C729.48 66.168 729.928 65.848 730.28 65.544L731.504 67.344ZM726.344 58.392C725.4 58.392 724.576 58.616 723.872 59.064C723.168 59.496 722.704 60.248 722.48 61.32H729.536V61.152C729.488 60.608 729.304 60.128 728.984 59.712C728.68 59.296 728.296 58.976 727.832 58.752C727.368 58.512 726.872 58.392 726.344 58.392ZM741.15 56.184C742.19 56.184 743.022 56.424 743.646 56.904C744.27 57.368 744.718 58.008 744.99 58.824C745.214 58.424 745.542 58.024 745.974 57.624C746.406 57.208 746.91 56.864 747.486 56.592C748.062 56.32 748.678 56.184 749.334 56.184C750.422 56.184 751.27 56.424 751.878 56.904C752.486 57.368 752.91 58 753.15 58.8C753.406 59.584 753.534 60.464 753.534 61.44V69H751.038V61.584C751.038 60.656 750.862 59.904 750.51 59.328C750.158 58.752 749.494 58.464 748.518 58.464C747.59 58.464 746.822 58.76 746.214 59.352C745.622 59.928 745.326 60.632 745.326 61.464V69H742.83V61.536C742.83 60.64 742.638 59.904 742.254 59.328C741.87 58.752 741.238 58.464 740.358 58.464C739.75 58.464 739.206 58.6 738.726 58.872C738.246 59.144 737.87 59.504 737.598 59.952C737.326 60.384 737.19 60.872 737.19 61.416V69H734.694V56.4H737.19V58.416C737.574 57.84 738.11 57.328 738.798 56.88C739.502 56.416 740.286 56.184 741.15 56.184ZM763.396 56.136C764.516 56.136 765.516 56.416 766.396 56.976C767.292 57.52 767.996 58.288 768.508 59.28C769.02 60.256 769.276 61.384 769.276 62.664C769.276 63.944 769.02 65.08 768.508 66.072C767.996 67.064 767.3 67.84 766.42 68.4C765.54 68.96 764.556 69.24 763.468 69.24C762.572 69.24 761.756 69.048 761.02 68.664C760.3 68.264 759.732 67.816 759.316 67.32V68.928H756.844V51.24H759.316V58.224C759.684 57.696 760.236 57.216 760.972 56.784C761.708 56.352 762.516 56.136 763.396 56.136ZM763.06 58.392C762.308 58.392 761.636 58.576 761.044 58.944C760.468 59.312 760.012 59.824 759.676 60.48C759.356 61.12 759.196 61.848 759.196 62.664C759.196 63.48 759.356 64.216 759.676 64.872C760.012 65.512 760.468 66.024 761.044 66.408C761.636 66.792 762.308 66.984 763.06 66.984C763.812 66.984 764.476 66.792 765.052 66.408C765.628 66.024 766.076 65.512 766.396 64.872C766.732 64.216 766.9 63.48 766.9 62.664C766.9 61.848 766.732 61.12 766.396 60.48C766.076 59.824 765.628 59.312 765.052 58.944C764.476 58.576 763.812 58.392 763.06 58.392ZM782.785 67.344H782.761C782.249 67.84 781.545 68.28 780.649 68.664C779.753 69.048 778.817 69.24 777.841 69.24C776.529 69.24 775.369 68.968 774.361 68.424C773.369 67.864 772.593 67.104 772.033 66.144C771.473 65.168 771.193 64.064 771.193 62.832C771.193 61.424 771.489 60.224 772.081 59.232C772.673 58.224 773.457 57.456 774.433 56.928C775.409 56.384 776.473 56.112 777.625 56.112C778.681 56.112 779.641 56.376 780.505 56.904C781.369 57.416 782.057 58.128 782.569 59.04C783.081 59.952 783.337 61.016 783.337 62.232L783.313 63.288H773.665C773.809 64.424 774.273 65.328 775.057 66C775.857 66.656 776.865 66.984 778.081 66.984C778.961 66.984 779.673 66.824 780.217 66.504C780.761 66.168 781.209 65.848 781.561 65.544L782.785 67.344ZM777.625 58.392C776.681 58.392 775.857 58.616 775.153 59.064C774.449 59.496 773.985 60.248 773.761 61.32H780.817V61.152C780.769 60.608 780.585 60.128 780.265 59.712C779.961 59.296 779.577 58.976 779.113 58.752C778.649 58.512 778.153 58.392 777.625 58.392ZM793.079 59.064C792.919 58.984 792.719 58.92 792.479 58.872C792.255 58.808 792.015 58.776 791.759 58.776C791.247 58.776 790.743 58.912 790.247 59.184C789.751 59.44 789.335 59.816 788.999 60.312C788.679 60.792 788.519 61.368 788.519 62.04V69H786.023V56.4H788.519V58.776C788.871 58.008 789.399 57.376 790.103 56.88C790.823 56.384 791.575 56.136 792.359 56.136C792.951 56.136 793.407 56.216 793.727 56.376L793.079 59.064ZM813.086 66.504V69H802.934L802.142 67.032L807.278 61.248C807.934 60.512 808.534 59.776 809.078 59.04C809.622 58.304 809.894 57.552 809.894 56.784C809.894 55.984 809.662 55.384 809.198 54.984C808.734 54.568 808.126 54.36 807.374 54.36C807.006 54.36 806.598 54.472 806.15 54.696C805.702 54.92 805.278 55.272 804.878 55.752C804.478 56.232 804.158 56.864 803.918 57.648L801.926 56.4C802.358 54.912 803.102 53.8 804.158 53.064C805.23 52.328 806.406 51.96 807.686 51.96C808.598 51.96 809.422 52.152 810.158 52.536C810.894 52.904 811.478 53.432 811.91 54.12C812.342 54.808 812.558 55.632 812.558 56.592C812.558 57.696 812.222 58.792 811.55 59.88C810.894 60.952 810.086 62.016 809.126 63.072L805.982 66.504H813.086ZM821.122 69.24C819.778 69.24 818.642 68.872 817.714 68.136C816.802 67.384 816.114 66.36 815.65 65.064C815.186 63.768 814.954 62.28 814.954 60.6C814.954 58.92 815.186 57.432 815.65 56.136C816.114 54.84 816.802 53.824 817.714 53.088C818.642 52.336 819.778 51.96 821.122 51.96C822.482 51.96 823.618 52.336 824.53 53.088C825.442 53.824 826.13 54.84 826.594 56.136C827.074 57.432 827.314 58.92 827.314 60.6C827.314 62.28 827.074 63.768 826.594 65.064C826.13 66.36 825.442 67.384 824.53 68.136C823.618 68.872 822.482 69.24 821.122 69.24ZM821.122 66.888C822.274 66.888 823.17 66.344 823.81 65.256C824.466 64.168 824.794 62.616 824.794 60.6C824.794 58.584 824.466 57.032 823.81 55.944C823.17 54.856 822.274 54.312 821.122 54.312C819.97 54.312 819.066 54.856 818.41 55.944C817.77 57.032 817.45 58.584 817.45 60.6C817.45 62.616 817.77 64.168 818.41 65.256C819.066 66.344 819.97 66.888 821.122 66.888ZM840.812 66.504V69H830.66L829.868 67.032L835.004 61.248C835.66 60.512 836.26 59.776 836.804 59.04C837.348 58.304 837.62 57.552 837.62 56.784C837.62 55.984 837.388 55.384 836.924 54.984C836.46 54.568 835.852 54.36 835.1 54.36C834.732 54.36 834.324 54.472 833.876 54.696C833.428 54.92 833.004 55.272 832.604 55.752C832.204 56.232 831.884 56.864 831.644 57.648L829.652 56.4C830.084 54.912 830.828 53.8 831.884 53.064C832.956 52.328 834.132 51.96 835.412 51.96C836.324 51.96 837.148 52.152 837.884 52.536C838.62 52.904 839.204 53.432 839.636 54.12C840.068 54.808 840.284 55.632 840.284 56.592C840.284 57.696 839.948 58.792 839.276 59.88C838.62 60.952 837.812 62.016 836.852 63.072L833.708 66.504H840.812ZM852.137 69H844.121V66.504H846.785V55.344L844.361 56.616L843.665 54.36L848.153 51.96H849.401V66.504H852.137V69Z" fill="white"/>
<path d="M910.654 369.936C911.31 370.88 911.99 371.616 912.694 372.144C913.414 372.656 914.342 372.912 915.478 372.912C916.022 372.912 916.542 372.824 917.038 372.648C917.534 372.472 917.942 372.216 918.262 371.88C918.582 371.544 918.742 371.144 918.742 370.68C918.742 369.88 918.398 369.256 917.71 368.808C917.038 368.36 916.086 368.016 914.854 367.776C913.286 367.456 912.038 366.904 911.11 366.12C910.182 365.32 909.718 364.168 909.718 362.664C909.718 361.704 909.982 360.872 910.51 360.168C911.054 359.464 911.766 358.92 912.646 358.536C913.526 358.152 914.478 357.96 915.502 357.96C916.83 357.96 917.974 358.216 918.934 358.728C919.894 359.24 920.646 359.968 921.19 360.912L919.366 362.712C918.934 361.992 918.39 361.408 917.734 360.96C917.078 360.512 916.31 360.288 915.43 360.288C914.55 360.288 913.806 360.496 913.198 360.912C912.606 361.312 912.31 361.872 912.31 362.592C912.31 363.408 912.622 364.008 913.246 364.392C913.886 364.76 914.726 365.056 915.766 365.28C916.71 365.472 917.606 365.768 918.454 366.168C919.302 366.568 919.99 367.088 920.518 367.728C921.062 368.352 921.334 369.112 921.334 370.008C921.334 371.608 920.79 372.88 919.702 373.824C918.614 374.768 917.118 375.24 915.214 375.24C913.918 375.24 912.734 374.984 911.662 374.472C910.606 373.96 909.678 373.128 908.878 371.976L910.654 369.936ZM935.207 373.344H935.183C934.671 373.84 933.967 374.28 933.071 374.664C932.175 375.048 931.239 375.24 930.263 375.24C928.951 375.24 927.791 374.968 926.783 374.424C925.791 373.864 925.015 373.104 924.455 372.144C923.895 371.168 923.615 370.064 923.615 368.832C923.615 367.424 923.911 366.224 924.503 365.232C925.095 364.224 925.879 363.456 926.855 362.928C927.831 362.384 928.895 362.112 930.047 362.112C931.103 362.112 932.063 362.376 932.927 362.904C933.791 363.416 934.479 364.128 934.991 365.04C935.503 365.952 935.759 367.016 935.759 368.232L935.735 369.288H926.087C926.231 370.424 926.695 371.328 927.479 372C928.279 372.656 929.287 372.984 930.503 372.984C931.383 372.984 932.095 372.824 932.639 372.504C933.183 372.168 933.631 371.848 933.983 371.544L935.207 373.344ZM930.047 364.392C929.103 364.392 928.279 364.616 927.575 365.064C926.871 365.496 926.407 366.248 926.183 367.32H933.239V367.152C933.191 366.608 933.007 366.128 932.687 365.712C932.383 365.296 931.999 364.976 931.535 364.752C931.071 364.512 930.575 364.392 930.047 364.392ZM945.021 362.184C946.141 362.184 947.141 362.464 948.021 363.024C948.917 363.568 949.621 364.328 950.133 365.304C950.645 366.28 950.901 367.408 950.901 368.688C950.901 369.952 950.645 371.08 950.133 372.072C949.621 373.048 948.925 373.816 948.045 374.376C947.165 374.936 946.181 375.216 945.093 375.216C944.197 375.216 943.381 375.024 942.645 374.64C941.925 374.256 941.357 373.816 940.941 373.32V380.28H938.445V362.376H940.941V364.224C941.309 363.696 941.861 363.224 942.597 362.808C943.333 362.392 944.141 362.184 945.021 362.184ZM944.685 364.464C943.933 364.464 943.261 364.648 942.669 365.016C942.093 365.384 941.637 365.888 941.301 366.528C940.981 367.152 940.821 367.872 940.821 368.688C940.821 369.488 940.981 370.208 941.301 370.848C941.637 371.488 942.093 372 942.669 372.384C943.261 372.752 943.933 372.936 944.685 372.936C945.437 372.936 946.101 372.752 946.677 372.384C947.253 372 947.701 371.488 948.021 370.848C948.357 370.208 948.525 369.488 948.525 368.688C948.525 367.872 948.357 367.152 948.021 366.528C947.701 365.888 947.253 365.384 946.677 365.016C946.101 364.648 945.437 364.464 944.685 364.464ZM957.618 375H955.146V364.8H952.53V362.4H955.146V359.184H957.618V362.4H960.546V364.8H957.618V375ZM973.504 373.344H973.48C972.968 373.84 972.264 374.28 971.368 374.664C970.472 375.048 969.536 375.24 968.56 375.24C967.248 375.24 966.088 374.968 965.08 374.424C964.088 373.864 963.312 373.104 962.752 372.144C962.192 371.168 961.912 370.064 961.912 368.832C961.912 367.424 962.208 366.224 962.8 365.232C963.392 364.224 964.176 363.456 965.152 362.928C966.128 362.384 967.192 362.112 968.344 362.112C969.4 362.112 970.36 362.376 971.224 362.904C972.088 363.416 972.776 364.128 973.288 365.04C973.8 365.952 974.056 367.016 974.056 368.232L974.032 369.288H964.384C964.528 370.424 964.992 371.328 965.776 372C966.576 372.656 967.584 372.984 968.8 372.984C969.68 372.984 970.392 372.824 970.936 372.504C971.48 372.168 971.928 371.848 972.28 371.544L973.504 373.344ZM968.344 364.392C967.4 364.392 966.576 364.616 965.872 365.064C965.168 365.496 964.704 366.248 964.48 367.32H971.536V367.152C971.488 366.608 971.304 366.128 970.984 365.712C970.68 365.296 970.296 364.976 969.832 364.752C969.368 364.512 968.872 364.392 968.344 364.392ZM983.15 362.184C984.19 362.184 985.022 362.424 985.646 362.904C986.27 363.368 986.718 364.008 986.99 364.824C987.214 364.424 987.542 364.024 987.974 363.624C988.406 363.208 988.91 362.864 989.486 362.592C990.062 362.32 990.678 362.184 991.334 362.184C992.422 362.184 993.27 362.424 993.878 362.904C994.486 363.368 994.91 364 995.15 364.8C995.406 365.584 995.534 366.464 995.534 367.44V375H993.038V367.584C993.038 366.656 992.862 365.904 992.51 365.328C992.158 364.752 991.494 364.464 990.518 364.464C989.59 364.464 988.822 364.76 988.214 365.352C987.622 365.928 987.326 366.632 987.326 367.464V375H984.83V367.536C984.83 366.64 984.638 365.904 984.254 365.328C983.87 364.752 983.238 364.464 982.358 364.464C981.75 364.464 981.206 364.6 980.726 364.872C980.246 365.144 979.87 365.504 979.598 365.952C979.326 366.384 979.19 366.872 979.19 367.416V375H976.694V362.4H979.19V364.416C979.574 363.84 980.11 363.328 980.798 362.88C981.502 362.416 982.286 362.184 983.15 362.184ZM1005.4 362.136C1006.52 362.136 1007.52 362.416 1008.4 362.976C1009.29 363.52 1010 364.288 1010.51 365.28C1011.02 366.256 1011.28 367.384 1011.28 368.664C1011.28 369.944 1011.02 371.08 1010.51 372.072C1010 373.064 1009.3 373.84 1008.42 374.4C1007.54 374.96 1006.56 375.24 1005.47 375.24C1004.57 375.24 1003.76 375.048 1003.02 374.664C1002.3 374.264 1001.73 373.816 1001.32 373.32V374.928H998.844V357.24H1001.32V364.224C1001.68 363.696 1002.24 363.216 1002.97 362.784C1003.71 362.352 1004.52 362.136 1005.4 362.136ZM1005.06 364.392C1004.31 364.392 1003.64 364.576 1003.04 364.944C1002.47 365.312 1002.01 365.824 1001.68 366.48C1001.36 367.12 1001.2 367.848 1001.2 368.664C1001.2 369.48 1001.36 370.216 1001.68 370.872C1002.01 371.512 1002.47 372.024 1003.04 372.408C1003.64 372.792 1004.31 372.984 1005.06 372.984C1005.81 372.984 1006.48 372.792 1007.05 372.408C1007.63 372.024 1008.08 371.512 1008.4 370.872C1008.73 370.216 1008.9 369.48 1008.9 368.664C1008.9 367.848 1008.73 367.12 1008.4 366.48C1008.08 365.824 1007.63 365.312 1007.05 364.944C1006.48 364.576 1005.81 364.392 1005.06 364.392ZM1024.78 373.344H1024.76C1024.25 373.84 1023.54 374.28 1022.65 374.664C1021.75 375.048 1020.82 375.24 1019.84 375.24C1018.53 375.24 1017.37 374.968 1016.36 374.424C1015.37 373.864 1014.59 373.104 1014.03 372.144C1013.47 371.168 1013.19 370.064 1013.19 368.832C1013.19 367.424 1013.49 366.224 1014.08 365.232C1014.67 364.224 1015.46 363.456 1016.43 362.928C1017.41 362.384 1018.47 362.112 1019.62 362.112C1020.68 362.112 1021.64 362.376 1022.5 362.904C1023.37 363.416 1024.06 364.128 1024.57 365.04C1025.08 365.952 1025.34 367.016 1025.34 368.232L1025.31 369.288H1015.66C1015.81 370.424 1016.27 371.328 1017.06 372C1017.86 372.656 1018.86 372.984 1020.08 372.984C1020.96 372.984 1021.67 372.824 1022.22 372.504C1022.76 372.168 1023.21 371.848 1023.56 371.544L1024.78 373.344ZM1019.62 364.392C1018.68 364.392 1017.86 364.616 1017.15 365.064C1016.45 365.496 1015.98 366.248 1015.76 367.32H1022.82V367.152C1022.77 366.608 1022.58 366.128 1022.26 365.712C1021.96 365.296 1021.58 364.976 1021.11 364.752C1020.65 364.512 1020.15 364.392 1019.62 364.392ZM1035.08 365.064C1034.92 364.984 1034.72 364.92 1034.48 364.872C1034.26 364.808 1034.02 364.776 1033.76 364.776C1033.25 364.776 1032.74 364.912 1032.25 365.184C1031.75 365.44 1031.34 365.816 1031 366.312C1030.68 366.792 1030.52 367.368 1030.52 368.04V375H1028.02V362.4H1030.52V364.776C1030.87 364.008 1031.4 363.376 1032.1 362.88C1032.82 362.384 1033.58 362.136 1034.36 362.136C1034.95 362.136 1035.41 362.216 1035.73 362.376L1035.08 365.064ZM1055.09 372.504V375H1044.93L1044.14 373.032L1049.28 367.248C1049.93 366.512 1050.53 365.776 1051.08 365.04C1051.62 364.304 1051.89 363.552 1051.89 362.784C1051.89 361.984 1051.66 361.384 1051.2 360.984C1050.73 360.568 1050.13 360.36 1049.37 360.36C1049.01 360.36 1048.6 360.472 1048.15 360.696C1047.7 360.92 1047.28 361.272 1046.88 361.752C1046.48 362.232 1046.16 362.864 1045.92 363.648L1043.93 362.4C1044.36 360.912 1045.1 359.8 1046.16 359.064C1047.23 358.328 1048.41 357.96 1049.69 357.96C1050.6 357.96 1051.42 358.152 1052.16 358.536C1052.89 358.904 1053.48 359.432 1053.91 360.12C1054.34 360.808 1054.56 361.632 1054.56 362.592C1054.56 363.696 1054.22 364.792 1053.55 365.88C1052.89 366.952 1052.09 368.016 1051.13 369.072L1047.98 372.504H1055.09ZM1063.12 375.24C1061.78 375.24 1060.64 374.872 1059.71 374.136C1058.8 373.384 1058.11 372.36 1057.65 371.064C1057.19 369.768 1056.95 368.28 1056.95 366.6C1056.95 364.92 1057.19 363.432 1057.65 362.136C1058.11 360.84 1058.8 359.824 1059.71 359.088C1060.64 358.336 1061.78 357.96 1063.12 357.96C1064.48 357.96 1065.62 358.336 1066.53 359.088C1067.44 359.824 1068.13 360.84 1068.59 362.136C1069.07 363.432 1069.31 364.92 1069.31 366.6C1069.31 368.28 1069.07 369.768 1068.59 371.064C1068.13 372.36 1067.44 373.384 1066.53 374.136C1065.62 374.872 1064.48 375.24 1063.12 375.24ZM1063.12 372.888C1064.27 372.888 1065.17 372.344 1065.81 371.256C1066.47 370.168 1066.79 368.616 1066.79 366.6C1066.79 364.584 1066.47 363.032 1065.81 361.944C1065.17 360.856 1064.27 360.312 1063.12 360.312C1061.97 360.312 1061.07 360.856 1060.41 361.944C1059.77 363.032 1059.45 364.584 1059.45 366.6C1059.45 368.616 1059.77 370.168 1060.41 371.256C1061.07 372.344 1061.97 372.888 1063.12 372.888ZM1082.81 372.504V375H1072.66L1071.87 373.032L1077 367.248C1077.66 366.512 1078.26 365.776 1078.8 365.04C1079.35 364.304 1079.62 363.552 1079.62 362.784C1079.62 361.984 1079.39 361.384 1078.92 360.984C1078.46 360.568 1077.85 360.36 1077.1 360.36C1076.73 360.36 1076.32 360.472 1075.88 360.696C1075.43 360.92 1075 361.272 1074.6 361.752C1074.2 362.232 1073.88 362.864 1073.64 363.648L1071.65 362.4C1072.08 360.912 1072.83 359.8 1073.88 359.064C1074.96 358.328 1076.13 357.96 1077.41 357.96C1078.32 357.96 1079.15 358.152 1079.88 358.536C1080.62 358.904 1081.2 359.432 1081.64 360.12C1082.07 360.808 1082.28 361.632 1082.28 362.592C1082.28 363.696 1081.95 364.792 1081.28 365.88C1080.62 366.952 1079.81 368.016 1078.85 369.072L1075.71 372.504H1082.81ZM1094.14 375H1086.12V372.504H1088.78V361.344L1086.36 362.616L1085.66 360.36L1090.15 357.96H1091.4V372.504H1094.14V375Z" fill="white"/>
<path d="M432.188 413.328C432.188 410.832 432.728 408.612 433.808 406.668C434.888 404.7 436.388 403.176 438.308 402.096C440.252 400.992 442.448 400.44 444.896 400.44C447.896 400.44 450.464 401.232 452.6 402.816C454.736 404.4 456.164 406.56 456.884 409.296H450.116C449.612 408.24 448.892 407.436 447.956 406.884C447.044 406.332 446 406.056 444.824 406.056C442.928 406.056 441.392 406.716 440.216 408.036C439.04 409.356 438.452 411.12 438.452 413.328C438.452 415.536 439.04 417.3 440.216 418.62C441.392 419.94 442.928 420.6 444.824 420.6C446 420.6 447.044 420.324 447.956 419.772C448.892 419.22 449.612 418.416 450.116 417.36H456.884C456.164 420.096 454.736 422.256 452.6 423.84C450.464 425.4 447.896 426.18 444.896 426.18C442.448 426.18 440.252 425.64 438.308 424.56C436.388 423.456 434.888 421.932 433.808 419.988C432.728 418.044 432.188 415.824 432.188 413.328ZM469.798 426.288C467.83 426.288 466.054 425.868 464.47 425.028C462.91 424.188 461.674 422.988 460.762 421.428C459.874 419.868 459.43 418.044 459.43 415.956C459.43 413.892 459.886 412.08 460.798 410.52C461.71 408.936 462.958 407.724 464.542 406.884C466.126 406.044 467.902 405.624 469.87 405.624C471.838 405.624 473.614 406.044 475.198 406.884C476.782 407.724 478.03 408.936 478.942 410.52C479.854 412.08 480.31 413.892 480.31 415.956C480.31 418.02 479.842 419.844 478.906 421.428C477.994 422.988 476.734 424.188 475.126 425.028C473.542 425.868 471.766 426.288 469.798 426.288ZM469.798 420.96C470.974 420.96 471.97 420.528 472.786 419.664C473.626 418.8 474.046 417.564 474.046 415.956C474.046 414.348 473.638 413.112 472.822 412.248C472.03 411.384 471.046 410.952 469.87 410.952C468.67 410.952 467.674 411.384 466.882 412.248C466.09 413.088 465.694 414.324 465.694 415.956C465.694 417.564 466.078 418.8 466.846 419.664C467.638 420.528 468.622 420.96 469.798 420.96ZM509.208 405.696C511.704 405.696 513.684 406.452 515.148 407.964C516.636 409.476 517.38 411.576 517.38 414.264V426H511.26V415.092C511.26 413.796 510.912 412.8 510.216 412.104C509.544 411.384 508.608 411.024 507.408 411.024C506.208 411.024 505.26 411.384 504.564 412.104C503.892 412.8 503.556 413.796 503.556 415.092V426H497.436V415.092C497.436 413.796 497.088 412.8 496.392 412.104C495.72 411.384 494.784 411.024 493.584 411.024C492.384 411.024 491.436 411.384 490.74 412.104C490.068 412.8 489.732 413.796 489.732 415.092V426H483.576V405.912H489.732V408.432C490.356 407.592 491.172 406.932 492.18 406.452C493.188 405.948 494.328 405.696 495.6 405.696C497.112 405.696 498.456 406.02 499.632 406.668C500.832 407.316 501.768 408.24 502.44 409.44C503.136 408.336 504.084 407.436 505.284 406.74C506.484 406.044 507.792 405.696 509.208 405.696ZM527.841 408.756C528.441 407.82 529.269 407.064 530.325 406.488C531.381 405.912 532.617 405.624 534.033 405.624C535.689 405.624 537.189 406.044 538.533 406.884C539.877 407.724 540.933 408.924 541.701 410.484C542.493 412.044 542.889 413.856 542.889 415.92C542.889 417.984 542.493 419.808 541.701 421.392C540.933 422.952 539.877 424.164 538.533 425.028C537.189 425.868 535.689 426.288 534.033 426.288C532.641 426.288 531.405 426 530.325 425.424C529.269 424.848 528.441 424.104 527.841 423.192V435.576H521.685V405.912H527.841V408.756ZM536.625 415.92C536.625 414.384 536.193 413.184 535.329 412.32C534.489 411.432 533.445 410.988 532.197 410.988C530.973 410.988 529.929 411.432 529.065 412.32C528.225 413.208 527.805 414.42 527.805 415.956C527.805 417.492 528.225 418.704 529.065 419.592C529.929 420.48 530.973 420.924 532.197 420.924C533.421 420.924 534.465 420.48 535.329 419.592C536.193 418.68 536.625 417.456 536.625 415.92ZM565.055 415.632C565.055 416.208 565.019 416.808 564.947 417.432H551.015C551.111 418.68 551.507 419.64 552.203 420.312C552.923 420.96 553.799 421.284 554.831 421.284C556.367 421.284 557.435 420.636 558.035 419.34H564.587C564.251 420.66 563.639 421.848 562.751 422.904C561.887 423.96 560.795 424.788 559.475 425.388C558.155 425.988 556.679 426.288 555.047 426.288C553.079 426.288 551.327 425.868 549.791 425.028C548.255 424.188 547.055 422.988 546.191 421.428C545.327 419.868 544.895 418.044 544.895 415.956C544.895 413.868 545.315 412.044 546.155 410.484C547.019 408.924 548.219 407.724 549.755 406.884C551.291 406.044 553.055 405.624 555.047 405.624C556.991 405.624 558.719 406.032 560.231 406.848C561.743 407.664 562.919 408.828 563.759 410.34C564.623 411.852 565.055 413.616 565.055 415.632ZM558.755 414.012C558.755 412.956 558.395 412.116 557.675 411.492C556.955 410.868 556.055 410.556 554.975 410.556C553.943 410.556 553.067 410.856 552.347 411.456C551.651 412.056 551.219 412.908 551.051 414.012H558.755ZM579.498 420.78V426H576.366C574.134 426 572.394 425.46 571.146 424.38C569.898 423.276 569.274 421.488 569.274 419.016V411.024H566.826V405.912H569.274V401.016H575.43V405.912H579.462V411.024H575.43V419.088C575.43 419.688 575.574 420.12 575.862 420.384C576.15 420.648 576.63 420.78 577.302 420.78H579.498ZM586.023 403.824C584.943 403.824 584.055 403.512 583.359 402.888C582.687 402.24 582.351 401.448 582.351 400.512C582.351 399.552 582.687 398.76 583.359 398.136C584.055 397.488 584.943 397.164 586.023 397.164C587.079 397.164 587.943 397.488 588.615 398.136C589.311 398.76 589.659 399.552 589.659 400.512C589.659 401.448 589.311 402.24 588.615 402.888C587.943 403.512 587.079 403.824 586.023 403.824ZM589.083 405.912V426H582.927V405.912H589.083ZM604.741 420.78V426H601.609C599.377 426 597.637 425.46 596.389 424.38C595.141 423.276 594.517 421.488 594.517 419.016V411.024H592.069V405.912H594.517V401.016H600.673V405.912H604.705V411.024H600.673V419.088C600.673 419.688 600.817 420.12 601.105 420.384C601.393 420.648 601.873 420.78 602.545 420.78H604.741ZM611.266 403.824C610.186 403.824 609.298 403.512 608.602 402.888C607.93 402.24 607.594 401.448 607.594 400.512C607.594 399.552 607.93 398.76 608.602 398.136C609.298 397.488 610.186 397.164 611.266 397.164C612.322 397.164 613.186 397.488 613.858 398.136C614.554 398.76 614.902 399.552 614.902 400.512C614.902 401.448 614.554 402.24 613.858 402.888C613.186 403.512 612.322 403.824 611.266 403.824ZM614.326 405.912V426H608.17V405.912H614.326ZM627.931 426.288C625.963 426.288 624.187 425.868 622.603 425.028C621.043 424.188 619.807 422.988 618.895 421.428C618.007 419.868 617.563 418.044 617.563 415.956C617.563 413.892 618.019 412.08 618.931 410.52C619.843 408.936 621.091 407.724 622.675 406.884C624.259 406.044 626.035 405.624 628.003 405.624C629.971 405.624 631.747 406.044 633.331 406.884C634.915 407.724 636.163 408.936 637.075 410.52C637.987 412.08 638.443 413.892 638.443 415.956C638.443 418.02 637.975 419.844 637.039 421.428C636.127 422.988 634.867 424.188 633.259 425.028C631.675 425.868 629.899 426.288 627.931 426.288ZM627.931 420.96C629.107 420.96 630.103 420.528 630.919 419.664C631.759 418.8 632.179 417.564 632.179 415.956C632.179 414.348 631.771 413.112 630.955 412.248C630.163 411.384 629.179 410.952 628.003 410.952C626.803 410.952 625.807 411.384 625.015 412.248C624.223 413.088 623.827 414.324 623.827 415.956C623.827 417.564 624.211 418.8 624.979 419.664C625.771 420.528 626.755 420.96 627.931 420.96ZM653.949 405.696C656.301 405.696 658.173 406.464 659.565 408C660.981 409.512 661.689 411.6 661.689 414.264V426H655.569V415.092C655.569 413.748 655.221 412.704 654.525 411.96C653.829 411.216 652.893 410.844 651.717 410.844C650.541 410.844 649.605 411.216 648.909 411.96C648.213 412.704 647.865 413.748 647.865 415.092V426H641.709V405.912H647.865V408.576C648.489 407.688 649.329 406.992 650.385 406.488C651.441 405.96 652.629 405.696 653.949 405.696Z" fill="#16CECC"/>
<path d="M944.686 400.728L938.098 426H930.646L926.614 409.368L922.438 426H914.986L908.578 400.728H915.166L918.802 419.124L923.302 400.728H930.07L934.39 419.124L938.062 400.728H944.686ZM966.71 415.632C966.71 416.208 966.674 416.808 966.602 417.432H952.67C952.766 418.68 953.162 419.64 953.858 420.312C954.578 420.96 955.454 421.284 956.486 421.284C958.022 421.284 959.09 420.636 959.69 419.34H966.242C965.906 420.66 965.294 421.848 964.406 422.904C963.542 423.96 962.45 424.788 961.13 425.388C959.81 425.988 958.334 426.288 956.702 426.288C954.734 426.288 952.982 425.868 951.446 425.028C949.91 424.188 948.71 422.988 947.846 421.428C946.982 419.868 946.55 418.044 946.55 415.956C946.55 413.868 946.97 412.044 947.81 410.484C948.674 408.924 949.874 407.724 951.41 406.884C952.946 406.044 954.71 405.624 956.702 405.624C958.646 405.624 960.374 406.032 961.886 406.848C963.398 407.664 964.574 408.828 965.414 410.34C966.278 411.852 966.71 413.616 966.71 415.632ZM960.41 414.012C960.41 412.956 960.05 412.116 959.33 411.492C958.61 410.868 957.71 410.556 956.63 410.556C955.598 410.556 954.722 410.856 954.002 411.456C953.306 412.056 952.874 412.908 952.706 414.012H960.41ZM976.113 408.756C976.689 407.82 977.517 407.064 978.597 406.488C979.677 405.912 980.913 405.624 982.305 405.624C983.961 405.624 985.461 406.044 986.805 406.884C988.149 407.724 989.205 408.924 989.973 410.484C990.765 412.044 991.161 413.856 991.161 415.92C991.161 417.984 990.765 419.808 989.973 421.392C989.205 422.952 988.149 424.164 986.805 425.028C985.461 425.868 983.961 426.288 982.305 426.288C980.889 426.288 979.653 426.012 978.597 425.46C977.541 424.884 976.713 424.128 976.113 423.192V426H969.957V399.36H976.113V408.756ZM984.897 415.92C984.897 414.384 984.465 413.184 983.601 412.32C982.761 411.432 981.717 410.988 980.469 410.988C979.245 410.988 978.201 411.432 977.337 412.32C976.497 413.208 976.077 414.42 976.077 415.956C976.077 417.492 976.497 418.704 977.337 419.592C978.201 420.48 979.245 420.924 980.469 420.924C981.693 420.924 982.737 420.48 983.601 419.592C984.465 418.68 984.897 417.456 984.897 415.92ZM997.487 403.824C996.407 403.824 995.519 403.512 994.823 402.888C994.151 402.24 993.815 401.448 993.815 400.512C993.815 399.552 994.151 398.76 994.823 398.136C995.519 397.488 996.407 397.164 997.487 397.164C998.543 397.164 999.407 397.488 1000.08 398.136C1000.77 398.76 1001.12 399.552 1001.12 400.512C1001.12 401.448 1000.77 402.24 1000.08 402.888C999.407 403.512 998.543 403.824 997.487 403.824ZM1000.55 405.912V426H994.391V405.912H1000.55ZM1017.25 405.696C1019.6 405.696 1021.47 406.464 1022.86 408C1024.28 409.512 1024.99 411.6 1024.99 414.264V426H1018.87V415.092C1018.87 413.748 1018.52 412.704 1017.82 411.96C1017.13 411.216 1016.19 410.844 1015.02 410.844C1013.84 410.844 1012.9 411.216 1012.21 411.96C1011.51 412.704 1011.16 413.748 1011.16 415.092V426H1005.01V405.912H1011.16V408.576C1011.79 407.688 1012.63 406.992 1013.68 406.488C1014.74 405.96 1015.93 405.696 1017.25 405.696ZM1028.04 415.92C1028.04 413.856 1028.43 412.044 1029.19 410.484C1029.99 408.924 1031.05 407.724 1032.4 406.884C1033.74 406.044 1035.24 405.624 1036.9 405.624C1038.31 405.624 1039.55 405.912 1040.61 406.488C1041.69 407.064 1042.51 407.82 1043.09 408.756V405.912H1049.25V426H1043.09V423.156C1042.49 424.092 1041.65 424.848 1040.57 425.424C1039.51 426 1038.28 426.288 1036.86 426.288C1035.23 426.288 1033.74 425.868 1032.4 425.028C1031.05 424.164 1029.99 422.952 1029.19 421.392C1028.43 419.808 1028.04 417.984 1028.04 415.92ZM1043.09 415.956C1043.09 414.42 1042.66 413.208 1041.79 412.32C1040.95 411.432 1039.92 410.988 1038.7 410.988C1037.47 410.988 1036.43 411.432 1035.57 412.32C1034.73 413.184 1034.31 414.384 1034.31 415.92C1034.31 417.456 1034.73 418.68 1035.57 419.592C1036.43 420.48 1037.47 420.924 1038.7 420.924C1039.92 420.924 1040.95 420.48 1041.79 419.592C1042.66 418.704 1043.09 417.492 1043.09 415.956ZM1059.86 409.26C1060.58 408.156 1061.48 407.292 1062.56 406.668C1063.64 406.02 1064.84 405.696 1066.16 405.696V412.212H1064.46C1062.93 412.212 1061.78 412.548 1061.01 413.22C1060.24 413.868 1059.86 415.02 1059.86 416.676V426H1053.7V405.912H1059.86V409.26Z" fill="#16CECC"/>
<path d="M702.686 7.728L696.098 33H688.646L684.614 16.368L680.438 33H672.986L666.578 7.728H673.166L676.802 26.124L681.302 7.728H688.07L692.39 26.124L696.062 7.728H702.686ZM714.918 33.288C712.95 33.288 711.174 32.868 709.59 32.028C708.03 31.188 706.794 29.988 705.882 28.428C704.994 26.868 704.55 25.044 704.55 22.956C704.55 20.892 705.006 19.08 705.918 17.52C706.83 15.936 708.078 14.724 709.662 13.884C711.246 13.044 713.022 12.624 714.99 12.624C716.958 12.624 718.734 13.044 720.318 13.884C721.902 14.724 723.15 15.936 724.062 17.52C724.974 19.08 725.43 20.892 725.43 22.956C725.43 25.02 724.962 26.844 724.026 28.428C723.114 29.988 721.854 31.188 720.246 32.028C718.662 32.868 716.886 33.288 714.918 33.288ZM714.918 27.96C716.094 27.96 717.09 27.528 717.906 26.664C718.746 25.8 719.166 24.564 719.166 22.956C719.166 21.348 718.758 20.112 717.942 19.248C717.15 18.384 716.166 17.952 714.99 17.952C713.79 17.952 712.794 18.384 712.002 19.248C711.21 20.088 710.814 21.324 710.814 22.956C710.814 24.564 711.198 25.8 711.966 26.664C712.758 27.528 713.742 27.96 714.918 27.96ZM734.851 16.26C735.571 15.156 736.471 14.292 737.551 13.668C738.631 13.02 739.831 12.696 741.151 12.696V19.212H739.459C737.923 19.212 736.771 19.548 736.003 20.22C735.235 20.868 734.851 22.02 734.851 23.676V33H728.695V12.912H734.851V16.26ZM756.37 33L750.25 24.576V33H744.094V6.36H750.25V21.084L756.334 12.912H763.93L755.578 22.992L764.002 33H756.37ZM774.52 33.288C772.768 33.288 771.208 32.988 769.84 32.388C768.472 31.788 767.392 30.972 766.6 29.94C765.808 28.884 765.364 27.708 765.268 26.412H771.352C771.424 27.108 771.748 27.672 772.324 28.104C772.9 28.536 773.608 28.752 774.448 28.752C775.216 28.752 775.804 28.608 776.212 28.32C776.644 28.008 776.86 27.612 776.86 27.132C776.86 26.556 776.56 26.136 775.96 25.872C775.36 25.584 774.388 25.272 773.044 24.936C771.604 24.6 770.404 24.252 769.444 23.892C768.484 23.508 767.656 22.92 766.96 22.128C766.264 21.312 765.916 20.22 765.916 18.852C765.916 17.7 766.228 16.656 766.852 15.72C767.5 14.76 768.436 14.004 769.66 13.452C770.908 12.9 772.384 12.624 774.088 12.624C776.608 12.624 778.588 13.248 780.028 14.496C781.492 15.744 782.332 17.4 782.548 19.464H776.86C776.764 18.768 776.452 18.216 775.924 17.808C775.42 17.4 774.748 17.196 773.908 17.196C773.188 17.196 772.636 17.34 772.252 17.628C771.868 17.892 771.676 18.264 771.676 18.744C771.676 19.32 771.976 19.752 772.576 20.04C773.2 20.328 774.16 20.616 775.456 20.904C776.944 21.288 778.156 21.672 779.092 22.056C780.028 22.416 780.844 23.016 781.54 23.856C782.26 24.672 782.632 25.776 782.656 27.168C782.656 28.344 782.32 29.4 781.648 30.336C781 31.248 780.052 31.968 778.804 32.496C777.58 33.024 776.152 33.288 774.52 33.288ZM798.77 12.696C801.074 12.696 802.922 13.464 804.314 15C805.706 16.512 806.402 18.6 806.402 21.264V33H800.282V22.092C800.282 20.748 799.934 19.704 799.238 18.96C798.542 18.216 797.606 17.844 796.43 17.844C795.254 17.844 794.318 18.216 793.622 18.96C792.926 19.704 792.578 20.748 792.578 22.092V33H786.422V6.36H792.578V15.612C793.202 14.724 794.054 14.016 795.134 13.488C796.214 12.96 797.426 12.696 798.77 12.696ZM819.824 33.288C817.856 33.288 816.08 32.868 814.496 32.028C812.936 31.188 811.7 29.988 810.788 28.428C809.9 26.868 809.456 25.044 809.456 22.956C809.456 20.892 809.912 19.08 810.824 17.52C811.736 15.936 812.984 14.724 814.568 13.884C816.152 13.044 817.928 12.624 819.896 12.624C821.864 12.624 823.64 13.044 825.224 13.884C826.808 14.724 828.056 15.936 828.968 17.52C829.88 19.08 830.336 20.892 830.336 22.956C830.336 25.02 829.868 26.844 828.932 28.428C828.02 29.988 826.76 31.188 825.152 32.028C823.568 32.868 821.792 33.288 819.824 33.288ZM819.824 27.96C821 27.96 821.996 27.528 822.812 26.664C823.652 25.8 824.072 24.564 824.072 22.956C824.072 21.348 823.664 20.112 822.848 19.248C822.056 18.384 821.072 17.952 819.896 17.952C818.696 17.952 817.7 18.384 816.908 19.248C816.116 20.088 815.72 21.324 815.72 22.956C815.72 24.564 816.104 25.8 816.872 26.664C817.664 27.528 818.648 27.96 819.824 27.96ZM839.758 15.756C840.358 14.82 841.186 14.064 842.242 13.488C843.298 12.912 844.534 12.624 845.95 12.624C847.606 12.624 849.106 13.044 850.45 13.884C851.794 14.724 852.85 15.924 853.618 17.484C854.41 19.044 854.806 20.856 854.806 22.92C854.806 24.984 854.41 26.808 853.618 28.392C852.85 29.952 851.794 31.164 850.45 32.028C849.106 32.868 847.606 33.288 845.95 33.288C844.558 33.288 843.322 33 842.242 32.424C841.186 31.848 840.358 31.104 839.758 30.192V42.576H833.602V12.912H839.758V15.756ZM848.542 22.92C848.542 21.384 848.11 20.184 847.246 19.32C846.406 18.432 845.362 17.988 844.114 17.988C842.89 17.988 841.846 18.432 840.982 19.32C840.142 20.208 839.722 21.42 839.722 22.956C839.722 24.492 840.142 25.704 840.982 26.592C841.846 27.48 842.89 27.924 844.114 27.924C845.338 27.924 846.382 27.48 847.246 26.592C848.11 25.68 848.542 24.456 848.542 22.92Z" fill="#16CECC"/>
<g clip-path="url(#clip0)">
<path d="M175.744 225.454C173.972 230.07 168.848 232.976 163.438 233.256C163.699 228.058 166.596 222.741 171.33 220.95L172.286 221.927C169.41 224.783 168.422 227.111 168.266 228.416C169.586 228.257 172.028 227.276 174.797 224.486L175.744 225.454ZM173.614 204.188C170.28 204.169 165.998 205.896 162.803 209.089C161.584 210.306 160.511 211.729 159.683 213.323C162.566 211.142 165.735 210.538 169.333 212.557C170.394 209.756 171.808 206.906 173.614 204.188ZM183.371 237C184.969 236.175 186.39 235.101 187.611 233.88C190.813 230.681 192.527 226.378 192.493 223.039C189.54 224.97 186.634 226.361 184.119 227.344C186.139 230.944 185.552 234.12 183.371 237ZM204.581 192.082C203.779 192.026 202.991 192 202.217 192C184.708 192 175.095 205.924 172.028 216.392L180.33 224.694C191.168 221.216 204.683 211.987 204.683 194.707V194.597C204.679 193.777 204.647 192.939 204.581 192.082ZM193.433 207C191.361 207 189.683 205.322 189.683 203.25C189.683 201.178 191.361 199.5 193.433 199.5C195.504 199.5 197.183 201.178 197.183 203.25C197.183 205.322 195.504 207 193.433 207Z" fill="#00192E"/>
</g>
<g clip-path="url(#clip1)">
<path d="M418.823 225.75C419.756 218.349 429.308 212.256 429.308 193.875H403.058C403.058 212.256 412.629 218.349 413.565 225.75H418.823ZM412.046 204.24L414.784 203.861L415.989 201.375L417.195 203.861L419.933 204.24L417.939 206.154L418.427 208.875L415.989 207.572L413.552 208.875L414.039 206.154L412.046 204.24ZM404.916 211.98C405.452 213.176 406.013 214.288 406.569 215.323C398.948 212.796 394.38 205.322 393.683 197.625H401.327C401.394 198.529 401.477 199.416 401.588 200.259H396.546C397.346 204.011 399.45 209.126 404.916 211.98ZM423.683 232.536V235.125H408.683V232.536C412.322 232.536 413.124 229.849 413.503 227.625H418.877C419.239 229.851 419.936 232.536 423.683 232.536ZM438.683 197.625C437.985 205.322 433.418 212.796 425.796 215.321C426.353 214.286 426.913 213.174 427.449 211.978C432.915 209.126 435.019 204.009 435.819 200.257H430.779C430.89 199.414 430.973 198.529 431.04 197.623H438.683V197.625Z" fill="#00192E"/>
</g>
<path d="M874.576 223.854C871.261 225.068 867.603 223.339 866.392 219.992C865.179 216.645 866.883 212.948 870.192 211.734L876.271 209.509L880.655 221.629L874.576 223.854ZM886.355 229.802C885.536 229.519 884.829 228.996 884.313 228.302L881.247 224.173L875.058 226.44L879.937 232.727C880.484 233.432 881.418 233.702 882.256 233.394L886.411 231.876C886.841 231.718 887.127 231.3 887.126 230.839C887.122 230.378 886.833 229.969 886.396 229.817L886.355 229.802ZM878.686 208.626L883.07 220.746C887.111 219.964 892.589 219.994 899.75 221.498L890.984 197.259C886.342 203.194 882.241 206.642 878.686 208.626ZM898.927 202.809C900.532 203.58 901.844 204.964 902.476 206.779C903.112 208.592 902.952 210.491 902.182 212.096L904.82 213.368C905.917 211.088 906.147 208.388 905.246 205.811C904.344 203.233 902.482 201.266 900.204 200.169L898.927 202.809ZM901.154 198.188C903.941 199.528 906.213 201.934 907.316 205.084C908.418 208.234 908.137 211.536 906.796 214.322L909.502 215.627C911.176 212.145 911.525 208.024 910.151 204.09C908.772 200.158 905.937 197.156 902.459 195.482L901.154 198.188Z" fill="#00192E"/>
<path d="M669.25 195.75V233.25H631.75V195.75H669.25ZM673 192H628V237H673V192ZM665.5 205.125H650.5V207H665.5V205.125ZM665.5 214.5H650.5V216.375H665.5V214.5ZM665.5 223.875H650.5V225.75H665.5V223.875ZM645.783 202.68L644.451 201.375L639.664 206.263L636.779 203.541L635.47 204.872L639.689 208.875L645.783 202.68ZM645.783 212.055L644.451 210.75L639.666 215.638L636.781 212.916L635.472 214.245L639.689 218.25L645.783 212.055ZM645.783 221.43L644.451 220.125L639.666 225.013L636.781 222.291L635.472 223.62L639.689 227.625L645.783 221.43Z" fill="#00192E"/>
<defs>
<clipPath id="clip0">
<rect width="45" height="45" fill="white" transform="translate(159.683 192)"/>
</clipPath>
<clipPath id="clip1">
<rect width="45" height="45" fill="white" transform="translate(393.683 192)"/>
</clipPath>
</defs>
</svg>
