<svg width="104" height="104" viewBox="0 0 104 104" fill="none" xmlns="http://www.w3.org/2000/svg">
<circle cx="52" cy="52" r="52" fill="white"/>
<path d="M37.5764 60.8544C34.2614 62.0676 30.6033 60.3388 29.392 56.9919C28.1789 53.6451 29.8833 49.9476 33.1926 48.7344L39.2714 46.5088L43.6551 58.6288L37.5764 60.8544ZM49.3551 66.8019C48.5358 66.5188 47.8289 65.9957 47.3133 65.3019L44.2476 61.1732L38.0583 63.4401L42.937 69.7269C43.4845 70.4319 44.4183 70.7019 45.2564 70.3944L49.4114 68.8757C49.8408 68.7182 50.1276 68.3001 50.1258 67.8388C50.122 67.3776 49.8333 66.9688 49.3964 66.8169L49.3551 66.8019ZM41.6864 45.6257L46.0701 57.7457C50.1108 56.9638 55.5895 56.9938 62.7501 58.4976L53.9845 34.2594C49.342 40.1938 45.2414 43.6419 41.6864 45.6257ZM61.927 39.8094C63.532 40.5801 64.8445 41.9638 65.4764 43.7788C66.112 45.5919 65.9526 47.4913 65.182 49.0963L67.8201 50.3676C68.917 48.0876 69.1476 45.3876 68.2458 42.8113C67.3439 40.2332 65.482 38.2663 63.2039 37.1694L61.927 39.8094ZM64.1545 35.1876C66.9408 36.5282 69.2133 38.9338 70.3158 42.0838C71.4183 45.2338 71.137 48.5357 69.7964 51.3219L72.502 52.6269C74.1764 49.1451 74.5251 45.0238 73.1508 41.0901C71.7726 37.1582 68.9376 34.1563 65.4595 32.4819L64.1545 35.1876Z" fill="#00192E"/>
</svg>
