<svg width="104" height="104" viewBox="0 0 104 104" fill="none" xmlns="http://www.w3.org/2000/svg">
<circle cx="52" cy="52" r="52" fill="white"/>
<path d="M72.25 32.75V70.25H34.75V32.75H72.25ZM76 29H31V74H76V29ZM68.5 42.125H53.5V44H68.5V42.125ZM68.5 51.5H53.5V53.375H68.5V51.5ZM68.5 60.875H53.5V62.75H68.5V60.875ZM48.7825 39.68L47.4513 38.375L42.6644 43.2631L39.7788 40.5406L38.47 41.8719L42.6888 45.875L48.7825 39.68ZM48.7825 49.055L47.4513 47.75L42.6663 52.6381L39.7806 49.9156L38.4719 51.245L42.6888 55.25L48.7825 49.055ZM48.7825 58.43L47.4513 57.125L42.6663 62.0131L39.7806 59.2906L38.4719 60.62L42.6888 64.625L48.7825 58.43Z" fill="#00192E"/>
</svg>
